<?xml version="1.0" encoding="UTF-8"?>
<!-- Generator: visioncortex VTracer 0.6.2 -->
<svg version="1.1" xmlns="http://www.w3.org/2000/svg" width="1280" height="308">
<path d="M0 0 C12.16875 -0.020625 24.3375 -0.04125 36.875 -0.0625 C42.64266846 -0.07615601 42.64266846 -0.07615601 48.52685547 -0.09008789 C53.21508789 -0.09460449 53.21508789 -0.09460449 55.40847778 -0.09544373 C56.94339284 -0.09698129 58.47830667 -0.10050241 60.01321411 -0.10557556 C62.33549098 -0.11286872 64.65769391 -0.11390688 66.97998047 -0.11352539 C68.2901413 -0.115746 69.60030212 -0.11796661 70.95016479 -0.12025452 C74 -0 74 -0 76 1 C77.71009653 10.3405683 76.81875239 19.633533 75.53125 28.95898438 C75.25041186 30.99701115 74.9907524 33.03689119 74.734375 35.078125 C73.07488861 47.93933798 70.36892766 60.48577725 66.75 72.9375 C66.30092285 74.48328735 66.30092285 74.48328735 65.84277344 76.06030273 C63.30570141 84.51081611 59.97430727 92.139922 56 100 C55.49597656 101.18980469 54.99195313 102.37960938 54.47265625 103.60546875 C53.21168882 106.51204884 51.86324731 109.0724974 50.1875 111.75 C47.35438931 116.33794792 44.84049902 121.04331735 42.39453125 125.84765625 C41 128 41 128 38 129 C36.62665383 131.28891028 35.84749184 133.45752447 35 136 C34.34 136 33.68 136 33 136 C32.72704102 136.59296875 32.45408203 137.1859375 32.17285156 137.796875 C30.27361689 141.36446319 27.50354712 144.06935676 24.75 147 C24.1324585 147.65846924 23.51491699 148.31693848 22.87866211 148.99536133 C18.62925437 153.45339493 14.226903 157.66619998 9.5625 161.6875 C9.00852539 162.16767578 8.45455078 162.64785156 7.88378906 163.14257812 C4.14177247 166.28596174 0.27753255 168.64050696 -4 171 C-5.09423971 171.77652217 -6.17892826 172.56682147 -7.25 173.375 C-14.43195356 178.58951417 -22.40490299 182.37574797 -30.62744141 185.64355469 C-32.86697633 186.54429712 -35.09613337 187.47130585 -37.3137207 188.42480469 C-45.87287562 192.03473232 -54.24852979 194.51859892 -63.35180664 196.33349609 C-65.43662402 196.74982507 -67.51604232 197.18761058 -69.59570312 197.62890625 C-88.21896717 201.50971007 -106.97143153 203.26026917 -126 203 C-127.47680054 200.04639891 -127.13549508 197.40011192 -127.14526367 194.10351562 C-127.14862228 193.39442551 -127.1519809 192.68533539 -127.15544128 191.95475769 C-127.16495897 189.60523743 -127.16689467 187.25578835 -127.16796875 184.90625 C-127.17118031 183.27722138 -127.1745443 181.64819305 -127.17805481 180.01916504 C-127.1840478 176.6027764 -127.18589449 173.18641306 -127.18530273 169.77001953 C-127.185201 165.38484397 -127.1988643 160.99982992 -127.21607494 156.61469269 C-127.22717288 153.25017547 -127.22922264 149.8856976 -127.22869301 146.52116394 C-127.22987604 144.90398094 -127.23431578 143.28679701 -127.24202538 141.66963196 C-127.25178279 139.41179963 -127.24896451 137.15432196 -127.24291992 134.89648438 C-127.24505745 132.96693909 -127.24505745 132.96693909 -127.24723816 130.99841309 C-127 128 -127 128 -125 126 C-122.94204712 125.65905762 -122.94204712 125.65905762 -120.37353516 125.52929688 C-119.41138092 125.47584106 -118.44922668 125.42238525 -117.45791626 125.36730957 C-116.41219452 125.31828491 -115.36647278 125.26926025 -114.2890625 125.21875 C-113.21055023 125.15973511 -112.13203796 125.10072021 -111.02084351 125.03991699 C-107.55596855 124.85106754 -104.09062729 124.67445884 -100.625 124.5 C-97.1951458 124.32466736 -93.76554709 124.14643749 -90.33627319 123.96008301 C-88.20171507 123.84430956 -86.0668059 123.73476974 -83.93154907 123.63269043 C-77.7212961 123.2986035 -71.70659328 122.55917603 -65.58589172 121.45123291 C-62.25867178 120.87063972 -58.9241747 120.56480566 -55.5625 120.25 C-45.38308982 119.1066107 -35.75342485 116.01569776 -26 113 C-24.21620874 112.45942779 -22.43235534 111.91906059 -20.6484375 111.37890625 C-18.95265304 110.85830569 -17.25732059 110.33622993 -15.5625 109.8125 C-14.78801514 109.57499023 -14.01353027 109.33748047 -13.21557617 109.09277344 C-12.12079956 108.74714355 -12.12079956 108.74714355 -11.00390625 108.39453125 C-10.37299072 108.19706299 -9.7420752 107.99959473 -9.09204102 107.79614258 C-6.30745583 106.7364469 -3.66486316 105.33243158 -1 104 C-0.67 69.68 -0.34 35.36 0 0 Z " fill="#4DAEFC" transform="translate(131,1)"/>
<path d="M0 0 C-0.33 25.08 -0.66 50.16 -1 76 C-17.83 76.99 -17.83 76.99 -35 78 C-43.38108629 78.85438258 -51.67683213 79.76815021 -60 81 C-61.0940918 81.15807129 -62.18818359 81.31614258 -63.31542969 81.47900391 C-84.46533778 84.62225756 -105.7850385 89.39251925 -125 99 C-125.33 133.32 -125.66 167.64 -126 203 C-150.75 203 -175.5 203 -201 203 C-202.71546892 199.56906216 -202.47186526 195.7240461 -202.6875 191.9375 C-202.77741211 190.70483398 -202.77741211 190.70483398 -202.86914062 189.44726562 C-203.16334769 184.32483846 -202.77477757 179.92329138 -201.44848633 174.96118164 C-200.86995928 172.76664758 -200.86995928 172.76664758 -201 169.5 C-201 165.14973398 -199.98383003 161.20989473 -199 157 C-198.64929443 155.43693115 -198.64929443 155.43693115 -198.29150391 153.84228516 C-194.88750992 138.7083992 -191.13571938 124.25470159 -185 110 C-184.34975634 108.27248698 -183.70321993 106.54356789 -183.0625 104.8125 C-178.73346708 94.10091853 -172.81534698 84.28723449 -166 75 C-165.38125 74.030625 -164.7625 73.06125 -164.125 72.0625 C-159.35683019 65.19072586 -153.97241611 58.8487833 -148 53 C-147.35417969 52.34257812 -146.70835937 51.68515625 -146.04296875 51.0078125 C-134.29504131 39.08675771 -134.29504131 39.08675771 -128 36 C-126.61162284 35.01865711 -125.23807277 34.01619762 -123.875 33 C-112.15674049 24.74552014 -99.63052533 18.28780257 -86.05639648 13.71679688 C-84.57185247 13.19933027 -83.0984202 12.64959745 -81.63305664 12.08007812 C-74.35220846 9.27959565 -66.9628902 7.39392041 -59.36499023 5.70751953 C-57.30232216 5.24773126 -55.24404706 4.77103106 -53.18554688 4.29296875 C-46.67459987 2.81094399 -40.68230199 1.72909587 -34 2 C-31.72366052 1.70661678 -29.45220432 1.37270563 -27.1875 1 C-19 0 -19 0 0 0 Z M-202 183 C-201 186 -201 186 -201 186 Z " fill="#4C96FD" transform="translate(333,102)"/>
<path d="M0 0 C3.582906 -0.14533755 7.16505417 -0.23407931 10.75 -0.3125 C11.76578125 -0.35439453 12.7815625 -0.39628906 13.828125 -0.43945312 C21.33607183 -0.56293909 21.33607183 -0.56293909 24.59375 2.19921875 C25.92471623 4.85005983 26.93589555 7.27563442 27.75 10.125 C29.48910772 15.70664217 31.62987706 21.01207148 33.9375 26.375 C43 47.53135156 43 47.53135156 43 52 C43.99 52 44.98 52 46 52 C49.95971058 41.66876923 53.89633981 31.33193305 57.6875 20.9375 C60.26868341 13.86959098 63.02900601 6.91439708 66 0 C69.77043032 -0.14496508 73.54014742 -0.23395607 77.3125 -0.3125 C78.9202832 -0.3753418 78.9202832 -0.3753418 80.56054688 -0.43945312 C81.58857422 -0.45556641 82.61660156 -0.47167969 83.67578125 -0.48828125 C84.62364502 -0.51446533 85.57150879 -0.54064941 86.5480957 -0.56762695 C89 0 89 0 90.81884766 2.35522461 C92.21109368 5.47267008 92.23969409 7.47805965 92.0625 10.875 C91.95259643 15.58515298 92.17199548 19.96692423 92.875 24.625 C93.89066411 31.57129021 94.45484522 38.49746673 94.9375 45.5 C95.75013739 57.26986546 96.82589033 68.9979379 98.03491211 80.73242188 C98.22259155 82.58963867 98.22259155 82.58963867 98.4140625 84.484375 C98.5270166 85.57459961 98.6399707 86.66482422 98.75634766 87.78808594 C99.01544831 91.20364524 99.04054382 94.57593964 99 98 C98.40461426 97.99476318 97.80922852 97.98952637 97.19580078 97.98413086 C94.50554453 97.96338001 91.81530511 97.95034593 89.125 97.9375 C87.71927734 97.92493164 87.71927734 97.92493164 86.28515625 97.91210938 C85.38925781 97.90888672 84.49335937 97.90566406 83.5703125 97.90234375 C82.74289551 97.89710693 81.91547852 97.89187012 81.06298828 97.88647461 C78.93588243 97.86647862 78.93588243 97.86647862 77 99 C74.98151124 90.6588015 74.41921013 82.36180769 73.9375 73.8125 C73.78377237 71.17292314 73.62491607 68.53374013 73.46484375 65.89453125 C73.399021 64.73800049 73.33319824 63.58146973 73.26538086 62.38989258 C72.99184656 58.89585046 72.51117623 55.46626666 72 52 C71.93943849 50.35514934 71.91218045 48.70827043 71.9375 47.0625 C71.94652344 46.29035156 71.95554687 45.51820312 71.96484375 44.72265625 C71.97644531 44.15417969 71.98804688 43.58570313 72 43 C71.34 43 70.68 43 70 43 C69.83564453 44.47146484 69.83564453 44.47146484 69.66796875 45.97265625 C69.04442551 50.30916555 67.7377913 54.3060508 66.3125 58.4375 C65.91538818 59.60949951 65.91538818 59.60949951 65.51025391 60.80517578 C63.49564642 66.69668298 61.3429936 72.53138747 59.12158203 78.34765625 C57.17352588 83.46308344 55.42492215 88.62566602 53.76171875 93.83984375 C53 96 53 96 52 97 C49.85605481 97.0991757 47.70873268 97.1297015 45.5625 97.125 C44.38816406 97.12757813 43.21382812 97.13015625 42.00390625 97.1328125 C39 97 39 97 37 96 C36.13378906 94.24438477 36.13378906 94.24438477 35.265625 91.94140625 C34.94166748 91.08893311 34.61770996 90.23645996 34.28393555 89.3581543 C33.94273682 88.43558838 33.60153809 87.51302246 33.25 86.5625 C32.89655518 85.62124268 32.54311035 84.67998535 32.17895508 83.71020508 C29.38074511 76.1912399 26.79654248 68.61191312 24.32421875 60.98046875 C23.41354656 58.1755846 22.40803603 55.42594396 21.34375 52.67578125 C20.15269836 49.41770103 19.68123346 47.40017639 20 44 C19.34 44 18.68 44 18 44 C18.020625 45.27875 18.04125 46.5575 18.0625 47.875 C18.12834193 51.95719935 17.73893134 55.94028043 17.31420898 59.99414062 C16.95306746 63.448977 16.61679922 66.90586679 16.28125 70.36328125 C16.0868897 72.34124082 15.89252517 74.3192 15.69775391 76.29711914 C15.56504794 77.64957312 15.43322329 79.00211384 15.30224609 80.35473633 C15.11010069 82.33698082 14.9144683 84.31888634 14.71875 86.30078125 C14.60466797 87.46778564 14.49058594 88.63479004 14.37304688 89.8371582 C14.04985189 92.57733559 13.54111804 95.29440979 13 98 C5.74 98 -1.52 98 -9 98 C-9.20704389 89.30415648 -8.71592795 80.963908 -7.71142578 72.33300781 C-7.14195212 67.26357562 -6.92983691 62.33498284 -7.0625 57.2331543 C-7 55 -7 55 -6.52954102 53.13378906 C-5.79446211 50.17178371 -5.69976924 47.26829703 -5.52734375 44.22265625 C-5.0448312 36.27639759 -4.34160782 28.36042717 -3.5625 20.4375 C-3.44068359 19.12458984 -3.31886719 17.81167969 -3.19335938 16.45898438 C-3.00676758 14.55922852 -3.00676758 14.55922852 -2.81640625 12.62109375 C-2.65313843 10.92617798 -2.65313843 10.92617798 -2.48657227 9.19702148 C-1.99258978 5.95131117 -1.12908116 3.07701486 0 0 Z M90 15 C91 17 91 17 91 17 Z M91 25 C92 27 92 27 92 27 Z M92 34 C93 38 93 38 93 38 Z " fill="#F3F7F8" transform="translate(849,38)"/>
<path d="M0 0 C2.95558945 3.07895949 2.97409065 4.51260191 3.01046753 8.73001099 C3.03333832 10.0045816 3.05620911 11.27915222 3.07977295 12.59234619 C3.07964678 13.97921776 3.07882663 15.36608941 3.07736206 16.75296021 C3.09302293 18.17737132 3.11072185 19.60176137 3.13037109 21.02612305 C3.16661009 24.00693838 3.18701604 26.98726776 3.19454956 29.96829224 C3.20423264 33.79321124 3.23968986 37.61729744 3.28521538 41.44194221 C3.32798915 45.08721784 3.36010022 48.73255793 3.38986206 52.37796021 C3.39602413 53.0752335 3.4021862 53.77250679 3.408535 54.49090958 C3.42355139 56.45859527 3.43010816 58.42634008 3.43624878 60.39407349 C3.4436055 62.07474411 3.4436055 62.07474411 3.45111084 63.78936768 C3.33517456 66.43264771 3.33517456 66.43264771 2.33517456 68.43264771 C0.16534902 69.49855346 -1.95729847 70.4357936 -4.19998169 71.32327271 C-4.86965469 71.58875916 -5.5393277 71.85424561 -6.22929382 72.1277771 C-13.01620899 74.71777816 -19.90490966 76.34829777 -27.01663208 77.7661438 C-29.10144946 78.18247278 -31.18086776 78.62025829 -33.26052856 79.06155396 C-51.88379261 82.94235777 -70.63625697 84.69291688 -89.66482544 84.43264771 C-91.14162598 81.47904662 -90.80032052 78.83275962 -90.81008911 75.53616333 C-90.81344772 74.82707321 -90.81680634 74.11798309 -90.82026672 73.3874054 C-90.82978441 71.03788514 -90.83172011 68.68843605 -90.83279419 66.33889771 C-90.83600575 64.70986908 -90.83936974 63.08084075 -90.84288025 61.45181274 C-90.84887324 58.0354241 -90.85071993 54.61906077 -90.85012817 51.20266724 C-90.85002644 46.81749168 -90.86368974 42.43247762 -90.88090038 38.04734039 C-90.89199832 34.68282317 -90.89404808 31.3183453 -90.89351845 27.95381165 C-90.89470148 26.33662864 -90.89914122 24.71944472 -90.90685081 23.10227966 C-90.91660823 20.84444734 -90.91378995 18.58696967 -90.90774536 16.32913208 C-90.90988289 14.39958679 -90.90988289 14.39958679 -90.9120636 12.43106079 C-90.66482544 9.43264771 -90.66482544 9.43264771 -88.66482544 7.43264771 C-86.60687256 7.09170532 -86.60687256 7.09170532 -84.0383606 6.96194458 C-82.59512924 6.88176086 -82.59512924 6.88176086 -81.1227417 6.79995728 C-80.07701996 6.75093262 -79.03129822 6.70190796 -77.95388794 6.65139771 C-76.33611954 6.56287537 -76.33611954 6.56287537 -74.68566895 6.4725647 C-71.22079399 6.28371525 -67.75545273 6.10710655 -64.28982544 5.93264771 C-60.85997123 5.75731507 -57.43037253 5.57908519 -54.00109863 5.39273071 C-51.86654051 5.27695727 -49.73163133 5.16741745 -47.59637451 5.06533813 C-41.40231817 4.73212252 -35.40077425 3.99849358 -29.29534912 2.89761353 C-25.00256682 2.13883038 -20.68399802 1.68898763 -16.35305786 1.19973755 C-12.76096132 0.7698404 -9.41991521 0.163962 -5.97732544 -0.94235229 C-2.66482544 -1.56735229 -2.66482544 -1.56735229 0 0 Z " fill="#497EFA" transform="translate(94.66482543945313,119.56735229492188)"/>
<path d="M0 0 C0 34.32 0 68.64 0 104 C-24.75 104 -49.5 104 -75 104 C-76.73796775 100.5240645 -76.47249926 96.58561327 -76.6875 92.75 C-76.74744141 91.90308594 -76.80738281 91.05617188 -76.86914062 90.18359375 C-77.14339283 85.35224666 -77.09639356 81.49329404 -75 77 C-74.01 76.505 -74.01 76.505 -73 76 C-72.22573807 74.17238171 -71.53223463 72.31038889 -70.875 70.4375 C-59.31837877 39.675998 -37.4687778 16.65590668 -7.94921875 1.98046875 C-5.13060629 0.70246434 -3.12495445 0 0 0 Z M-76 84 C-75 87 -75 87 -75 87 Z " fill="#3157E2" transform="translate(207,201)"/>
<path d="M0 0 C9.61385638 -0.02313874 19.22770322 -0.04092293 28.84158134 -0.05181217 C33.3053676 -0.05703764 37.76913484 -0.06412921 42.23291016 -0.07543945 C46.53820102 -0.08628024 50.84347356 -0.09227938 55.14877701 -0.09487724 C56.79386814 -0.09672933 58.43895823 -0.10034584 60.0840416 -0.10573006 C62.38271018 -0.11295628 64.68130241 -0.11399027 66.97998047 -0.11352539 C68.2901413 -0.115746 69.60030212 -0.11796661 70.95016479 -0.12025452 C74 0 74 0 76 1 C77.9928924 10.79668622 76.54355768 19.00407802 73.1875 28.25 C72.77733643 29.41877686 72.36717285 30.58755371 71.94458008 31.79174805 C65.99065895 48.18900706 57.91115227 61.3231308 46 74 C45.07960938 75.02287109 45.07960938 75.02287109 44.140625 76.06640625 C33.02047407 87.92973559 17.77101111 97.52730974 3 104 C2.34 104 1.68 104 1 104 C-0.14695805 101.7060839 -0.12338652 100.43662851 -0.12025452 97.88717651 C-0.12162918 97.02618347 -0.12300385 96.16519043 -0.12442017 95.27810669 C-0.12082489 94.33152191 -0.11722961 93.38493713 -0.11352539 92.40966797 C-0.11367142 91.41451172 -0.11381744 90.41935547 -0.1139679 89.39404297 C-0.11326931 86.09340257 -0.10547944 82.79281808 -0.09765625 79.4921875 C-0.09579188 77.20818106 -0.09436807 74.92417422 -0.09336853 72.64016724 C-0.08954487 66.61988222 -0.07971586 60.59962121 -0.06866455 54.5793457 C-0.05844718 48.43961919 -0.05387021 42.29988881 -0.04882812 36.16015625 C-0.03809348 24.10676027 -0.02101885 12.05338213 0 0 Z " fill="#3157E3" transform="translate(131,1)"/>
<path d="M0 0 C0.72896484 -0.00386719 1.45792969 -0.00773437 2.20898438 -0.01171875 C5.42107736 -0.0058304 7.9946444 0.10238147 11.0625 1.125 C11.0625 34.785 11.0625 68.445 11.0625 103.125 C4.4625 103.125 -2.1375 103.125 -8.9375 103.125 C-9.9275 101.805 -10.9175 100.485 -11.9375 99.125 C-12.39640625 99.47433594 -12.8553125 99.82367188 -13.328125 100.18359375 C-13.94171875 100.63863281 -14.5553125 101.09367187 -15.1875 101.5625 C-15.79078125 102.01496094 -16.3940625 102.46742188 -17.015625 102.93359375 C-22.55580945 106.36805768 -29.67395028 105.53949961 -35.9375 105.125 C-44.36748644 102.63746302 -52.04378688 96.41969112 -56.9375 89.125 C-61.93547342 78.71906316 -61.76625001 70.04630686 -58.1953125 59.24609375 C-55.17686158 51.75621087 -50.00085634 46.06492721 -42.9375 42.125 C-33.66228584 38.63631185 -23.94266019 39.30569081 -14.9375 43.125 C-13.6175 43.785 -12.2975 44.445 -10.9375 45.125 C-10.6075 30.605 -10.2775 16.085 -9.9375 1.125 C-6.79444562 -0.44652719 -3.446226 -0.01818589 0 0 Z M-25.9375 57.125 C-25.9375 57.455 -25.9375 57.785 -25.9375 58.125 C-24.2875 58.125 -22.6375 58.125 -20.9375 58.125 C-20.9375 57.795 -20.9375 57.465 -20.9375 57.125 C-22.5875 57.125 -24.2375 57.125 -25.9375 57.125 Z M-34.6875 63.6875 C-37.62166741 67.48520402 -38.21745573 71.39968667 -37.9375 76.125 C-36.71032621 79.95089474 -35.33953783 81.74306406 -32.4375 84.5 C-27.52934558 86.77878598 -23.25483943 87.17153859 -17.9375 86.125 C-14.45491303 84.1244947 -11.7434266 81.73685319 -9.9375 78.125 C-9.09271784 71.6322457 -9.88067643 67.10105344 -13.453125 61.62109375 C-16.20260445 58.84990788 -19.07866992 59.11827762 -22.875 58.9375 C-28.07991146 59.04352597 -30.81117851 60.07547315 -34.6875 63.6875 Z M-33.9375 103.125 C-33.9375 103.455 -33.9375 103.785 -33.9375 104.125 C-31.2975 104.125 -28.6575 104.125 -25.9375 104.125 C-25.9375 103.795 -25.9375 103.465 -25.9375 103.125 C-28.5775 103.125 -31.2175 103.125 -33.9375 103.125 Z " fill="#F3F7F8" transform="translate(1083.9375,32.875)"/>
<path d="M0 0 C0 0.66 0 1.32 0 2 C0.66 2 1.32 2 2 2 C1.37930147 5.54051508 0.455941 8.72483014 -0.875 12.0625 C-1.20242188 12.89910156 -1.52984375 13.73570313 -1.8671875 14.59765625 C-3.00392999 17.0083343 -4.32870306 18.93236693 -6 21 C-6.54527344 20.80664062 -7.09054687 20.61328125 -7.65234375 20.4140625 C-21.32031851 15.6945225 -31.47081404 14.91625891 -45 21 C-50.6516957 24.26542418 -54.62788428 30.83464869 -56.65625 36.9921875 C-58.04349176 45.09494054 -56.7843562 52.35959401 -54 60 C-53.34 60 -52.68 60 -52 60 C-51.9175 60.61875 -51.835 61.2375 -51.75 61.875 C-51.21329316 64.14006667 -51.21329316 64.14006667 -49.203125 65.0078125 C-48.47609375 65.33523437 -47.7490625 65.66265625 -47 66 C-46.360625 66.33 -45.72125 66.66 -45.0625 67 C-33.89922277 72.41249805 -25.08660757 72.3790766 -13.46875 68.9453125 C-10 68 -10 68 -6 68 C-1.75793553 73.03745156 2 80.35331506 2 87 C-7.1653281 92.00785968 -15.39889419 95.54364645 -26 95 C-26.96678526 95 -27.93314075 95.05184115 -28.8984375 95.10546875 C-43.70317965 95.59584664 -56.68723254 89.38984934 -67.5 79.5 C-77.06958769 70.36636699 -82.92293889 60.11355509 -83.59594727 46.60913086 C-83.7860875 32.39654752 -77.98809824 19.03673903 -68.1875 8.75 C-50.17668062 -8.139391 -21.56277234 -13.20169735 0 0 Z " fill="#F3F7F8" transform="translate(468,43)"/>
<path d="M0 0 C-0.33 25.08 -0.66 50.16 -1 76 C-17.83 76.99 -17.83 76.99 -35 78 C-39.62 78.33 -44.24 78.66 -49 79 C-51.12777616 74.74444767 -51.26912326 72.70241353 -51.31884766 68.02832031 C-51.32889328 67.3352327 -51.3389389 66.64214508 -51.34928894 65.92805481 C-51.38009764 63.64475305 -51.39714934 61.36156842 -51.4140625 59.078125 C-51.43277604 57.49199416 -51.4523496 55.90587325 -51.4727478 54.31976318 C-51.52405546 50.15071472 -51.56368842 45.98163398 -51.60089111 41.81243896 C-51.64093936 37.55586777 -51.69202795 33.29943067 -51.7421875 29.04296875 C-51.83893061 20.69540413 -51.92334048 12.3477731 -52 4 C-49.91410582 3.67324228 -47.82795611 3.34811545 -45.74169922 3.02368164 C-43.99915359 2.751838 -43.99915359 2.751838 -42.22140503 2.47450256 C-38.8568882 1.97892009 -35.51926336 1.64468231 -32.125 1.4375 C-9.18367347 0 -9.18367347 0 0 0 Z " fill="#497EFA" transform="translate(333,102)"/>
<path d="M0 0 C11.80718085 -0.77792553 11.80718085 -0.77792553 15.875 1.875 C16.57625 2.90625 17.2775 3.9375 18 5 C18.82371094 6.10988281 18.82371094 6.10988281 19.6640625 7.2421875 C23.14127571 11.99191278 26.16331716 16.85911181 28.859375 22.08984375 C29.9201826 24.04593124 29.9201826 24.04593124 31.5234375 25.51171875 C33.6477583 27.65289924 34.5506102 30.12978019 35.7421875 32.8671875 C37.41144432 35.69766646 39.65882648 37.71170235 42 40 C42.01981934 38.85934082 42.03963867 37.71868164 42.06005859 36.54345703 C42.13600567 32.32024677 42.22473928 28.09738601 42.31738281 23.87451172 C42.35571777 22.04515471 42.39056263 20.21572115 42.421875 18.38623047 C42.46742805 15.75981241 42.52543731 13.13392341 42.5859375 10.5078125 C42.60326431 9.27649094 42.60326431 9.27649094 42.62094116 8.02029419 C42.77225659 2.22774341 42.77225659 2.22774341 45 0 C47.71484375 -0.265625 47.71484375 -0.265625 50.9375 -0.25 C51.99839844 -0.25515625 53.05929687 -0.2603125 54.15234375 -0.265625 C57 0 57 0 60 2 C60.36749268 4.80859375 60.36749268 4.80859375 60.35644531 8.4375 C60.35951187 9.4279834 60.35951187 9.4279834 60.36264038 10.43847656 C60.36565384 12.62593076 60.34715528 14.81263513 60.328125 17 C60.32506817 18.51692518 60.32319147 20.03385317 60.32244873 21.55078125 C60.31784211 24.73187988 60.30340302 27.91272587 60.28125 31.09375 C60.2529673 35.17622499 60.2420389 39.25850081 60.2375679 43.34106445 C60.23341541 46.4739787 60.22359936 49.60685248 60.21169281 52.73974609 C60.20598588 54.24527664 60.20122858 55.75081109 60.19742584 57.25634766 C60.19056812 59.3584683 60.17693809 61.46042998 60.16113281 63.5625 C60.15430481 64.76003906 60.14747681 65.95757812 60.14044189 67.19140625 C60 70 60 70 59 72 C54.05 72 49.1 72 44 72 C43.67 71.01 43.34 70.02 43 69 C42.01 68.67 41.02 68.34 40 68 C38.3499924 65.63220932 36.84789468 63.28688331 35.375 60.8125 C34.48387136 59.35107534 33.59192782 57.8901473 32.69921875 56.4296875 C32.24981934 55.68944336 31.80041992 54.94919922 31.33740234 54.18652344 C29.33204814 50.90796333 27.26642237 47.66974837 25.1875 44.4375 C24.50042969 43.36371094 23.81335938 42.28992188 23.10546875 41.18359375 C21.56354223 38.85210931 19.99674183 36.5705542 18.3684082 34.30102539 C17.7008123 33.36958458 17.7008123 33.36958458 17.01972961 32.41932678 C16.68321884 31.95094894 16.34670807 31.48257111 16 31 C16.00785522 32.75642822 16.00785522 32.75642822 16.01586914 34.54833984 C16.03393758 38.88313028 16.04543879 43.21791737 16.05493164 47.55273438 C16.05996763 49.43066975 16.06679671 51.3086012 16.07543945 53.18652344 C16.08753713 55.88217132 16.09323557 58.57776747 16.09765625 61.2734375 C16.10281754 62.11619232 16.10797882 62.95894714 16.11329651 63.82723999 C16.11387171 69.77225659 16.11387171 69.77225659 15 72 C12.54101345 72.08076963 10.08466258 72.14037143 7.625 72.1875 C6.92632813 72.21263672 6.22765625 72.23777344 5.5078125 72.26367188 C3.4765625 72.29296875 3.4765625 72.29296875 0 72 C-2.36302709 68.45545936 -2.2529041 66.95753984 -2.25878906 62.75610352 C-2.26509338 61.467892 -2.27139771 60.17968048 -2.27789307 58.85243225 C-2.2743129 57.44458886 -2.27021084 56.03674672 -2.265625 54.62890625 C-2.26697237 53.18545974 -2.2689135 51.74201368 -2.27142334 50.29856873 C-2.27437218 47.27313924 -2.27008537 44.24782786 -2.26074219 41.22241211 C-2.24935791 37.3474895 -2.25590199 33.47284426 -2.26788712 29.59793186 C-2.27512095 26.61677468 -2.27281062 23.63568303 -2.26763153 20.65452385 C-2.26629872 19.22600204 -2.26792986 17.79747425 -2.27259064 16.36895943 C-2.27767946 14.37040447 -2.26854574 12.37182863 -2.25878906 10.37329102 C-2.25719788 9.23650406 -2.25560669 8.0997171 -2.25396729 6.92848206 C-2.00649106 4.074848 -1.48409792 2.41611306 0 0 Z M14 42 C14 51.24 14 60.48 14 70 C14.33 70 14.66 70 15 70 C15 60.76 15 51.52 15 42 C14.67 42 14.34 42 14 42 Z " fill="#487DF7" transform="translate(563,171)"/>
<path d="M0 0 C7.88680457 6.7401415 14.69854806 13.33224748 15.6484375 24.01171875 C15.9472842 33.90814215 14.6900923 40.55604683 8.25 48.1875 C1.35338642 55.39759602 -6.4051216 59.44929344 -16.45703125 60.23828125 C-30.47748809 60.27955836 -40.41146287 57.93848718 -50.73828125 47.87890625 C-56.8893409 41.1420314 -58.50330567 34.99155825 -58.625 25.9375 C-57.9559221 17.51207453 -54.76685462 11.70772554 -49.4375 5.3125 C-36.61692444 -5.5137638 -14.58253178 -10.76863886 0 0 Z M-25.625 13.9375 C-27.048125 14.4325 -27.048125 14.4325 -28.5 14.9375 C-32.49507123 17.49434558 -33.52094056 19.83372737 -35.05859375 24.234375 C-35.9554936 28.51475223 -35.50171363 31.99076318 -33.625 35.9375 C-29.71348094 39.84901906 -26.81271563 41.1193571 -21.375 41.3125 C-17.58464728 41.27772612 -15.0749186 41.13451993 -12.0625 38.75 C-8.79493152 34.97972868 -7.84740768 32.58967132 -7.1875 27.6875 C-7.77245103 22.67363399 -9.46881005 18.88477632 -12.625 14.9375 C-15.74545356 13.27947456 -15.74545356 13.27947456 -18.625 12.9375 C-18.625 12.6075 -18.625 12.2775 -18.625 11.9375 C-22.57957848 11.58926193 -22.57957848 11.58926193 -25.625 13.9375 Z M13.375 22.9375 C14.375 24.9375 14.375 24.9375 14.375 24.9375 Z M-25.625 57.9375 C-25.625 58.2675 -25.625 58.5975 -25.625 58.9375 C-22.325 58.9375 -19.025 58.9375 -15.625 58.9375 C-15.625 58.6075 -15.625 58.2775 -15.625 57.9375 C-18.925 57.9375 -22.225 57.9375 -25.625 57.9375 Z " fill="#F3F7F8" transform="translate(787.625,78.0625)"/>
<path d="M0 0 C6.33203341 5.26735523 12.30191001 11.44741371 13.50488281 19.93823242 C13.64462127 22.20546375 13.67541799 24.43968502 13.64453125 26.7109375 C13.63478271 27.50741699 13.62503418 28.30389648 13.61499023 29.12451172 C13.35276655 37.80189328 11.41191681 43.0137287 5.08203125 49.0859375 C-5.72505227 58.02050655 -16.13440063 59.5822304 -29.79296875 58.8359375 C-40.26787829 57.27187567 -48.83116063 50.90229779 -55.38671875 42.78515625 C-60.33216314 35.93022083 -60.80423434 29.04778863 -59.79296875 20.8359375 C-57.14613037 11.87659966 -53.42322281 5.12784188 -45.35546875 0.1484375 C-43.96521484 -0.72361328 -43.96521484 -0.72361328 -42.546875 -1.61328125 C-29.80991844 -8.78572346 -11.96553146 -8.59171261 0 0 Z M-24.79296875 10.8359375 C-24.79296875 11.1659375 -24.79296875 11.4959375 -24.79296875 11.8359375 C-23.14296875 11.8359375 -21.49296875 11.8359375 -19.79296875 11.8359375 C-19.79296875 11.5059375 -19.79296875 11.1759375 -19.79296875 10.8359375 C-21.44296875 10.8359375 -23.09296875 10.8359375 -24.79296875 10.8359375 Z M-34.79296875 17.8359375 C-36.91889425 22.82724085 -37.05769223 26.58247074 -35.79296875 31.8359375 C-33.90972948 35.97906389 -32.04816147 38.15159038 -27.79296875 39.8359375 C-22.69876572 40.46504089 -18.37052339 40.69044626 -13.79296875 38.2109375 C-10.29402356 34.05594009 -8.47259489 30.889409 -8.85546875 25.3984375 C-9.5641098 20.79616431 -11.10650599 17.62859081 -13.79296875 13.8359375 C-21.54356443 11.25240561 -29.47955356 11.26408187 -34.79296875 17.8359375 Z M-27.79296875 56.8359375 C-27.79296875 57.1659375 -27.79296875 57.4959375 -27.79296875 57.8359375 C-24.16296875 57.8359375 -20.53296875 57.8359375 -16.79296875 57.8359375 C-16.79296875 57.5059375 -16.79296875 57.1759375 -16.79296875 56.8359375 C-20.42296875 56.8359375 -24.05296875 56.8359375 -27.79296875 56.8359375 Z " fill="#F3F7F8" transform="translate(1257.79296875,79.1640625)"/>
<path d="M0 0 C8.48444203 8.12951517 8.48444203 8.12951517 8.80775452 13.79460144 C8.80553391 14.60512466 8.80331329 15.41564789 8.80102539 16.25073242 C8.80091209 17.63182442 8.80091209 17.63182442 8.80079651 19.04081726 C8.79563522 20.03152725 8.79047394 21.02223724 8.78515625 22.04296875 C8.7837413 23.05974197 8.78232635 24.0765152 8.78086853 25.12409973 C8.77526707 28.37442964 8.76271432 31.62469088 8.75 34.875 C8.74498519 37.07747296 8.74042225 39.27994701 8.73632812 41.48242188 C8.72614769 46.88416238 8.70657246 52.28575425 8.6875 57.6875 C1.7575 57.6875 -5.1725 57.6875 -12.3125 57.6875 C-13.87024813 54.57200375 -13.49049092 51.24993452 -13.5234375 47.828125 C-13.55151737 46.22134418 -13.5801819 44.61457348 -13.609375 43.0078125 C-13.65054935 40.47559005 -13.68743681 37.94355443 -13.71386719 35.41113281 C-13.74159393 32.96639899 -13.78747555 30.52252427 -13.8359375 28.078125 C-13.83919037 27.32791077 -13.84244324 26.57769653 -13.84579468 25.80474854 C-13.95574737 21.06695719 -14.65280874 17.6447314 -17.3125 13.6875 C-21.94583577 12.39624249 -24.1141749 12.25791176 -28.625 13.875 C-32.35316525 16.38934401 -33.89844624 18.44533872 -35.3125 22.6875 C-35.46596953 25.34356301 -35.56967898 27.97845095 -35.62890625 30.63671875 C-35.64968735 31.40933548 -35.67046844 32.18195221 -35.69187927 32.97798157 C-35.75721038 35.4435648 -35.81618315 37.90925361 -35.875 40.375 C-35.91820087 42.04753691 -35.96181566 43.72006319 -36.00585938 45.39257812 C-36.11365324 49.49077882 -36.21284835 53.58906084 -36.3125 57.6875 C-42.9125 57.6875 -49.5125 57.6875 -56.3125 57.6875 C-57.61498086 55.08253827 -57.43957873 53.17673447 -57.44189453 50.25976562 C-57.44504669 49.12518921 -57.44819885 47.99061279 -57.45144653 46.82165527 C-57.4494223 45.59144653 -57.44739807 44.36123779 -57.4453125 43.09375 C-57.44626923 41.83614868 -57.44722595 40.57854736 -57.44821167 39.28283691 C-57.44889322 36.61967553 -57.44753992 33.95660542 -57.44287109 31.29345703 C-57.4371739 27.87686749 -57.44045387 24.4603565 -57.44644356 21.04376984 C-57.45092226 17.78959372 -57.44778813 14.53542714 -57.4453125 11.28125 C-57.44733673 10.05104126 -57.44936096 8.82083252 -57.45144653 7.55334473 C-57.44829437 6.41876831 -57.44514221 5.28419189 -57.44189453 4.11523438 C-57.44109894 3.11310913 -57.44030334 2.11098389 -57.43948364 1.07849121 C-57.3125 -1.3125 -57.3125 -1.3125 -56.3125 -3.3125 C-53.20864789 -3.42863204 -50.10535338 -3.49972029 -47 -3.5625 C-46.11892578 -3.59601563 -45.23785156 -3.62953125 -44.33007812 -3.6640625 C-37.78373501 -3.76362665 -37.78373501 -3.76362665 -35.20703125 -1.296875 C-34.91183594 -0.64203125 -34.61664062 0.0128125 -34.3125 0.6875 C-33.79300781 0.33816406 -33.27351562 -0.01117188 -32.73828125 -0.37109375 C-22.87635527 -6.80595488 -9.45450536 -8.06878009 0 0 Z M6.6875 13.6875 C7.6875 15.6875 7.6875 15.6875 7.6875 15.6875 Z " fill="#F4F8F9" transform="translate(607.3125,78.3125)"/>
<path d="M0 0 C2.34525085 1.88681705 4.62372071 3.80952608 6.625 6.0625 C6.625 6.7225 6.625 7.3825 6.625 8.0625 C7.615 8.3925 8.605 8.7225 9.625 9.0625 C14.28310726 16.30844463 12.625 21.64497526 12.625 31.0625 C-1.565 31.0625 -15.755 31.0625 -30.375 31.0625 C-28.36646948 38.99141896 -28.36646948 38.99141896 -23.8125 41.125 C-18.98027829 42.48907735 -14.19597974 42.48043522 -9.375 41.0625 C-6.60347788 38.54193955 -6.60347788 38.54193955 -4.375 36.0625 C-0.59658185 36.37210283 2.19438922 37.7372191 5.4375 39.625 C6.22769531 40.08003906 7.01789062 40.53507812 7.83203125 41.00390625 C8.42371094 41.35324219 9.01539063 41.70257813 9.625 42.0625 C9.625 42.7225 9.625 43.3825 9.625 44.0625 C10.615 44.3925 11.605 44.7225 12.625 45.0625 C11.965 45.0625 11.305 45.0625 10.625 45.0625 C10.625 46.0525 10.625 47.0425 10.625 48.0625 C2.09803192 57.0109532 -5.84270099 60.11191718 -17.9375 60.4375 C-31.15472978 60.1054088 -38.73663541 55.05824828 -47.8125 45.6875 C-51.52346853 41.32729642 -52.93394413 37.72910914 -53.375 32.0625 C-53.49488281 30.87333984 -53.49488281 30.87333984 -53.6171875 29.66015625 C-54.09829746 20.70302084 -51.39355707 13.03482266 -45.625 6.1875 C-34.27229183 -5.54293229 -14.00902974 -10.28349542 0 0 Z M-27.375 12.0625 C-28.80057356 14.61971737 -28.80057356 14.61971737 -29.375 17.0625 C-28.38016798 18.27893292 -28.38016798 18.27893292 -26.42553711 18.17602539 C-25.1765564 18.16817017 -25.1765564 18.16817017 -23.90234375 18.16015625 C-22.55366211 18.15532227 -22.55366211 18.15532227 -21.17773438 18.15039062 C-19.75944336 18.13782227 -19.75944336 18.13782227 -18.3125 18.125 C-17.36310547 18.12048828 -16.41371094 18.11597656 -15.43554688 18.11132812 C-13.08196935 18.0995011 -10.72851523 18.08302025 -8.375 18.0625 C-9.60709044 13.33020061 -9.60709044 13.33020061 -13.1875 10.1875 C-18.88496429 8.17663025 -22.24808466 8.75848789 -27.375 12.0625 Z M-28.375 29.0625 C-28.375 29.3925 -28.375 29.7225 -28.375 30.0625 C-26.395 30.0625 -24.415 30.0625 -22.375 30.0625 C-22.375 29.7325 -22.375 29.4025 -22.375 29.0625 C-24.355 29.0625 -26.335 29.0625 -28.375 29.0625 Z M-20.375 29.0625 C-20.375 29.3925 -20.375 29.7225 -20.375 30.0625 C-14.435 30.0625 -8.495 30.0625 -2.375 30.0625 C-2.375 29.7325 -2.375 29.4025 -2.375 29.0625 C-8.315 29.0625 -14.255 29.0625 -20.375 29.0625 Z M-0.375 29.0625 C-0.375 29.3925 -0.375 29.7225 -0.375 30.0625 C3.585 30.0625 7.545 30.0625 11.625 30.0625 C11.625 29.7325 11.625 29.4025 11.625 29.0625 C7.665 29.0625 3.705 29.0625 -0.375 29.0625 Z M-23.375 58.0625 C-23.375 58.3925 -23.375 58.7225 -23.375 59.0625 C-20.075 59.0625 -16.775 59.0625 -13.375 59.0625 C-13.375 58.7325 -13.375 58.4025 -13.375 58.0625 C-16.675 58.0625 -19.975 58.0625 -23.375 58.0625 Z " fill="#F2F6F7" transform="translate(1005.375,77.9375)"/>
<path d="M0 0 C6.15569743 5.91797741 10.94787864 12.24402172 11.921875 20.84765625 C11.921875 23.81765625 11.921875 26.78765625 11.921875 29.84765625 C-2.598125 29.84765625 -17.118125 29.84765625 -32.078125 29.84765625 C-30.84830678 36.47815764 -30.84830678 36.47815764 -28.015625 38.72265625 C-22.72544212 40.74868373 -17.59470884 41.7679972 -12.203125 39.59765625 C-9.13703808 38.09061561 -9.13703808 38.09061561 -7.453125 36.09765625 C-6.999375 35.68515625 -6.545625 35.27265625 -6.078125 34.84765625 C-2.30497019 35.27979535 0.47448196 36.51260657 3.734375 38.41015625 C4.52457031 38.86519531 5.31476562 39.32023437 6.12890625 39.7890625 C6.72058594 40.13839844 7.31226563 40.48773438 7.921875 40.84765625 C7.921875 41.50765625 7.921875 42.16765625 7.921875 42.84765625 C8.581875 42.84765625 9.241875 42.84765625 9.921875 42.84765625 C8.54396149 47.49203532 6.48337716 49.30704417 2.546875 52.03515625 C1.59039063 52.70933594 0.63390625 53.38351563 -0.3515625 54.078125 C-9.23404509 59.84283075 -20.16093712 60.13500387 -30.48046875 58.45703125 C-38.85967473 55.78391032 -47.35179936 48.17892044 -52.078125 40.84765625 C-56.38555381 32.10177418 -56.06215594 23.17677488 -52.9765625 14.08984375 C-49.86837978 6.33290078 -43.0498422 -0.61766529 -35.390625 -4.08984375 C-23.75279095 -7.82273392 -9.81513493 -7.98951983 0 0 Z M-31.078125 12.84765625 C-31.078125 14.16765625 -31.078125 15.48765625 -31.078125 16.84765625 C-24.148125 16.84765625 -17.218125 16.84765625 -10.078125 16.84765625 C-11.37921939 10.89790437 -11.37921939 10.89790437 -14.890625 8.97265625 C-21.32238465 6.70262343 -26.16504556 7.93457681 -31.078125 12.84765625 Z M9.921875 22.84765625 C9.921875 24.82765625 9.921875 26.80765625 9.921875 28.84765625 C10.251875 28.84765625 10.581875 28.84765625 10.921875 28.84765625 C10.921875 26.86765625 10.921875 24.88765625 10.921875 22.84765625 C10.591875 22.84765625 10.261875 22.84765625 9.921875 22.84765625 Z M-31.078125 27.84765625 C-31.078125 28.17765625 -31.078125 28.50765625 -31.078125 28.84765625 C-28.108125 28.84765625 -25.138125 28.84765625 -22.078125 28.84765625 C-22.078125 28.51765625 -22.078125 28.18765625 -22.078125 27.84765625 C-25.048125 27.84765625 -28.018125 27.84765625 -31.078125 27.84765625 Z M-19.078125 27.84765625 C-19.078125 28.17765625 -19.078125 28.50765625 -19.078125 28.84765625 C-14.458125 28.84765625 -9.838125 28.84765625 -5.078125 28.84765625 C-5.078125 28.51765625 -5.078125 28.18765625 -5.078125 27.84765625 C-9.698125 27.84765625 -14.318125 27.84765625 -19.078125 27.84765625 Z M-2.078125 27.84765625 C-2.078125 28.17765625 -2.078125 28.50765625 -2.078125 28.84765625 C1.551875 28.84765625 5.181875 28.84765625 8.921875 28.84765625 C8.921875 28.51765625 8.921875 28.18765625 8.921875 27.84765625 C5.291875 27.84765625 1.661875 27.84765625 -2.078125 27.84765625 Z M-25.078125 56.84765625 C-25.078125 57.17765625 -25.078125 57.50765625 -25.078125 57.84765625 C-21.778125 57.84765625 -18.478125 57.84765625 -15.078125 57.84765625 C-15.078125 57.51765625 -15.078125 57.18765625 -15.078125 56.84765625 C-18.378125 56.84765625 -21.678125 56.84765625 -25.078125 56.84765625 Z " fill="#F2F6F7" transform="translate(529.078125,79.15234375)"/>
<path d="M0 0 C2.93677343 3.08146642 2.95928327 4.52443298 2.99557495 8.73196411 C3.01844574 10.00653473 3.04131653 11.28110535 3.06488037 12.59429932 C3.0647542 13.98117088 3.06393405 15.36804253 3.06246948 16.75491333 C3.07813035 18.17932445 3.09582927 19.60371449 3.11547852 21.02807617 C3.15171751 24.00889151 3.17212346 26.98922089 3.17965698 29.97024536 C3.18934006 33.79516436 3.22479728 37.61925056 3.2703228 41.44389534 C3.31309657 45.08917097 3.34520764 48.73451106 3.37496948 52.37991333 C3.38421259 53.42582327 3.38421259 53.42582327 3.39364243 54.4928627 C3.40865881 56.46054839 3.41521558 58.4282932 3.4213562 60.39602661 C3.42871292 62.07669724 3.42871292 62.07669724 3.43621826 63.7913208 C3.32028198 66.43460083 3.32028198 66.43460083 2.32028198 68.43460083 C-6.13742128 72.75855407 -15.15184246 75.24734562 -24.36721802 77.37210083 C-25.32329956 77.59551147 -26.2793811 77.81892212 -27.26443481 78.04910278 C-28.16847046 78.24721558 -29.0725061 78.44532837 -30.00393677 78.64944458 C-30.809198 78.82596558 -31.61445923 79.00248657 -32.44412231 79.18435669 C-34.80954213 79.44913285 -36.42885526 79.1582878 -38.67971802 78.43460083 C-38.34971802 77.44460083 -38.01971802 76.45460083 -37.67971802 75.43460083 C-37.44031169 72.84546572 -37.25362985 70.27951314 -37.11721802 67.68460083 C-37.05461792 66.50063721 -37.05461792 66.50063721 -36.99075317 65.29275513 C-36.3035067 50.82551555 -36.51990451 36.34100574 -37.05471802 21.87210083 C-37.08549438 20.91473022 -37.11627075 19.95735962 -37.14797974 18.97097778 C-37.35758389 14.11224909 -37.81265687 9.99599819 -39.67971802 5.43460083 C-36.15766067 3.88287229 -33.04283286 3.07504881 -29.22268677 2.65335083 C-28.1920813 2.53346802 -27.16147583 2.41358521 -26.09963989 2.29006958 C-25.03294067 2.17276489 -23.96624146 2.05546021 -22.86721802 1.93460083 C-20.75599497 1.69987719 -18.64529579 1.46038683 -16.53518677 1.21585083 C-15.53020142 1.09983521 -14.52521606 0.98381958 -13.48977661 0.86428833 C-10.94599374 0.47531719 -8.6752018 -0.12886392 -6.23049927 -0.90914917 C-2.67971802 -1.56539917 -2.67971802 -1.56539917 0 0 Z " fill="#4C96FD" transform="translate(94.67971801757813,119.56539916992188)"/>
<path d="M0 0 C0.99 0 1.98 0 3 0 C5.20637312 9.87374073 5.34037411 19.60428119 5.31567383 29.66552734 C5.31248162 32.39069496 5.33616417 35.1148071 5.36132812 37.83984375 C5.36359869 39.58854031 5.36430574 41.33723976 5.36328125 43.0859375 C5.372491 43.89227631 5.38170074 44.69861511 5.39118958 45.52938843 C5.35119594 50.41973435 4.67816369 53.74899851 2 58 C0.08203125 59.4765625 0.08203125 59.4765625 -2.1875 60.625 C-30.78618317 76.65696253 -46.90596372 99.74353743 -58 130 C-61.06537308 125.21035456 -60.31573546 120.49558901 -59.18359375 115.1328125 C-58.79059836 113.42152157 -58.39587532 111.71062701 -58 110 C-57.76651855 108.95835693 -57.53303711 107.91671387 -57.29248047 106.84350586 C-53.88539861 91.70964858 -50.13605161 77.25547344 -44 63 C-43.34975634 61.27248698 -42.70321993 59.54356789 -42.0625 57.8125 C-37.73346708 47.10091853 -31.81534698 37.28723449 -25 28 C-24.38125 27.030625 -23.7625 26.06125 -23.125 25.0625 C-12.53507565 9.80055021 -12.53507565 9.80055021 -7.625 8.25 C-4.1164069 6.57924138 -2.95736787 4.28558179 -1 1 C-0.67 0.67 -0.34 0.34 0 0 Z " fill="#4DCEFC" transform="translate(192,149)"/>
<path d="M0 0 C0.33 0 0.66 0 1 0 C0.69287928 3.66928434 0.35097949 7.33465737 0 11 C-0.06445312 11.68046387 -0.12890625 12.36092773 -0.1953125 13.06201172 C-2.51070757 37.03599818 -8.09470081 60.43234145 -19 82 C-19.50402344 83.18980469 -20.00804687 84.37960938 -20.52734375 85.60546875 C-21.78831118 88.51204884 -23.13675269 91.0724974 -24.8125 93.75 C-27.64561069 98.33794792 -30.15950098 103.04331735 -32.60546875 107.84765625 C-34 110 -34 110 -37 111 C-38.37334617 113.28891028 -39.15250816 115.45752447 -40 118 C-40.66 118 -41.32 118 -42 118 C-42.26643311 118.58571777 -42.53286621 119.17143555 -42.80737305 119.77490234 C-44.8447288 123.57602012 -47.88458148 126.48987494 -50.8125 129.625 C-51.42931641 130.305625 -52.04613281 130.98625 -52.68164062 131.6875 C-58.34282282 137.77582771 -58.34282282 137.77582771 -63 139 C-63.99055662 135.8093844 -63.97406747 133.34647255 -63.60546875 130.0390625 C-62.82273643 121.74285614 -62.60728191 113.44130415 -62.38745117 105.11474609 C-62.31169705 102.34564902 -62.22129517 99.57724552 -62.13085938 96.80859375 C-62.08243482 95.04689947 -62.03487622 93.28518112 -61.98828125 91.5234375 C-61.94469231 90.28296158 -61.94469231 90.28296158 -61.90022278 89.01742554 C-61.85562263 87.01183715 -61.91831887 85.00442065 -62 83 C-62.66 82.34 -63.32 81.68 -64 81 C-63.35675781 80.68289062 -62.71351563 80.36578125 -62.05078125 80.0390625 C-34.48908128 65.80605909 -13.29195292 41.20042457 -3 12 C-2.64179608 10.67313194 -2.30668166 9.33971461 -2 8 C-1.33333333 5.33333333 -0.66666667 2.66666667 0 0 Z " fill="#4DCEFC" transform="translate(206,19)"/>
<path d="M0 0 C1.26166992 0.00580078 1.26166992 0.00580078 2.54882812 0.01171875 C3.38607422 0.00785156 4.22332031 0.00398438 5.0859375 0 C6.28766602 0.00193359 6.28766602 0.00193359 7.51367188 0.00390625 C8.25093506 0.00503418 8.98819824 0.00616211 9.74780273 0.00732422 C11.61132812 0.13671875 11.61132812 0.13671875 13.61132812 1.13671875 C13.63638428 1.73734131 13.66144043 2.33796387 13.68725586 2.95678711 C13.80288092 5.66283312 13.92575749 8.36850158 14.04882812 11.07421875 C14.08814453 12.01974609 14.12746094 12.96527344 14.16796875 13.93945312 C14.20986328 14.83857422 14.25175781 15.73769531 14.29492188 16.6640625 C14.33157959 17.49671631 14.3682373 18.32937012 14.40600586 19.18725586 C14.40499916 21.14010733 14.40499916 21.14010733 15.61132812 22.13671875 C17.08529552 22.34440104 18.56624073 22.50387892 20.04882812 22.63671875 C24.39215004 23.02712971 24.39215004 23.02712971 26.61132812 24.13671875 C26.61132812 29.08671875 26.61132812 34.03671875 26.61132812 39.13671875 C22.65132812 39.13671875 18.69132813 39.13671875 14.61132812 39.13671875 C14.61132812 47.71671875 14.61132812 56.29671875 14.61132812 65.13671875 C17.58132813 65.46671875 20.55132813 65.79671875 23.61132812 66.13671875 C25.29492188 67.95703125 25.29492188 67.95703125 26.04882812 70.26171875 C26.33113281 71.06738281 26.6134375 71.87304688 26.90429688 72.703125 C27.25427734 73.90775391 27.25427734 73.90775391 27.61132812 75.13671875 C27.83433594 75.84699219 28.05734375 76.55726563 28.28710938 77.2890625 C28.76934565 78.89323622 29.19693902 80.51369477 29.61132812 82.13671875 C22.48817775 86.68762038 15.96032523 86.71969112 7.61132812 86.13671875 C4.11132812 84.88671875 4.11132812 84.88671875 1.61132812 83.13671875 C0.74507812 82.60046875 -0.12117187 82.06421875 -1.01367188 81.51171875 C-7.62111173 74.90427889 -8.42368919 66.10968611 -8.48632812 57.203125 C-8.47973849 55.03513459 -8.46789779 52.86715465 -8.45117188 50.69921875 C-8.44666016 49.58611328 -8.44214844 48.47300781 -8.4375 47.32617188 C-8.4257838 44.59629774 -8.40937886 41.86653701 -8.38867188 39.13671875 C-10.09023438 39.16765625 -10.09023438 39.16765625 -11.82617188 39.19921875 C-15.38867188 39.13671875 -15.38867188 39.13671875 -16.38867188 38.13671875 C-16.4877649 35.8051182 -16.51837692 33.47041933 -16.51367188 31.13671875 C-16.51625 29.85796875 -16.51882813 28.57921875 -16.52148438 27.26171875 C-16.38867188 24.13671875 -16.38867188 24.13671875 -15.38867188 23.13671875 C-13.05569754 23.09578938 -10.72161963 23.09430152 -8.38867188 23.13671875 C-8.40027344 22.38648437 -8.411875 21.63625 -8.42382812 20.86328125 C-8.4819843 14.2667092 -8.49644681 7.66028224 -7.38867188 1.13671875 C-5.44916048 -0.80279265 -2.57660068 0.00415246 0 0 Z M10.61132812 84.13671875 C10.61132812 84.46671875 10.61132812 84.79671875 10.61132812 85.13671875 C13.25132812 85.13671875 15.89132812 85.13671875 18.61132812 85.13671875 C18.61132812 84.80671875 18.61132812 84.47671875 18.61132812 84.13671875 C15.97132813 84.13671875 13.33132813 84.13671875 10.61132812 84.13671875 Z " fill="#F4F8F9" transform="translate(639.388671875,51.86328125)"/>
<path d="M0 0 C2.26849604 3.26100382 2.27135956 6.25148422 2.31884766 10.14550781 C2.33871735 11.38649231 2.35858704 12.62747681 2.37905884 13.90606689 C2.39093424 15.25508445 2.40259715 16.60410389 2.4140625 17.953125 C2.43277907 19.33747506 2.45235285 20.72181378 2.4727478 22.10614014 C2.52402362 25.74252627 2.56367346 29.37894937 2.60089111 33.01550293 C2.64095945 36.72917797 2.69203884 40.44269983 2.7421875 44.15625 C2.83889283 51.43739482 2.92331463 58.71861389 3 66 C1.78183594 66.39832031 0.56367188 66.79664063 -0.69140625 67.20703125 C-2.31515786 67.74202456 -3.93885278 68.27718996 -5.5625 68.8125 C-6.76229492 69.20405273 -6.76229492 69.20405273 -7.98632812 69.60351562 C-12.77696173 71.18735776 -17.39044578 72.94814 -22 75 C-24.14457275 75.8988469 -26.2903367 76.79485908 -28.4375 77.6875 C-29.48808594 78.12449219 -30.53867188 78.56148438 -31.62109375 79.01171875 C-32.40613281 79.33785156 -33.19117188 79.66398437 -34 80 C-33.75660889 79.03525757 -33.75660889 79.03525757 -33.50830078 78.05102539 C-32.84552676 74.07278957 -32.8571452 70.20948388 -32.8671875 66.18359375 C-32.86575241 64.90513329 -32.86575241 64.90513329 -32.86428833 63.60084534 C-32.8636091 61.79794236 -32.86544547 59.99503692 -32.86962891 58.19213867 C-32.87493442 55.4711334 -32.86969928 52.75029672 -32.86328125 50.02929688 C-32.86016615 40.97276411 -32.98664438 32.01286337 -34 23 C-34.99 22.67 -35.98 22.34 -37 22 C-35.58829091 20.70291686 -34.17041804 19.41254022 -32.75 18.125 C-31.96109375 17.40570313 -31.1721875 16.68640625 -30.359375 15.9453125 C-28.24592403 14.20276518 -26.44741288 13.16360298 -24 12 C-22.4642861 10.93786632 -20.94458378 9.85238089 -19.4375 8.75 C-4.78794006 -1.59598002 -4.78794006 -1.59598002 0 0 Z M-41 26 C-40.34 26.66 -39.68 27.32 -39 28 C-40.65 29.32 -42.3 30.64 -44 32 C-44 29 -44 29 -42.5 27.3125 C-41.7575 26.6628125 -41.7575 26.6628125 -41 26 Z " fill="#4DAEFC" transform="translate(229,126)"/>
<path d="M0 0 C1.1859375 0.00257813 2.371875 0.00515625 3.59375 0.0078125 C4.7796875 0.00523437 5.965625 0.00265625 7.1875 0 C10.09375 0.1328125 10.09375 0.1328125 11.09375 1.1328125 C11.25248955 3.34969244 11.34508837 5.57136548 11.41015625 7.79296875 C11.43093735 8.45743515 11.45171844 9.12190155 11.47312927 9.8065033 C11.53868658 11.93599793 11.59753785 14.06561918 11.65625 16.1953125 C11.69942939 17.63608097 11.74304349 19.07683649 11.78710938 20.51757812 C11.89437393 24.0558529 11.99562371 27.59427119 12.09375 31.1328125 C13.02445313 30.81570312 13.95515625 30.49859375 14.9140625 30.171875 C21.49616315 28.02096742 28.75516062 26.49758505 35.15625 29.6328125 C42.68549617 36.04068158 47.40701486 42.05030125 48.53125 52.0078125 C48.24462712 58.92770769 45.04769409 66.32457265 40.09375 71.1328125 C34.31657637 74.50283045 29.77375472 75.57814615 23.09375 75.1328125 C18.91055127 73.92867679 14.92052482 72.20564886 11.09375 70.1328125 C11.09375 71.4528125 11.09375 72.7728125 11.09375 74.1328125 C6.14375 74.1328125 1.19375 74.1328125 -3.90625 74.1328125 C-3.92880226 64.63206614 -3.9471658 55.13133743 -3.95806217 45.63057041 C-3.96329069 41.21944246 -3.97038777 36.8083337 -3.98168945 32.3972168 C-3.99251944 28.14380135 -3.99852707 23.89040441 -4.00112724 19.63697624 C-4.00298129 18.01059617 -4.00660152 16.38421716 -4.01198006 14.75784492 C-4.01919198 12.48771057 -4.02024088 10.21765365 -4.01977539 7.94750977 C-4.021996 6.65289322 -4.02421661 5.35827667 -4.02650452 4.02442932 C-3.86648763 0.17669433 -3.86648763 0.17669433 0 0 Z M13.09375 46.1328125 C11.47667042 49.36697166 11.52552624 52.63656515 12.09375 56.1328125 C13.8636323 59.3194628 13.8636323 59.3194628 17.09375 61.1328125 C20.22040982 61.76148253 22.96934496 61.78105355 26.09375 61.1328125 C28.59535818 59.25660637 29.71320652 57.89389947 31.09375 55.1328125 C31.53333491 50.29737852 30.67616348 47.24554508 28.09375 43.1328125 C21.88914978 41.06461243 17.77463713 41.45192537 13.09375 46.1328125 Z " fill="#497EF9" transform="translate(691.90625,168.8671875)"/>
<path d="M0 0 C0 0.66 0 1.32 0 2 C0.66 2 1.32 2 2 2 C0.53967505 7.31027254 -1.98320986 11.46330032 -5 16 C-5.86882812 15.90460938 -6.73765625 15.80921875 -7.6328125 15.7109375 C-8.78523438 15.60007812 -9.93765625 15.48921875 -11.125 15.375 C-12.26195312 15.25898437 -13.39890625 15.14296875 -14.5703125 15.0234375 C-18.20217286 14.99861841 -20.6710797 15.58787783 -24 17 C-26.9317677 20.03647368 -28.99515352 23.61553212 -29.00390625 27.921875 C-28.5025833 33.36480986 -27.14170343 37.11789699 -22.9375 40.8125 C-17.5285805 42.99908448 -11.5612259 42.59259125 -6 41 C0.51936219 50.22551253 0.51936219 50.22551253 2 56 C0.77493102 56.65357278 -0.45529516 57.29748233 -1.6875 57.9375 C-2.71423828 58.47697266 -2.71423828 58.47697266 -3.76171875 59.02734375 C-11.34525325 62.32280639 -21.46859992 62.40666685 -29.296875 59.9765625 C-38.5201287 55.65166893 -48.1998904 48.74810722 -52 39 C-53.71310754 29.93212248 -53.53471953 20.93222402 -48.8125 12.8125 C-42.99800372 4.42880769 -36.00301375 -1.0629962 -26.0625 -3.8125 C-7.42990654 -4.95327103 -7.42990654 -4.95327103 0 0 Z M-22 59 C-22 59.33 -22 59.66 -22 60 C-19.03 60 -16.06 60 -13 60 C-13 59.67 -13 59.34 -13 59 C-15.97 59 -18.94 59 -22 59 Z " fill="#F2F6F7" transform="translate(1193,77)"/>
<path d="M0 0 C1.29550781 -0.03673828 1.29550781 -0.03673828 2.6171875 -0.07421875 C3.4525 -0.07808594 4.2878125 -0.08195312 5.1484375 -0.0859375 C6.2919165 -0.09826416 6.2919165 -0.09826416 7.45849609 -0.11083984 C10.57940647 0.58902624 11.653671 1.87604676 13.625 4.375 C14.10601807 7.51348877 14.10601807 7.51348877 14.07910156 11.25488281 C14.07968567 11.93821686 14.08026978 12.6215509 14.08087158 13.32559204 C14.078092 15.57695899 14.04700908 17.82699032 14.015625 20.078125 C14.00816209 21.641818 14.00246939 23.20552037 13.99847412 24.76922607 C13.98322154 28.87941433 13.9439436 32.98903471 13.8996582 37.09899902 C13.85869701 41.29508787 13.84046133 45.49126873 13.8203125 49.6875 C13.77744842 57.9169269 13.70920233 66.14589275 13.625 74.375 C12.635 74.375 11.645 74.375 10.625 74.375 C10.625 75.035 10.625 75.695 10.625 76.375 C3.65720597 77.70219886 -3.30488911 77.46325381 -10.375 77.375 C-11.85180054 74.42139891 -11.51049508 71.77511192 -11.52026367 68.47851562 C-11.52362228 67.76942551 -11.5269809 67.06033539 -11.53044128 66.32975769 C-11.53995897 63.98023743 -11.54189467 61.63078835 -11.54296875 59.28125 C-11.54618031 57.65222138 -11.5495443 56.02319305 -11.55305481 54.39416504 C-11.5590478 50.9777764 -11.56089449 47.56141306 -11.56030273 44.14501953 C-11.560201 39.75984397 -11.5738643 35.37482992 -11.59107494 30.98969269 C-11.60217288 27.62517547 -11.60422264 24.2606976 -11.60369301 20.89616394 C-11.60487604 19.27898094 -11.60931578 17.66179701 -11.61702538 16.04463196 C-11.62678279 13.78679963 -11.62396451 11.52932196 -11.61791992 9.27148438 C-11.62005745 7.34193909 -11.62005745 7.34193909 -11.62223816 5.37341309 C-11.06088996 -1.43441056 -5.38356746 0.00796386 0 0 Z " fill="#4F73FC" transform="translate(15.375,126.625)"/>
<path d="M0 0 C0.66 0.66 1.32 1.32 2 2 C1.69340512 6.60544645 0.21214433 9.90647159 -2.0625 13.875 C-2.61035156 14.84179688 -3.15820312 15.80859375 -3.72265625 16.8046875 C-4.14417969 17.52914062 -4.56570313 18.25359375 -5 19 C-5.969375 18.835 -6.93875 18.67 -7.9375 18.5 C-13.36246568 17.75172887 -18.60707557 17.21969856 -23.875 18.9375 C-30.75598837 25.61610636 -29.54623023 37.15843895 -29.6875 46.0625 C-29.72073621 47.51500355 -29.75523151 48.96747886 -29.79101562 50.41992188 C-29.87519179 53.94640739 -29.94233651 57.47296962 -30 61 C-33.2902379 61.25422542 -36.58188225 61.47409878 -39.875 61.6875 C-40.81214844 61.76033203 -41.74929688 61.83316406 -42.71484375 61.90820312 C-43.61074219 61.96298828 -44.50664063 62.01777344 -45.4296875 62.07421875 C-46.25710449 62.13182373 -47.08452148 62.18942871 -47.93701172 62.2487793 C-48.61779785 62.16668213 -49.29858398 62.08458496 -50 62 C-52.26373511 58.60439733 -52.24859216 57.43882503 -52.24291992 53.45874023 C-52.24753487 51.75698891 -52.24753487 51.75698891 -52.25224304 50.02085876 C-52.24505753 48.79581131 -52.23787201 47.57076385 -52.23046875 46.30859375 C-52.23001053 45.05240738 -52.22955231 43.79622101 -52.2290802 42.50196838 C-52.226057 39.8446808 -52.21923925 37.18773949 -52.20581055 34.53051758 C-52.18880359 31.12179405 -52.1849968 27.71321865 -52.18575573 24.30445766 C-52.18541875 21.05582167 -52.17658288 17.80721683 -52.16796875 14.55859375 C-52.16685593 13.33152206 -52.1657431 12.10445038 -52.16459656 10.8401947 C-52.15821671 9.70884598 -52.15183685 8.57749725 -52.14526367 7.41186523 C-52.13954597 5.91320168 -52.13954597 5.91320168 -52.13371277 4.38426208 C-52 2 -52 2 -51 0 C-44.4 0 -37.8 0 -31 0 C-30.01 1.98 -29.02 3.96 -28 6 C-27.57589844 5.59007813 -27.15179687 5.18015625 -26.71484375 4.7578125 C-19.00829636 -2.32204861 -9.82477983 -4.21061993 0 0 Z " fill="#F3F7F8" transform="translate(726,75)"/>
<path d="M0 0 C0.66 -0.66 1.32 -1.32 2 -2 C4.75 -2.265625 4.75 -2.265625 8 -2.25 C9.0725 -2.25515625 10.145 -2.2603125 11.25 -2.265625 C14 -2 14 -2 16 0 C16.24723816 1.82826233 16.24723816 1.82826233 16.24291992 4.06665039 C16.24753487 5.32288963 16.24753487 5.32288963 16.25224304 6.60450745 C16.24505753 7.50974655 16.23787201 8.41498566 16.23046875 9.34765625 C16.23001053 10.27468857 16.22955231 11.20172089 16.2290802 12.15684509 C16.22605654 14.11800414 16.21816685 16.07916075 16.20581055 18.0402832 C16.18755372 21.05363402 16.18530082 24.06667778 16.18554688 27.08007812 C16.18063185 28.98177351 16.17480359 30.8834668 16.16796875 32.78515625 C16.16685593 33.69241959 16.1657431 34.59968292 16.16459656 35.53443909 C16.11604448 41.88395552 16.11604448 41.88395552 15 43 C12.8579034 43.15154969 10.70976538 43.22177745 8.5625 43.25 C7.38816406 43.27578125 6.21382813 43.3015625 5.00390625 43.328125 C4.01261719 43.21984375 3.02132812 43.1115625 2 43 C1.34 42.01 0.68 41.02 0 40 C-0.78375 40.474375 -1.5675 40.94875 -2.375 41.4375 C-9.35620197 44.44663878 -15.8541297 44.80053629 -22.96484375 42.00390625 C-29.40696247 38.82612408 -32.38283167 34.41541774 -35 28 C-37.53363595 20.39909216 -35.24891645 14.05174651 -32 7 C-25.32665788 -4.54179456 -11.0222992 -6.0121632 0 0 Z M-17 14 C-18.4431642 18.02024314 -19.64106012 22.03478291 -18.28515625 26.19140625 C-16.71129103 28.40629865 -15.54649947 29.08196849 -13 30 C-9.92490864 30.51431986 -7.07419284 30.53586848 -4 30 C-1.29449242 27.88838433 -0.25334513 26.46115331 0.3359375 23.0625 C0.55630034 18.58743922 -0.16094753 15.60341275 -3 12 C-7.7550535 9.62247325 -13.24351506 10.3508432 -17 14 Z " fill="#497EF9" transform="translate(471,200)"/>
<path d="M0 0 C0.1535914 9.10950671 0.3017731 18.21908038 0.4429636 27.3287878 C0.50868908 31.55835236 0.57630906 35.78786926 0.64819336 40.01733398 C0.71743964 44.09562245 0.78179482 48.17396094 0.84269524 52.25238228 C0.86685314 53.81180203 0.89280202 55.37119506 0.92053413 56.93055534 C0.95894479 59.10722545 0.99110362 61.28390181 1.02172852 63.46069336 C1.04171402 64.70201523 1.06169952 65.9433371 1.08229065 67.22227478 C1 70 1 70 0 71 C-2.13631403 71.51996517 -4.28478335 71.99027254 -6.4375 72.4375 C-8.32662109 72.83195312 -8.32662109 72.83195312 -10.25390625 73.234375 C-14.83322811 74.1702948 -19.41314473 75.10165277 -24 76 C-24.81827425 72.40076475 -25.14190232 69.04322143 -25.18945312 65.35522461 C-25.21452942 63.69341408 -25.21452942 63.69341408 -25.2401123 61.99803162 C-25.25368774 60.81145462 -25.26726318 59.62487762 -25.28125 58.40234375 C-25.29965942 57.17592667 -25.31806885 55.94950958 -25.33703613 54.68592834 C-25.41563216 49.4416669 -25.48348185 44.19727897 -25.55224609 38.95288086 C-25.60398525 35.12347096 -25.66122411 31.29417037 -25.71875 27.46484375 C-25.73232544 26.27624252 -25.74590088 25.0876413 -25.7598877 23.86302185 C-25.77660522 22.75830032 -25.79332275 21.6535788 -25.81054688 20.51538086 C-25.82307495 19.54451035 -25.83560303 18.57363983 -25.84851074 17.573349 C-25.98587149 15.24000105 -26.34087434 13.23501534 -27 11 C-27.66 11 -28.32 11 -29 11 C-29 10.34 -29 9.68 -29 9 C-24.94724806 7.24808994 -20.88915079 5.5095603 -16.82568359 3.78271484 C-15.21797595 3.09345158 -13.61808477 2.38601669 -12.01953125 1.67578125 C-10.74142578 1.12470703 -10.74142578 1.12470703 -9.4375 0.5625 C-8.69371094 0.23378906 -7.94992188 -0.09492187 -7.18359375 -0.43359375 C-4.49325193 -1.13144628 -2.68091439 -0.60729731 0 0 Z " fill="#4D9EFC" transform="translate(256,115)"/>
<path d="M0 0 C-0.33 25.08 -0.66 50.16 -1 76 C-11.89 76.495 -11.89 76.495 -23 77 C-23.98503381 73.05986475 -24.08621028 70.06917769 -24.02172852 66.02832031 C-24.01212097 65.3352327 -24.00251343 64.64214508 -23.99261475 63.92805481 C-23.95971996 61.64463842 -23.91935174 59.36141908 -23.87890625 57.078125 C-23.85459581 55.49201139 -23.83075272 53.90589056 -23.80735779 52.31976318 C-23.74460874 48.15057121 -23.67551622 43.9815076 -23.60510254 39.81243896 C-23.53433607 35.55600822 -23.46956889 31.29948667 -23.40429688 27.04296875 C-23.27540289 18.69521192 -23.13980733 10.34758116 -23 2 C-23.66 1.67 -24.32 1.34 -25 1 C-16.7734773 -0.37108712 -8.33999734 0 0 0 Z " fill="#4F73FC" transform="translate(333,102)"/>
<path d="M0 0 C1.05445313 0.00515625 2.10890625 0.0103125 3.1953125 0.015625 C4.76925781 0.00789062 4.76925781 0.00789062 6.375 0 C9.3203125 0.265625 9.3203125 0.265625 13.3203125 2.265625 C13.6503125 20.085625 13.9803125 37.905625 14.3203125 56.265625 C20.9203125 56.595625 27.5203125 56.925625 34.3203125 57.265625 C35.3103125 57.760625 35.3103125 57.760625 36.3203125 58.265625 C36.3203125 62.885625 36.3203125 67.505625 36.3203125 72.265625 C23.4503125 72.265625 10.5803125 72.265625 -2.6796875 72.265625 C-2.6796875 71.605625 -2.6796875 70.945625 -2.6796875 70.265625 C-3.3396875 70.265625 -3.9996875 70.265625 -4.6796875 70.265625 C-4.72596989 61.43408512 -4.76153575 52.6025868 -4.78331184 43.77095222 C-4.79376176 39.67033743 -4.80794287 35.56980542 -4.83056641 31.46923828 C-4.8522519 27.51406919 -4.86424702 23.55897989 -4.86944199 19.60375595 C-4.87314549 18.09262714 -4.88037725 16.58150283 -4.89114761 15.07040787 C-4.90560573 12.95846268 -4.90766787 10.84684976 -4.90673828 8.73486328 C-4.9111795 7.53129181 -4.91562073 6.32772034 -4.92019653 5.087677 C-4.59598273 1.28346137 -3.81692412 0.37835399 0 0 Z " fill="#497FF9" transform="translate(394.6796875,170.734375)"/>
<path d="M0 0 C6.3415214 4.74270562 11.40832682 11.15412433 12.625 19.0625 C12.13 21.5375 12.13 21.5375 11.625 24.0625 C1.395 24.0625 -8.835 24.0625 -19.375 24.0625 C-18.98695667 28.91184757 -18.98695667 28.91184757 -16.62890625 30.35546875 C-14.09057984 31.15172019 -11.97203097 31.36296592 -9.3125 31.375 C-8.02666016 31.40013672 -8.02666016 31.40013672 -6.71484375 31.42578125 C-3.91518821 30.99111019 -3.23834373 30.09917803 -1.375 28.0625 C2.022448 28.32384215 4.66594682 29.41858156 7.625 31.0625 C7.625 31.7225 7.625 32.3825 7.625 33.0625 C8.615 33.3925 9.605 33.7225 10.625 34.0625 C6.07723394 40.14284656 2.17418391 43.30920693 -5.39453125 44.5625 C-13.67641557 45.48806565 -19.93138502 45.22129978 -26.8203125 40.32421875 C-32.22178347 35.85193973 -35.66269185 31.90128298 -36.71484375 24.75390625 C-37.15280672 17.90672904 -35.23017232 12.68503091 -31.375 7.0625 C-23.72964054 -1.56349939 -10.70816825 -6.03247685 0 0 Z M-18.375 11.0625 C-18.705 12.0525 -19.035 13.0425 -19.375 14.0625 C-18.23798403 15.42782549 -18.23798403 15.42782549 -15.21484375 15.16015625 C-13.92707031 15.14855469 -12.63929688 15.13695312 -11.3125 15.125 C-10.02214844 15.11597656 -8.73179687 15.10695312 -7.40234375 15.09765625 C-6.40332031 15.08605469 -5.40429688 15.07445312 -4.375 15.0625 C-5.62476756 11.40933329 -6.04598753 10.28184164 -9.375 8.0625 C-13.12866417 8.0625 -15.16215662 9.17670063 -18.375 11.0625 Z " fill="#497EF9" transform="translate(779.375,198.9375)"/>
<path d="M0 0 C0.76699219 -0.00515625 1.53398438 -0.0103125 2.32421875 -0.015625 C4.3125 0.25 4.3125 0.25 6.3125 2.25 C6.59960938 4.70849609 6.59960938 4.70849609 6.65625 7.7734375 C6.68589844 8.876875 6.71554687 9.9803125 6.74609375 11.1171875 C6.76800781 12.27476562 6.78992188 13.43234375 6.8125 14.625 C6.85593056 16.90382718 6.90767341 19.18251498 6.96875 21.4609375 C6.99678711 22.98146729 6.99678711 22.98146729 7.02539062 24.53271484 C7.31593864 27.28254429 7.81525814 28.94252505 9.3125 31.25 C11.54140995 32.36445498 12.84305106 32.41480286 15.3125 32.4375 C16.01375 32.45167969 16.715 32.46585938 17.4375 32.48046875 C19.55774938 32.41512323 19.55774938 32.41512323 21.3125 30.25 C22.26565153 26.68077624 22.49109736 23.19318484 22.62890625 19.51171875 C22.69174805 17.91166992 22.69174805 17.91166992 22.75585938 16.27929688 C22.79517578 15.17650391 22.83449219 14.07371094 22.875 12.9375 C22.93977539 11.25430664 22.93977539 11.25430664 23.00585938 9.53710938 C23.11164787 6.77485431 23.21373672 4.0125137 23.3125 1.25 C26.07702033 -0.13226016 28.3586363 0.15474613 31.4375 0.1875 C32.53320312 0.19652344 33.62890625 0.20554688 34.7578125 0.21484375 C36.02238281 0.23224609 36.02238281 0.23224609 37.3125 0.25 C39.54004974 4.70509948 38.58108854 10.73560199 38.60766602 15.68823242 C38.62480297 17.91193377 38.66867649 20.13411801 38.71289062 22.35742188 C38.72302486 23.78384328 38.73153868 25.21027729 38.73828125 26.63671875 C38.75286377 27.92795654 38.76744629 29.21919434 38.7824707 30.54956055 C38.12334354 35.73937377 36.25254397 39.59525662 32.1875 43.0625 C22.13945355 47.21278005 10.66921776 47.46042816 0.3125 44.25 C-4.64299223 41.51593532 -7.21308149 38.20683786 -9.11181641 32.82275391 C-10.36433008 27.22521826 -9.98801354 21.45283691 -9.875 15.75 C-9.86146484 14.450625 -9.84792969 13.15125 -9.83398438 11.8125 C-9.79882334 8.62456588 -9.74960664 5.43750401 -9.6875 2.25 C-6.29168348 0.82946319 -3.69793206 -0.02511329 0 0 Z " fill="#497EFA" transform="translate(640.6875,197.75)"/>
<path d="M0 0 C3.12498063 -0.02895976 6.2499269 -0.04678483 9.375 -0.0625 C10.70917969 -0.07506836 10.70917969 -0.07506836 12.0703125 -0.08789062 C13.34648438 -0.09272461 13.34648438 -0.09272461 14.6484375 -0.09765625 C15.43395996 -0.10289307 16.21948242 -0.10812988 17.02880859 -0.11352539 C19 0 19 0 21 1 C21 20.8 21 40.6 21 61 C14.4 61 7.8 61 1 61 C-0.32953792 58.34092416 -0.11986031 56.33434632 -0.11352539 53.35693359 C-0.11344986 52.17586029 -0.11337433 50.99478699 -0.11329651 49.77792358 C-0.10813522 48.49769318 -0.10297394 47.21746277 -0.09765625 45.8984375 C-0.0962413 44.59170074 -0.09482635 43.28496399 -0.09336853 41.93862915 C-0.08954894 38.46323742 -0.07972342 34.98788743 -0.06866455 31.51251221 C-0.05843843 27.96668055 -0.05386833 24.42084215 -0.04882812 20.875 C-0.03810066 13.91664951 -0.02103092 6.95832676 0 0 Z " fill="#F5F9FA" transform="translate(1109,75)"/>
<path d="M0 0 C0 0.66 0 1.32 0 2 C0.66 2 1.32 2 2 2 C0.8905928 5.48670834 -0.26337666 8.77484237 -2 12 C-3.175625 11.67 -4.35125 11.34 -5.5625 11 C-9.5011676 10.0030467 -12.95139129 9.83130797 -17 10 C-17 10.99 -17 11.98 -17 13 C-16.05640625 13.20302734 -16.05640625 13.20302734 -15.09375 13.41015625 C-7.07588573 15.42669741 -1.61205077 19.08192385 3 26 C3.30971291 30.80055014 3.48363881 34.74233346 1 39 C-3.91310745 44.37371127 -10.65347098 44.76515586 -17.5625 45.25 C-29.02083333 44.41666667 -29.02083333 44.41666667 -33.0625 40.375 C-33.701875 39.59125 -34.34125 38.8075 -35 38 C-33.35 35.03 -31.7 32.06 -30 29 C-25 30 -25 30 -23.0625 31.0625 C-20.31378018 32.3119181 -17.98134247 32.13551557 -15 32 C-15.13791333 30.06540473 -15.13791333 30.06540473 -16 28 C-18.1327481 26.56531108 -18.1327481 26.56531108 -20.75 25.5 C-25.94335846 23.08137877 -29.77029243 20.84456135 -33 16 C-32.80937202 10.18584649 -31.96810648 6.47683809 -28 2 C-20.78706378 -3.98599346 -8.15781082 -3.89952716 0 0 Z " fill="#487DF7" transform="translate(529,199)"/>
<path d="M0 0 C0.66 0.66 1.32 1.32 2 2 C1.66898318 5.80669345 0.76838944 8.65165606 -1 12 C-1.91523437 11.855625 -2.83046875 11.71125 -3.7734375 11.5625 C-4.96195313 11.376875 -6.15046875 11.19125 -7.375 11 C-8.55835938 10.814375 -9.74171875 10.62875 -10.9609375 10.4375 C-13.81820008 9.95250335 -13.81820008 9.95250335 -16 10 C-16 10.99 -16 11.98 -16 13 C-15.35933594 13.14695313 -14.71867188 13.29390625 -14.05859375 13.4453125 C-6.32367046 15.45108993 -1.72323773 18.36901636 3.0625 24.75 C4.44406719 29.53943294 3.674502 33.35635788 2 38 C-0.72905299 42.09357949 -3.22341291 43.27331565 -7.875 44.3125 C-15.29300143 45.46130553 -22.85785222 45.60591879 -30 43 C-32.20841146 41.14651181 -33.40372117 39.44762754 -35 37 C-34.38125 36.236875 -33.7625 35.47375 -33.125 34.6875 C-30.94402948 32.00374191 -30.94402948 32.00374191 -29 29 C-26.86608974 29.45726648 -25.10639437 29.94129966 -23.1875 31 C-20.19737502 32.36691428 -17.24675551 32.62537436 -14 33 C-14.05112509 30.58316968 -14.05112509 30.58316968 -15 28 C-17.57695467 26.29751788 -17.57695467 26.29751788 -20.75 25.0625 C-25.9465734 22.64361881 -29.09570195 20.97879665 -32 16 C-32.88114428 11.9467363 -31.92537507 9.41140319 -30 5.875 C-23.18543473 -4.03364365 -10.45673217 -4.09176476 0 0 Z " fill="#497DF8" transform="translate(829,199)"/>
<path d="M0 0 C-0.11983599 5.56447458 -0.24415333 11.12882616 -0.37231445 16.69311523 C-0.41516079 18.57915651 -0.45686159 20.46522423 -0.49731445 22.35131836 C-0.71895685 32.64811249 -1.0267723 42.90797006 -1.80102539 53.17944336 C-1.93763516 55.11594968 -2 57.05868113 -2 59 C-3.79296875 60.9375 -3.79296875 60.9375 -6.1875 63 C-6.96480469 63.680625 -7.74210938 64.36125 -8.54296875 65.0625 C-14.80443548 70 -14.80443548 70 -19 70 C-19.00586624 69.29700272 -19.01173248 68.59400543 -19.01777649 67.8697052 C-19.07575849 61.23406512 -19.14786637 54.598745 -19.23571491 47.96342945 C-19.28038071 44.55238536 -19.31964467 41.14145964 -19.34643555 37.73022461 C-19.37749806 33.80556851 -19.43228618 29.88141399 -19.48828125 25.95703125 C-19.49467117 24.73603226 -19.5010611 23.51503326 -19.50764465 22.2570343 C-19.52743881 21.1162291 -19.54723297 19.97542389 -19.56762695 18.80004883 C-19.57873001 17.79855301 -19.58983307 16.79705719 -19.60127258 15.76521301 C-20.06158263 12.57291852 -21.18389098 10.63543037 -23 8 C-22.44570312 7.73445313 -21.89140625 7.46890625 -21.3203125 7.1953125 C-20.59585938 6.84210938 -19.87140625 6.48890625 -19.125 6.125 C-18.40570313 5.77695313 -17.68640625 5.42890625 -16.9453125 5.0703125 C-14.84864981 4.03442457 -14.84864981 4.03442457 -13 2 C-13 2.66 -13 3.32 -13 4 C-12.48050781 3.71125 -11.96101562 3.4225 -11.42578125 3.125 C-10.37970703 2.568125 -10.37970703 2.568125 -9.3125 2 C-8.62800781 1.62875 -7.94351563 1.2575 -7.23828125 0.875 C-4.67873879 -0.12558902 -2.72475184 -0.0631369 0 0 Z " fill="#48B8FD" transform="translate(145,101)"/>
<path d="M0 0 C0.99 0.33 1.98 0.66 3 1 C3.01213028 2.07661896 3.01213028 2.07661896 3.02450562 3.17498779 C3.10248791 9.94331511 3.18978964 16.71146517 3.28752708 23.47953415 C3.33744564 26.95897189 3.38377582 30.43837993 3.421875 33.91796875 C3.46584663 37.91946447 3.52547971 41.92059416 3.5859375 45.921875 C3.59748871 47.16990906 3.60903992 48.41794312 3.62094116 49.70379639 C3.64081085 50.86469788 3.66068054 52.02559937 3.68115234 53.22167969 C3.69447601 54.24316101 3.70779968 55.26464233 3.7215271 56.31707764 C4.00198982 59.01917079 4.6167239 60.68691598 6 63 C-0.94340693 66.1385602 -7.95712832 69.0922831 -15 72 C-14.75660889 71.03525757 -14.75660889 71.03525757 -14.50830078 70.05102539 C-13.84552676 66.07278957 -13.8571452 62.20948388 -13.8671875 58.18359375 C-13.86575241 56.90513329 -13.86575241 56.90513329 -13.86428833 55.60084534 C-13.8636091 53.79794236 -13.86544547 51.99503692 -13.86962891 50.19213867 C-13.87493442 47.4711334 -13.86969928 44.75029672 -13.86328125 42.02929688 C-13.86016615 32.97276411 -13.98664438 24.01286337 -15 15 C-15.99 14.67 -16.98 14.34 -18 14 C-16.58829091 12.70291686 -15.17041804 11.41254022 -13.75 10.125 C-12.56664062 9.04605469 -12.56664062 9.04605469 -11.359375 7.9453125 C-9.26139852 6.21552394 -7.43466576 5.14842724 -5 4 C-4.154375 3.278125 -3.30875 2.55625 -2.4375 1.8125 C-1.633125 1.214375 -0.82875 0.61625 0 0 Z M-22 18 C-21.34 18.66 -20.68 19.32 -20 20 C-21.65 21.32 -23.3 22.64 -25 24 C-25 21 -25 21 -23.5 19.3125 C-22.7575 18.6628125 -22.7575 18.6628125 -22 18 Z " fill="#48B8FD" transform="translate(210,134)"/>
<path d="M0 0 C-0.33 0.66 -0.66 1.32 -1 2 C-1.10214008 4.16927917 -1.13843528 6.34175601 -1.14526367 8.51342773 C-1.14862228 9.18189728 -1.1519809 9.85036682 -1.15544128 10.53909302 C-1.16495818 12.75394538 -1.16689474 14.9687222 -1.16796875 17.18359375 C-1.17118074 18.72054577 -1.17454476 20.25749748 -1.17805481 21.79444885 C-1.18404787 25.01832793 -1.18589452 28.24218019 -1.18530273 31.46606445 C-1.18520108 35.60004096 -1.19885554 39.73384583 -1.21607494 43.86778164 C-1.22718531 47.0427581 -1.22922224 50.21769293 -1.22869301 53.39268684 C-1.2298745 54.91693781 -1.2343057 56.4411898 -1.24202538 57.96542168 C-1.25180631 60.09612986 -1.24895499 62.22646371 -1.24291992 64.35717773 C-1.24505745 66.17680275 -1.24505745 66.17680275 -1.24723816 68.03318787 C-1.22532774 71.18600047 -1.22532774 71.18600047 1 74 C-3.62 74.33 -8.24 74.66 -13 75 C-15.12777616 70.74444767 -15.26912326 68.70241353 -15.31884766 64.02832031 C-15.32889328 63.3352327 -15.3389389 62.64214508 -15.34928894 61.92805481 C-15.38009764 59.64475305 -15.39714934 57.36156842 -15.4140625 55.078125 C-15.43277604 53.49199416 -15.4523496 51.90587325 -15.4727478 50.31976318 C-15.52405546 46.15071472 -15.56368842 41.98163398 -15.60089111 37.81243896 C-15.64093936 33.55586777 -15.69202795 29.29943067 -15.7421875 25.04296875 C-15.83893061 16.69540413 -15.92334048 8.3477731 -16 0 C-14.41101087 -0.36118525 -12.81931057 -0.71045672 -11.2265625 -1.0546875 C-10.34049316 -1.25046387 -9.45442383 -1.44624023 -8.54150391 -1.64794922 C-5.25332243 -2.10343027 -2.97393657 -1.4087068 0 0 Z " fill="#4C86FB" transform="translate(297,106)"/>
<path d="M0 0 C3.02291452 5.89995112 3.53228099 10.92329228 3.6875 17.5 C3.72020996 18.50248779 3.75291992 19.50497559 3.78662109 20.5378418 C4.20504058 34.72978965 4.28226357 48.93710552 3.6875 63.125 C3.66510254 63.85307861 3.64270508 64.58115723 3.61962891 65.33129883 C3.39398191 69.62114435 2.90941806 72.75156077 0 76 C-2.91796875 76.70703125 -2.91796875 76.70703125 -6.1875 76.8125 C-7.81751953 76.88404297 -7.81751953 76.88404297 -9.48046875 76.95703125 C-10.31191406 76.97121094 -11.14335938 76.98539062 -12 77 C-12.33 76.34 -12.66 75.68 -13 75 C-12.34 74.01 -11.68 73.02 -11 72 C-10.70295292 69.49741204 -10.70295292 69.49741204 -10.75708008 66.66162109 C-10.75246513 65.02379166 -10.75246513 65.02379166 -10.74775696 63.35287476 C-10.75494247 62.17166046 -10.76212799 60.99044617 -10.76953125 59.7734375 C-10.76998947 58.55604889 -10.77044769 57.33866028 -10.7709198 56.0843811 C-10.77394427 53.50367257 -10.78183633 50.9229659 -10.79418945 48.34228516 C-10.81233054 44.41171719 -10.81469987 40.48138652 -10.81445312 36.55078125 C-10.81937304 34.04166465 -10.82520341 31.53254963 -10.83203125 29.0234375 C-10.83314407 27.85436859 -10.8342569 26.68529968 -10.83540344 25.48080444 C-10.29476296 14.31517561 -10.29476296 14.31517561 -14.0625 4.4375 C-14.701875 3.963125 -15.34125 3.48875 -16 3 C-13.33925572 0.33925572 -11.70637611 0.61555806 -8 0.375 C-6.9275 0.30023438 -5.855 0.22546875 -4.75 0.1484375 C-3.1681964 0.06305606 -1.58410626 0 0 0 Z " fill="#4C87FC" transform="translate(55,124)"/>
<path d="M0 0 C2.99692647 3.05897592 3.00011127 4.47826616 3.03659058 8.70755005 C3.05946136 9.98212067 3.08233215 11.25669128 3.105896 12.56988525 C3.10576983 13.95675682 3.10494968 15.34362847 3.10348511 16.73049927 C3.11914597 18.15491038 3.1368449 19.57930043 3.15649414 21.00366211 C3.19273314 23.98447745 3.21313909 26.96480683 3.22067261 29.9458313 C3.23035569 33.7707503 3.26581291 37.5948365 3.31133842 41.41948128 C3.35411219 45.06475691 3.38622327 48.710097 3.41598511 52.35549927 C3.42214718 53.05277256 3.42830925 53.75004585 3.43465805 54.46844864 C3.44967444 56.43613433 3.4562312 58.40387914 3.46237183 60.37161255 C3.46727631 61.49205963 3.47218079 62.61250671 3.47723389 63.76690674 C3.36129761 66.41018677 3.36129761 66.41018677 2.36129761 68.41018677 C0.01192019 69.36852366 -2.30088294 70.22804122 -4.70120239 71.03518677 C-5.36442505 71.26463989 -6.02764771 71.49409302 -6.71096802 71.73049927 C-8.35129908 72.29694453 -9.99472396 72.85441599 -11.63870239 73.41018677 C-12.9543815 69.46314944 -12.47901555 65.88554036 -12.20510864 61.80081177 C-11.49111163 49.58510323 -11.52725091 37.39251476 -11.57620239 25.16018677 C-11.58123469 22.93883363 -11.58579449 20.71747936 -11.58987427 18.49612427 C-11.60072615 13.13411998 -11.61732315 7.7721589 -11.63870239 2.41018677 C-12.29870239 2.08018677 -12.95870239 1.75018677 -13.63870239 1.41018677 C-11.92017662 0.79621258 -10.18811432 0.22003685 -8.45120239 -0.33981323 C-7.48827271 -0.66465698 -6.52534302 -0.98950073 -5.53323364 -1.32418823 C-2.63870239 -1.58981323 -2.63870239 -1.58981323 0 0 Z " fill="#4D9EFC" transform="translate(94.63870239257813,119.58981323242188)"/>
<path d="M0 0 C3.19927704 5.00756407 3.44982151 9.50474229 3.69140625 15.390625 C3.74570328 18.15848128 3.74570328 18.15848128 6 20 C6.46376812 27.30434783 6.46376812 27.30434783 4 31 C4.34605611 33.28397032 4.96704519 34.93409037 6 37 C6.12393466 39.5132797 6.18515112 41.98670114 6.1875 44.5 C6.19974609 45.18964844 6.21199219 45.87929687 6.22460938 46.58984375 C6.22988695 48.39477494 6.12184458 50.19917842 6 52 C5.34 52.66 4.68 53.32 4 54 C3.63047951 56.12860662 3.63047951 56.12860662 3.5859375 58.5703125 C3.52792969 59.91416016 3.52792969 59.91416016 3.46875 61.28515625 C3.42234375 62.69087891 3.42234375 62.69087891 3.375 64.125 C3.31699219 65.54232422 3.31699219 65.54232422 3.2578125 66.98828125 C3.16338654 69.32532375 3.07781606 71.66235501 3 74 C1.58622218 74.36552803 0.16879424 74.71695495 -1.25 75.0625 C-2.03890625 75.25972656 -2.8278125 75.45695312 -3.640625 75.66015625 C-6.10394822 76.01497267 -7.65604132 75.76877544 -10 75 C-9.67 74.01 -9.34 73.02 -9 72 C-8.76059367 69.41086489 -8.57391183 66.84491231 -8.4375 64.25 C-8.3748999 63.06603638 -8.3748999 63.06603638 -8.31103516 61.8581543 C-7.62378868 47.39091472 -7.84018649 32.90640491 -8.375 18.4375 C-8.40577637 17.48012939 -8.43655273 16.52275879 -8.46826172 15.53637695 C-8.67786587 10.67764826 -9.13293885 6.56139736 -11 2 C-7.17010894 0.19769832 -4.21878192 -0.19622241 0 0 Z " fill="#4B8FFD" transform="translate(66,123)"/>
<path d="M0 0 C-0.33 0.66 -0.66 1.32 -1 2 C-1.0679705 4.13420859 -1.06800513 6.27068755 -1.03759766 8.40576172 C-1.02959641 9.0628714 -1.02159515 9.71998108 -1.01335144 10.39700317 C-0.98541597 12.57466942 -0.949952 14.75213886 -0.9140625 16.9296875 C-0.89229451 18.44181883 -0.87084492 19.95395478 -0.84970093 21.46609497 C-0.80416495 24.63875242 -0.75494401 27.81132585 -0.703125 30.98388672 C-0.63700947 35.04811313 -0.57968383 39.11240603 -0.52509499 43.17680168 C-0.48220804 46.30125449 -0.43479181 49.42562596 -0.38599777 52.54999161 C-0.36311503 54.0482698 -0.34160387 55.5465696 -0.32149124 57.04488754 C-0.29263165 59.14184363 -0.25771188 61.2386144 -0.22119141 63.33544922 C-0.20263092 64.52854706 -0.18407043 65.7216449 -0.16494751 66.95089722 C-0.02808908 69.48076526 0.26047315 71.59137344 1 74 C-2.68379022 75.17881287 -6.15541573 75.21358801 -10 75 C-12.84959465 72.15040535 -12.95964245 70.04344891 -13.11352539 66.06478882 C-13.10828857 64.92498566 -13.10305176 63.7851825 -13.09765625 62.61083984 C-13.09435303 61.31624847 -13.0910498 60.0216571 -13.08764648 58.68783569 C-13.08146805 57.6545923 -13.08146805 57.6545923 -13.07516479 56.60047531 C-13.06237889 54.44047816 -13.05588029 52.28054253 -13.05102539 50.12051392 C-13.03961155 45.53864826 -13.02035679 40.9568335 -13 36.375 C-12.97641909 31.05861401 -12.9560313 25.74225674 -12.94406128 20.42583084 C-12.93756656 18.2952718 -12.92506106 16.16480099 -12.91235352 14.03427124 C-12.90905029 12.74598419 -12.90574707 11.45769714 -12.90234375 10.13037109 C-12.89710693 8.99215912 -12.89187012 7.85394714 -12.88647461 6.6812439 C-12.8157381 4.02770996 -12.8157381 4.02770996 -14 2 C-9.15758367 0.66416101 -5.06562383 -0.25328119 0 0 Z " fill="#4C8FFD" transform="translate(283,107)"/>
<path d="M0 0 C0.99 0 1.98 0 3 0 C5.20637312 9.87374073 5.34037411 19.60428119 5.31567383 29.66552734 C5.31248162 32.39069496 5.33616417 35.1148071 5.36132812 37.83984375 C5.36359869 39.58854031 5.36430574 41.33723976 5.36328125 43.0859375 C5.372491 43.89227631 5.38170074 44.69861511 5.39118958 45.52938843 C5.351201 50.4191146 4.68952592 53.75661564 2 58 C-0.33984375 59.8984375 -0.33984375 59.8984375 -2.9375 61.375 C-3.79214844 61.87773437 -4.64679688 62.38046875 -5.52734375 62.8984375 C-8 64 -8 64 -12 64 C-11.92640762 63.38843048 -11.85281525 62.77686096 -11.7769928 62.14675903 C-11.1152208 56.21064751 -10.91989033 50.45693762 -11.12109375 44.4921875 C-11.14470474 43.64069122 -11.16831573 42.78919495 -11.19264221 41.91189575 C-11.26828667 39.23271723 -11.35272763 36.5539036 -11.4375 33.875 C-11.49082046 32.04168362 -11.54355987 30.20835024 -11.59570312 28.375 C-11.72376463 23.91644232 -11.85970734 19.45818889 -12 15 C-12.66 14.67 -13.32 14.34 -14 14 C-10.60986547 9.22869955 -10.60986547 9.22869955 -7.5 8.0625 C-3.99614479 6.57336153 -2.90874361 4.20396248 -1 1 C-0.67 0.67 -0.34 0.34 0 0 Z " fill="#4EC3FC" transform="translate(192,149)"/>
<path d="M0 0 C-0.07390961 0.60468109 -0.14781921 1.20936218 -0.22396851 1.83236694 C-0.91516575 7.97684358 -1.04537879 13.9280136 -0.8515625 20.1015625 C-0.81459097 21.99215287 -0.77949022 23.8827806 -0.74609375 25.7734375 C-0.69050981 28.70807259 -0.62447888 31.64065951 -0.52685547 34.57421875 C-0.43557528 37.43783591 -0.38981446 40.29930783 -0.3515625 43.1640625 C-0.31229645 44.03197418 -0.2730304 44.89988586 -0.23257446 45.7940979 C-0.20469822 51.93875448 -1.88991627 54.92705613 -6.17416382 59.29672241 C-6.77668976 59.85880402 -7.3792157 60.42088562 -8 61 C-8.55507233 61.53912018 -9.11014465 62.07824036 -9.68203735 62.63369751 C-11.25 64.0625 -11.25 64.0625 -14 66 C-14.99 65.67 -15.98 65.34 -17 65 C-16.93578857 64.15864502 -16.87157715 63.31729004 -16.80541992 62.45043945 C-16.07323174 52.26859657 -15.66061511 42.09245259 -15.38745117 31.88842773 C-15.31134716 29.14595644 -15.22102131 26.40415021 -15.13085938 23.66210938 C-15.08246052 21.91408645 -15.03490187 20.16604001 -14.98828125 18.41796875 C-14.95922195 17.60039597 -14.93016266 16.78282318 -14.90022278 15.94047546 C-14.85562635 13.96053987 -14.91831625 11.97875253 -15 10 C-15.66 9.34 -16.32 8.68 -17 8 C-16.24074219 7.59007813 -15.48148438 7.18015625 -14.69921875 6.7578125 C-13.70535156 6.21898438 -12.71148437 5.68015625 -11.6875 5.125 C-10.20830078 4.32449219 -10.20830078 4.32449219 -8.69921875 3.5078125 C-2.41968912 0 -2.41968912 0 0 0 Z " fill="#4EC2FB" transform="translate(159,92)"/>
<path d="M0 0 C-0.49081558 0.79419342 -0.49081558 0.79419342 -0.99154663 1.60443115 C-2.2808307 4.66710996 -2.20063205 7.00789192 -2.13525391 10.32910156 C-2.11508209 11.61012756 -2.09491028 12.89115356 -2.0741272 14.21099854 C-2.04182655 15.6042125 -2.00929969 16.99742123 -1.9765625 18.390625 C-1.95038339 19.81978766 -1.92511734 21.24896732 -1.90072632 22.67816162 C-1.83419241 26.43320276 -1.7552748 30.18788498 -1.67376709 33.94262695 C-1.59273236 37.77671572 -1.52342371 41.61101452 -1.453125 45.4453125 C-1.31355246 52.96379615 -1.16089532 60.48193922 -1 68 C-0.34 68.33 0.32 68.66 1 69 C-0.60256108 69.50512244 -2.20711792 70.00391627 -3.8125 70.5 C-4.70582031 70.7784375 -5.59914062 71.056875 -6.51953125 71.34375 C-9 72 -9 72 -12 72 C-12.81827425 68.40076475 -13.14190232 65.04322143 -13.18945312 61.35522461 C-13.20617065 60.24735092 -13.22288818 59.13947723 -13.2401123 57.99803162 C-13.25368774 56.81145462 -13.26726318 55.62487762 -13.28125 54.40234375 C-13.29965942 53.17592667 -13.31806885 51.94950958 -13.33703613 50.68592834 C-13.41563216 45.4416669 -13.48348185 40.19727897 -13.55224609 34.95288086 C-13.60398525 31.12347096 -13.66122411 27.29417037 -13.71875 23.46484375 C-13.73232544 22.27624252 -13.74590088 21.0876413 -13.7598877 19.86302185 C-13.77660522 18.75830032 -13.79332275 17.6535788 -13.81054688 16.51538086 C-13.82307495 15.54451035 -13.83560303 14.57363983 -13.84851074 13.573349 C-13.98587149 11.24000105 -14.34087434 9.23501534 -15 7 C-15.66 7 -16.32 7 -17 7 C-17 6.34 -17 5.68 -17 5 C-15.10908264 4.15557119 -13.21202485 3.32488413 -11.3125 2.5 C-10.25675781 2.0359375 -9.20101562 1.571875 -8.11328125 1.09375 C-5.14372184 0.05049199 -3.10804937 -0.23065301 0 0 Z " fill="#48A6FD" transform="translate(244,119)"/>
<path d="M0 0 C0.22342677 8.53582762 0.42490454 17.0717711 0.59840012 25.60874557 C0.67965123 29.57284679 0.76844624 33.53647894 0.87451172 37.5 C0.97659914 41.32525837 1.05883063 45.15047644 1.12732697 48.97647858 C1.15694021 50.43586552 1.19369882 51.89512558 1.2377243 53.35414886 C1.29819399 55.39865709 1.33319951 57.44214274 1.36230469 59.48730469 C1.38895203 60.65090515 1.41559937 61.81450562 1.4430542 63.0133667 C1 66 1 66 -0.52264404 68.28204346 C-3 70 -3 70 -11 72 C-11 50.55 -11 29.1 -11 7 C-11.99 6.67 -12.98 6.34 -14 6 C-14.33 5.01 -14.66 4.02 -15 3 C-13.6293189 2.48827906 -12.25315925 1.99122508 -10.875 1.5 C-9.72644531 1.08234375 -9.72644531 1.08234375 -8.5546875 0.65625 C-5.62620051 -0.09602189 -3.01273146 -0.04350515 0 0 Z " fill="#48A6FD" transform="translate(108,115)"/>
<path d="M0 0 C0.99 0 1.98 0 3 0 C3.33583763 4.62557318 3.65688058 9.25184929 3.96435547 13.87939453 C4.07098546 15.4529162 4.18162776 17.02617139 4.29638672 18.59912109 C4.46080477 20.86237132 4.61068873 23.12619289 4.7578125 25.390625 C4.81188263 26.09181458 4.86595276 26.79300415 4.92166138 27.51544189 C5.30680166 33.84347729 3.48849735 36.44426126 -0.27514648 41.31396484 C-8.92245578 52.63926695 -14.12436783 65.70282135 -19 79 C-22.06537308 74.21035456 -21.31573546 69.49558901 -20.18359375 64.1328125 C-19.79059836 62.42152157 -19.39587532 60.71062701 -19 59 C-18.76651855 57.95835693 -18.53303711 56.91671387 -18.29248047 55.84350586 C-14.88646809 40.71439906 -11.15312286 26.24531917 -5 12 C-4.20239081 10.00236247 -3.4096719 8.00275463 -2.625 6 C-1.80654592 3.9503063 -0.986971 1.973942 0 0 Z " fill="#4CDBFB" transform="translate(153,200)"/>
<path d="M0 0 C0.33 0 0.66 0 1 0 C0.69287928 3.66928434 0.35097949 7.33465737 0 11 C-0.06445312 11.68046387 -0.12890625 12.36092773 -0.1953125 13.06201172 C-2.38511247 35.73556554 -7.21906369 58.74865424 -17.6171875 79.171875 C-18.75826932 81.50561297 -19.52023541 83.46585885 -20 86 C-20.66 86 -21.32 86 -22 86 C-22.12117187 85.01902344 -22.24234375 84.03804688 -22.3671875 83.02734375 C-22.53630278 81.6640432 -22.70558654 80.30076353 -22.875 78.9375 C-22.96378418 78.22247314 -23.05256836 77.50744629 -23.14404297 76.77075195 C-23.92607955 70.51102325 -24.76950856 64.26071115 -25.6328125 58.01171875 C-26.31383637 52.42587399 -26.31383637 52.42587399 -24.12890625 49.4609375 C-23.27567032 48.43043884 -22.4200242 47.40193294 -21.5625 46.375 C-12.77592544 35.4161977 -5.24107993 21.74110748 -2 8 C-1.33333333 5.33333333 -0.66666667 2.66666667 0 0 Z " fill="#4CDBFB" transform="translate(206,19)"/>
<path d="M0 0 C2.75 2.25 2.75 2.25 5 5 C5.8971875 5.86625 5.8971875 5.86625 6.8125 6.75 C8.75953126 10.43911187 8.86567001 13.9443019 8 18 C5.95267854 21.3746369 3.55809395 24.22095302 0 26 C-4.84608857 26.6784524 -7.45805896 26.02391927 -11.3125 23.1875 C-14.80450674 20.40898776 -16.84308637 18.35991816 -17.375 13.75 C-16.92987242 9.29872424 -15.86195903 6.4290345 -13 3 C-8.71215 0.04614778 -5.15945733 -0.75046652 0 0 Z " fill="#F2F6F7" transform="translate(1124,37)"/>
<path d="M0 0 C3.80199928 1.51908323 5.77187204 3.77448786 8.3125 6.9375 C9.03050781 7.81277344 9.74851562 8.68804687 10.48828125 9.58984375 C10.98714844 10.38519531 11.48601563 11.18054688 12 12 C10.72753547 15.8173936 9.64286149 15.97612084 6.125 17.75 C1.02365885 20.40030615 -3.7319216 23.36352311 -8.4921875 26.58203125 C-11.04891277 28.02765629 -13.10779367 28.60089626 -16 29 C-17.00893131 27.90398831 -18.00688225 26.79786082 -19 25.6875 C-19.556875 25.07261719 -20.11375 24.45773438 -20.6875 23.82421875 C-22 22 -22 22 -22 19 C-21.34 19 -20.68 19 -20 19 C-19.77699219 18.43023437 -19.55398438 17.86046875 -19.32421875 17.2734375 C-17.60582235 14.32327023 -15.49259955 12.73211275 -12.8125 10.625 C-11.34296875 9.45517578 -11.34296875 9.45517578 -9.84375 8.26171875 C-8.9053125 7.51535156 -7.966875 6.76898438 -7 6 C-4.64685396 4.02158441 -2.32328813 2.01351638 0 0 Z " fill="#F1F5F6" transform="translate(1001,37)"/>
<path d="M0 0 C0.66 0 1.32 0 2 0 C2 19.8 2 39.6 2 60 C1.67 60 1.34 60 1 60 C0.67 55.71 0.34 51.42 0 47 C-0.33 47 -0.66 47 -1 47 C-1.02529825 40.62793828 -1.04284496 34.25588946 -1.05493164 27.88378906 C-1.05996891 25.71483883 -1.06679891 23.545892 -1.07543945 21.37695312 C-1.08753151 18.26431437 -1.09323428 15.1517204 -1.09765625 12.0390625 C-1.10281754 11.065065 -1.10797882 10.0910675 -1.11329651 9.08755493 C-1.11337204 8.18677216 -1.11344757 7.28598938 -1.11352539 6.35791016 C-1.115746 5.56293121 -1.11796661 4.76795227 -1.12025452 3.94888306 C-1 2 -1 2 0 0 Z " fill="#D8DBDB" transform="translate(675,75)"/>
<path d="M0 0 C0.33 0 0.66 0 1 0 C1 24.75 1 49.5 1 75 C0.67 75 0.34 75 0 75 C0 50.25 0 25.5 0 0 Z " fill="#2B4EB0" transform="translate(333,103)"/>
<path d="M0 0 C0.72896484 -0.00386719 1.45792969 -0.00773437 2.20898438 -0.01171875 C5.42107736 -0.0058304 7.9946444 0.10238147 11.0625 1.125 C11.0625 1.785 11.0625 2.445 11.0625 3.125 C4.1325 3.125 -2.7975 3.125 -9.9375 3.125 C-9.9375 2.465 -9.9375 1.805 -9.9375 1.125 C-6.79444562 -0.44652719 -3.446226 -0.01818589 0 0 Z " fill="#E7EBEC" transform="translate(1083.9375,32.875)"/>
<path d="M0 0 C2.10353495 -0.0810206 4.20795952 -0.13919907 6.3125 -0.1875 C7.48425781 -0.22230469 8.65601563 -0.25710937 9.86328125 -0.29296875 C13 0 13 0 16 3 C10.72 3 5.44 3 0 3 C0 2.01 0 1.02 0 0 Z " fill="#4475E3" transform="translate(563,171)"/>
<path d="M0 0 C1.95825873 -0.02694851 3.91662226 -0.04637218 5.875 -0.0625 C6.96554687 -0.07410156 8.05609375 -0.08570313 9.1796875 -0.09765625 C12 0 12 0 14 1 C14 1.66 14 2.32 14 3 C9.38 3 4.76 3 0 3 C0 2.01 0 1.02 0 0 Z " fill="#4476E4" transform="translate(608,171)"/>
<path d="M0 0 C0.33 0 0.66 0 1 0 C1 2.64 1 5.28 1 8 C0.67 8 0.34 8 0 8 C0 5.36 0 2.72 0 0 Z " fill="#F5F9FA" transform="translate(951,102)"/>
<path d="M0 0 C1.98 0 3.96 0 6 0 C6 0.33 6 0.66 6 1 C4.02 1 2.04 1 0 1 C0 0.67 0 0.34 0 0 Z " fill="#4A7FFB" transform="translate(814,196)"/>
<path d="M0 0 C1.65 0 3.3 0 5 0 C5 0.33 5 0.66 5 1 C3.35 1 1.7 1 0 1 C0 0.67 0 0.34 0 0 Z " fill="#5074FD" transform="translate(316,101)"/>
<path d="M0 0 C0.33 0 0.66 0 1 0 C1 1.65 1 3.3 1 5 C0.67 5 0.34 5 0 5 C0 3.35 0 1.7 0 0 Z " fill="#F5F9FA" transform="translate(384,85)"/>
<path d="M0 0 C4 1 4 1 4 1 Z " fill="#4A7FFB" transform="translate(766,196)"/>
<path d="M0 0 C4 1 4 1 4 1 Z " fill="#4A7FFB" transform="translate(716,196)"/>
<path d="M0 0 C4 1 4 1 4 1 Z " fill="#4A7FFB" transform="translate(514,196)"/>
<path d="M0 0 C4 1 4 1 4 1 Z " fill="#4A7FFB" transform="translate(456,196)"/>
<path d="M0 0 C1 4 1 4 1 4 Z " fill="#F5F9FA" transform="translate(840,113)"/>
<path d="M0 0 C1 4 1 4 1 4 Z " fill="#F5F9FA" transform="translate(1139,104)"/>
<path d="M0 0 C1 4 1 4 1 4 Z " fill="#F5F9FA" transform="translate(841,103)"/>
<path d="" fill="#4DDDFD" transform="translate(0,0)"/>
<path d="M0 0 C3 1 3 1 3 1 Z " fill="#F5F9FA" transform="translate(1119,36)"/>
<path d="M0 0 C2 1 2 1 2 1 Z " fill="#4A7FFB" transform="translate(297,103)"/>
<path d="M0 0 C2 1 2 1 2 1 Z " fill="#4A7FFB" transform="translate(305,102)"/>
<path d="" fill="#000002" transform="translate(0,0)"/>
<path d="" fill="#000002" transform="translate(0,0)"/>
<path d="" fill="#F5F9FA" transform="translate(0,0)"/>
<path d="" fill="#E0E4E5" transform="translate(0,0)"/>
<path d="" fill="#F5F9FA" transform="translate(0,0)"/>
<path d="" fill="#F5F9FA" transform="translate(0,0)"/>
</svg>
