<svg xmlns="http://www.w3.org/2000/svg" xmlns:xlink="http://www.w3.org/1999/xlink" width="2100" zoomAndPan="magnify" viewBox="0 0 1574.88 449.999984" height="600" preserveAspectRatio="xMidYMid meet" version="1.0"><path fill="#063e92" d="M 800.707031 31.996094 C 801.449219 32.007812 802.195312 32.019531 802.960938 32.03125 C 816.492188 32.585938 832.925781 36.082031 842.851562 46.035156 C 842.851562 46.523438 842.851562 47.011719 842.851562 47.515625 C 843.585938 47.757812 844.316406 48.003906 845.070312 48.253906 C 845.070312 48.742188 845.070312 49.230469 845.070312 49.730469 C 845.558594 49.730469 846.046875 49.730469 846.550781 49.730469 C 851.625 57.667969 853.425781 65.535156 851.726562 74.859375 C 849.535156 82.875 849.535156 82.875 846.550781 85.203125 C 843.738281 85.0625 841.949219 84.148438 839.894531 82.25 C 839.894531 81.761719 839.894531 81.273438 839.894531 80.769531 C 839.246094 80.648438 839.246094 80.648438 838.585938 80.523438 C 836.765625 79.980469 835.757812 79.246094 834.257812 78.089844 C 820.265625 68.546875 801.8125 66.117188 785.410156 69.175781 C 781.464844 69.984375 777.78125 71.023438 774.089844 72.640625 C 773.570312 72.84375 773.054688 73.046875 772.519531 73.257812 C 765.558594 76.089844 760.328125 80.160156 755.605469 85.945312 C 755.117188 85.945312 754.628906 85.945312 754.125 85.945312 C 753.8125 86.59375 753.8125 86.59375 753.496094 87.257812 C 752.714844 88.773438 751.847656 90.125 750.890625 91.53125 C 748.621094 95.121094 747.324219 98.929688 745.992188 102.941406 C 745.792969 103.5 745.597656 104.054688 745.394531 104.628906 C 740.183594 119.523438 738.984375 134.980469 739.070312 150.648438 C 739.070312 152.121094 739.070312 153.597656 739.066406 155.074219 C 739.066406 158.144531 739.074219 161.214844 739.089844 164.289062 C 739.105469 168.144531 739.105469 172 739.101562 175.859375 C 739.085938 190.820312 739.183594 205.734375 740.300781 220.660156 C 740.792969 227.257812 740.894531 233.792969 740.816406 240.402344 C 743.21875 240.296875 745.621094 240.191406 748.027344 240.078125 C 748.707031 240.050781 749.386719 240.019531 750.085938 239.992188 C 750.746094 239.960938 751.402344 239.929688 752.082031 239.898438 C 752.683594 239.871094 753.289062 239.84375 753.910156 239.816406 C 755.539062 239.667969 756.984375 239.335938 758.5625 238.925781 C 760.703125 238.691406 762.839844 238.476562 764.984375 238.277344 C 774.335938 237.34375 783.476562 235.726562 792.613281 233.515625 C 795.285156 232.898438 797.980469 232.429688 800.691406 231.996094 C 802.554688 231.421875 803.222656 230.871094 804.40625 229.316406 C 805.0625 227.847656 805.65625 226.347656 806.207031 224.835938 C 806.523438 223.976562 806.84375 223.113281 807.171875 222.226562 C 807.476562 221.394531 807.785156 220.566406 808.101562 219.710938 C 808.605469 218.460938 809.113281 217.210938 809.625 215.96875 C 811.011719 212.539062 812.171875 209.050781 813.324219 205.535156 C 814.386719 202.332031 815.59375 199.191406 816.8125 196.046875 C 818.023438 192.882812 819.015625 189.71875 819.933594 186.453125 C 820.46875 184.847656 821.015625 183.25 821.574219 181.652344 C 822.207031 179.617188 822.714844 177.5625 823.222656 175.496094 C 823.914062 172.757812 824.703125 170.046875 825.476562 167.332031 C 826.644531 163.195312 827.738281 159.089844 828.464844 154.851562 C 828.804688 153.195312 828.804688 153.195312 829.445312 151.003906 C 830.890625 146.0625 831.902344 140.996094 833.019531 135.96875 C 835.921875 123.175781 835.921875 123.175781 837.675781 121.417969 C 839.507812 121.324219 841.316406 121.277344 843.152344 121.265625 C 843.984375 121.261719 843.984375 121.261719 844.835938 121.253906 C 846.019531 121.246094 847.199219 121.242188 848.382812 121.238281 C 850.171875 121.234375 851.957031 121.210938 853.742188 121.1875 C 863.820312 121.117188 872.683594 122.707031 880.5625 129.546875 C 884.191406 133.722656 886.421875 138.5 887.863281 143.820312 C 888.113281 144.726562 888.363281 145.632812 888.625 146.566406 C 888.820312 147.28125 888.820312 147.28125 889.023438 148.015625 C 893.042969 162.703125 893.042969 162.703125 898.03125 177.078125 C 899.355469 180.632812 900.3125 184.257812 901.265625 187.929688 C 902.332031 187.136719 903.394531 186.332031 904.453125 185.527344 C 905.046875 185.082031 905.636719 184.636719 906.246094 184.179688 C 907.964844 182.828125 907.964844 182.828125 909.152344 181.105469 C 909.476562 180.675781 909.804688 180.246094 910.136719 179.800781 C 910.625 179.800781 911.113281 179.800781 911.617188 179.800781 C 911.859375 179.070312 912.105469 178.339844 912.355469 177.585938 C 912.84375 177.585938 913.332031 177.585938 913.835938 177.585938 C 914.003906 177.191406 914.167969 176.796875 914.339844 176.390625 C 915.632812 174.054688 917.324219 172.117188 919.058594 170.101562 C 921.5 167.363281 921.5 167.363281 923.449219 164.28125 C 923.933594 164.28125 924.421875 164.28125 924.925781 164.28125 C 925.234375 163.636719 925.234375 163.636719 925.550781 162.976562 C 926.359375 161.414062 927.242188 160.019531 928.25 158.582031 C 928.601562 158.074219 928.953125 157.566406 929.316406 157.042969 C 929.867188 156.257812 929.867188 156.257812 930.425781 155.460938 C 931.148438 154.421875 931.871094 153.382812 932.59375 152.34375 C 932.933594 151.855469 933.273438 151.371094 933.621094 150.867188 C 934.402344 149.703125 935.113281 148.496094 935.8125 147.28125 C 936.125 146.792969 936.433594 146.308594 936.757812 145.804688 C 937.246094 145.804688 937.734375 145.804688 938.234375 145.804688 C 938.316406 145.390625 938.402344 144.976562 938.488281 144.546875 C 939.042969 142.617188 939.871094 141.078125 940.871094 139.339844 C 941.207031 138.75 941.542969 138.15625 941.890625 137.550781 C 942.148438 137.105469 942.40625 136.65625 942.671875 136.199219 C 943.160156 136.199219 943.648438 136.199219 944.152344 136.199219 C 944.230469 135.792969 944.308594 135.386719 944.390625 134.972656 C 944.996094 132.875 945.921875 131.136719 946.96875 129.222656 C 947.527344 128.195312 947.527344 128.195312 948.09375 127.148438 C 949.382812 125.019531 950.5625 123.222656 952.285156 121.417969 C 954.3125 120.941406 954.3125 120.941406 956.628906 120.925781 C 957.480469 120.921875 958.328125 120.917969 959.207031 120.914062 C 960.539062 120.933594 960.539062 120.933594 961.894531 120.957031 C 962.761719 120.941406 963.625 120.925781 964.515625 120.914062 C 972.046875 120.953125 979.453125 122.808594 985.070312 128.121094 C 994.359375 138.9375 998.074219 153.011719 1000.695312 166.765625 C 1001.128906 168.9375 1001.632812 171.085938 1002.148438 173.242188 C 1003.996094 181.175781 1005.410156 189.171875 1006.601562 197.230469 C 1006.984375 199.65625 1007.414062 202.070312 1007.855469 204.488281 C 1008.707031 209.144531 1009.464844 213.726562 1009.730469 218.460938 C 1009.921875 220.152344 1010.230469 221.683594 1010.621094 223.335938 C 1011.9375 229.050781 1012.566406 234.890625 1013.347656 240.695312 C 1013.472656 241.597656 1013.597656 242.5 1013.726562 243.425781 C 1013.835938 244.25 1013.945312 245.070312 1014.0625 245.914062 C 1014.199219 247.738281 1014.199219 247.738281 1015.132812 248.53125 C 1015.332031 247.585938 1015.53125 246.644531 1015.738281 245.671875 C 1016.582031 241.878906 1017.640625 238.167969 1018.738281 234.445312 C 1020.257812 229.207031 1021.683594 223.964844 1022.972656 218.667969 C 1023.710938 215.664062 1024.519531 212.699219 1025.390625 209.730469 C 1027.078125 203.964844 1028.492188 198.136719 1029.90625 192.296875 C 1030.089844 191.554688 1030.273438 190.808594 1030.460938 190.042969 C 1030.707031 189.03125 1030.707031 189.03125 1030.953125 188 C 1031.398438 186.453125 1031.398438 186.453125 1032.136719 185.714844 C 1032.398438 184.734375 1032.625 183.746094 1032.832031 182.757812 C 1032.960938 182.15625 1033.089844 181.558594 1033.222656 180.9375 C 1033.351562 180.320312 1033.484375 179.699219 1033.617188 179.0625 C 1035.722656 169.242188 1035.722656 169.242188 1037.359375 165.390625 C 1038.226562 163.078125 1038.449219 160.8125 1038.792969 158.371094 C 1039.25 156.878906 1039.742188 155.398438 1040.273438 153.933594 C 1041.140625 151.488281 1041.863281 149.085938 1042.398438 146.550781 C 1043.285156 142.496094 1044.355469 138.496094 1045.449219 134.488281 C 1045.640625 133.769531 1045.832031 133.046875 1046.03125 132.304688 C 1046.21875 131.613281 1046.410156 130.917969 1046.601562 130.203125 C 1046.855469 129.265625 1046.855469 129.265625 1047.113281 128.3125 C 1048.0625 125.351562 1048.558594 123.980469 1051.308594 122.363281 C 1054.976562 120.96875 1058.710938 121.023438 1062.59375 121.046875 C 1063.347656 121.050781 1064.105469 121.054688 1064.882812 121.0625 C 1072.003906 121.230469 1077.519531 122.527344 1083.019531 127.328125 C 1090.679688 135.992188 1093.765625 147.992188 1095.726562 159.109375 C 1096.078125 160.847656 1096.433594 162.589844 1096.789062 164.328125 C 1100.117188 181.03125 1100.117188 181.03125 1100.722656 189.0625 C 1100.964844 191.539062 1101.46875 193.929688 1101.984375 196.359375 C 1103.015625 201.324219 1103.828125 206.292969 1104.230469 211.347656 C 1104.476562 214.425781 1105 217.300781 1105.730469 220.296875 C 1106.21875 222.585938 1106.433594 224.882812 1106.636719 227.210938 C 1106.75 228.644531 1106.75 228.644531 1107.558594 230.054688 C 1107.8125 231.621094 1108.039062 233.195312 1108.25 234.765625 C 1108.917969 239.617188 1109.683594 244.445312 1110.515625 249.269531 C 1112.785156 241.40625 1115.035156 233.542969 1117.121094 225.628906 C 1118.105469 221.910156 1119.117188 218.199219 1120.125 214.488281 C 1120.320312 213.78125 1120.511719 213.074219 1120.710938 212.347656 C 1121.71875 208.664062 1122.75 204.992188 1123.824219 201.324219 C 1125.410156 195.855469 1126.738281 190.320312 1128.101562 184.789062 C 1129.253906 180.148438 1130.539062 175.585938 1132.007812 171.035156 C 1133.019531 167.628906 1133.800781 164.175781 1134.59375 160.714844 C 1135.433594 157.058594 1136.371094 153.441406 1137.386719 149.832031 C 1137.886719 147.976562 1138.304688 146.113281 1138.703125 144.234375 C 1139.351562 141.371094 1139.351562 141.371094 1140.089844 140.632812 C 1140.441406 139.078125 1140.789062 137.523438 1141.121094 135.96875 C 1143.78125 124.164062 1143.78125 124.164062 1146.25 122.410156 C 1150.074219 121.011719 1153.605469 121.039062 1157.652344 121.046875 C 1158.796875 121.015625 1158.796875 121.015625 1159.96875 120.984375 C 1167.4375 120.964844 1172.710938 123.644531 1178.335938 128.417969 C 1179.445312 129.746094 1179.722656 130.8125 1180.019531 132.503906 C 1180.507812 132.503906 1180.992188 132.503906 1181.496094 132.503906 C 1181.496094 133.234375 1181.496094 133.964844 1181.496094 134.71875 C 1181.984375 134.71875 1182.472656 134.71875 1182.976562 134.71875 C 1183.21875 135.941406 1183.464844 137.160156 1183.714844 138.414062 C 1184.203125 138.414062 1184.691406 138.414062 1185.195312 138.414062 C 1189.46875 149.640625 1193.640625 160.828125 1195.890625 172.664062 C 1196.34375 174.917969 1196.863281 177.148438 1197.394531 179.386719 C 1198.242188 183.003906 1198.949219 186.625 1199.589844 190.285156 C 1200.183594 193.429688 1200.941406 196.527344 1201.675781 199.640625 C 1202.125 201.644531 1202.507812 203.640625 1202.847656 205.667969 C 1204.027344 212.386719 1205.742188 219 1207.375 225.621094 C 1207.519531 226.210938 1207.664062 226.804688 1207.8125 227.414062 C 1211.070312 240.714844 1215.253906 253.804688 1220.660156 266.394531 C 1221.425781 268.484375 1221.425781 268.484375 1221.425781 271.441406 C 1221.914062 271.441406 1222.398438 271.441406 1222.902344 271.441406 C 1223.046875 271.847656 1223.191406 272.25 1223.34375 272.667969 C 1227.566406 283.863281 1233.945312 294.761719 1241.257812 304.226562 C 1242.128906 305.4375 1242.128906 305.4375 1242.128906 306.914062 C 1242.617188 306.914062 1243.101562 306.914062 1243.605469 306.914062 C 1244.832031 308.292969 1244.832031 308.292969 1246.195312 310.101562 C 1246.644531 310.695312 1247.09375 311.285156 1247.558594 311.894531 C 1248.488281 313.167969 1249.382812 314.46875 1250.261719 315.785156 C 1242.667969 323.816406 1233.316406 326.78125 1222.5 327.171875 C 1215.855469 327.261719 1210.714844 326.140625 1205.15625 322.433594 C 1205.15625 321.949219 1205.15625 321.460938 1205.15625 320.957031 C 1204.730469 320.773438 1204.304688 320.589844 1203.863281 320.402344 C 1201.957031 319.34375 1200.675781 318.160156 1199.242188 316.523438 C 1199.242188 316.035156 1199.242188 315.546875 1199.242188 315.042969 C 1198.753906 315.042969 1198.265625 315.042969 1197.761719 315.042969 C 1195.546875 311.804688 1195.546875 311.804688 1195.546875 309.871094 C 1195.058594 309.871094 1194.570312 309.871094 1194.066406 309.871094 C 1192.570312 307.171875 1191.09375 304.460938 1189.628906 301.742188 C 1189.3125 301.15625 1188.996094 300.574219 1188.667969 299.972656 C 1186.441406 295.714844 1184.742188 291.332031 1183.097656 286.828125 C 1182.128906 284.1875 1181.125 281.609375 1179.925781 279.0625 C 1178.035156 274.945312 1176.871094 270.601562 1175.582031 266.269531 C 1175.148438 264.886719 1174.71875 263.507812 1174.28125 262.128906 C 1173.476562 259.570312 1172.679688 257.007812 1171.882812 254.445312 C 1171.703125 253.859375 1171.523438 253.277344 1171.335938 252.679688 C 1168.988281 245.117188 1166.851562 237.5625 1165.125 229.832031 C 1164.503906 227.164062 1163.785156 224.554688 1163.011719 221.925781 C 1162.675781 220.746094 1162.335938 219.570312 1162 218.390625 C 1161.820312 217.757812 1161.640625 217.128906 1161.453125 216.476562 C 1161.066406 215.125 1160.683594 213.777344 1160.296875 212.425781 C 1159.417969 209.347656 1158.539062 206.265625 1157.628906 203.195312 C 1157.359375 202.289062 1157.09375 201.382812 1156.820312 200.449219 C 1156.46875 199.269531 1156.46875 199.269531 1156.109375 198.066406 C 1155.617188 196.058594 1155.617188 196.058594 1155.617188 193.105469 C 1154.886719 193.105469 1154.152344 193.105469 1153.398438 193.105469 C 1153.445312 194.246094 1153.445312 194.246094 1153.492188 195.414062 C 1153.402344 198.25 1152.824219 200.050781 1151.921875 202.710938 C 1151.53125 204.429688 1151.160156 206.15625 1150.8125 207.882812 C 1150.144531 211.1875 1149.316406 214.304688 1148.222656 217.492188 C 1147.972656 218.503906 1147.742188 219.519531 1147.53125 220.539062 C 1146.957031 223.222656 1146.316406 225.875 1145.636719 228.53125 C 1144.945312 231.261719 1144.316406 233.984375 1143.789062 236.753906 C 1143.167969 239.988281 1142.328125 243.128906 1141.40625 246.292969 C 1140.921875 248.171875 1140.523438 250.027344 1140.152344 251.933594 C 1139.3125 256.222656 1138.269531 260.453125 1137.226562 264.699219 C 1135.648438 271.164062 1134.210938 277.640625 1132.941406 284.175781 C 1131.832031 289.875 1130.53125 295.523438 1129.160156 301.167969 C 1128.191406 305.230469 1127.363281 309.246094 1126.78125 313.382812 C 1125.5625 321.613281 1125.5625 321.613281 1123.824219 324.652344 C 1119.496094 327.710938 1113.054688 327.023438 1107.972656 327.054688 C 1106.972656 327.078125 1106.972656 327.078125 1105.949219 327.101562 C 1100.703125 327.128906 1096.566406 326.433594 1092.34375 323.1875 C 1083.894531 314.371094 1083.894531 314.371094 1083.894531 309.132812 C 1083.410156 309.132812 1082.921875 309.132812 1082.417969 309.132812 C 1079.484375 299.671875 1079.484375 299.671875 1078.628906 296.570312 C 1078.042969 294.40625 1078.042969 294.40625 1077.257812 292.621094 C 1076.484375 290.609375 1076.019531 288.703125 1075.601562 286.59375 C 1075.445312 285.820312 1075.292969 285.046875 1075.132812 284.25 C 1074.976562 283.4375 1074.816406 282.625 1074.652344 281.789062 C 1074.40625 280.535156 1074.40625 280.535156 1074.15625 279.257812 C 1072.875 272.675781 1071.761719 266.109375 1070.941406 259.453125 C 1070.875 258.914062 1070.804688 258.375 1070.738281 257.816406 C 1070.609375 256.765625 1070.484375 255.710938 1070.363281 254.65625 C 1070.105469 252.503906 1069.796875 250.597656 1069.109375 248.53125 C 1068.855469 246.871094 1068.628906 245.207031 1068.414062 243.542969 C 1068.320312 242.820312 1068.320312 242.820312 1068.226562 242.078125 C 1067.957031 240.007812 1067.691406 237.9375 1067.429688 235.867188 C 1067.238281 234.34375 1067.039062 232.824219 1066.84375 231.304688 C 1066.671875 229.933594 1066.671875 229.933594 1066.496094 228.539062 C 1066.273438 226.417969 1066.273438 226.417969 1065.410156 224.882812 C 1065.1875 223.546875 1064.992188 222.207031 1064.8125 220.863281 C 1063.453125 211.761719 1061.71875 202.570312 1058.757812 193.84375 C 1057.632812 197.019531 1056.835938 200.152344 1056.167969 203.449219 C 1055.5 206.753906 1054.664062 209.867188 1053.582031 213.058594 C 1053.308594 214.222656 1053.0625 215.394531 1052.839844 216.570312 C 1052.660156 217.511719 1052.660156 217.511719 1052.476562 218.472656 C 1052.289062 219.449219 1052.289062 219.449219 1052.101562 220.449219 C 1051.84375 221.820312 1051.582031 223.1875 1051.316406 224.558594 C 1051.203125 225.167969 1051.085938 225.78125 1050.96875 226.410156 C 1050.625 227.839844 1050.625 227.839844 1049.882812 228.578125 C 1049.621094 229.664062 1049.398438 230.757812 1049.191406 231.855469 C 1049 232.847656 1049 232.847656 1048.804688 233.859375 C 1048.671875 234.554688 1048.539062 235.25 1048.40625 235.96875 C 1048.144531 237.339844 1047.882812 238.710938 1047.621094 240.078125 C 1047.503906 240.691406 1047.390625 241.300781 1047.269531 241.929688 C 1046.925781 243.359375 1046.925781 243.359375 1046.1875 244.097656 C 1045.925781 245.183594 1045.703125 246.277344 1045.492188 247.375 C 1045.300781 248.367188 1045.300781 248.367188 1045.105469 249.378906 C 1044.976562 250.074219 1044.84375 250.769531 1044.707031 251.488281 C 1044.449219 252.859375 1044.1875 254.230469 1043.921875 255.597656 C 1043.808594 256.210938 1043.691406 256.820312 1043.574219 257.449219 C 1043.230469 258.878906 1043.230469 258.878906 1042.488281 259.617188 C 1042.246094 260.796875 1042.039062 261.984375 1041.84375 263.171875 C 1041.050781 267.71875 1039.953125 272.152344 1038.792969 276.613281 C 1037.570312 281.371094 1036.414062 286.113281 1035.488281 290.9375 C 1035.035156 293.164062 1034.511719 295.371094 1033.988281 297.585938 C 1032.726562 302.988281 1031.789062 308.414062 1031.058594 313.910156 C 1030.941406 314.757812 1030.824219 315.605469 1030.707031 316.476562 C 1030.609375 317.246094 1030.507812 318.015625 1030.410156 318.804688 C 1029.867188 321.183594 1029.175781 322.714844 1027.703125 324.652344 C 1023.964844 326.742188 1019.363281 327.339844 1015.132812 327.609375 C 1014.332031 327.667969 1014.332031 327.667969 1013.519531 327.726562 C 1007.101562 327.980469 1002.023438 325.75 996.648438 322.433594 C 996.648438 321.949219 996.648438 321.460938 996.648438 320.957031 C 996.160156 320.957031 995.671875 320.957031 995.167969 320.957031 C 995.167969 320.46875 995.167969 319.980469 995.167969 319.480469 C 994.4375 319.234375 993.703125 318.992188 992.949219 318.738281 C 989.507812 314.414062 987.203125 309.664062 985.480469 304.445312 C 984.859375 302.605469 984.125 300.882812 983.339844 299.109375 C 981.421875 294.441406 980.539062 289.503906 979.515625 284.582031 C 979.054688 281.945312 979.054688 281.945312 978.164062 280.308594 C 977.960938 278.730469 977.835938 277.152344 977.703125 275.566406 C 977.457031 273.566406 977.457031 273.566406 976.726562 271.332031 C 975.765625 267.835938 975.300781 264.363281 974.835938 260.773438 C 974.121094 255.226562 974.121094 255.226562 972.945312 249.769531 C 972.359375 247.484375 972.003906 245.421875 971.832031 243.082031 C 971.65625 240.535156 971.65625 240.535156 970.769531 238.183594 C 970.511719 236.648438 970.285156 235.109375 970.074219 233.566406 C 969.949219 232.644531 969.820312 231.722656 969.6875 230.773438 C 969.488281 229.300781 969.289062 227.832031 969.089844 226.363281 C 968.898438 224.945312 968.699219 223.527344 968.503906 222.109375 C 968.332031 220.835938 968.332031 220.835938 968.15625 219.535156 C 967.921875 217.53125 967.921875 217.53125 967.070312 216.015625 C 966.816406 214.570312 966.589844 213.121094 966.378906 211.671875 C 966.246094 210.804688 966.117188 209.933594 965.984375 209.039062 C 965.742188 207.421875 965.507812 205.804688 965.273438 204.191406 C 964.480469 199.042969 963.242188 194.09375 961.855469 189.082031 C 961.117188 186.3125 960.535156 183.546875 960.042969 180.722656 C 959.582031 178.632812 958.902344 176.648438 958.199219 174.628906 C 957.789062 175.214844 957.378906 175.800781 956.957031 176.40625 C 956.421875 177.160156 955.886719 177.914062 955.332031 178.691406 C 954.800781 179.449219 954.269531 180.203125 953.722656 180.980469 C 953.246094 181.566406 952.773438 182.152344 952.285156 182.757812 C 951.796875 182.757812 951.308594 182.757812 950.804688 182.757812 C 950.621094 183.152344 950.4375 183.550781 950.25 183.957031 C 949.097656 186.144531 947.820312 188.152344 946.367188 190.148438 C 945.878906 190.148438 945.394531 190.148438 944.890625 190.148438 C 944.691406 190.574219 944.492188 191 944.289062 191.441406 C 943.390625 193.144531 942.449219 194.597656 941.191406 196.058594 C 940.703125 196.058594 940.21875 196.058594 939.714844 196.058594 C 939.46875 196.792969 939.226562 197.523438 938.976562 198.277344 C 938.488281 198.277344 938 198.277344 937.496094 198.277344 C 937.308594 198.707031 937.117188 199.132812 936.925781 199.574219 C 935.925781 201.402344 934.804688 202.632812 933.335938 204.109375 C 932.8125 204.632812 932.292969 205.15625 931.753906 205.695312 C 931.207031 206.234375 930.664062 206.773438 930.101562 207.332031 C 929.558594 207.882812 929.011719 208.433594 928.449219 209 C 927.925781 209.519531 927.40625 210.039062 926.867188 210.574219 C 926.386719 211.050781 925.910156 211.527344 925.417969 212.019531 C 924.1875 213.058594 924.1875 213.058594 922.707031 213.058594 C 922.464844 213.789062 922.21875 214.519531 921.96875 215.273438 C 917.925781 218.96875 917.925781 218.96875 916.054688 218.96875 C 916.054688 219.457031 916.054688 219.945312 916.054688 220.449219 C 914.957031 221.179688 914.957031 221.179688 913.835938 221.925781 C 915.199219 227.730469 917.253906 233.328125 919.757812 238.730469 C 920.558594 240.554688 921.21875 242.402344 921.875 244.28125 C 923.289062 248.253906 925.027344 252.027344 926.824219 255.839844 C 927.722656 257.789062 928.542969 259.738281 929.316406 261.742188 C 932.277344 269.273438 935.773438 276.457031 939.949219 283.386719 C 941.167969 285.441406 942.296875 287.527344 943.410156 289.640625 C 945.285156 293.128906 947.453125 296.289062 949.828125 299.457031 C 950.804688 301.003906 950.804688 301.003906 950.804688 303.21875 C 951.292969 303.21875 951.78125 303.21875 952.285156 303.21875 C 953.980469 305.113281 954.503906 305.792969 954.503906 308.394531 C 954.988281 308.394531 955.476562 308.394531 955.980469 308.394531 C 958.632812 311.042969 958.632812 311.042969 959.679688 312.828125 C 959.539062 314.953125 959.539062 314.953125 958.9375 316.523438 C 957.960938 316.765625 956.988281 317.011719 955.980469 317.261719 C 955.980469 317.75 955.980469 318.238281 955.980469 318.738281 C 948.613281 324.140625 937.652344 327.125 928.625 326.128906 C 926.480469 325.65625 924.660156 324.90625 922.707031 323.914062 C 922.132812 323.625 921.554688 323.335938 920.960938 323.039062 C 910.03125 317.039062 902.363281 306.179688 897.148438 295.09375 C 895.992188 292.667969 894.710938 290.332031 893.410156 287.976562 C 891.269531 284.023438 889.542969 280.074219 887.957031 275.875 C 887.414062 274.539062 886.867188 273.199219 886.324219 271.863281 C 884.457031 267.28125 882.773438 262.679688 881.253906 257.972656 C 880.375 255.371094 879.347656 252.84375 878.304688 250.308594 C 877.210938 247.539062 876.292969 244.714844 875.386719 241.878906 C 872.347656 242.34375 869.921875 243.359375 867.160156 244.699219 C 863.449219 246.449219 859.746094 247.96875 855.875 249.324219 C 853.988281 249.992188 852.144531 250.726562 850.292969 251.488281 C 846.835938 252.890625 843.324219 254.066406 839.777344 255.21875 C 837.929688 255.835938 836.117188 256.507812 834.304688 257.214844 C 831.761719 258.140625 831.761719 258.140625 829.542969 258.140625 C 829.46875 258.640625 829.390625 259.144531 829.3125 259.664062 C 828.820312 261.769531 828.070312 263.601562 827.191406 265.574219 C 826.550781 267.09375 826.03125 268.625 825.523438 270.195312 C 823.398438 276.652344 820.671875 282.675781 817.578125 288.71875 C 816.261719 291.296875 815.035156 293.851562 814.015625 296.570312 C 813.527344 296.570312 813.039062 296.570312 812.539062 296.570312 C 812.476562 297.085938 812.414062 297.601562 812.351562 298.132812 C 811.664062 300.785156 810.445312 302.542969 808.886719 304.789062 C 808.363281 305.554688 807.835938 306.320312 807.296875 307.105469 C 806.828125 307.773438 806.363281 308.445312 805.882812 309.132812 C 805.394531 309.863281 804.90625 310.597656 804.40625 311.347656 C 803.917969 311.347656 803.429688 311.347656 802.925781 311.347656 C 802.726562 311.820312 802.527344 312.292969 802.324219 312.78125 C 801.445312 314.304688 801.445312 314.304688 799.230469 315.042969 C 798.984375 315.777344 798.742188 316.507812 798.488281 317.261719 C 798 317.261719 797.511719 317.261719 797.011719 317.261719 C 797.011719 317.75 797.011719 318.238281 797.011719 318.738281 C 792.226562 322.789062 785.597656 325.109375 779.335938 324.878906 C 776.257812 324.429688 773.328125 323.445312 770.390625 322.433594 C 770.390625 321.949219 770.390625 321.460938 770.390625 320.957031 C 769.589844 320.910156 769.589844 320.910156 768.773438 320.863281 C 765.785156 319.933594 764.851562 318.269531 763 315.785156 C 764.007812 313.164062 765.148438 310.664062 766.417969 308.164062 C 766.746094 307.511719 767.078125 306.855469 767.417969 306.183594 C 767.667969 305.695312 767.917969 305.203125 768.175781 304.699219 C 768.660156 304.699219 769.148438 304.699219 769.652344 304.699219 C 769.738281 304.152344 769.820312 303.605469 769.90625 303.042969 C 770.40625 300.945312 771.058594 299.734375 772.242188 297.953125 C 774.875 293.730469 776.921875 289.292969 779.015625 284.785156 C 780.894531 280.765625 782.890625 276.859375 785.109375 273.015625 C 785.890625 271.5 786.324219 270.152344 786.660156 268.484375 C 785.445312 268.828125 785.445312 268.828125 784.210938 269.179688 C 780.957031 270.003906 777.738281 270.289062 774.398438 270.519531 C 772.507812 270.648438 772.507812 270.648438 770.390625 271.441406 C 768.433594 271.65625 766.480469 271.839844 764.515625 272 C 763.941406 272.046875 763.371094 272.09375 762.785156 272.144531 C 760.960938 272.296875 759.136719 272.445312 757.3125 272.597656 C 756.078125 272.699219 754.839844 272.804688 753.605469 272.90625 C 750.574219 273.160156 747.542969 273.410156 744.511719 273.660156 C 744.617188 276.0625 744.726562 278.460938 744.835938 280.863281 C 744.867188 281.542969 744.894531 282.226562 744.925781 282.925781 C 744.957031 283.582031 744.988281 284.242188 745.019531 284.917969 C 745.058594 285.824219 745.058594 285.824219 745.101562 286.746094 C 745.246094 288.371094 745.578125 289.820312 745.992188 291.394531 C 746.121094 293.011719 746.226562 294.628906 746.316406 296.246094 C 746.574219 300.199219 747.082031 303.964844 747.859375 307.84375 C 748.378906 310.859375 748.574219 313.886719 748.769531 316.941406 C 748.84375 318.746094 748.84375 318.746094 749.6875 320.21875 C 749.898438 321.660156 750.078125 323.109375 750.242188 324.558594 C 750.964844 330.335938 751.953125 336.058594 752.96875 341.789062 C 753.121094 342.65625 753.273438 343.523438 753.429688 344.417969 C 754.308594 349.316406 755.359375 354.125 756.601562 358.941406 C 757.167969 361.199219 757.574219 363.457031 757.914062 365.761719 C 758.304688 368.582031 758.304688 368.582031 759.300781 371.210938 C 760.097656 381.277344 758.898438 389.964844 752.257812 398.03125 C 751.898438 398.449219 751.539062 398.863281 751.167969 399.292969 C 750.671875 399.921875 750.671875 399.921875 750.167969 400.558594 C 748.484375 402.679688 746.847656 404.546875 744.511719 405.945312 C 743.78125 405.945312 743.050781 405.945312 742.296875 405.945312 C 742.296875 406.433594 742.296875 406.921875 742.296875 407.425781 C 737.972656 410.589844 732.171875 413.167969 726.769531 412.597656 C 724.488281 408.039062 723.800781 403.570312 723.070312 398.554688 C 722.8125 396.921875 722.550781 395.289062 722.285156 393.660156 C 722.167969 392.933594 722.054688 392.207031 721.9375 391.460938 C 721.675781 389.6875 721.675781 389.6875 720.851562 388.210938 C 720.597656 386.90625 720.371094 385.59375 720.160156 384.28125 C 720.03125 383.496094 719.902344 382.707031 719.773438 381.894531 C 719.242188 378.488281 718.734375 375.078125 718.238281 371.667969 C 717.992188 369.753906 717.992188 369.753906 717.15625 368.253906 C 716.929688 366.90625 716.734375 365.546875 716.554688 364.191406 C 715.8125 358.824219 715.015625 353.46875 714.199219 348.117188 C 714.015625 346.898438 714.015625 346.898438 713.824219 345.652344 C 713.265625 341.984375 712.667969 338.335938 711.910156 334.703125 C 711.355469 332.007812 711.015625 329.390625 710.871094 326.636719 C 710.542969 321.730469 709.8125 316.941406 709.023438 312.089844 C 708.078125 306.191406 707.402344 300.351562 707.097656 294.386719 C 706.855469 290.019531 706.285156 285.746094 705.621094 281.417969 C 705.292969 278.546875 705.277344 275.808594 705.324219 272.917969 C 704.589844 272.875 703.859375 272.832031 703.101562 272.785156 C 700.4375 272.621094 697.773438 272.453125 695.105469 272.28125 C 693.644531 272.191406 692.179688 272.105469 690.714844 272.019531 C 685.15625 271.671875 679.746094 270.996094 674.269531 269.964844 C 674.503906 270.457031 674.734375 270.949219 674.976562 271.457031 C 676.640625 275.042969 678.191406 278.605469 679.492188 282.34375 C 680.652344 285.636719 682.097656 288.402344 683.882812 291.394531 C 684.382812 292.585938 684.382812 292.585938 684.894531 293.804688 C 686.078125 296.621094 687.550781 299.207031 689.105469 301.835938 C 690.792969 304.6875 692.355469 307.484375 693.496094 310.609375 C 693.984375 310.609375 694.472656 310.609375 694.972656 310.609375 C 695.527344 312.273438 695.527344 312.273438 695.714844 314.304688 C 691.851562 319.679688 683.503906 323.347656 677.226562 324.652344 C 669.839844 325.578125 661.847656 326.136719 655.652344 321.445312 C 654.988281 320.835938 654.988281 320.835938 654.308594 320.21875 C 653.894531 319.867188 653.480469 319.515625 653.054688 319.152344 C 651.996094 318.1875 651.996094 318.1875 650.609375 316.523438 C 650.609375 316.035156 650.609375 315.546875 650.609375 315.042969 C 650.121094 315.042969 649.632812 315.042969 649.132812 315.042969 C 648.015625 313.828125 648.015625 313.828125 646.820312 312.226562 C 646.421875 311.703125 646.023438 311.179688 645.613281 310.640625 C 644.695312 309.132812 644.695312 309.132812 644.695312 306.914062 C 644.207031 306.914062 643.71875 306.914062 643.214844 306.914062 C 642.164062 304.464844 641.449219 302.15625 640.996094 299.523438 C 640.511719 299.523438 640.023438 299.523438 639.519531 299.523438 C 637.957031 296.109375 636.769531 292.738281 635.777344 289.117188 C 635.160156 287.207031 634.449219 285.402344 633.683594 283.550781 C 632.046875 279.511719 630.847656 275.414062 629.722656 271.210938 C 629.425781 270.144531 629.425781 270.144531 629.121094 269.054688 C 628.933594 268.367188 628.746094 267.679688 628.554688 266.96875 C 628.386719 266.355469 628.222656 265.742188 628.050781 265.105469 C 627.671875 263.230469 627.625 261.523438 627.6875 259.617188 C 624.378906 258.609375 621.070312 257.613281 617.734375 256.699219 C 613.386719 255.503906 609.28125 254.261719 605.214844 252.324219 C 602.527344 251.15625 599.773438 250.226562 597.003906 249.269531 C 592.582031 247.742188 588.300781 246.097656 584.0625 244.097656 C 583.667969 244.921875 583.269531 245.742188 582.863281 246.589844 C 581.308594 249.703125 579.550781 252.664062 577.738281 255.632812 C 576.824219 257.144531 575.953125 258.671875 575.097656 260.21875 C 573.800781 262.425781 572.351562 264.273438 570.753906 266.269531 C 569.714844 267.96875 568.757812 269.695312 567.796875 271.441406 C 567.308594 271.441406 566.820312 271.441406 566.320312 271.441406 C 566.320312 272.171875 566.320312 272.90625 566.320312 273.660156 C 565.832031 273.660156 565.34375 273.660156 564.839844 273.660156 C 564.566406 274.253906 564.566406 274.253906 564.285156 274.859375 C 563.132812 277.046875 561.855469 279.050781 560.402344 281.050781 C 559.914062 281.050781 559.425781 281.050781 558.925781 281.050781 C 558.628906 281.6875 558.628906 281.6875 558.324219 282.34375 C 557.425781 284.046875 556.480469 285.5 555.226562 286.960938 C 554.738281 286.960938 554.25 286.960938 553.75 286.960938 C 553.503906 287.691406 553.261719 288.425781 553.007812 289.179688 C 552.523438 289.179688 552.035156 289.179688 551.53125 289.179688 C 551.332031 289.652344 551.132812 290.125 550.929688 290.609375 C 550.050781 292.132812 550.050781 292.132812 547.832031 292.875 C 547.832031 293.363281 547.832031 293.847656 547.832031 294.351562 C 543.785156 298.046875 543.785156 298.046875 541.917969 298.046875 C 541.917969 298.535156 541.917969 299.023438 541.917969 299.523438 C 540.328125 300.914062 538.734375 302.210938 537.066406 303.496094 C 536.390625 304.03125 536.390625 304.03125 535.703125 304.578125 C 532.722656 306.894531 529.695312 308.792969 526.390625 310.609375 C 525.3125 311.285156 524.234375 311.960938 523.15625 312.644531 C 508.632812 321.355469 492.636719 326.480469 475.914062 328.792969 C 473.953125 329.046875 473.953125 329.046875 472.28125 329.464844 C 469.652344 329.917969 467.0625 329.945312 464.402344 329.949219 C 463.84375 329.953125 463.285156 329.953125 462.707031 329.957031 C 461.523438 329.960938 460.339844 329.960938 459.15625 329.960938 C 457.382812 329.964844 455.609375 329.976562 453.835938 329.992188 C 440.894531 330.039062 428.460938 328.289062 416.222656 323.914062 C 415.464844 323.664062 414.707031 323.414062 413.929688 323.160156 C 406.953125 320.808594 400.539062 317.730469 394.039062 314.304688 C 393.273438 313.90625 392.507812 313.507812 391.71875 313.097656 C 382.828125 308.371094 382.828125 308.371094 379.25 305.4375 C 379.25 304.949219 379.25 304.460938 379.25 303.960938 C 378.839844 303.777344 378.433594 303.59375 378.007812 303.40625 C 371.574219 299.941406 365.550781 293.929688 360.765625 288.441406 C 360.765625 287.953125 360.765625 287.464844 360.765625 286.960938 C 360.277344 286.960938 359.789062 286.960938 359.289062 286.960938 C 357.839844 285.296875 356.476562 283.625 355.128906 281.878906 C 354.746094 281.398438 354.367188 280.917969 353.972656 280.421875 C 351.15625 276.808594 351.15625 276.808594 351.15625 275.136719 C 350.667969 275.136719 350.179688 275.136719 349.675781 275.136719 C 349.277344 274.4375 348.882812 273.734375 348.472656 273.011719 C 347.597656 271.464844 346.703125 269.941406 345.742188 268.441406 C 337.808594 255.941406 332.949219 241.613281 330.453125 227.101562 C 330.324219 226.480469 330.195312 225.863281 330.066406 225.222656 C 328.820312 218.75 328.800781 212.410156 328.878906 205.851562 C 328.886719 204.753906 328.894531 203.65625 328.898438 202.554688 C 328.917969 199.898438 328.941406 197.238281 328.972656 194.582031 C 329.214844 194.582031 329.460938 194.582031 329.710938 194.582031 C 329.820312 193.65625 329.820312 193.65625 329.929688 192.707031 C 330.796875 185.964844 332.269531 179.6875 334.148438 173.148438 C 334.3125 172.496094 334.480469 171.84375 334.652344 171.171875 C 335.894531 166.480469 337.96875 162.292969 340.203125 158 C 341.023438 156.414062 341.824219 154.8125 342.578125 153.195312 C 346.769531 144.257812 352.492188 136.082031 359.269531 128.914062 C 360.613281 127.492188 361.839844 126.027344 363.078125 124.511719 C 370.195312 116.394531 379.046875 110.136719 388.125 104.417969 C 388.746094 104.015625 389.363281 103.613281 390.003906 103.195312 C 392.511719 101.578125 394.949219 100.300781 397.738281 99.246094 C 398.300781 98.898438 398.867188 98.546875 399.453125 98.1875 C 401.375 97.0625 403.167969 96.320312 405.269531 95.597656 C 407.890625 94.683594 410.441406 93.703125 412.988281 92.59375 C 417.472656 90.757812 422.175781 89.816406 426.894531 88.777344 C 429.394531 88.300781 429.394531 88.300781 431.007812 87.421875 C 445.261719 85.148438 459.0625 84.605469 473.386719 86.175781 C 474.179688 86.261719 474.972656 86.347656 475.792969 86.4375 C 491.007812 88.269531 506.632812 93.394531 516.402344 105.824219 C 520.804688 112.199219 521.976562 119.726562 521.214844 127.328125 C 520.367188 131.417969 519.105469 135.667969 516.777344 139.15625 C 515.070312 139.984375 515.070312 139.984375 513.082031 139.894531 C 510.632812 138.554688 510.632812 138.554688 508.644531 136.9375 C 508.644531 136.449219 508.644531 135.960938 508.644531 135.460938 C 508.039062 135.339844 508.039062 135.339844 507.421875 135.21875 C 505.324219 134.617188 503.554688 133.695312 501.621094 132.6875 C 492.75 128.222656 484.332031 125.550781 474.632812 123.636719 C 474.070312 123.503906 473.507812 123.371094 472.929688 123.238281 C 468.960938 122.558594 464.902344 122.730469 460.882812 122.71875 C 459.277344 122.710938 457.675781 122.6875 456.070312 122.664062 C 446.480469 122.59375 437.027344 123.761719 428.050781 127.328125 C 427.355469 127.605469 426.65625 127.878906 425.941406 128.160156 C 416.511719 131.984375 407.5625 136.449219 399.863281 143.21875 C 397.738281 145.066406 397.738281 145.066406 396.257812 145.066406 C 396.011719 145.796875 395.769531 146.53125 395.519531 147.285156 C 395.03125 147.285156 394.542969 147.285156 394.039062 147.285156 C 394.039062 147.773438 394.039062 148.257812 394.039062 148.761719 C 393.550781 148.761719 393.0625 148.761719 392.5625 148.761719 C 392.316406 149.492188 392.074219 150.226562 391.820312 150.980469 C 391.332031 150.980469 390.84375 150.980469 390.34375 150.980469 C 390.164062 151.382812 389.984375 151.78125 389.800781 152.199219 C 388.640625 154.347656 387.21875 156.164062 385.722656 158.09375 C 381.035156 164.246094 377.480469 170.324219 374.816406 177.585938 C 374.617188 178.078125 374.421875 178.570312 374.21875 179.078125 C 370.40625 188.71875 369.507812 197.910156 369.546875 208.207031 C 369.542969 208.988281 369.542969 209.765625 369.539062 210.570312 C 369.546875 217.464844 369.699219 224.199219 371.859375 230.792969 C 371.984375 231.304688 372.109375 231.8125 372.238281 232.335938 C 375.113281 243.417969 381.917969 255.933594 390.21875 263.925781 C 390.746094 264.457031 391.277344 264.984375 391.820312 265.53125 C 391.820312 266.015625 391.820312 266.503906 391.820312 267.007812 C 392.554688 267.25 393.285156 267.496094 394.039062 267.746094 C 394.039062 268.234375 394.039062 268.722656 394.039062 269.222656 C 394.476562 269.421875 394.914062 269.621094 395.363281 269.824219 C 397.011719 270.710938 398.101562 271.632812 399.445312 272.917969 C 408.652344 281.140625 419.1875 286.589844 431.007812 289.917969 C 431.792969 290.144531 431.792969 290.144531 432.589844 290.375 C 433.785156 290.722656 434.984375 291.058594 436.183594 291.394531 C 437.335938 291.753906 437.335938 291.753906 438.511719 292.125 C 441.625 292.945312 444.636719 293.375 447.832031 293.707031 C 448.421875 293.765625 449.011719 293.828125 449.621094 293.890625 C 463.484375 295.269531 478.46875 293.988281 491.363281 288.449219 C 492.503906 287.964844 493.660156 287.507812 494.828125 287.089844 C 499.546875 285.382812 503.667969 282.960938 507.90625 280.308594 C 511.460938 278.09375 511.460938 278.09375 513.082031 278.09375 C 513.082031 277.605469 513.082031 277.117188 513.082031 276.613281 C 514.460938 275.363281 514.460938 275.363281 516.269531 273.980469 C 516.863281 273.523438 517.453125 273.066406 518.066406 272.59375 C 519.738281 271.441406 519.738281 271.441406 521.953125 270.703125 C 522.199219 270.214844 522.441406 269.726562 522.695312 269.222656 C 523.433594 267.746094 523.433594 267.746094 525.652344 267.007812 C 526.429688 265.648438 526.429688 265.648438 527.128906 264.050781 C 527.84375 262.988281 528.585938 261.941406 529.347656 260.910156 C 529.921875 260.128906 529.921875 260.128906 530.503906 259.328125 C 530.855469 258.9375 531.207031 258.542969 531.566406 258.140625 C 532.054688 258.140625 532.542969 258.140625 533.046875 258.140625 C 533.222656 257.761719 533.398438 257.382812 533.578125 256.996094 C 534.871094 254.519531 536.351562 252.179688 537.851562 249.824219 C 538.148438 249.34375 538.449219 248.863281 538.757812 248.371094 C 539.523438 247.164062 540.347656 245.996094 541.179688 244.835938 C 541.667969 244.835938 542.15625 244.835938 542.65625 244.835938 C 542.75 244.410156 542.839844 243.984375 542.933594 243.542969 C 543.402344 241.863281 544.054688 240.457031 544.875 238.925781 C 545.363281 238.925781 545.851562 238.925781 546.355469 238.925781 C 546.429688 238.394531 546.507812 237.863281 546.585938 237.316406 C 547.152344 234.996094 548.042969 233.410156 549.3125 231.394531 C 550.871094 228.921875 550.871094 228.921875 552.269531 226.359375 C 551.847656 226.167969 551.421875 225.976562 550.984375 225.78125 C 549.171875 224.808594 547.765625 223.691406 546.214844 222.34375 C 545.703125 221.902344 545.1875 221.460938 544.660156 221.003906 C 543.398438 219.710938 543.398438 219.710938 542.65625 217.492188 C 542.171875 217.492188 541.683594 217.492188 541.179688 217.492188 C 540.933594 216.515625 540.691406 215.542969 540.441406 214.535156 C 539.953125 214.535156 539.464844 214.535156 538.960938 214.535156 C 534 204.578125 532.203125 195.121094 535.265625 184.234375 C 536.117188 182.542969 537.019531 181.285156 538.222656 179.800781 C 540.460938 180.242188 541.90625 180.90625 543.710938 182.285156 C 544.179688 182.636719 544.648438 182.988281 545.128906 183.351562 C 545.609375 183.71875 546.089844 184.085938 546.585938 184.464844 C 550.097656 187.140625 553.585938 189.476562 557.445312 191.625 C 559.1875 192.789062 560.898438 193.988281 562.609375 195.195312 C 564.132812 196.246094 564.132812 196.246094 566.320312 196.058594 C 566.65625 195.175781 566.996094 194.292969 567.347656 193.382812 C 571.476562 182.679688 571.476562 182.679688 573.15625 179.0625 C 574.429688 176.296875 575.265625 173.484375 576.105469 170.5625 C 576.640625 168.816406 577.265625 167.167969 577.964844 165.484375 C 581.328125 157.300781 584.058594 148.84375 586.835938 140.449219 C 587.886719 137.277344 588.957031 134.125 590.164062 131.007812 C 590.613281 129.824219 591.039062 128.632812 591.457031 127.441406 C 591.71875 126.703125 591.976562 125.964844 592.242188 125.207031 C 592.601562 124.179688 592.601562 124.179688 592.964844 123.132812 C 593.675781 121.417969 593.675781 121.417969 595.15625 119.941406 C 597.175781 119.75 597.175781 119.75 599.730469 119.742188 C 600.660156 119.742188 601.589844 119.738281 602.546875 119.738281 C 603.035156 119.742188 603.519531 119.742188 604.023438 119.746094 C 605.480469 119.753906 606.9375 119.746094 608.398438 119.738281 C 619.605469 119.761719 628.230469 121.621094 636.582031 129.46875 C 641.488281 134.703125 643.910156 140.789062 644.515625 147.859375 C 644.796875 150.449219 645.503906 152.902344 646.171875 155.414062 C 647.132812 159.292969 647.835938 163.074219 648.136719 167.0625 C 648.355469 168.804688 648.355469 168.804688 649.085938 170.742188 C 650.015625 173.601562 650.503906 176.425781 650.980469 179.386719 C 651.617188 183.320312 652.453125 187.054688 653.566406 190.886719 C 653.738281 191.960938 653.882812 193.039062 653.984375 194.121094 C 654.007812 196.652344 654.007812 196.652344 655.046875 197.539062 C 655.273438 198.65625 655.46875 199.78125 655.648438 200.910156 C 656.261719 204.429688 657.03125 207.886719 657.910156 211.347656 C 658.039062 211.84375 658.164062 212.339844 658.292969 212.851562 C 658.6875 214.398438 659.085938 215.945312 659.484375 217.492188 C 660.023438 219.601562 660.5625 221.710938 661.101562 223.820312 C 661.339844 224.75 661.578125 225.683594 661.824219 226.640625 C 662.429688 229.265625 662.839844 231.820312 663.179688 234.488281 C 671.792969 236.605469 680.609375 237.421875 689.410156 238.367188 C 694.007812 238.871094 698.554688 239.582031 703.105469 240.402344 C 703.003906 239.769531 702.902344 239.136719 702.796875 238.488281 C 701.625 230.585938 701.335938 222.792969 701.210938 214.8125 C 701.179688 212.929688 701.144531 211.046875 701.105469 209.164062 C 701.082031 208.007812 701.0625 206.851562 701.046875 205.691406 C 700.988281 202.429688 700.792969 199.199219 700.515625 195.949219 C 700.085938 190.601562 700.042969 185.28125 700.050781 179.917969 C 700.050781 178.898438 700.050781 177.878906 700.050781 176.859375 C 700.046875 174.746094 700.050781 172.628906 700.054688 170.511719 C 700.058594 167.8125 700.054688 165.109375 700.050781 162.40625 C 700.046875 160.308594 700.046875 158.210938 700.050781 156.117188 C 700.050781 154.636719 700.050781 153.160156 700.046875 151.683594 C 700.050781 150.78125 700.050781 149.878906 700.054688 148.953125 C 700.054688 147.769531 700.054688 147.769531 700.054688 146.5625 C 700.152344 144.285156 700.492188 142.136719 700.890625 139.894531 C 700.96875 138.425781 701.046875 136.957031 701.105469 135.488281 C 702.035156 110.980469 709.105469 85.457031 723.347656 65.296875 C 723.664062 64.847656 723.980469 64.394531 724.308594 63.933594 C 725.089844 62.863281 725.921875 61.835938 726.769531 60.816406 C 727.253906 60.816406 727.742188 60.816406 728.246094 60.816406 C 728.421875 60.402344 728.597656 59.984375 728.777344 59.558594 C 729.941406 57.476562 731.363281 56.027344 733.050781 54.351562 C 733.640625 53.757812 734.226562 53.167969 734.832031 52.558594 C 736.378906 51.210938 736.378906 51.210938 737.859375 51.210938 C 737.859375 50.722656 737.859375 50.234375 737.859375 49.730469 C 739.753906 48.035156 740.433594 47.515625 743.035156 47.515625 C 743.035156 47.027344 743.035156 46.539062 743.035156 46.035156 C 747.386719 43.597656 751.726562 41.242188 756.320312 39.285156 C 757.636719 38.722656 758.933594 38.113281 760.226562 37.492188 C 764.171875 35.8125 768.429688 35.082031 772.609375 34.210938 C 773.273438 34.066406 773.9375 33.921875 774.625 33.769531 C 783.132812 32.039062 792.042969 31.734375 800.707031 31.996094 Z M 609.941406 171.671875 C 609.746094 172.414062 609.550781 173.152344 609.347656 173.914062 C 609.085938 174.90625 608.820312 175.898438 608.558594 176.890625 C 608.429688 177.375 608.300781 177.863281 608.167969 178.363281 C 606.234375 185.628906 604.140625 192.84375 601.730469 199.964844 C 600.21875 204.558594 598.808594 209.179688 597.375 213.796875 C 600.8125 215.316406 604.257812 216.824219 607.707031 218.320312 C 608.984375 218.875 610.257812 219.433594 611.53125 219.996094 C 612.167969 220.269531 612.800781 220.539062 613.457031 220.816406 C 614.273438 221.171875 614.273438 221.171875 615.105469 221.535156 C 616.855469 221.996094 617.863281 221.765625 619.554688 221.1875 C 619.414062 220.488281 619.269531 219.792969 619.121094 219.074219 C 618.21875 214.613281 617.324219 210.160156 616.597656 205.667969 C 616.058594 202.324219 615.425781 199.007812 614.75 195.691406 C 613.132812 187.722656 611.902344 179.707031 610.683594 171.671875 C 610.4375 171.671875 610.195312 171.671875 609.941406 171.671875 Z M 853.945312 171.671875 C 853.765625 172.449219 853.585938 173.230469 853.402344 174.03125 C 851.996094 180.089844 850.507812 186.117188 848.875 192.121094 C 848.179688 194.714844 847.527344 197.320312 846.882812 199.929688 C 846.683594 200.738281 846.484375 201.546875 846.277344 202.378906 C 845.878906 204.003906 845.480469 205.625 845.085938 207.25 C 844.902344 207.992188 844.71875 208.730469 844.53125 209.496094 C 844.285156 210.5 844.285156 210.5 844.035156 211.523438 C 843.59375 213.058594 843.59375 213.058594 842.851562 213.796875 C 842.800781 214.796875 842.789062 215.796875 842.808594 216.800781 C 842.820312 217.757812 842.835938 218.71875 842.851562 219.710938 C 843.097656 219.222656 843.339844 218.734375 843.59375 218.230469 C 844.21875 218.140625 844.84375 218.046875 845.488281 217.953125 C 848.183594 217.464844 850.023438 216.570312 852.414062 215.300781 C 853.890625 214.5625 855.34375 214.007812 856.902344 213.472656 C 860.15625 212.3125 862.90625 210.523438 865.773438 208.625 C 865.640625 208.1875 865.507812 207.75 865.367188 207.300781 C 863.691406 201.785156 862.1875 196.226562 860.71875 190.652344 C 860.53125 189.960938 860.347656 189.273438 860.15625 188.558594 C 859.992188 187.941406 859.828125 187.324219 859.660156 186.683594 C 859.132812 185.015625 858.4375 183.574219 857.640625 182.019531 C 857.035156 179.734375 856.519531 177.4375 856 175.128906 C 855.570312 173.058594 855.570312 173.058594 853.945312 171.671875 Z M 853.945312 171.671875 " fill-opacity="1" fill-rule="nonzero"/><path fill="#063e92" d="M 791.835938 30.515625 C 793.542969 30.515625 795.25 30.515625 797.011719 30.515625 C 797.011719 30.761719 797.011719 31.003906 797.011719 31.253906 C 795.300781 31.253906 793.59375 31.253906 791.835938 31.253906 C 791.835938 31.011719 791.835938 30.769531 791.835938 30.515625 Z M 791.835938 30.515625 " fill-opacity="1" fill-rule="nonzero"/></svg>