<?xml version="1.0" encoding="UTF-8"?>
<!-- Generator: visioncortex VTracer 0.6.2 -->
<svg version="1.1" xmlns="http://www.w3.org/2000/svg" width="1280" height="250">
<path d="M0 0 C78.21 0 156.42 0 237 0 C237.04030303 61.14865914 237.04030303 61.14865914 237.04882812 86.68554688 C237.05078614 92.52140302 237.05280666 98.35725914 237.05493164 104.19311523 C237.05519539 104.92459162 237.05545914 105.65606801 237.05573088 106.40971035 C237.06008569 118.23426506 237.06797252 130.05881492 237.0771528 141.88336676 C237.08648904 154.00953435 237.09205555 166.1356994 237.09408849 178.26187044 C237.09546378 185.75037662 237.09981469 193.23886913 237.10791647 200.7273711 C237.11380427 206.45989625 237.11445904 212.19241254 237.11310768 217.92494011 C237.1133842 220.28369227 237.11539184 222.64244491 237.11920547 225.001194 C237.12413606 228.20633618 237.12300065 231.4114185 237.12025452 234.61656189 C237.12462378 236.0362797 237.12462378 236.0362797 237.12908131 237.48467869 C237.11412121 243.88587879 237.11412121 243.88587879 236 245 C232.96598134 245.09801895 229.95469923 245.12991286 226.92027283 245.12025452 C225.47692062 245.12153854 225.47692062 245.12153854 224.00440979 245.12284851 C220.74372554 245.12451437 217.48309173 245.11896287 214.22241211 245.11352539 C211.85938551 245.11321931 209.49635881 245.11335211 207.13333225 245.11389065 C200.78103186 245.11411725 194.42875014 245.10830371 188.07645416 245.10128021 C182.12490273 245.09560304 176.17335594 245.09531806 170.22180176 245.09460449 C152.79369868 245.08934835 135.36559911 245.07538732 117.9375 245.0625 C79.018125 245.041875 40.09875 245.02125 0 245 C0 164.15 0 83.3 0 0 Z M87 32 C81.08026913 39.98667601 78.38622815 48.57790708 79.2109375 58.55078125 C81.47216629 72.26748039 90.35652891 80.30023536 101 88.3125 C102.10649902 89.15107544 102.10649902 89.15107544 103.23535156 90.0065918 C110.29553574 95.3077772 117.55625934 100.255883 125 105 C125.90637207 105.57886963 125.90637207 105.57886963 126.83105469 106.16943359 C134.62925023 111.12566064 134.62925023 111.12566064 143 115 C145.03438245 74.44968536 145.03438245 74.44968536 135 36 C134.443125 34.906875 133.88625 33.81375 133.3125 32.6875 C128.44459852 27.03020909 120.73885011 23.45431454 113.3515625 22.74609375 C103.32671084 22.34664593 94.06696083 24.59651723 87 32 Z M163.81640625 31.86328125 C150.49883489 47.52932755 152.57636015 71.52316668 152.8125 90.75 C152.82759821 92.92316764 152.84127738 95.09634562 152.85351562 97.26953125 C152.88605872 102.51328363 152.93754714 107.75652209 153 113 C153.66 113.33 154.32 113.66 155 114 C156.70468984 113.29614841 156.70468984 113.29614841 158.53515625 112.11328125 C159.61277222 111.45682617 159.61277222 111.45682617 160.7121582 110.78710938 C161.87557739 110.05717773 161.87557739 110.05717773 163.0625 109.3125 C163.86453857 108.81427734 164.66657715 108.31605469 165.49291992 107.80273438 C178.75226747 99.4768256 191.34866285 90.47002102 203 80 C203.804375 79.27941406 204.60875 78.55882812 205.4375 77.81640625 C212.30573172 71.33956273 215.49550644 65.37028904 216.03515625 55.8671875 C215.93701027 47.8628377 214.18644981 40.82641256 210 34 C209.46375 33.113125 208.9275 32.22625 208.375 31.3125 C201.45989149 24.57936803 192.75642549 22.62284527 183.421875 22.7265625 C175.73311954 23.34096077 169.35497805 26.52611206 163.81640625 31.86328125 Z M216 51 C217 53 217 53 217 53 Z M216 56 C217 58 217 58 217 58 Z M142 63 C143 65 143 65 143 65 Z M143 80 C143 81.98 143 83.96 143 86 C143.33 86 143.66 86 144 86 C144 84.02 144 82.04 144 80 C143.67 80 143.34 80 143 80 Z M7 85 C6.97667247 104.67068178 6.95902155 124.34136076 6.94818783 144.01205349 C6.94302456 153.14484048 6.93598128 162.2776189 6.92456055 171.41040039 C6.91461465 179.36757874 6.9081468 187.32475088 6.90591151 195.28193527 C6.90460424 199.49785986 6.90151738 203.71376668 6.89426994 207.92968559 C6.88751121 211.89322184 6.88538274 215.85673289 6.88689232 219.82027435 C6.88661592 221.27922006 6.88460993 222.73816657 6.88079453 224.19710732 C6.87585964 226.18046595 6.87760189 228.16383792 6.87974548 230.14720154 C6.87882369 231.25980567 6.8779019 232.3724098 6.87695217 233.51872921 C6.71889437 235.94263306 6.71889437 235.94263306 8 237 C9.94894959 237.09664967 11.90145455 237.12187121 13.85279846 237.12025452 C15.12471039 237.12162918 16.39662231 237.12300385 17.70707703 237.12442017 C19.12966942 237.12088055 20.55226158 237.11724573 21.97485352 237.11352539 C23.46266681 237.11324353 24.95048024 237.11340124 26.43829346 237.1139679 C30.48977 237.1142559 34.5412172 237.10835867 38.59268689 237.10139394 C42.82211997 237.09516092 47.05155364 237.09455664 51.2809906 237.09336853 C59.29559722 237.09025506 67.31019027 237.08204146 75.32479089 237.07201904 C84.44676684 237.06085839 93.56874342 237.05534758 102.69072449 237.05032361 C121.4604907 237.03985886 140.23024426 237.02225912 159 237 C159.48823397 235.24636539 159.97380373 233.49198889 160.45825195 231.73730469 C160.72893997 230.76041687 160.99962799 229.78352905 161.27851868 228.77703857 C168.929065 199.32948175 161.54047058 164.64751286 146.6184082 138.72143555 C129.75141278 110.75112992 103.57877404 92.34668694 72.24609375 84 C62.75241697 81.75348718 53.88635687 80.78754121 44.12670898 80.75976562 C42.09901069 80.75017273 40.07237816 80.71915196 38.04492188 80.6875 C27.25345653 80.60146382 17.46709814 82.37174964 7 85 Z M143 99 C143 102.3 143 105.6 143 109 C143.33 109 143.66 109 144 109 C144 105.7 144 102.4 144 99 C143.67 99 143.34 99 143 99 Z " fill="#3D8FDC" transform="translate(0,0)"/>
<path d="M0 0 C0.84848511 -0.00953201 1.69697021 -0.01906403 2.57116699 -0.02888489 C3.95229675 -0.02751778 3.95229675 -0.02751778 5.36132812 -0.02612305 C6.31140747 -0.03040817 7.26148682 -0.0346933 8.24035645 -0.03910828 C10.25788578 -0.04486173 12.27543586 -0.04534441 14.29296875 -0.04101562 C17.35258491 -0.03788275 20.41120855 -0.0612071 23.47070312 -0.08666992 C25.43424358 -0.08894579 27.39778662 -0.08964508 29.36132812 -0.08862305 C30.26588745 -0.09783279 31.17044678 -0.10704254 32.10241699 -0.11653137 C39.98610065 -0.06032709 48.4342222 1.01917044 54.33007812 6.7121582 C55.25626953 7.57647461 55.25626953 7.57647461 56.20117188 8.45825195 C60.89257812 13.49636721 60.89257812 13.49636721 60.89257812 16.2746582 C64.53118447 15.06178942 64.65651139 14.26744719 66.45507812 11.0246582 C70.19493733 5.15307926 75.30292645 2.48951791 81.94848633 0.73046875 C86.12395183 0.08401431 90.24349999 0.11200415 94.46289062 0.10668945 C95.38093475 0.10336105 96.29897888 0.10003265 97.24484253 0.09660339 C99.17966207 0.09155328 101.11449028 0.08919447 103.04931641 0.08935547 C106.01414164 0.08716075 108.9785995 0.06896237 111.94335938 0.05004883 C113.82486852 0.0471162 115.70637943 0.04513053 117.58789062 0.04418945 C118.47542023 0.03700394 119.36294983 0.02981842 120.27737427 0.02241516 C121.51413406 0.02703011 121.51413406 0.02703011 122.77587891 0.03173828 C123.50026154 0.03031326 124.22464417 0.02888824 124.97097778 0.02742004 C126.89257812 0.2746582 126.89257812 0.2746582 129.89257812 2.2746582 C130.26451492 4.39204502 130.26451492 4.39204502 130.2600708 7.06410217 C130.26563995 8.07510483 130.27120911 9.08610748 130.27694702 10.12774658 C130.26312485 11.79773712 130.26312485 11.79773712 130.24902344 13.50146484 C130.25106781 14.67057907 130.25311218 15.8396933 130.25521851 17.04423523 C130.25771591 20.25497123 130.24680179 23.46532438 130.22969151 26.6760056 C130.21468064 30.03077633 130.21583015 33.38554249 130.21502686 36.74034119 C130.21133218 42.37366203 130.1963539 48.00686117 130.17382812 53.64013672 C130.14494006 60.87943327 130.13460406 68.11863184 130.13014603 75.35797977 C130.12617103 81.5717269 130.11366902 87.78545257 130.09979916 93.99918437 C130.09569426 96.00163839 130.09277166 98.00409165 130.09000397 100.00654793 C130.08316733 103.73015394 130.06954768 107.45366888 130.05371094 111.17724609 C130.05259308 112.29259735 130.05147522 113.40794861 130.05032349 114.55709839 C130.04461334 115.56528122 130.0389032 116.57346405 130.03302002 117.61219788 C130.03004536 118.49359971 130.02707069 119.37500154 130.02400589 120.28311253 C129.89257812 122.2746582 129.89257812 122.2746582 128.89257812 123.2746582 C124.41988849 123.5561472 119.93557078 123.50647254 115.45507812 123.5246582 C113.55532227 123.5555957 113.55532227 123.5555957 111.6171875 123.5871582 C110.40998047 123.59231445 109.20277344 123.5974707 107.95898438 123.6027832 C106.84467041 123.61212891 105.73035645 123.62147461 104.58227539 123.63110352 C103.69467529 123.51347656 102.8070752 123.39584961 101.89257812 123.2746582 C99.32513972 119.42350059 99.5854797 116.23190619 99.57373047 111.76416016 C99.56368484 110.8956543 99.55363922 110.02714844 99.54328918 109.13232422 C99.51237769 106.25920275 99.49539993 103.38617479 99.47851562 100.51293945 C99.45981038 98.52181692 99.44023746 96.53070237 99.41983032 94.53959656 C99.36843509 89.29699399 99.32884893 84.05436571 99.29168701 78.81164551 C99.25169367 73.46266275 99.20058005 68.11378767 99.15039062 62.76489258 C99.05354383 52.26822335 98.96916708 41.77149342 98.89257812 31.2746582 C93.9258274 29.87075634 90.53677111 31.2267576 85.89257812 33.2746582 C81.36027715 36.37570624 80.00296327 41.08814495 78.89257812 46.2746582 C78.43506843 52.09709403 78.4272094 57.9056795 78.41601562 63.7434082 C78.40168837 65.43210076 78.38592828 67.12078172 78.36880493 68.80944824 C78.32716661 73.22796339 78.30202068 77.64640644 78.28131104 82.06506348 C78.24532696 89.16496178 78.18464053 96.26468314 78.12282181 103.36439514 C78.10369971 105.84453277 78.09199867 108.32462258 78.08139038 110.80480957 C78.07118628 112.31233834 78.06082905 113.81986609 78.05029297 115.32739258 C78.04925064 116.02031403 78.04820831 116.71323547 78.0471344 117.42715454 C78.00601515 122.16122117 78.00601515 122.16122117 76.89257812 123.2746582 C72.77728833 123.51632483 68.65866548 123.50315095 64.53686523 123.51489258 C62.46687714 123.52460285 60.39787998 123.55561532 58.328125 123.5871582 C57.03068359 123.59231445 55.73324219 123.5974707 54.39648438 123.6027832 C53.19838135 123.61212891 52.00027832 123.62147461 50.76586914 123.63110352 C49.34359009 123.45466309 49.34359009 123.45466309 47.89257812 123.2746582 C45.44214689 119.59901135 45.63625065 117.79227826 45.62133789 113.4074707 C45.61611115 112.71269119 45.6108844 112.01791168 45.60549927 111.30207825 C45.59525927 109.79286965 45.58947886 108.28362573 45.58761787 106.77438354 C45.5839491 104.37660374 45.56720411 101.97923574 45.54685974 99.58154297 C45.49152895 92.76399449 45.4609242 85.94638307 45.4362793 79.12866211 C45.42028777 74.95588899 45.3899382 70.78340235 45.35151482 66.61077881 C45.33995418 65.02898227 45.33393526 63.44713419 45.33383369 61.86529541 C45.33305349 52.93889166 44.88341465 44.79592483 41.89257812 36.2746582 C41.56257812 35.2846582 41.23257813 34.2946582 40.89257812 33.2746582 C38.54038232 32.23723362 38.54038232 32.23723362 35.70507812 31.5871582 C34.76277344 31.33579102 33.82046875 31.08442383 32.84960938 30.82543945 C29.79354572 30.25621227 26.99346236 30.23674088 23.89257812 30.2746582 C23.89479874 31.4250206 23.89701935 32.575383 23.89930725 33.76060486 C23.91953735 44.57665879 23.93454962 55.3927089 23.9443903 66.20877743 C23.94961946 71.77005232 23.95671771 77.33131199 23.96801758 82.89257812 C23.97884528 88.25473239 23.98485471 93.61687198 23.98745537 98.97903633 C23.98930983 101.02966099 23.99293084 103.0802848 23.99830818 105.13090324 C24.00551705 107.99256023 24.00656913 110.85415577 24.00610352 113.71582031 C24.00969879 114.57249298 24.01329407 115.42916565 24.01699829 116.3117981 C24.00663029 122.16060604 24.00663029 122.16060604 22.89257812 123.2746582 C18.41988849 123.5561472 13.93557078 123.50647254 9.45507812 123.5246582 C7.55532227 123.5555957 7.55532227 123.5555957 5.6171875 123.5871582 C4.40998047 123.59231445 3.20277344 123.5974707 1.95898438 123.6027832 C0.84467041 123.61212891 -0.26964355 123.62147461 -1.41772461 123.63110352 C-2.30532471 123.51347656 -3.1929248 123.39584961 -4.10742188 123.2746582 C-6.26425612 120.03940683 -6.3581374 119.17701025 -6.36138916 115.44761658 C-6.36702881 114.45351273 -6.37266846 113.45940887 -6.378479 112.43518066 C-6.37443054 111.34572144 -6.37038208 110.25626221 -6.36621094 109.13378906 C-6.36971558 107.98564224 -6.37322021 106.83749542 -6.37683105 105.65455627 C-6.38565255 101.84947714 -6.37979801 98.04458306 -6.37304688 94.23950195 C-6.37439331 91.60299138 -6.37633366 88.96648104 -6.37884521 86.32997131 C-6.38248432 80.80101505 -6.37768671 75.27211221 -6.36816406 69.74316406 C-6.35727421 63.34643049 -6.36080911 56.94982435 -6.37181687 50.55309385 C-6.38197624 44.40373664 -6.38091412 38.25443604 -6.37505341 32.10507393 C-6.37371548 29.48589625 -6.37536958 26.86671533 -6.38001251 24.24754143 C-6.38506813 20.59364974 -6.37738118 16.94000595 -6.36621094 13.28613281 C-6.3702594 12.19464935 -6.37430786 11.10316589 -6.378479 9.97860718 C-6.37283936 8.98732315 -6.36719971 7.99603912 -6.36138916 6.97471619 C-6.36063511 6.11028365 -6.35988106 5.24585112 -6.35910416 4.35522366 C-5.86453755 0.26682225 -3.57882672 0.02207217 0 0 Z M62.89257812 17.2746582 C63.89257812 20.2746582 63.89257812 20.2746582 63.89257812 20.2746582 Z M84.89257812 30.2746582 C85.89257812 32.2746582 85.89257812 32.2746582 85.89257812 32.2746582 Z " fill="#3D90DD" transform="translate(580.107421875,121.725341796875)"/>
<path d="M0 0 C14.01778925 11.16429526 25.45667431 25.82212179 28 44 C29.43030555 63.4770303 26.14977015 80.3823189 13.171875 95.62890625 C-0.15126035 110.17412776 -14.23251079 116.10082636 -33.65332031 116.95703125 C-49.81642989 117.4217388 -62.40169716 111.88618687 -74.6875 101.375 C-87.27876776 89.40148563 -95.78745166 74.05819918 -96.28393555 56.56225586 C-96.48469457 39.87180249 -91.68036606 24.14597838 -80.5 11.4375 C-79.01916093 9.93915101 -77.52051737 8.45806755 -76 7 C-75.4225 6.37996094 -74.845 5.75992188 -74.25 5.12109375 C-54.8135894 -14.271932 -21.88667935 -14.9424638 0 0 Z M-55 31 C-61.50853642 40.46103038 -64.06359842 48.47325208 -63 60 C-61.23263437 67.82260129 -57.96468105 74.78458539 -51.08203125 79.2421875 C-42.54693476 83.76562355 -33.81727205 85.60336743 -24.4375 82.875 C-16.95717081 80.08129939 -10.75791868 75.10800123 -7 68 C-3.49294901 59.34351146 -3.69781102 48.69881888 -6.6875 39.875 C-10.25764516 31.66734668 -14.53751896 27.91527404 -22.61328125 24.140625 C-33.45301136 20.48987391 -46.91377693 22.46454232 -55 31 Z M-5 107 C-4 109 -4 109 -4 109 Z " fill="#3C8EDB" transform="translate(1252,132)"/>
<path d="M0 0 C13.69925257 10.51519058 25.58551622 25.46007235 28 43 C29.43703774 62.15660878 27.04526334 78.15401268 14.8984375 93.6875 C4.54843601 105.68326145 -8.7495577 115.60586018 -25 117 C-36.01675175 117.74135489 -45.64104227 117.24478322 -56 113 C-56.85722656 112.67257813 -57.71445312 112.34515625 -58.59765625 112.0078125 C-66.36740565 108.6339435 -72.09011131 102.89354045 -78 97 C-79.13501953 95.89978516 -79.13501953 95.89978516 -80.29296875 94.77734375 C-90.70414698 84.00368736 -95.94084885 69.57193286 -96.4375 54.75 C-96.00031053 36.91631294 -89.50338062 20.30160945 -76.81640625 7.62109375 C-55.05280941 -12.6332384 -24.98084652 -16.37600189 0 0 Z M-57 34 C-62.67585467 43.14052029 -64.75733814 52.32796379 -62.31640625 62.984375 C-59.78464326 70.59016922 -56.31251415 76.45097279 -49.125 80.3125 C-39.98168688 84.36267482 -31.12007309 85.30540138 -21.52734375 82.171875 C-14.35844316 78.84780981 -9.26546523 73.07517467 -6 66 C-3.09589216 57.24816482 -4.14953938 45.65076031 -7.75390625 37.33203125 C-11.38856564 30.52986305 -15.68570526 26.83759129 -22.8671875 23.8828125 C-36.00376648 20.18098351 -48.12159023 23.76758439 -57 34 Z M-4 51 C-4 52.65 -4 54.3 -4 56 C-3.67 56 -3.34 56 -3 56 C-3 54.35 -3 52.7 -3 51 C-3.33 51 -3.66 51 -4 51 Z M8 97 C9 99 9 99 9 99 Z " fill="#3C8EDB" transform="translate(1018,132)"/>
<path d="M0 0 C0.91888504 -0.00953201 1.83777008 -0.01906403 2.78450012 -0.02888489 C4.28275581 -0.02751778 4.28275581 -0.02751778 5.8112793 -0.02612305 C6.8430278 -0.03040817 7.87477631 -0.0346933 8.93778992 -0.03910828 C11.13104519 -0.04486388 13.32431957 -0.04534284 15.51757812 -0.04101562 C18.83392257 -0.0378904 22.14934443 -0.06117758 25.46557617 -0.08666992 C44.00138226 -0.14413388 60.21749116 1.27045503 74.51049805 14.4621582 C84.56509763 25.2574281 86.20068053 37.06458048 85.70922852 51.15795898 C85.1523819 59.81003819 82.14286403 67.02794515 77.57299805 74.2746582 C76.97487305 75.2852832 76.37674805 76.2959082 75.76049805 77.3371582 C75.36862305 77.9765332 74.97674805 78.6159082 74.57299805 79.2746582 C75.05510742 79.79415039 75.5372168 80.31364258 76.03393555 80.84887695 C82.67484893 88.18098745 84.69421086 94.12373262 84.70581055 104.07543945 C84.70709961 105.1344043 84.70838867 106.19336914 84.7097168 107.28442383 C84.70584961 108.37432617 84.70198242 109.46422852 84.69799805 110.5871582 C84.70186523 111.69639648 84.70573242 112.80563477 84.7097168 113.94848633 C84.70842773 115.00100586 84.70713867 116.05352539 84.70581055 117.13793945 C84.70468262 118.09998291 84.70355469 119.06202637 84.70239258 120.05322266 C84.57299805 122.2746582 84.57299805 122.2746582 83.57299805 123.2746582 C79.26716979 123.55572305 74.94940858 123.50646564 70.63549805 123.5246582 C68.80728516 123.5555957 68.80728516 123.5555957 66.94213867 123.5871582 C65.78004883 123.59231445 64.61795898 123.5974707 63.4206543 123.6027832 C62.34823486 123.61212891 61.27581543 123.62147461 60.17089844 123.63110352 C59.31359131 123.51347656 58.45628418 123.39584961 57.57299805 123.2746582 C55.1253152 119.60313394 55.31371235 117.58704888 55.19799805 113.2121582 C54.90022704 106.85459381 54.23403905 100.65854204 50.57299805 95.2746582 C45.94542608 91.15191227 40.12932538 91.71857788 34.26049805 91.5871582 C33.23375977 91.55299805 32.20702148 91.51883789 31.14916992 91.48364258 C28.62388842 91.40142411 26.09894264 91.33218884 23.57299805 91.2746582 C23.58085327 92.67542603 23.58085327 92.67542603 23.58886719 94.10449219 C23.60587425 97.55778617 23.61843106 101.01103588 23.62792969 104.46435547 C23.63296926 105.96110739 23.63980092 107.45785436 23.6484375 108.95458984 C23.66051963 111.10165627 23.66622996 113.24865782 23.6706543 115.39575195 C23.67850952 117.33599243 23.67850952 117.33599243 23.68652344 119.31542969 C23.57299805 122.2746582 23.57299805 122.2746582 22.57299805 123.2746582 C18.10030841 123.5561472 13.6159907 123.50647254 9.13549805 123.5246582 C7.23574219 123.5555957 7.23574219 123.5555957 5.29760742 123.5871582 C4.09040039 123.59231445 2.88319336 123.5974707 1.6394043 123.6027832 C0.52509033 123.61212891 -0.58922363 123.62147461 -1.73730469 123.63110352 C-2.62490479 123.51347656 -3.51250488 123.39584961 -4.42700195 123.2746582 C-6.5838362 120.03940683 -6.67771748 119.17701025 -6.68096924 115.44761658 C-6.68660889 114.45351273 -6.69224854 113.45940887 -6.69805908 112.43518066 C-6.69401062 111.34572144 -6.68996216 110.25626221 -6.68579102 109.13378906 C-6.68929565 107.98564224 -6.69280029 106.83749542 -6.69641113 105.65455627 C-6.70523263 101.84947714 -6.69937809 98.04458306 -6.69262695 94.23950195 C-6.69397339 91.60299138 -6.69591374 88.96648104 -6.69842529 86.32997131 C-6.7020644 80.80101505 -6.69726678 75.27211221 -6.68774414 69.74316406 C-6.67685428 63.34643049 -6.68038918 56.94982435 -6.69139695 50.55309385 C-6.70155632 44.40373664 -6.7004942 38.25443604 -6.69463348 32.10507393 C-6.69329556 29.48589625 -6.69494966 26.86671533 -6.69959259 24.24754143 C-6.70464821 20.59364974 -6.69696126 16.94000595 -6.68579102 13.28613281 C-6.68983948 12.19464935 -6.69388794 11.10316589 -6.69805908 9.97860718 C-6.69241943 8.98732315 -6.68677979 7.99603912 -6.68096924 6.97471619 C-6.68021519 6.11028365 -6.67946114 5.24585112 -6.67868423 4.35522366 C-6.16433639 0.103298 -3.67690251 0.02093895 0 0 Z M23.57299805 29.2746582 C23.54834615 34.09846622 23.53016112 38.92223787 23.51806641 43.74609375 C23.51302631 45.38835285 23.50619427 47.03060744 23.49755859 48.67285156 C23.48547879 51.02841299 23.47976666 53.38391529 23.4753418 55.73950195 C23.47018051 56.47804916 23.46501923 57.21659637 23.45970154 57.9775238 C23.45950555 59.74363908 23.51105086 61.50962966 23.57299805 63.2746582 C25.70276527 65.40442542 30.26188226 64.50616299 33.19799805 64.5246582 C33.99334961 64.5452832 34.78870117 64.5659082 35.6081543 64.5871582 C42.46580993 64.63220028 47.14508368 63.38588808 52.44799805 58.7746582 C56.74868527 53.71502618 56.03391729 47.60182241 55.57299805 41.2746582 C53.9538127 36.50232245 51.78257185 34.01577603 47.57299805 31.2746582 C42.37388148 29.05657822 37.73994233 29.03475346 32.19799805 29.1496582 C30.95083008 29.16319336 30.95083008 29.16319336 29.6784668 29.17700195 C27.64318467 29.200396 25.60805241 29.23626095 23.57299805 29.2746582 Z " fill="#3D90DD" transform="translate(475.427001953125,121.725341796875)"/>
<path d="M0 0 C0.82360016 -0.00191345 1.64720032 -0.0038269 2.49575806 -0.00579834 C4.21836659 -0.00714804 5.94098573 -0.00353744 7.66357422 0.00488281 C10.30328902 0.01568321 12.9423361 0.00490421 15.58203125 -0.0078125 C17.26302233 -0.0064923 18.944013 -0.00393281 20.625 0 C21.8062294 -0.00607269 21.8062294 -0.00607269 23.01132202 -0.01226807 C26.84032911 0.02073107 28.65227947 0.09110298 31.9140625 2.265625 C32.2859993 4.38301182 32.2859993 4.38301182 32.28155518 7.05506897 C32.28712433 8.06607162 32.29269348 9.07707428 32.2984314 10.11871338 C32.28921661 11.23204041 32.28000183 12.34536743 32.27050781 13.49243164 C32.27255219 14.66154587 32.27459656 15.8306601 32.27670288 17.03520203 C32.27920028 20.24593802 32.26828616 23.45629118 32.25117588 26.6669724 C32.23616502 30.02174313 32.23731453 33.37650929 32.23651123 36.73130798 C32.23281656 42.36462882 32.21783827 47.99782797 32.1953125 53.63110352 C32.16642443 60.87040007 32.15608843 68.10959864 32.1516304 75.34894657 C32.14765541 81.56269369 32.1351534 87.77641937 32.12128353 93.99015117 C32.11717864 95.99260519 32.11425604 97.99505845 32.11148834 99.99751472 C32.1046517 103.72112074 32.09103205 107.44463568 32.07519531 111.16821289 C32.07407745 112.28356415 32.07295959 113.39891541 32.07180786 114.54806519 C32.06609772 115.55624802 32.06038757 116.56443085 32.05450439 117.60316467 C32.05152973 118.48456651 32.04855507 119.36596834 32.04549026 120.27407932 C31.9140625 122.265625 31.9140625 122.265625 30.9140625 123.265625 C26.27452196 123.54750816 21.6236454 123.4974457 16.9765625 123.515625 C15.66236328 123.53625 14.34816406 123.556875 12.99414062 123.578125 C11.74181641 123.58328125 10.48949219 123.5884375 9.19921875 123.59375 C8.04301025 123.6030957 6.88680176 123.61244141 5.69555664 123.62207031 C4.77766357 123.50444336 3.85977051 123.38681641 2.9140625 123.265625 C0.49202212 119.63256442 0.68103359 117.94743477 0.71875 113.62890625 C0.72374512 112.45884033 0.72874023 111.28877441 0.73388672 110.08325195 C0.75209473 108.59656006 0.77030273 107.10986816 0.7890625 105.578125 C0.8303125 100.855 0.8715625 96.131875 0.9140625 91.265625 C-8.9859375 91.265625 -18.8859375 91.265625 -29.0859375 91.265625 C-29.07433594 93.49183594 -29.06273437 95.71804687 -29.05078125 98.01171875 C-29.04299028 100.15958514 -29.03691375 102.30744997 -29.03100586 104.45532227 C-29.02596629 105.95207418 -29.01913463 107.44882116 -29.01049805 108.94555664 C-28.99841591 111.09262307 -28.99270559 113.23962462 -28.98828125 115.38671875 C-28.98042603 117.32695923 -28.98042603 117.32695923 -28.97241211 119.30639648 C-29.0859375 122.265625 -29.0859375 122.265625 -30.0859375 123.265625 C-34.72547804 123.54750816 -39.3763546 123.4974457 -44.0234375 123.515625 C-45.33763672 123.53625 -46.65183594 123.556875 -48.00585938 123.578125 C-49.25818359 123.58328125 -50.51050781 123.5884375 -51.80078125 123.59375 C-52.95698975 123.6030957 -54.11319824 123.61244141 -55.30444336 123.62207031 C-56.22233643 123.50444336 -57.14022949 123.38681641 -58.0859375 123.265625 C-60.44780387 119.72282544 -60.34840049 118.19845266 -60.37646484 113.99682617 C-60.38922455 112.70085007 -60.40198425 111.40487396 -60.41513062 110.06962585 C-60.41819113 108.64928334 -60.42041736 107.22893882 -60.421875 105.80859375 C-60.42830797 104.3442624 -60.4350367 102.87993233 -60.44204712 101.41560364 C-60.4540351 98.33799268 -60.45772717 95.26049399 -60.45654297 92.18286133 C-60.45634146 88.27732677 -60.48346015 84.37253374 -60.51808739 80.46717358 C-60.5405723 77.43584538 -60.54437375 74.40468826 -60.54332352 71.37328529 C-60.54565425 69.93625688 -60.55433172 68.49922185 -60.56998825 67.06227684 C-60.7575908 48.03847858 -54.83459064 30.25117781 -41.4296875 16.41015625 C-29.62501064 5.60887692 -15.95144108 -0.08329085 0 0 Z M-23.49609375 38.234375 C-29.36193851 45.72882039 -29.93733832 54.01187509 -29.0859375 63.265625 C-27.99405767 64.58337785 -27.99405767 64.58337785 -25.31030273 64.37915039 C-23.49574585 64.37129517 -23.49574585 64.37129517 -21.64453125 64.36328125 C-20.46947021 64.36078369 -19.29440918 64.35828613 -18.08374023 64.35571289 C-16.57884033 64.34660889 -15.07394043 64.33750488 -13.5234375 64.328125 C-6.376875 64.2971875 -6.376875 64.2971875 0.9140625 64.265625 C0.9140625 52.715625 0.9140625 41.165625 0.9140625 29.265625 C-8.08111524 29.265625 -17.00373987 31.75574703 -23.49609375 38.234375 Z M1.9140625 29.265625 C1.9140625 41.145625 1.9140625 53.025625 1.9140625 65.265625 C2.2440625 65.265625 2.5740625 65.265625 2.9140625 65.265625 C2.9140625 53.385625 2.9140625 41.505625 2.9140625 29.265625 C2.5840625 29.265625 2.2540625 29.265625 1.9140625 29.265625 Z M-23.0859375 35.265625 C-22.0859375 37.265625 -22.0859375 37.265625 -22.0859375 37.265625 Z " fill="#3D8FDD" transform="translate(419.0859375,121.734375)"/>
<path d="M0 0 C2.70529794 0.03154579 5.41001365 0.04101954 8.11547852 0.046875 C9.83618881 0.0560316 11.55689316 0.06640304 13.27758789 0.078125 C14.48995872 0.08449982 14.48995872 0.08449982 15.7268219 0.09100342 C21.38278742 0.16392789 21.38278742 0.16392789 23.61743164 1.28125 C23.61743164 41.54125 23.61743164 81.80125 23.61743164 123.28125 C14.37743164 123.28125 5.13743164 123.28125 -4.38256836 123.28125 C-6.73966478 119.74560537 -6.68266571 118.06099745 -6.79663086 113.86328125 C-6.83224121 112.7338208 -6.86785156 111.60436035 -6.90454102 110.44067383 C-6.93854004 109.00618896 -6.97253906 107.5717041 -7.00756836 106.09375 C-7.13131836 101.535625 -7.25506836 96.9775 -7.38256836 92.28125 C-22.23256836 91.78625 -22.23256836 91.78625 -37.38256836 91.28125 C-37.3709668 93.50746094 -37.35936523 95.73367187 -37.34741211 98.02734375 C-37.33962114 100.17521014 -37.33354461 102.32307497 -37.32763672 104.47094727 C-37.32259715 105.96769918 -37.31576549 107.46444616 -37.30712891 108.96118164 C-37.29504677 111.10824807 -37.28933645 113.25524962 -37.28491211 115.40234375 C-37.27705688 117.34258423 -37.27705688 117.34258423 -37.26904297 119.32202148 C-37.38256836 122.28125 -37.38256836 122.28125 -38.38256836 123.28125 C-43.0221089 123.56313316 -47.67298546 123.5130707 -52.32006836 123.53125 C-53.63426758 123.551875 -54.9484668 123.5725 -56.30249023 123.59375 C-57.55481445 123.59890625 -58.80713867 123.6040625 -60.09741211 123.609375 C-61.25362061 123.6187207 -62.4098291 123.62806641 -63.60107422 123.63769531 C-64.51896729 123.52006836 -65.43686035 123.40244141 -66.38256836 123.28125 C-68.680342 119.83458954 -68.63945166 118.53202052 -68.65722656 114.47143555 C-68.67152458 112.67762703 -68.67152458 112.67762703 -68.68611145 110.84757996 C-68.68520004 109.55080826 -68.68428864 108.25403656 -68.68334961 106.91796875 C-68.68724114 105.56573862 -68.69157675 104.21350971 -68.69633484 102.86128235 C-68.70380406 100.01905373 -68.70350468 97.17694922 -68.69824219 94.3347168 C-68.69250386 90.73195506 -68.70923612 87.12971694 -68.73258686 83.52704144 C-68.74750324 80.72733191 -68.74817101 77.9277425 -68.74507713 75.12800026 C-68.74582633 73.16642099 -68.75958367 71.20486011 -68.77375793 69.24333191 C-68.67259831 49.25845854 -62.5342523 30.92269358 -48.88256836 16.09375 C-44.89461296 12.28182308 -40.76271045 9.4600381 -35.94506836 6.84375 C-35.06915039 6.36675659 -35.06915039 6.36675659 -34.17553711 5.88012695 C-23.03341406 0.22847966 -12.23920456 -0.14432226 0 0 Z M-31.63256836 39.65625 C-36.06438493 44.68374084 -36.64582293 50.07196998 -36.57006836 56.59375 C-36.56362305 57.82738281 -36.55717773 59.06101562 -36.55053711 60.33203125 C-36.71729799 63.1684389 -36.71729799 63.1684389 -35.38256836 64.28125 C-33.23698009 64.36900605 -31.08852415 64.38820219 -28.94116211 64.37890625 C-27.63598633 64.37568359 -26.33081055 64.37246094 -24.98608398 64.36914062 C-23.59741146 64.36078401 -22.20873959 64.35231905 -20.82006836 64.34375 C-19.4274918 64.33873666 -18.03491354 64.33417347 -16.64233398 64.33007812 C-13.22236966 64.31824434 -9.80248992 64.3017588 -6.38256836 64.28125 C-6.35791646 59.45744198 -6.33973143 54.63367033 -6.32763672 49.80981445 C-6.32259662 48.16755536 -6.31576458 46.52530077 -6.30712891 44.88305664 C-6.2950491 42.52749521 -6.28933697 40.17199291 -6.28491211 37.81640625 C-6.27975082 37.07785904 -6.27458954 36.33931183 -6.26927185 35.5783844 C-6.26907586 33.81226912 -6.32062117 32.04627854 -6.38256836 30.28125 C-7.41346543 29.02978542 -7.41346543 29.02978542 -9.63647461 29.140625 C-18.37119666 29.58792229 -25.76295818 33.25047351 -31.63256836 39.65625 Z M-67.38256836 58.28125 C-66.38256836 60.28125 -66.38256836 60.28125 -66.38256836 60.28125 Z " fill="#3C8FDC" transform="translate(797.382568359375,121.71875)"/>
<path d="M0 0 C0.92076828 -0.0066568 1.84153656 -0.0133136 2.79020691 -0.02017212 C4.74805707 -0.03031819 6.70594194 -0.03498854 8.66381836 -0.03466797 C11.61828487 -0.03898982 14.57119386 -0.07514341 17.52539062 -0.11328125 C37.98676574 -0.23627034 52.04303005 4.76632566 66.85546875 19.3359375 C67.94214844 20.40328125 67.94214844 20.40328125 69.05078125 21.4921875 C74.41948168 27.12626095 77.86222035 33.17452076 80.85546875 40.3359375 C81.19707031 41.1403125 81.53867188 41.9446875 81.890625 42.7734375 C86.97661553 57.53463791 85.01501894 75.60626284 78.3828125 89.3984375 C69.81725937 105.27407261 56.73236339 116.51012718 39.4765625 121.6796875 C38.61160156 121.89625 37.74664063 122.1128125 36.85546875 122.3359375 C36.17000977 122.5102832 35.48455078 122.68462891 34.77832031 122.86425781 C30.67152972 123.52699749 26.6227255 123.51864735 22.46875 123.5390625 C21.12142036 123.54761261 21.12142036 123.54761261 19.74687195 123.55633545 C17.8549415 123.56575464 15.96299487 123.57230714 14.07104492 123.57617188 C11.16752125 123.58593901 8.26468771 123.61701533 5.36132812 123.6484375 C3.52213962 123.65496211 1.68294606 123.6602147 -0.15625 123.6640625 C-1.02706711 123.6764093 -1.89788422 123.6887561 -2.79508972 123.70147705 C-5.2331543 123.69238281 -5.2331543 123.69238281 -9.14453125 123.3359375 C-11.3013655 120.10068613 -11.39524677 119.23828954 -11.39849854 115.50889587 C-11.40413818 114.51479202 -11.40977783 113.52068817 -11.41558838 112.49645996 C-11.41153992 111.40700073 -11.40749146 110.3175415 -11.40332031 109.19506836 C-11.40682495 108.04692154 -11.41032959 106.89877472 -11.41394043 105.71583557 C-11.42276193 101.91075644 -11.41690739 98.10586236 -11.41015625 94.30078125 C-11.41150268 91.66427067 -11.41344303 89.02776034 -11.41595459 86.39125061 C-11.41959369 80.86229435 -11.41479608 75.33339151 -11.40527344 69.80444336 C-11.39438358 63.40770979 -11.39791848 57.01110365 -11.40892625 50.61437315 C-11.41908562 44.46501593 -11.4180235 38.31571533 -11.41216278 32.16635323 C-11.41082486 29.54717555 -11.41247896 26.92799463 -11.41712189 24.30882072 C-11.4221775 20.65492903 -11.41449056 17.00128525 -11.40332031 13.34741211 C-11.40736877 12.25592865 -11.41141724 11.16444519 -11.41558838 10.03988647 C-11.40994873 9.04860245 -11.40430908 8.05731842 -11.39849854 7.03599548 C-11.39774448 6.17156295 -11.39699043 5.30713041 -11.39621353 4.41650295 C-10.68680936 -1.44788211 -4.52526831 0.01132323 0 0 Z M19.85546875 30.3359375 C19.85546875 51.1259375 19.85546875 71.9159375 19.85546875 93.3359375 C32.24697317 93.3359375 38.39062575 92.35936652 47.06640625 84.25390625 C53.25925116 77.61485199 56.45678375 69.8197941 56.16796875 60.66796875 C54.88489508 51.09303146 51.68839571 41.88562053 43.90234375 35.8125 C35.56539453 30.30756788 30.48620843 30.3359375 19.85546875 30.3359375 Z M54.85546875 111.3359375 C55.85546875 113.3359375 55.85546875 113.3359375 55.85546875 113.3359375 Z " fill="#3D8FDD" transform="translate(1066.14453125,121.6640625)"/>
<path d="M0 0 C1.63074781 0.0149657 3.26144842 0.03564821 4.89207458 0.06056213 C6.22365601 0.07497345 6.22365601 0.07497345 7.58213806 0.0896759 C10.53114957 0.12278979 13.48001859 0.1630746 16.42893982 0.2033844 C18.4677479 0.22767342 20.50656133 0.25151758 22.54537964 0.27493286 C27.92292855 0.33789501 33.30038335 0.40692707 38.67784119 0.47718811 C44.16058551 0.54776229 49.6433968 0.61264447 55.12620544 0.67799377 C65.89255506 0.80716237 76.65881389 0.94273816 87.42503357 1.08229065 C87.44969238 5.05160054 87.4678738 9.02088099 87.47996521 12.99024963 C87.48500414 14.34149451 87.49183534 15.69273391 87.50047302 17.04396057 C87.51255776 18.98249499 87.51773185 20.92106865 87.52268982 22.8596344 C87.52792664 24.02744446 87.53316345 25.19525452 87.53855896 26.39845276 C87.42503357 29.08229065 87.42503357 29.08229065 86.42503357 30.08229065 C84.58385327 30.17610367 82.73905716 30.19973019 80.89549255 30.19581604 C79.71434372 30.19574051 78.53319489 30.19566498 77.31625366 30.19558716 C76.03086197 30.19042587 74.74547028 30.18526459 73.42112732 30.1799469 C71.45889977 30.17782448 71.45889977 30.17782448 69.45703125 30.17565918 C65.97340498 30.17183475 62.48982018 30.16200511 59.00621033 30.1509552 C55.45376649 30.14073947 51.90131598 30.13616121 48.34886169 30.13111877 C41.37423353 30.12038277 34.39963981 30.10278658 27.42503357 30.08229065 C27.92003357 38.99229065 27.92003357 38.99229065 28.42503357 48.08229065 C29.68162781 48.10210999 30.93822205 48.12192932 32.2328949 48.14234924 C36.89032703 48.21836062 41.54744492 48.30708488 46.20457458 48.39967346 C48.22111308 48.43798169 50.23772035 48.4728313 52.25437927 48.50416565 C55.15135799 48.54977614 58.04786253 48.60777704 60.94456482 48.66822815 C61.84777969 48.67977936 62.75099457 48.69133057 63.68157959 48.70323181 C64.52222458 48.7231015 65.36286957 48.74297119 66.22898865 48.76344299 C67.33818413 48.7834285 67.33818413 48.7834285 68.4697876 48.80381775 C70.42503357 49.08229065 70.42503357 49.08229065 73.42503357 51.08229065 C73.78147888 53.77198792 73.78147888 53.77198792 73.75315857 57.1486969 C73.74800232 58.35590393 73.74284607 59.56311096 73.73753357 60.80690002 C73.71690857 62.07340393 73.69628357 63.33990784 73.67503357 64.64479065 C73.66987732 65.91516174 73.66472107 67.18553284 73.65940857 68.49440002 C73.57873135 77.92859287 73.57873135 77.92859287 72.42503357 79.08229065 C71.01278311 79.17516325 69.59594423 79.19975837 68.1806488 79.19581604 C66.82936134 79.19570274 66.82936134 79.19570274 65.45077515 79.19558716 C64.47161636 79.19042587 63.49245758 79.18526459 62.48362732 79.1799469 C61.48622025 79.17853195 60.48881317 79.177117 59.46118164 79.17565918 C56.26160233 79.17004179 53.06209188 79.15748636 49.86253357 79.14479065 C47.69912312 79.13977789 45.53571158 79.13521459 43.37229919 79.13111877 C38.05652032 79.12006672 32.74078186 79.10331169 27.42503357 79.08229065 C27.43027039 80.37965149 27.4355072 81.67701233 27.44090271 83.01368713 C27.45894826 87.8087648 27.47046394 92.60383945 27.47996521 97.39894104 C27.48500645 99.47772221 27.49183931 101.55649981 27.50047302 103.63526917 C27.51254779 106.61631651 27.51826381 109.59731714 27.52268982 112.5783844 C27.5278511 113.51379562 27.53301239 114.44920685 27.53833008 115.41296387 C27.53840561 116.27378067 27.53848114 117.13459747 27.53855896 118.02149963 C27.54077957 118.7831694 27.54300018 119.54483917 27.54528809 120.32958984 C27.42503357 122.08229065 27.42503357 122.08229065 26.42503357 123.08229065 C22.30974377 123.32395728 18.19112092 123.3107834 14.06932068 123.32252502 C11.99933258 123.3322353 9.93033542 123.36324777 7.86058044 123.39479065 C6.56313904 123.3999469 5.26569763 123.40510315 3.92893982 123.41041565 C2.13178528 123.4244342 2.13178528 123.4244342 0.29832458 123.43873596 C-0.64986145 123.32110901 -1.59804749 123.20348206 -2.57496643 123.08229065 C-4.74008277 119.83461614 -4.82454218 118.95865823 -4.82220459 115.21055603 C-4.82639908 114.20659286 -4.83059357 113.2026297 -4.83491516 112.16824341 C-4.82929565 111.0678624 -4.82367615 109.96748138 -4.81788635 108.83375549 C-4.8197847 107.67424881 -4.82168304 106.51474213 -4.82363892 105.32009888 C-4.82735139 101.47774042 -4.81663678 97.63556988 -4.80543518 93.79322815 C-4.80424368 91.1318992 -4.80373929 88.47057822 -4.80404663 85.80924988 C-4.80311011 80.22901559 -4.79442648 74.64883568 -4.78077698 69.06861877 C-4.7650362 62.60941081 -4.75977941 56.15026234 -4.76051253 49.69103658 C-4.76112197 43.48401967 -4.75602521 37.27702221 -4.74772072 31.07001114 C-4.74452762 28.42488854 -4.74256516 25.77976417 -4.74182701 23.13463974 C-4.73967115 19.44707454 -4.73094379 15.75958569 -4.7202301 12.07203674 C-4.72068329 10.96760727 -4.72113647 9.8631778 -4.72160339 8.72528076 C-4.71733841 7.72695724 -4.71307343 6.72863373 -4.7086792 5.70005798 C-4.70700336 4.82732931 -4.70532751 3.95460064 -4.70360088 3.05542564 C-4.47386569 -0.46850231 -3.66817118 0.08443609 0 0 Z " fill="#3D90DD" transform="translate(269.57496643066406,121.91770935058594)"/>
<path d="M0 0 C0.89511795 0.00404846 1.7902359 0.00809692 2.71247864 0.01226807 C3.65404816 0.00876343 4.59561768 0.00525879 5.5657196 0.00164795 C8.68966465 -0.00718102 11.81338466 -0.00131561 14.93733215 0.00543213 C17.10205123 0.0040857 19.26677 0.00214536 21.43148804 -0.00036621 C25.97358574 -0.00331915 30.51560489 0.00098522 35.05769348 0.01031494 C40.88661937 0.02170274 46.71536095 0.01515528 52.54428005 0.00317001 C57.01631056 -0.00404979 61.48829724 -0.00175997 65.96032906 0.0034256 C68.10977767 0.00476211 70.25923023 0.00311432 72.40867424 -0.00153351 C75.41109158 -0.00659991 78.41320872 0.00111354 81.41560364 0.01226807 C82.75524422 0.00619537 82.75524422 0.00619537 84.12194824 0 C85.34805817 0.00845947 85.34805817 0.00845947 86.59893799 0.01708984 C87.30888633 0.01784389 88.01883467 0.01859795 88.75029659 0.01937485 C90.6287384 0.27105713 90.6287384 0.27105713 93.6287384 2.27105713 C93.98518372 4.68536377 93.98518372 4.68536377 93.9568634 7.68121338 C93.95170715 8.75306885 93.9465509 9.82492432 93.9412384 10.92926025 C93.9206134 12.05267822 93.8999884 13.17609619 93.8787384 14.33355713 C93.87358215 15.46084229 93.8684259 16.58812744 93.8631134 17.74957275 C93.7825093 26.11728623 93.7825093 26.11728623 92.6287384 27.27105713 C90.18043414 27.35949506 87.76053242 27.38634465 85.31233215 27.36871338 C84.21575035 27.36659096 84.21575035 27.36659096 83.09701538 27.36442566 C80.75338208 27.35881121 78.40984301 27.34625635 76.0662384 27.33355713 C74.48095332 27.32854399 72.89566675 27.32398076 71.31037903 27.31988525 C67.4164623 27.3088371 63.52261635 27.29156285 59.6287384 27.27105713 C59.63095901 28.45900375 59.63317963 29.64695038 59.63546753 30.87089539 C59.65569732 42.04013699 59.67070975 53.2093749 59.68055058 64.37863064 C59.68577982 70.12150775 59.69287821 75.86437014 59.70417786 81.60723877 C59.71500528 87.14445707 59.72101493 92.68166117 59.72361565 98.21888924 C59.72547016 100.3364999 59.72909127 102.45410975 59.73446846 104.5717144 C59.74167696 107.52676987 59.74272943 110.48176583 59.74226379 113.43682861 C59.74585907 114.3215535 59.74945435 115.20627838 59.75315857 116.11781311 C59.74279056 122.15700497 59.74279056 122.15700497 58.6287384 123.27105713 C53.98919787 123.55294029 49.3383213 123.50287783 44.6912384 123.52105713 C43.37703918 123.54168213 42.06283997 123.56230713 40.70881653 123.58355713 C39.45649231 123.58871338 38.20416809 123.59386963 36.91389465 123.59918213 C35.75768616 123.60852783 34.60147766 123.61787354 33.41023254 123.62750244 C32.49233948 123.50987549 31.57444641 123.39224854 30.6287384 123.27105713 C28.02040299 119.35855402 28.32144058 116.0270799 28.30989075 111.48516846 C28.29984512 110.58740189 28.2897995 109.68963531 28.27944946 108.7646637 C28.24853297 105.79414517 28.2315588 102.82371711 28.2146759 99.85308838 C28.19597107 97.79470537 28.17639818 95.73633009 28.1559906 93.67796326 C28.10459111 88.25780788 28.06500722 82.83762762 28.02784729 77.4173584 C27.98785662 71.8874085 27.93674179 66.35756281 27.8865509 60.82769775 C27.78969906 49.97555733 27.70532392 39.12335817 27.6287384 28.27105713 C26.6092511 28.25647461 25.58976379 28.24189209 24.53938293 28.22686768 C20.76330674 28.16897247 16.98783245 28.09174048 13.2122345 28.00860596 C11.57691707 27.97531499 9.94148358 27.94729607 8.3059845 27.92462158 C5.95733597 27.89115085 3.60975503 27.83884277 1.2615509 27.78277588 C0.52816498 27.77638596 -0.20522095 27.76999603 -0.96083069 27.76341248 C-3.02311707 27.70343018 -3.02311707 27.70343018 -6.3712616 27.27105713 C-8.54872513 24.00486183 -8.62732589 23.02159879 -8.6368866 19.23590088 C-8.63946472 18.26201416 -8.64204285 17.28812744 -8.6446991 16.284729 C-8.63696472 15.26959229 -8.62923035 14.25445557 -8.6212616 13.20855713 C-8.62899597 12.18955322 -8.63673035 11.17054932 -8.6446991 10.1206665 C-8.64212097 9.14806885 -8.63954285 8.17547119 -8.6368866 7.17340088 C-8.63463074 6.28128906 -8.63237488 5.38917725 -8.63005066 4.47003174 C-8.02348503 -0.68405942 -4.30758709 0.02982282 0 0 Z " fill="#3E91DE" transform="translate(836.3712615966797,121.72894287109375)"/>
<path d="M0 0 C2.0494737 1.35409529 4.09286545 2.71657091 6.13183594 4.08642578 C8.00532667 5.33684107 9.89333271 6.56097624 11.7890625 7.77734375 C13.44035156 8.84662109 13.44035156 8.84662109 15.125 9.9375 C16.08535156 10.55753906 17.04570313 11.17757812 18.03515625 11.81640625 C18.70417969 12.33074219 19.37320313 12.84507813 20.0625 13.375 C20.0625 14.035 20.0625 14.695 20.0625 15.375 C21.3825 16.035 22.7025 16.695 24.0625 17.375 C24.0625 18.035 24.0625 18.695 24.0625 19.375 C11.53057217 25.70463094 -1.02116069 31.6974099 -14.25 36.4375 C-15.24314209 36.79448975 -16.23628418 37.15147949 -17.25952148 37.51928711 C-43.5436503 46.67527371 -43.5436503 46.67527371 -56.45703125 40.82421875 C-65.03398879 35.81311442 -72.57492336 27.98774697 -75.5703125 18.3359375 C-77.04577913 10.45631786 -75.62509801 3.46116807 -71.9375 -3.625 C-52.1652043 -32.46301635 -22.59010384 -14.70959651 0 0 Z " fill="#3C8EDC" transform="translate(108.9375,110.625)"/>
<path d="M0 0 C-1.43626718 58.95876774 -1.43626718 58.95876774 -16 74 C-23.59909112 80.83765915 -31.35650989 84.38090365 -41.60546875 84.2109375 C-50.13365149 83.45967834 -57.05996939 79.38573543 -62.7265625 73.078125 C-67.95610394 66.43171273 -70.61673792 60.37635562 -70.34765625 51.8359375 C-69.04037051 41.17201114 -62.97577235 33.11245306 -54.75 26.625 C-46.92605114 21.00063233 -38.49756195 16.51210007 -30 12 C-28.73687988 11.32324219 -28.73687988 11.32324219 -27.44824219 10.6328125 C-24.90580265 9.27068825 -22.36019333 7.91476984 -19.8125 6.5625 C-19.03511475 6.14943604 -18.25772949 5.73637207 -17.45678711 5.31079102 C-15.31466796 4.18545203 -13.16372922 3.08315101 -11 2 C-10.35208496 1.67499512 -9.70416992 1.34999023 -9.03662109 1.01513672 C-5.70568085 -0.54898005 -3.49231751 -1.53661971 0 0 Z M-23 76 C-22 78 -22 78 -22 78 Z " fill="#3C8EDC" transform="translate(136,137)"/>
<path d="M0 0 C1.32 0.33 2.64 0.66 4 1 C4 31.36 4 61.72 4 93 C1.00094456 90.00094456 1.69990503 86.65746394 1.69702148 82.63476562 C1.68858215 81.76961838 1.68014282 80.90447113 1.67144775 80.0131073 C1.64558985 77.14414952 1.6335113 74.27529472 1.62109375 71.40625 C1.60492788 69.41848933 1.58774886 67.43073667 1.56959534 65.44299316 C1.5238282 60.20277599 1.48906463 54.9625483 1.45739746 49.722229 C1.40559608 41.33342365 1.34049385 32.94473588 1.26918221 24.55607605 C1.24629038 21.61897825 1.23005629 18.68189546 1.21446228 15.74475098 C1.20105854 13.9515771 1.187444 12.15840478 1.17358398 10.36523438 C1.17097061 9.54335129 1.16835724 8.7214682 1.16566467 7.87467957 C1.22512627 3.80577617 1.22512627 3.80577617 0 0 Z " fill="#4DA6EC" transform="translate(678,151)"/>
<path d="M0 0 C1.66611905 -0.042721 3.33382885 -0.04063832 5 0 C6.78830448 1.78830448 6.12848711 4.19581152 6.13894653 6.57641602 C6.1369223 7.35557373 6.13489807 8.13473145 6.1328125 8.9375 C6.13376923 9.732771 6.13472595 10.52804199 6.13571167 11.34741211 C6.13639343 13.0320646 6.13453943 14.71671971 6.13037109 16.40136719 C6.12502275 18.98899197 6.13031619 21.57644316 6.13671875 24.1640625 C6.13605797 25.79687539 6.1347768 27.42968816 6.1328125 29.0625 C6.13483673 29.84165771 6.13686096 30.62081543 6.13894653 31.42358398 C6.11495105 36.88504895 6.11495105 36.88504895 5 38 C2.72052208 38.1002093 0.43792865 38.13081303 -1.84375 38.1328125 C-2.52804077 38.13376923 -3.21233154 38.13472595 -3.9173584 38.13571167 C-5.36661877 38.1363933 -6.81588218 38.13454023 -8.26513672 38.13037109 C-10.49062928 38.12502252 -12.71592001 38.1303166 -14.94140625 38.13671875 C-16.34635461 38.13605797 -17.75130285 38.1347768 -19.15625 38.1328125 C-20.44337891 38.13168457 -21.73050781 38.13055664 -23.05664062 38.12939453 C-26 38 -26 38 -27 37 C-27.07313567 34.46950598 -27.09247527 31.96695163 -27.0625 29.4375 C-27.05798828 28.72658203 -27.05347656 28.01566406 -27.04882812 27.28320312 C-27.03700864 25.52209987 -27.01907263 23.76103964 -27 22 C-26.67 22 -26.34 22 -26 22 C-25.67 26.29 -25.34 30.58 -25 35 C-15.43 35.33 -5.86 35.66 4 36 C3.92609438 31.19358601 3.84336224 26.38906754 3.73754883 21.58349609 C3.70425786 19.94817866 3.67623894 18.31274518 3.65356445 16.67724609 C3.62009372 14.32859757 3.56778564 11.98101663 3.51171875 9.6328125 C3.50532883 8.89942657 3.4989389 8.16604065 3.49235535 7.41043091 C3.46005457 5.12675244 3.46005457 5.12675244 3 2 C2.01 1.34 1.02 0.68 0 0 Z " fill="#4DA6EC" transform="translate(787,150)"/>
<path d="M0 0 C4.53897705 -0.02465392 9.07791543 -0.04283789 13.61694336 -0.05493164 C15.16219766 -0.0599714 16.70744716 -0.0668032 18.25268555 -0.07543945 C20.46925029 -0.08752076 22.68575218 -0.09323173 24.90234375 -0.09765625 C25.5971434 -0.10281754 26.29194305 -0.10797882 27.00779724 -0.11329651 C28.6722933 -0.11349277 30.33665499 -0.06189129 32 0 C33 1 33 1 33.11352539 3.95922852 C33.10828857 5.25272217 33.10305176 6.54621582 33.09765625 7.87890625 C33.0962413 8.5655687 33.09482635 9.25223114 33.09336853 9.95970154 C33.08775479 12.16067801 33.07520007 14.36155409 33.0625 16.5625 C33.05748676 18.05143083 33.05292355 19.54036324 33.04882812 21.02929688 C33.03778093 24.68623075 33.02050713 28.34310558 33 32 C30.24560484 29.24560484 30.69010724 27.53396797 30.5859375 23.6796875 C30.55032715 22.54772949 30.5147168 21.41577148 30.47802734 20.24951172 C30.44402832 18.80592285 30.4100293 17.36233398 30.375 15.875 C30.25125 11.29625 30.1275 6.7175 30 2 C15.15 1.505 15.15 1.505 0 1 C0 0.67 0 0.34 0 0 Z " fill="#52AEF1" transform="translate(760,212)"/>
<path d="M0 0 C28.71 0 57.42 0 87 0 C87 0.33 87 0.66 87 1 C58.29 1 29.58 1 0 1 C0 0.67 0 0.34 0 0 Z " fill="#3C8EDC" transform="translate(267,121)"/>
<path d="M0 0 C0.33 0 0.66 0 1 0 C1.33 4.29 1.66 8.58 2 13 C3.91425781 13.04898438 5.82851563 13.09796875 7.80078125 13.1484375 C10.30470244 13.22346136 12.80860796 13.29900935 15.3125 13.375 C17.20645508 13.42140625 17.20645508 13.42140625 19.13867188 13.46875 C20.34716797 13.50742188 21.55566406 13.54609375 22.80078125 13.5859375 C23.91622314 13.6173584 25.03166504 13.6487793 26.1809082 13.68115234 C29 14 29 14 32 16 C27.60343827 16.02465504 23.2069128 16.04283842 18.81030273 16.05493164 C17.31355082 16.05997121 15.81680384 16.06680287 14.32006836 16.07543945 C12.17300193 16.08752159 10.02600038 16.09323191 7.87890625 16.09765625 C5.93866577 16.10551147 5.93866577 16.10551147 3.95922852 16.11352539 C1 16 1 16 0 15 C-0.07313567 12.46950598 -0.09247527 9.96695163 -0.0625 7.4375 C-0.05798828 6.72658203 -0.05347656 6.01566406 -0.04882812 5.28320312 C-0.03700864 3.52209987 -0.01907263 1.76103964 0 0 Z " fill="#50ABEF" transform="translate(760,172)"/>
<path d="M0 0 C0.33 0 0.66 0 1 0 C1.33 3.63 1.66 7.26 2 11 C2.80219971 11.01981934 3.60439941 11.03963867 4.4309082 11.06005859 C8.05844177 11.15519495 11.68539045 11.2649208 15.3125 11.375 C17.20645508 11.42140625 17.20645508 11.42140625 19.13867188 11.46875 C20.34716797 11.50742188 21.55566406 11.54609375 22.80078125 11.5859375 C23.91622314 11.6173584 25.03166504 11.6487793 26.1809082 11.68115234 C29 12 29 12 32 14 C27.60343827 14.02465504 23.2069128 14.04283842 18.81030273 14.05493164 C17.31355082 14.05997121 15.81680384 14.06680287 14.32006836 14.07543945 C12.17300193 14.08752159 10.02600038 14.09323191 7.87890625 14.09765625 C5.93866577 14.10551147 5.93866577 14.10551147 3.95922852 14.11352539 C1 14 1 14 0 13 C-0.07258946 10.81360547 -0.08373783 8.62499611 -0.0625 6.4375 C-0.05347656 5.23996094 -0.04445313 4.04242188 -0.03515625 2.80859375 C-0.02355469 1.88175781 -0.01195312 0.95492187 0 0 Z " fill="#50AAEF" transform="translate(389,174)"/>
</svg>
