<?xml version="1.0" encoding="UTF-8"?>
<!-- Generator: visioncortex VTracer 0.6.2 -->
<svg version="1.1" xmlns="http://www.w3.org/2000/svg" width="1280" height="320">
<path d="M0 0 C4.30270889 1.20672419 8.13188104 2.78631075 12.078125 4.86328125 C16.41145385 7.03129319 16.41145385 7.03129319 21.078125 7.86328125 C21.078125 8.52328125 21.078125 9.18328125 21.078125 9.86328125 C21.75875 9.97542969 22.439375 10.08757813 23.140625 10.203125 C26.58355534 10.97686865 29.79440306 12.15991265 33.078125 13.42578125 C33.75439941 13.68174072 34.43067383 13.9377002 35.12744141 14.20141602 C39.33785819 15.79861718 43.5337392 17.43144985 47.7265625 19.07421875 C49.15162109 19.62807251 49.15162109 19.62807251 50.60546875 20.19311523 C52.48830468 20.92549063 54.36858148 21.66448315 56.24609375 22.41040039 C57.10589844 22.74418701 57.96570313 23.07797363 58.8515625 23.421875 C59.61903809 23.72407959 60.38651367 24.02628418 61.17724609 24.33764648 C63.14332253 25.10960762 63.14332253 25.10960762 65.078125 23.86328125 C65.73039062 24.44980469 66.38265625 25.03632812 67.0546875 25.640625 C70.67381888 28.30120091 74.29055292 29.80659893 78.453125 31.42578125 C80.63576553 32.29536683 82.81788549 33.16620291 84.99902344 34.03955078 C86.35103884 34.57521306 87.70833507 35.09779597 89.07128906 35.60498047 C92.81074304 37.06008592 95.31802136 38.17088991 97.078125 41.86328125 C97.40625 45.21875 97.40625 45.21875 97.328125 49.05078125 C97.31644287 49.71553467 97.30476074 50.38028809 97.29272461 51.06518555 C96.99165933 64.03621259 96.99165933 64.03621259 95.078125 67.86328125 C94.8925 69.75046875 94.8925 69.75046875 94.703125 71.67578125 C94.31650837 75.48153871 93.60639361 79.08420728 92.703125 82.80078125 C91.47707177 87.88894089 90.51979247 92.96183379 89.6953125 98.125 C88.26044082 106.90125277 86.6967786 115.64799282 85.02587891 124.38232422 C84.72277744 125.97716019 84.42440997 127.57290191 84.13037109 129.16943359 C83.69622681 131.52520013 83.24817444 133.87793628 82.796875 136.23046875 C82.66865356 136.94081268 82.54043213 137.65115662 82.4083252 138.38302612 C81.65662756 142.20597706 80.88938163 145.08424782 78.078125 147.86328125 C75.140625 148.42578125 75.140625 148.42578125 72.078125 147.86328125 C68.91830738 144.46230338 66.93397124 140.85007764 64.953125 136.67578125 C62.98642851 132.43753143 62.98642851 132.43753143 60.078125 128.86328125 C58.84752547 126.52307639 57.66820742 124.1789693 56.515625 121.80078125 C53.13103828 114.89587509 49.58111749 108.09794342 45.87280273 101.36108398 C43.078125 96.19015987 43.078125 96.19015987 43.078125 92.86328125 C42.418125 92.86328125 41.758125 92.86328125 41.078125 92.86328125 C40.28262108 91.46963125 39.49190662 90.07324694 38.703125 88.67578125 C38.26226562 87.89847656 37.82140625 87.12117188 37.3671875 86.3203125 C36.078125 83.86328125 36.078125 83.86328125 35.22265625 81.59375 C33.56219749 77.63245076 31.34339614 74.04410228 29.140625 70.36328125 C28.47643555 69.24373047 28.47643555 69.24373047 27.79882812 68.1015625 C25.5702407 64.3485017 23.32710387 60.60415699 21.078125 56.86328125 C13.48252196 58.06258699 5.97216263 59.75069907 -1.421875 61.86328125 C-4.74086981 62.81156548 -8.05108282 63.56150524 -11.421875 64.30078125 C-15.00297959 65.11113406 -18.38900458 65.90306092 -21.734375 67.42578125 C-24.84474717 68.82849811 -27.72174175 69.63607573 -31.02734375 70.39453125 C-33.1126558 70.87321812 -33.1126558 70.87321812 -35.796875 71.92578125 C-40.11846199 73.22225735 -44.43614237 73.52640805 -48.921875 73.86328125 C-50.91285346 70.87681356 -51.86312426 68.26640863 -52.921875 64.86328125 C-51.931875 64.86328125 -50.941875 64.86328125 -49.921875 64.86328125 C-49.921875 64.20328125 -49.921875 63.54328125 -49.921875 62.86328125 C-50.581875 62.20328125 -51.241875 61.54328125 -51.921875 60.86328125 C-50.931875 60.20328125 -49.941875 59.54328125 -48.921875 58.86328125 C-47.72954887 56.8132417 -47.72954887 56.8132417 -46.921875 54.86328125 C-46.261875 54.86328125 -45.601875 54.86328125 -44.921875 54.86328125 C-44.921875 53.87328125 -44.921875 52.88328125 -44.921875 51.86328125 C-44.109375 49.98828125 -44.109375 49.98828125 -42.921875 47.86328125 C-42.426875 46.95578125 -41.931875 46.04828125 -41.421875 45.11328125 C-40.926875 44.37078125 -40.431875 43.62828125 -39.921875 42.86328125 C-39.261875 42.86328125 -38.601875 42.86328125 -37.921875 42.86328125 C-37.591875 41.21328125 -37.261875 39.56328125 -36.921875 37.86328125 C-36.261875 37.86328125 -35.601875 37.86328125 -34.921875 37.86328125 C-34.65375 36.93515625 -34.385625 36.00703125 -34.109375 35.05078125 C-32.97614274 32.00894729 -32.27508239 30.92233771 -29.921875 28.86328125 C-29.261875 27.87328125 -28.601875 26.88328125 -27.921875 25.86328125 C-27.468125 25.18265625 -27.014375 24.50203125 -26.546875 23.80078125 C-24.91022568 21.06492014 -24.91022568 21.06492014 -24.2265625 18.703125 C-20.47703104 7.21790972 -12.85551945 -2.23905374 0 0 Z M-20.921875 12.86328125 C-19.921875 15.86328125 -19.921875 15.86328125 -19.921875 15.86328125 Z " fill="#FAA71F" transform="translate(168.921875,43.13671875)"/>
<path d="M0 0 C2.70129556 0 4.43089877 0.44372358 6.38671875 2.35546875 C12.6538237 10.40826936 17.47963102 19.78713735 21.9375 28.9375 C25.50523035 36.22978401 29.76331956 43.08412354 34 50 C35.00105133 51.66603542 36.00126643 53.33257413 37 55 C37.680625 56.11375 38.36125 57.2275 39.0625 58.375 C42.00532569 63.61549344 43.77651592 68.85360752 42.8046875 74.9453125 C40.44727852 80.964716 34.41457805 84.92686111 29 88 C28.154375 88.845625 27.30875 89.69125 26.4375 90.5625 C24.25944581 92.74055419 22.72447772 93.73506392 20 95 C19.67 95.66 19.34 96.32 19 97 C18.34 97 17.68 97 17 97 C16.67 97.66 16.34 98.32 16 99 C15.01 98.67 14.02 98.34 13 98 C13.33 98.99 13.66 99.98 14 101 C-5.84341637 118 -5.84341637 118 -9 118 C-9 118.66 -9 119.32 -9 120 C-11.02643768 121.75644379 -13.05161283 123.38714022 -15.1875 125 C-15.76564453 125.45117188 -16.34378906 125.90234375 -16.93945312 126.3671875 C-20.16534319 128.8312572 -23.10149055 130.70783868 -27 132 C-27 131.34 -27 130.68 -27 130 C-27.99 130 -28.98 130 -30 130 C-29.34 131.32 -28.68 132.64 -28 134 C-33.75 136 -33.75 136 -36 136 C-35.9175 136.763125 -35.835 137.52625 -35.75 138.3125 C-36 141 -36 141 -37.5 142.8125 C-41.02265341 144.48576037 -44.21596326 144.65521259 -48 144 C-51 142.375 -51 142.375 -54 140 C-54.53496094 139.62230469 -55.06992188 139.24460937 -55.62109375 138.85546875 C-61.17274604 134.90364744 -66.23065441 130.37552639 -71.35351562 125.89428711 C-75.74494876 122.06055721 -80.22252579 118.37135157 -84.80078125 114.76171875 C-88.30272598 111.95643087 -91.64823087 108.98159382 -95 106 C-96.41507721 104.74820093 -97.83173086 103.49818151 -99.25 102.25 C-99.87390625 101.69828125 -100.4978125 101.1465625 -101.140625 100.578125 C-103.0390615 98.96684697 -104.9961756 97.47736137 -107 96 C-110.61063645 93.22258735 -113.78156025 90.21843975 -117 87 C-117.99 86.34 -118.98 85.68 -120 85 C-122.69838448 82.43324403 -124.93032576 80.10451137 -127 77 C-127 76.01 -127 75.02 -127 74 C-127.66 73.67 -128.32 73.34 -129 73 C-125.47765395 69.47765395 -121.023054 69.87442608 -116.25219727 69.87060547 C-115.1127063 69.86749359 -113.97321533 69.86438171 -112.79919434 69.86117554 C-111.56737427 69.86315948 -110.3355542 69.86514343 -109.06640625 69.8671875 C-107.77617554 69.86586823 -106.48594482 69.86454895 -105.15661621 69.8631897 C-101.67638096 69.86049665 -98.19619044 69.86493984 -94.71596146 69.87142944 C-92.56591915 69.87499433 -90.41588351 69.87661682 -88.26583862 69.87768555 C-65.83277904 69.89156173 -43.41942226 70.172991 -21 71 C-18.36530746 65.73061492 -17.14976868 60.48986082 -16 54.75 C-13.86467349 44.29023653 -13.86467349 44.29023653 -12.9375 39.953125 C-12.70353516 38.84952637 -12.70353516 38.84952637 -12.46484375 37.72363281 C-12 36 -12 36 -11 35 C-10.52535443 32.82025825 -10.09681976 30.63044775 -9.6875 28.4375 C-8.56057399 22.6691311 -7.38596721 16.91422971 -6.0625 11.1875 C-5.91707764 10.50034912 -5.77165527 9.81319824 -5.62182617 9.10522461 C-4.48365531 4.32924059 -4.48365531 4.32924059 -1.87109375 2.55078125 C-1.25363281 2.36902344 -0.63617188 2.18726563 0 2 C0 1.34 0 0.68 0 0 Z M39 75 C37.36323743 76.9600281 37.36323743 76.9600281 36 79 C39.12197478 77.6910428 39.12197478 77.6910428 41 75 C40.34 75 39.68 75 39 75 Z M35 79 C34.34 80.32 33.68 81.64 33 83 C33.99 82.34 34.98 81.68 36 81 C35.67 80.34 35.34 79.68 35 79 Z M27 85 C27.66 85.66 28.32 86.32 29 87 C29 86.34 29 85.68 29 85 C28.34 85 27.68 85 27 85 Z M26 86 C25.01 87.485 25.01 87.485 24 89 C24.99 88.67 25.98 88.34 27 88 C26.67 87.34 26.34 86.68 26 86 Z " fill="#003B7E" transform="translate(193,136)"/>
<path d="M0 0 C-0.33 0.99 -0.66 1.98 -1 3 C-0.34 3 0.32 3 1 3 C1.495 4.485 1.495 4.485 2 6 C1.67 6.66 1.34 7.32 1 8 C0.34 8 -0.32 8 -1 8 C-1 8.66 -1 9.32 -1 10 C-1.66 10 -2.32 10 -3 10 C-2.505 11.485 -2.505 11.485 -2 13 C-3.0390625 15.1640625 -3.0390625 15.1640625 -4.625 17.625 C-7.58837383 22.33316402 -10.33494088 27.11798905 -13 32 C-14.485 31.505 -14.485 31.505 -16 31 C-15.505 32.98 -15.505 32.98 -15 35 C-15.99 35 -16.98 35 -18 35 C-17.67 35.99 -17.34 36.98 -17 38 C-18.485 38.495 -18.485 38.495 -20 39 C-20.061875 39.66 -20.12375 40.32 -20.1875 41 C-21.2970291 45.09672282 -23.22406959 48.76676314 -26 52 C-26.99 52 -27.98 52 -29 52 C-28.79375 52.598125 -28.5875 53.19625 -28.375 53.8125 C-28 56 -28 56 -30 59 C-30.99 59 -31.98 59 -33 59 C-32.773125 59.5775 -32.54625 60.155 -32.3125 60.75 C-32 63 -32 63 -33.3125 65.25 C-33.869375 65.8275 -34.42625 66.405 -35 67 C-35.66 67 -36.32 67 -37 67 C-37.04125 67.804375 -37.0825 68.60875 -37.125 69.4375 C-38.31948474 74.30075931 -40.78921055 78.1674927 -44 82 C-44.66 82 -45.32 82 -46 82 C-45.67 82.99 -45.34 83.98 -45 85 C-45.99 85.33 -46.98 85.66 -48 86 C-48.144375 86.7425 -48.28875 87.485 -48.4375 88.25 C-49 91 -49 91 -49.76171875 92.921875 C-50.25426371 95.13116904 -50.25426371 95.13116904 -48.5234375 97 C-47.81445312 97.66 -47.10546875 98.32 -46.375 99 C-45.63507813 99.69738281 -44.89515625 100.39476562 -44.1328125 101.11328125 C-42.54510631 102.51779057 -40.90894024 103.86788845 -39.25 105.1875 C-36.711352 107.232522 -34.85440952 109.32140847 -33 112 C-33 112.99 -33 113.98 -33 115 C-32.4225 115.103125 -31.845 115.20625 -31.25 115.3125 C-28.64338842 116.10896465 -27.0264689 117.19065277 -25 119 C-25 119.66 -25 120.32 -25 121 C-24.34 121 -23.68 121 -23 121 C-23 121.66 -23 122.32 -23 123 C-22.34 123 -21.68 123 -21 123 C-21 123.66 -21 124.32 -21 125 C-20.34 125 -19.68 125 -19 125 C-19 125.66 -19 126.32 -19 127 C-18.11683105 127.4007373 -18.11683105 127.4007373 -17.21582031 127.80957031 C-13.49218027 129.8100627 -10.74424792 132.80443904 -7.75 135.75 C-7.1003125 136.3584375 -6.450625 136.966875 -5.78125 137.59375 C-2.84804055 140.47766181 -1.183286 142.18496226 -0.265625 146.265625 C-1 149 -1 149 -2.84375 150.859375 C-7.42106418 152.5135529 -11.67380046 152.35621622 -16.5 152.25 C-17.90572266 152.24226563 -17.90572266 152.24226563 -19.33984375 152.234375 C-26.26987983 152.15573629 -26.26987983 152.15573629 -29.34509277 151.49978638 C-31.92699221 151.01374372 -34.2713363 150.86290072 -36.89453125 150.84228516 C-37.83901123 150.83202301 -38.78349121 150.82176086 -39.7565918 150.81118774 C-40.7650415 150.80388641 -41.77349121 150.79658508 -42.8125 150.7890625 C-44.96094527 150.76100568 -47.10938268 150.73234131 -49.2578125 150.703125 C-52.63508989 150.66180672 -56.0122185 150.62490496 -59.38964844 150.59863281 C-62.65590411 150.57104137 -65.92149878 150.52518541 -69.1875 150.4765625 C-70.19594971 150.47330963 -71.20439941 150.47005676 -72.2434082 150.46670532 C-81.21559271 150.30933047 -81.21559271 150.30933047 -85 147 C-85 146.34 -85 145.68 -85 145 C-85.99 144.67 -86.98 144.34 -88 144 C-91.1608675 127.08006222 -93.61591081 110.08168121 -95.98095703 93.03564453 C-96.17032082 91.68108658 -96.17032082 91.68108658 -96.36351013 90.29916382 C-96.60292795 88.58502024 -96.8399095 86.8705341 -97.07411194 85.15567017 C-97.51733418 81.98601632 -97.98544605 79.04366186 -99 76 C-99.36312214 73.60850031 -99.69197595 71.21171855 -100 68.8125 C-100.08757568 68.14065674 -100.17515137 67.46881348 -100.26538086 66.77661133 C-100.72304306 63.24966935 -101.15187671 59.72016384 -101.5625 56.1875 C-101.81086709 53.11040295 -101.81086709 53.11040295 -103 51 C-103.20313962 48.17055532 -103.32354901 45.39464307 -103.375 42.5625 C-103.43107422 41.39750977 -103.43107422 41.39750977 -103.48828125 40.20898438 C-103.5234375 37.94140625 -103.5234375 37.94140625 -103 34 C-100.7734375 32.12890625 -100.7734375 32.12890625 -98 31 C-97.22140625 30.55398437 -96.4428125 30.10796875 -95.640625 29.6484375 C-90.57998887 26.95273917 -86.58378598 25.44389962 -80.8125 25.43359375 C-78.77695426 25.17203575 -78.77695426 25.17203575 -77.75 22.97265625 C-77.5025 22.32167969 -77.255 21.67070313 -77 21 C-76.67 21.66 -76.34 22.32 -76 23 C-75.4225 22.484375 -74.845 21.96875 -74.25 21.4375 C-72 20 -72 20 -69.75 20.3125 C-69.1725 20.539375 -68.595 20.76625 -68 21 C-67.67 20.34 -67.34 19.68 -67 19 C-64.92150147 18.29431862 -62.80956189 17.68624478 -60.6875 17.125 C-49.54441117 14.94229267 -49.54441117 14.94229267 -40 10 C-38.33382885 9.95936168 -36.66611905 9.957279 -35 10 C-35 9.34 -35 8.68 -35 8 C-30.22007465 6.17493759 -25.43500895 4.41082463 -20.56640625 2.8359375 C-18.60804851 2.19805537 -16.65909098 1.53123989 -14.71484375 0.8515625 C-13.57144531 0.46742187 -12.42804688 0.08328125 -11.25 -0.3125 C-10.18265625 -0.67988281 -9.1153125 -1.04726563 -8.015625 -1.42578125 C-4.57797182 -2.08036029 -3.05517069 -1.60113575 0 0 Z " fill="#9D0D02" transform="translate(139,45)"/>
<path d="M0 0 C1.11822144 0.07166382 1.11822144 0.07166382 2.2590332 0.14477539 C10.03597568 0.69779866 17.34722108 1.98318671 24.6875 4.6875 C25.0175 3.6975 25.3475 2.7075 25.6875 1.6875 C28.66703359 1.82767826 31.64599304 1.97436342 34.625 2.125 C35.90020508 2.18397461 35.90020508 2.18397461 37.20117188 2.24414062 C38.41450195 2.30698242 38.41450195 2.30698242 39.65234375 2.37109375 C40.77564087 2.42608032 40.77564087 2.42608032 41.92163086 2.48217773 C43.6875 2.6875 43.6875 2.6875 44.6875 3.6875 C44.78806691 6.57356016 44.82365375 9.43572575 44.81689453 12.32226562 C44.81952301 13.68069832 44.81952301 13.68069832 44.82220459 15.0665741 C44.82662454 18.07565193 44.82368461 21.08467152 44.8203125 24.09375 C44.8209855 26.17500825 44.82195549 28.25626643 44.82321167 30.33752441 C44.82468884 34.70565538 44.82253348 39.07376593 44.81787109 43.44189453 C44.8121738 49.05464553 44.8154527 54.66734872 44.82144356 60.28009796 C44.82504866 64.57961389 44.82391082 68.87911838 44.82131577 73.17863464 C44.82064636 75.24879461 44.8214754 77.3189556 44.82379532 79.38911438 C44.82632102 82.27701586 44.82248242 85.16483878 44.81689453 88.05273438 C44.81891876 88.91718674 44.82094299 89.7816391 44.82302856 90.67228699 C44.80176237 96.57323763 44.80176237 96.57323763 43.6875 97.6875 C43.31989269 100.01567964 42.98508419 102.3493385 42.6875 104.6875 C42.0275 104.6875 41.3675 104.6875 40.6875 104.6875 C40.9659375 105.5228125 40.9659375 105.5228125 41.25 106.375 C41.76301165 109.086633 41.3515724 111.03121039 40.6875 113.6875 C40.0275 113.6875 39.3675 113.6875 38.6875 113.6875 C38.57921875 114.28820312 38.4709375 114.88890625 38.359375 115.5078125 C36.84867351 120.40880918 31.91952677 123.01922841 27.6484375 125.3359375 C11.68878301 132.9980667 -4.4100517 132.74178332 -21.8125 132.875 C-22.82199707 132.88805176 -23.83149414 132.90110352 -24.87158203 132.91455078 C-25.81114746 132.91567871 -26.75071289 132.91680664 -27.71875 132.91796875 C-28.97655273 132.92413208 -28.97655273 132.92413208 -30.25976562 132.93041992 C-32.3125 132.6875 -32.3125 132.6875 -34.3125 130.6875 C-34.61925232 127.78782243 -34.82423371 124.96966822 -34.9375 122.0625 C-34.97617187 121.26070313 -35.01484375 120.45890625 -35.0546875 119.6328125 C-35.14903931 117.65142444 -35.23186215 115.66949355 -35.3125 113.6875 C-31.77020225 111.50393658 -28.82711582 111.40938253 -24.7109375 111.34375 C-23.41542969 111.31410156 -22.11992188 111.28445312 -20.78515625 111.25390625 C-19.41928822 111.23072274 -18.0534019 111.20859376 -16.6875 111.1875 C-1.48692019 111.40307713 -1.48692019 111.40307713 12.6875 106.6875 C13.79586423 104.80433841 13.79586423 104.80433841 14.6875 102.6875 C16.1875 100.4375 16.1875 100.4375 17.6875 98.6875 C18.3475 98.6875 19.0075 98.6875 19.6875 98.6875 C19.3575 97.3675 19.0275 96.0475 18.6875 94.6875 C17.77355469 95.00847656 16.85960937 95.32945312 15.91796875 95.66015625 C10.67747332 97.14634548 5.41404487 97.11154896 0 97.125 C-1.06476563 97.12886719 -2.12953125 97.13273437 -3.2265625 97.13671875 C-11.22883913 97.01918225 -17.38863597 95.93899545 -24.3125 91.6875 C-24.3125 91.0275 -24.3125 90.3675 -24.3125 89.6875 C-24.89 89.605 -25.4675 89.5225 -26.0625 89.4375 C-28.99044601 88.461518 -30.36494537 87.05238777 -32.3125 84.6875 C-32.3125 83.6975 -32.3125 82.7075 -32.3125 81.6875 C-32.9725 81.6875 -33.6325 81.6875 -34.3125 81.6875 C-37.07544517 77.23113682 -38.77293508 73.97523621 -39.3125 68.6875 C-39.47878906 67.5840625 -39.64507813 66.480625 -39.81640625 65.34375 C-41.75689058 49.79324477 -41.63534655 32.81746294 -37.3125 17.6875 C-36.6525 17.6875 -35.9925 17.6875 -35.3125 17.6875 C-35.291875 17.006875 -35.27125 16.32625 -35.25 15.625 C-33.82523715 11.16074306 -30.98079152 8.51953349 -27.3125 5.6875 C-24.66969327 4.3759212 -22.151005 3.57162451 -19.3125 2.6875 C-18.2915625 2.130625 -18.2915625 2.130625 -17.25 1.5625 C-11.85543764 -0.87375397 -5.76539133 -0.39174677 0 0 Z M-10.3125 23.6875 C-10.6425 24.6775 -10.9725 25.6675 -11.3125 26.6875 C-11.9725 26.6875 -12.6325 26.6875 -13.3125 26.6875 C-15.42242466 30.99239728 -15.6192025 34.95196047 -15.61328125 39.65625 C-15.61756638 40.41417847 -15.6218515 41.17210693 -15.62626648 41.95300293 C-15.63199015 43.54987594 -15.63252455 45.14677501 -15.62817383 46.74365234 C-15.62500998 49.1798155 -15.64850932 51.61476766 -15.67382812 54.05078125 C-15.67610103 55.60676931 -15.67680466 57.16276062 -15.67578125 58.71875 C-15.684991 59.44284058 -15.69420074 60.16693115 -15.70368958 60.91296387 C-15.65127616 66.67038887 -14.00285275 69.65281614 -10.4140625 73.97265625 C-5.39906482 76.74543204 -0.31396025 76.2238777 5.3125 76.125 C6.4571875 76.13208984 7.601875 76.13917969 8.78125 76.14648438 C14.36537791 76.44088953 14.36537791 76.44088953 19.33171082 74.47039795 C21.13525494 72.09869064 21.01826861 70.71614903 20.9362793 67.75708008 C20.91603195 66.75626907 20.89578461 65.75545807 20.87492371 64.72431946 C20.83756607 63.64611435 20.80020844 62.56790924 20.76171875 61.45703125 C20.73527786 60.35147385 20.70883698 59.24591644 20.68159485 58.1068573 C20.59372274 54.57069564 20.48460895 51.03554825 20.375 47.5 C20.31175275 45.10485422 20.24988633 42.70967156 20.18945312 40.31445312 C20.03816422 34.43827989 19.86942488 28.5628002 19.6875 22.6875 C18.2652128 22.3572853 16.8420174 22.030981 15.41845703 21.70629883 C14.62601593 21.52416336 13.83357483 21.34202789 13.01712036 21.15437317 C5.27495938 19.60278679 -3.48519968 19.4005905 -10.3125 23.6875 Z " fill="#003B7F" transform="translate(1029.3125,131.3125)"/>
<path d="M0 0 C1.77605044 1.9338085 3.3723371 3.93242821 5 6 C5.5086409 6.48161591 6.0172818 6.96323181 6.54133606 7.45944214 C11.38272141 12.57263789 11.48294081 19.99731548 11.58203125 26.6171875 C11.6047258 27.51438507 11.62742035 28.41158264 11.65080261 29.33596802 C11.69515123 31.22334273 11.73258599 33.11089141 11.76342773 34.99853516 C11.81225209 37.86046811 11.88787788 40.72078738 11.96679688 43.58203125 C12.00681363 45.42704921 12.04527585 47.27210168 12.08203125 49.1171875 C12.10481644 49.95917694 12.12760162 50.80116638 12.15107727 51.66867065 C12.27635738 61.39480941 10.9819096 71.71615648 4.06640625 79.05078125 C-1.33905311 84 -1.33905311 84 -5 84 C-5 84.66 -5 85.32 -5 86 C-12.80916658 88.92304592 -19.89822446 89.43125753 -28.1875 89.3125 C-29.32380859 89.31572266 -30.46011719 89.31894531 -31.63085938 89.32226562 C-37.54302116 89.28434505 -42.37611146 88.76650317 -48 87 C-47.99214478 88.58252563 -47.99214478 88.58252563 -47.98413086 90.19702148 C-47.96608099 94.0975663 -47.95456805 97.9981074 -47.94506836 101.89868164 C-47.9400281 103.58944316 -47.93319595 105.28020029 -47.92456055 106.97094727 C-47.91248143 109.39600707 -47.90676877 111.82100944 -47.90234375 114.24609375 C-47.89718246 115.00651474 -47.89202118 115.76693573 -47.88670349 116.55039978 C-47.88650762 118.3673257 -47.93802723 120.18413127 -48 122 C-50.3720435 124.3720435 -56.19167055 123.28108556 -59.375 123.3125 C-60.34695313 123.34150391 -61.31890625 123.37050781 -62.3203125 123.40039062 C-63.72023438 123.41295898 -63.72023438 123.41295898 -65.1484375 123.42578125 C-66.43500244 123.44765503 -66.43500244 123.44765503 -67.74755859 123.4699707 C-70 123 -70 123 -71.61822987 121.29253769 C-73.26176989 118.56568946 -73.37045475 117.01521794 -73.36076355 113.84942627 C-73.36488754 112.80898666 -73.36901154 111.76854706 -73.3732605 110.69657898 C-73.36247467 109.56081924 -73.35168884 108.42505951 -73.34057617 107.25488281 C-73.34101425 106.05460953 -73.34145233 104.85433624 -73.34190369 103.61769104 C-73.34017245 100.33068926 -73.32513279 97.04407121 -73.30418181 93.75714588 C-73.28542098 90.32051577 -73.28366505 86.88387801 -73.28010559 83.44720459 C-73.27078336 76.94135196 -73.24616725 70.43565066 -73.21605712 63.92986465 C-73.18251859 56.52243722 -73.1660285 49.11500255 -73.15097082 41.7075181 C-73.11961778 26.47159111 -73.06685392 11.23581507 -73 -4 C-69.67041792 -5.66479104 -65.96955686 -5.18459065 -62.3125 -5.1875 C-61.52166016 -5.19974609 -60.73082031 -5.21199219 -59.91601562 -5.22460938 C-54.88711538 -5.23706743 -50.76620267 -4.61425606 -46 -3 C-46 -3.66 -46 -4.32 -46 -5 C-44.865625 -5.144375 -43.73125 -5.28875 -42.5625 -5.4375 C-39.19222799 -5.61171478 -39.19222799 -5.61171478 -38 -7 C-26.06503331 -9.77557365 -9.61678649 -8.01398874 0 0 Z M-48 17 C-48.29906046 19.2161448 -48.29906046 19.2161448 -48.24291992 21.80102539 C-48.24599655 22.79868423 -48.24907318 23.79634308 -48.25224304 24.82423401 C-48.24505753 25.90446335 -48.23787201 26.98469269 -48.23046875 28.09765625 C-48.23001053 29.20225693 -48.22955231 30.3068576 -48.2290802 31.44493103 C-48.22605547 33.78271558 -48.21816264 36.12049808 -48.20581055 38.45825195 C-48.18755834 42.05101603 -48.18530078 45.64352254 -48.18554688 49.23632812 C-48.18063174 51.50260641 -48.17480344 53.76888294 -48.16796875 56.03515625 C-48.16685593 57.11740982 -48.1657431 58.19966339 -48.16459656 59.31471252 C-48.15821671 60.30921921 -48.15183685 61.30372589 -48.14526367 62.32836914 C-48.14145187 63.20836075 -48.13764008 64.08835236 -48.13371277 64.99501038 C-48.22113102 66.99836469 -48.22113102 66.99836469 -47 68 C-45.00035018 68.08758003 -42.9976389 68.10696576 -40.99609375 68.09765625 C-39.78115234 68.09443359 -38.56621094 68.09121094 -37.31445312 68.08789062 C-36.03505859 68.07951172 -34.75566406 68.07113281 -33.4375 68.0625 C-31.51260742 68.05573242 -31.51260742 68.05573242 -29.54882812 68.04882812 C-26.36583978 68.03699545 -23.18294238 68.02051068 -20 68 C-20 67.34 -20 66.68 -20 66 C-19.401875 65.7525 -18.80375 65.505 -18.1875 65.25 C-15.64141207 63.79509261 -14.48265135 62.52050729 -13 60 C-13 58.68 -13 57.36 -13 56 C-12.67 55.67 -12.34 55.34 -12 55 C-11.90003906 52.95117803 -11.86919054 50.89891431 -11.8671875 48.84765625 C-11.86589844 47.59662109 -11.86460937 46.34558594 -11.86328125 45.05664062 C-11.86714844 43.73857422 -11.87101563 42.42050781 -11.875 41.0625 C-11.87113281 39.74830078 -11.86726562 38.43410156 -11.86328125 37.08007812 C-11.86521484 35.2015918 -11.86521484 35.2015918 -11.8671875 33.28515625 C-11.86887939 31.55084351 -11.86887939 31.55084351 -11.87060547 29.78149414 C-11.80977363 27.04281369 -11.80977363 27.04281369 -13 25 C-13.1546875 23.8553125 -13.1546875 23.8553125 -13.3125 22.6875 C-14.19541508 19.2361047 -15.48493251 17.51506749 -18 15 C-25.91537903 11.75064696 -41.4273474 10.4273474 -48 17 Z " fill="#003B7F" transform="translate(668,139)"/>
<path d="M0 0 C3.62498334 -0.02893932 7.24993713 -0.04677792 10.875 -0.0625 C12.42380859 -0.07506836 12.42380859 -0.07506836 14.00390625 -0.08789062 C14.99003906 -0.09111328 15.97617187 -0.09433594 16.9921875 -0.09765625 C18.35899658 -0.10551147 18.35899658 -0.10551147 19.75341797 -0.11352539 C22 0 22 0 24 1 C24 42.58 24 84.16 24 127 C4 127 4 127 2 126 C0.30259375 126.70458373 -1.39451463 127.41444074 -3.05078125 128.2109375 C-8.98929779 130.61490612 -15.39200796 130.25495437 -21.6875 130.3125 C-22.72583984 130.34150391 -23.76417969 130.37050781 -24.83398438 130.40039062 C-35.43710348 130.48681103 -43.29704049 127.59760325 -51.01953125 120.28515625 C-59.77323941 110.18472376 -59.34586256 98.41612017 -59.72241211 85.81982422 C-59.78202346 83.95394034 -59.85089382 82.08832713 -59.92944336 80.22314453 C-60.87052632 57.80825946 -60.87052632 57.80825946 -56 49 C-53.90551758 47.83203125 -53.90551758 47.83203125 -52 47 C-51.18828772 44.44480079 -51.18828772 44.44480079 -51 42 C-50.21625 41.9175 -49.4325 41.835 -48.625 41.75 C-47.75875 41.5025 -46.8925 41.255 -46 41 C-45.690625 40.360625 -45.38125 39.72125 -45.0625 39.0625 C-44 37 -44 37 -41.35546875 35.9375 C-37.98063995 34.99459091 -34.71968105 34.41318208 -31.25 33.9375 C-26.9803039 33.43705256 -26.9803039 33.43705256 -23 32 C-23 32.66 -23 33.32 -23 34 C-22.236875 33.835 -21.47375 33.67 -20.6875 33.5 C-15.99316484 32.62663532 -11.91094686 33.54682054 -7.3125 34.5 C-6.61060547 34.64308594 -5.90871094 34.78617188 -5.18554688 34.93359375 C-3.45649825 35.28646082 -1.72817647 35.64288604 0 36 C-0.33 35.01 -0.66 34.02 -1 33 C-1.09569998 30.66690679 -1.13073913 28.33114795 -1.1328125 25.99609375 C-1.13376923 25.31700455 -1.13472595 24.63791534 -1.13571167 23.93824768 C-1.13639124 22.50513618 -1.13455253 21.07202158 -1.13037109 19.63891602 C-1.12501135 17.44215006 -1.13032782 15.24558779 -1.13671875 13.04882812 C-1.13605809 11.65624955 -1.13477718 10.2636711 -1.1328125 8.87109375 C-1.13168457 7.60193115 -1.13055664 6.33276855 -1.12939453 5.02514648 C-1 2 -1 2 0 0 Z M-32 58 C-35.40570788 63.06777011 -36.61748115 66.90744427 -36.6015625 73.05859375 C-36.61013275 73.8065773 -36.618703 74.55456085 -36.62753296 75.32521057 C-36.63895058 76.89751155 -36.64007109 78.46991809 -36.63134766 80.04223633 C-36.62502225 82.42910303 -36.67201561 84.81100996 -36.72265625 87.19726562 C-36.90532634 97.80225588 -36.90532634 97.80225588 -31.67260742 106.70263672 C-26.25616942 110.90391413 -20.31287087 110.18435322 -13.8125 109.8125 C-12.91080078 109.78091797 -12.00910156 109.74933594 -11.08007812 109.71679688 C-10.21447266 109.67232422 -9.34886719 109.62785156 -8.45703125 109.58203125 C-7.67303955 109.54311768 -6.88904785 109.5042041 -6.08129883 109.46411133 C-3.4494051 108.87722218 -2.65364894 108.1147713 -1 106 C-0.56613621 103.68261134 -0.56613621 103.68261134 -0.65942383 101.06958008 C-0.65965042 100.06876907 -0.65987701 99.06795807 -0.66011047 98.03681946 C-0.67559433 96.95861435 -0.69107819 95.88040924 -0.70703125 94.76953125 C-0.71339851 93.11119514 -0.71339851 93.11119514 -0.71989441 91.4193573 C-0.73670563 87.88349188 -0.77436315 84.34819355 -0.8125 80.8125 C-0.82754364 78.41732593 -0.8412326 76.02214294 -0.85351562 73.62695312 C-0.88661715 67.75110815 -0.93684107 61.87559458 -1 56 C-2.24724854 55.67692871 -3.49449707 55.35385742 -4.77954102 55.02099609 C-5.48111832 54.83926849 -6.18269562 54.65754089 -6.90553284 54.4703064 C-14.83872107 52.68893248 -25.4467152 52.52978947 -32 58 Z " fill="#003C7F" transform="translate(790,98)"/>
<path d="M0 0 C4.36590873 0.39478962 8.68233125 1.25122782 13 2 C14.2988916 2.21946289 14.2988916 2.21946289 15.62402344 2.44335938 C18.46038736 2.92711097 21.29280548 3.42994783 24.125 3.9375 C25.04958008 4.09500732 25.97416016 4.25251465 26.92675781 4.41479492 C27.79913086 4.57568604 28.67150391 4.73657715 29.5703125 4.90234375 C30.35164551 5.04148193 31.13297852 5.18062012 31.93798828 5.32397461 C34.5609992 6.18392218 35.39266537 6.72310259 37 9 C37.28058662 11.81988192 37.37889811 14.41624436 37.34057617 17.23510742 C37.34123329 18.49397514 37.34123329 18.49397514 37.34190369 19.77827454 C37.33981247 22.55424201 37.31646586 25.32960669 37.29296875 28.10546875 C37.28737398 30.02931895 37.28310332 31.95317342 37.28010559 33.87702942 C37.26864747 38.9422484 37.23917193 44.00720958 37.20599365 49.07232666 C37.17531363 54.24023959 37.16160468 59.40819414 37.14648438 64.57617188 C37.1143032 74.71756122 37.06309512 84.85875918 37 95 C33.72918529 95.02902429 30.4584037 95.04680684 27.1875 95.0625 C26.25873047 95.07087891 25.32996094 95.07925781 24.37304688 95.08789062 C23.48037109 95.09111328 22.58769531 95.09433594 21.66796875 95.09765625 C20.84578857 95.10289307 20.0236084 95.10812988 19.17651367 95.11352539 C17 95 17 95 14 94 C12.56002885 94.59205425 11.1471602 95.2504858 9.75 95.9375 C-1.76439909 100.35545794 -17.97409358 99.92244626 -29.3046875 95.16796875 C-31 94 -31 94 -32 91 C-32.8971875 90.814375 -32.8971875 90.814375 -33.8125 90.625 C-37.60972652 89.54007814 -39.11939098 86.4751808 -41.0703125 83.20703125 C-45.16536121 75.60844086 -46.28273423 67.67085267 -46.51953125 59.125 C-46.54601242 58.31562988 -46.57249359 57.50625977 -46.59977722 56.67236328 C-46.65204022 54.97506886 -46.69970429 53.277627 -46.74291992 51.58007812 C-46.81234957 49.00557803 -46.90844242 46.43294929 -47.00585938 43.859375 C-47.05371309 42.19796281 -47.09998975 40.53650429 -47.14453125 38.875 C-47.19115654 37.74022217 -47.19115654 37.74022217 -47.23872375 36.58251953 C-47.33195393 31.6407415 -46.48285744 27.67627246 -44.74882507 23.04736328 C-44.01808888 21.04945681 -43.48011644 19.07080102 -43 17 C-42.34 17 -41.68 17 -41 17 C-41 16.34 -41 15.68 -41 15 C-40 14 -39 13 -38 12 C-37.67 11.01 -37.34 10.02 -37 9 C-35.0717188 8.20209054 -33.13425823 7.41904634 -31.15625 6.75390625 C-28.79083595 5.97806908 -28.79083595 5.97806908 -25.875 4.4375 C-19.25551461 1.53956861 -11.2703287 0.99010989 -4.125 1.01171875 C-1.13258677 1.36740349 -1.13258677 1.36740349 0 0 Z M-16.546875 25.4375 C-20.51676046 30.59319541 -21.17602155 33.46805827 -21.23828125 39.859375 C-21.246353 40.64137268 -21.25442474 41.42337036 -21.26274109 42.22906494 C-21.2765822 43.88673689 -21.28730424 45.54443735 -21.29516602 47.20214844 C-21.31233991 49.72646879 -21.35621865 52.24946586 -21.40039062 54.7734375 C-21.4105213 56.38540705 -21.41903623 57.99738773 -21.42578125 59.609375 C-21.44328934 60.35958923 -21.46079742 61.10980347 -21.47883606 61.88275146 C-21.45743746 67.10401063 -20.26876695 69.97156142 -17 74 C-16.51966309 74.61125732 -16.03932617 75.22251465 -15.54443359 75.85229492 C-13.40916302 77.43906491 -11.93046887 77.37274224 -9.2890625 77.36328125 C-8.37382813 77.36263672 -7.45859375 77.36199219 -6.515625 77.36132812 C-5.08476563 77.3371582 -5.08476563 77.3371582 -3.625 77.3125 C-2.67882813 77.31572266 -1.73265625 77.31894531 -0.7578125 77.32226562 C4.31442745 77.283084 7.11950576 76.95219769 12 75 C12 58.17 12 41.34 12 24 C6.88068557 22.29356186 3.16800046 21.69139495 -2.0625 21.75 C-2.75666016 21.74226563 -3.45082031 21.73453125 -4.16601562 21.7265625 C-8.97291282 21.74482232 -12.92799169 22.07449733 -16.546875 25.4375 Z " fill="#003B7F" transform="translate(1133,130)"/>
<path d="M0 0 C11.11480637 -0.35999373 25.75114521 1.02725235 35.26953125 7.15625 C38.00396394 9.92707248 40.16076392 12.89296201 42.26953125 16.15625 C42.86765625 17.001875 43.46578125 17.8475 44.08203125 18.71875 C47.18082265 25.07942708 47.58657275 31.54039603 47.60546875 38.484375 C47.61545395 39.78976227 47.61545395 39.78976227 47.62564087 41.121521 C47.63571058 42.95355129 47.64045966 44.78561784 47.64013672 46.61767578 C47.64449788 49.38507197 47.68084433 52.15085509 47.71875 54.91796875 C47.84040774 73.88035439 47.84040774 73.88035439 43.26953125 82.15625 C42.27953125 82.81625 41.28953125 83.47625 40.26953125 84.15625 C40.00140625 84.775 39.73328125 85.39375 39.45703125 86.03125 C36.80371182 90.77929529 32.161957 92.31175637 27.20703125 93.78125 C26.39105469 94.00039062 25.57507813 94.21953125 24.734375 94.4453125 C22.25791412 95.0973875 22.25791412 95.0973875 19.97949219 96.18188477 C15.01689016 97.96618609 9.80234615 97.48334004 4.58203125 97.46875 C3.44830078 97.48486328 2.31457031 97.50097656 1.14648438 97.51757812 C-6.04300264 97.52172192 -11.97356447 96.54210051 -18.73046875 94.15625 C-20.04104655 93.81543744 -21.35341667 93.4813964 -22.66796875 93.15625 C-25.79264375 92.13594796 -26.67218944 91.57249093 -28.73046875 89.15625 C-29.72046875 88.3725 -30.71046875 87.58875 -31.73046875 86.78125 C-39.30779924 80.15108582 -40.59138876 70.73442694 -41.73046875 61.15625 C-41.95416163 55.90369742 -41.92255347 50.66164194 -41.85546875 45.40625 C-41.84540592 44.01563154 -41.83628598 42.62500592 -41.828125 41.234375 C-41.8047947 37.87481181 -41.77206105 34.51562825 -41.73046875 31.15625 C-41.07046875 31.15625 -40.41046875 31.15625 -39.73046875 31.15625 C-39.74207031 30.55296875 -39.75367188 29.9496875 -39.765625 29.328125 C-39.77464844 28.52890625 -39.78367187 27.7296875 -39.79296875 26.90625 C-39.80457031 26.11734375 -39.81617188 25.3284375 -39.828125 24.515625 C-39.73432181 22.24933998 -39.36287938 20.3273605 -38.73046875 18.15625 C-38.07046875 18.15625 -37.41046875 18.15625 -36.73046875 18.15625 C-36.70984375 17.475625 -36.68921875 16.795 -36.66796875 16.09375 C-35.28157679 11.74972187 -32.38706698 8.83391642 -28.73046875 6.15625 C-26.3203125 5.578125 -26.3203125 5.578125 -23.73046875 5.15625 C-21.99163989 4.5152071 -20.26259663 3.84714924 -18.54296875 3.15625 C-12.26877265 0.84117229 -6.61180006 0.37835766 0 0 Z M-13.10546875 26.09375 C-16.29497143 30.14196494 -15.91612294 34.7305669 -15.96875 39.703125 C-15.97682175 40.43315735 -15.98489349 41.1631897 -15.99320984 41.91534424 C-16.00701202 43.45851291 -16.01775139 45.00171162 -16.02563477 46.54492188 C-16.03713886 48.11207113 -16.05756606 49.67918168 -16.0871582 51.24609375 C-16.43766202 63.28729499 -16.43766202 63.28729499 -11.73046875 74.15625 C-11.07046875 74.15625 -10.41046875 74.15625 -9.73046875 74.15625 C-9.40046875 74.81625 -9.07046875 75.47625 -8.73046875 76.15625 C-6.15455329 76.52852683 -3.69578898 76.76311288 -1.10546875 76.90625 C-0.40550781 76.96167969 0.29445313 77.01710937 1.015625 77.07421875 C6.8398831 77.43080598 11.50997105 77.07703904 16.46313477 73.62939453 C20.87213477 69.61270635 22.68376223 66.17430914 23.04678345 60.15411377 C23.11412626 56.35509756 22.98802126 52.57661011 22.83203125 48.78125 C22.80041876 47.20970402 22.77239493 45.63808156 22.74804688 44.06640625 C22.66176802 33.67275021 22.66176802 33.67275021 17.9140625 24.55859375 C9.77045263 17.61428035 -5.35045172 19.76728874 -13.10546875 26.09375 Z " fill="#003B7E" transform="translate(535.73046875,130.84375)"/>
<path d="M0 0 C1.00877197 -0.009104 2.01754395 -0.01820801 3.05688477 -0.02758789 C11.72122624 0.00712331 19.61710298 1.52822135 27.9375 3.875 C28.86820312 4.13539062 29.79890625 4.39578125 30.7578125 4.6640625 C31.43585938 4.85742188 32.11390625 5.05078125 32.8125 5.25 C33.06048276 8.20786664 33.28661854 11.16461298 33.5 14.125 C33.57283203 14.96675781 33.64566406 15.80851562 33.72070312 16.67578125 C33.77548828 17.48144531 33.83027344 18.28710938 33.88671875 19.1171875 C33.94432373 19.86081543 34.00192871 20.60444336 34.0612793 21.37060547 C33.97918213 21.99080566 33.89708496 22.61100586 33.8125 23.25 C30.8125 25.25 30.8125 25.25 28.5625 24.90625 C27.655 24.6896875 26.7475 24.473125 25.8125 24.25 C23.48130229 24.05573352 21.1475305 23.89090701 18.8125 23.75 C12.32596939 23.35857143 12.32596939 23.35857143 9.35546875 22.73046875 C-0.65492028 20.83910492 -13.43105989 21.20886183 -22.5 26 C-28.36869623 30.91332707 -32.73771799 36.61291573 -34.1875 44.25 C-34.49376566 47.76488451 -34.5387739 51.26602155 -34.55859375 54.79296875 C-34.56762222 55.79781815 -34.5766507 56.80266754 -34.58595276 57.83796692 C-34.60041253 59.95843549 -34.60933132 62.07894825 -34.61303711 64.19946289 C-34.62490007 67.41045164 -34.67410141 70.619496 -34.72460938 73.83007812 C-35.08607531 90.49142669 -35.08607531 90.49142669 -27.68920898 105.00073242 C-25.65513851 106.69287006 -23.76958845 106.90106913 -21.1875 107.25 C-21.1875 107.91 -21.1875 108.57 -21.1875 109.25 C-14.5140512 110.25942923 -7.99295962 110.40014466 -1.25 110.375 C-0.21681641 110.37886719 0.81636719 110.38273437 1.88085938 110.38671875 C7.28060655 110.3798793 12.5366804 110.15296303 17.89379883 109.47705078 C20.33114034 109.18862635 22.73430902 109.11706087 25.1875 109.125 C25.99960937 109.12242187 26.81171875 109.11984375 27.6484375 109.1171875 C29.8125 109.25 29.8125 109.25 32.8125 110.25 C33.0063211 113.22888126 33.19285102 116.20790246 33.375 119.1875 C33.45911133 120.46270508 33.45911133 120.46270508 33.54492188 121.76367188 C33.59326172 122.57255859 33.64160156 123.38144531 33.69140625 124.21484375 C33.76210327 125.33814087 33.76210327 125.33814087 33.83422852 126.48413086 C33.8125 128.25 33.8125 128.25 32.8125 129.25 C30.10222509 129.53648879 27.39160392 129.69835421 24.671875 129.87109375 C21.85182163 130.10124496 21.85182163 130.10124496 19.62963867 131.25708008 C16.02505428 132.52754067 12.65171075 132.53681091 8.87890625 132.515625 C8.12334946 132.51753845 7.36779266 132.5194519 6.58934021 132.52142334 C4.99664984 132.52277991 3.40394821 132.51912042 1.8112793 132.51074219 C-0.61369946 132.50004983 -3.03793497 132.51064739 -5.46289062 132.5234375 C-7.01562662 132.52211552 -8.56836216 132.51955233 -10.12109375 132.515625 C-10.84002304 132.51967346 -11.55895233 132.52372192 -12.29966736 132.52789307 C-16.64714707 132.48783091 -20.13758661 131.80362249 -24.1875 130.25 C-25.64167587 129.95766568 -27.10000452 129.68487377 -28.5625 129.4375 C-32.75287621 128.54458426 -35.77276892 126.93299343 -39.28515625 124.51953125 C-41.38949599 123.04848277 -41.38949599 123.04848277 -44.75 121.5625 C-50.85527905 118.09771921 -54.71660016 111.2100709 -57 104.75 C-59.45784289 95.7681229 -60.47324023 87.43759559 -60.3828125 78.1171875 C-60.3799826 76.99933868 -60.37715271 75.88148987 -60.37423706 74.72976685 C-60.36313217 71.19473099 -60.33804578 67.65995797 -60.3125 64.125 C-60.30245767 61.71354535 -60.29333402 59.30208669 -60.28515625 56.890625 C-60.26322467 51.01032852 -60.22984492 45.13018305 -60.1875 39.25 C-59.5275 39.25 -58.8675 39.25 -58.1875 39.25 C-58.373125 38.5075 -58.55875 37.765 -58.75 37 C-59.17953108 34.30009037 -59.03872974 32.80368923 -58.1875 30.25 C-57.5275 30.25 -56.8675 30.25 -56.1875 30.25 C-56.414375 29.71375 -56.64125 29.1775 -56.875 28.625 C-57.33913982 25.09753735 -55.99831143 23.24720513 -54.1875 20.25 C-52.87421343 18.89691687 -51.54250919 17.56129922 -50.1875 16.25 C-49.91679687 15.60417969 -49.64609375 14.95835938 -49.3671875 14.29296875 C-47.8026266 11.58348083 -46.19959462 10.97063669 -43.375 9.6875 C-40.60052915 8.39566185 -38.0688264 7.17272417 -35.5 5.5 C-32.46531527 3.85962987 -29.58699851 3.64224983 -26.1875 3.25 C-25.8575 2.92 -25.5275 2.59 -25.1875 2.25 C-16.91464387 0.13942032 -8.48408069 0.03712803 0 0 Z " fill="#003B7F" transform="translate(356.1875,95.75)"/>
<path d="M0 0 C2.8125 2.4375 2.8125 2.4375 5 5 C6.0828125 6.2065625 6.0828125 6.2065625 7.1875 7.4375 C9.15935321 10.22529247 10.05674198 12.73487609 11 16 C11.495 16.99 11.495 16.99 12 18 C12.07709632 19.66936032 12.08915746 21.34191736 12.06933594 23.01293945 C12.05892273 24.05774979 12.04850952 25.10256012 12.03778076 26.17903137 C12.02015686 27.31233383 12.00253296 28.44563629 11.984375 29.61328125 C11.95963104 31.35583443 11.95963104 31.35583443 11.93438721 33.1335907 C11.8968355 35.5958612 11.85628282 38.05808745 11.81298828 40.52026367 C11.75043612 44.28624327 11.70889305 48.05209105 11.66796875 51.81835938 C11.62890524 54.20835495 11.58858188 56.59833034 11.546875 58.98828125 C11.53734802 60.11551102 11.52782104 61.24274078 11.51800537 62.40412903 C11.49498352 63.45839584 11.47196167 64.51266266 11.44824219 65.59887695 C11.43412292 66.52328079 11.42000366 67.44768463 11.40545654 68.40010071 C10.91911649 71.51864739 9.76461305 73.40621682 8 76 C7.443125 76.825 6.88625 77.65 6.3125 78.5 C-1.55818438 87.00884798 -12.34776071 89.91274238 -23.59765625 90.3515625 C-26.02321211 90.39531197 -28.44908854 90.42375775 -30.875 90.4375 C-32.05231689 90.4475708 -33.22963379 90.4576416 -34.44262695 90.46801758 C-40.71215127 90.40499605 -45.46995413 90.03910684 -51 87 C-51 86.34 -51 85.68 -51 85 C-51.556875 85.20625 -52.11375 85.4125 -52.6875 85.625 C-55.76240694 86.12363356 -57.21175731 85.35869524 -60 84 C-62.1328125 82.125 -62.1328125 82.125 -64.125 80 C-66.38337091 77.60981756 -68.24241118 75.83839255 -71 74 C-71.36628677 72.00577205 -71.70131344 70.00546689 -72 68 C-72.66 67.67 -73.32 67.34 -74 67 C-74.37890625 64.75 -74.37890625 64.75 -74.5625 62 C-74.53480538 58.69240381 -74.53480538 58.69240381 -76 56 C-76.2448626 51.60471629 -76.22863531 47.20336398 -76.24023438 42.80200195 C-76.24982503 40.60262538 -76.2807755 38.40423041 -76.3125 36.20507812 C-76.37099199 28.38106479 -75.94051518 21.35834067 -73 14 C-72.4121875 12.453125 -72.4121875 12.453125 -71.8125 10.875 C-71.544375 10.25625 -71.27625 9.6375 -71 9 C-70.34 9 -69.68 9 -69 9 C-68.8453125 7.8553125 -68.8453125 7.8553125 -68.6875 6.6875 C-67.92574759 3.70974056 -67.29888617 2.93786017 -65 1 C-63.203125 0.15625 -63.203125 0.15625 -61.25 -0.5 C-58.62910112 -1.406869 -56.26414836 -2.35377483 -53.75 -3.5625 C-38.53416062 -10.10324543 -14.25093539 -8.89891743 0 0 Z M-48 19.8125 C-51.07132598 26.53102559 -50.14921906 34.79886533 -50.125 42 C-50.12886719 43.14984375 -50.13273437 44.2996875 -50.13671875 45.484375 C-50.45677476 57.60911209 -50.45677476 57.60911209 -45 68 C-38.33551181 71.11954766 -29.56605768 71.10068264 -22.48828125 69.39453125 C-19.37680792 68.26151786 -16.75483434 66.83655623 -14 65 C-12.05223684 59.82199925 -11.68054758 55.06599188 -11.6640625 49.6171875 C-11.6574057 48.83989288 -11.6507489 48.06259827 -11.64389038 47.26174927 C-11.63382589 45.62976428 -11.62907142 43.99773865 -11.62939453 42.36572266 C-11.62499937 39.87464103 -11.58855738 37.38530281 -11.55078125 34.89453125 C-11.54491601 33.30208934 -11.54094466 31.7096391 -11.5390625 30.1171875 C-11.52469147 29.37749725 -11.51032043 28.63780701 -11.49551392 27.8757019 C-11.52726546 24.2750975 -11.88575082 22.18227588 -13.81396484 19.10595703 C-18.65618666 14.4411139 -23.96752901 13.78925132 -30.4375 13.5625 C-37.28720097 13.72956588 -42.85762212 15.15222004 -48 19.8125 Z M-75 24 C-74 26 -74 26 -74 26 Z M-75 53 C-74 55 -74 55 -74 55 Z " fill="#003B7E" transform="translate(472,138)"/>
<path d="M0 0 C2.43210086 0.11312097 4.34661135 0.5254301 6.6875 1.125 C8.68412221 1.44486703 10.6808568 1.76409173 12.67871094 2.07617188 C19.69159384 3.19799058 25.55940538 4.35386485 31.6875 8.125 C32.595 8.57875 33.5025 9.0325 34.4375 9.5 C37.37913831 11.62451656 38.82871579 14.02702631 40.6875 17.125 C41.244375 17.929375 41.80125 18.73375 42.375 19.5625 C43.99395076 22.72330863 44.28304242 25.61970093 44.6875 29.125 C45.0175 29.455 45.3475 29.785 45.6875 30.125 C45.80118388 33.16905296 45.85169489 36.1895341 45.85546875 39.234375 C45.86046135 40.61281586 45.86046135 40.61281586 45.86555481 42.019104 C45.8706296 43.96943663 45.87296297 45.91977797 45.87280273 47.87011719 C45.87498059 50.84845445 45.89310648 53.82641628 45.91210938 56.8046875 C45.91504494 58.6979154 45.91702864 60.59114506 45.91796875 62.484375 C45.92515427 63.37413025 45.93233978 64.2638855 45.93974304 65.18060303 C45.92335258 69.641061 45.72731621 73.05951659 43.6875 77.125 C43.00954472 79.12120166 42.34016469 81.12038701 41.6875 83.125 C41.0275 83.125 40.3675 83.125 39.6875 83.125 C39.460625 83.7025 39.23375 84.28 39 84.875 C37.32768419 87.7418271 35.41530269 89.26211036 32.6875 91.125 C31.6975 91.125 30.7075 91.125 29.6875 91.125 C29.6875 91.785 29.6875 92.445 29.6875 93.125 C27.91684889 93.77133275 26.14597247 94.4170483 24.375 95.0625 C22.89580078 95.60197266 22.89580078 95.60197266 21.38671875 96.15234375 C14.91259403 98.48527726 9.10167673 98.38476775 2.25 98.4375 C1.02861328 98.46650391 -0.19277344 98.49550781 -1.45117188 98.52539062 C-11.69165456 98.59624016 -22.31542396 97.05579924 -30.3125 90.125 C-38.86520467 81.07521505 -41.53405736 73.8891885 -41.796875 61.69140625 C-41.8209845 60.81403305 -41.84509399 59.93665985 -41.86993408 59.03269958 C-41.91795015 57.18817109 -41.96140003 55.34351858 -42.00048828 53.4987793 C-42.06225841 50.69845238 -42.14545792 47.89931585 -42.23046875 45.09960938 C-42.27473488 43.29690639 -42.31774513 41.49417204 -42.359375 39.69140625 C-42.38529724 38.8661293 -42.41121948 38.04085236 -42.43792725 37.19056702 C-42.53486079 31.57692618 -41.75997064 26.54632586 -40.3125 21.125 C-39.6525 21.125 -38.9925 21.125 -38.3125 21.125 C-38.0959375 20.196875 -38.0959375 20.196875 -37.875 19.25 C-37.3125 17.125 -37.3125 17.125 -36.3125 15.125 C-35.6525 15.125 -34.9925 15.125 -34.3125 15.125 C-34.3125 13.805 -34.3125 12.485 -34.3125 11.125 C-32 9.5625 -32 9.5625 -29.3125 8.125 C-28.8175 7.58875 -28.3225 7.0525 -27.8125 6.5 C-25.007538 3.92878483 -21.21591033 4.11212138 -17.5625 3.625 C-14.46706096 3.47668218 -14.46706096 3.47668218 -13.3125 2.125 C-10.73352306 1.80262788 -8.15318179 1.61232696 -5.5625 1.40625 C-2.93365899 1.07764487 -2.66699789 0.14416205 0 0 Z M-16.03125 28.7421875 C-19.73645543 34.19557363 -18.9784358 41.09115458 -18.85449219 47.42260742 C-18.81253492 49.68561634 -18.81343978 51.94565069 -18.8203125 54.20898438 C-18.76305725 62.13550392 -18.30745811 67.63256284 -13.8125 74.375 C-7.89880827 78.51458421 0.66695837 78.59303611 7.6875 78.125 C13.24256465 77.08930998 16.02781498 75.43051179 19.6875 71.125 C21.3308869 67.8382262 20.89349853 64.18871706 20.92578125 60.57421875 C20.933853 59.72326126 20.94192474 58.87230377 20.95024109 57.99555969 C20.96408294 56.19245441 20.97480465 54.38932291 20.98266602 52.58618164 C20.99986789 49.83363933 21.04375049 47.08230162 21.08789062 44.33007812 C21.09801863 42.57813383 21.1065344 40.82617933 21.11328125 39.07421875 C21.13078934 38.25322189 21.14829742 37.43222504 21.16633606 36.58634949 C21.15142796 32.64232227 20.98691523 30.61186748 18.87573242 27.17895508 C13.16797185 21.821442 6.36339496 21.57310663 -1.12109375 21.78125 C-7.4874571 22.46697824 -11.44400913 24.32630907 -16.03125 28.7421875 Z " fill="#003B7E" transform="translate(934.3125,129.875)"/>
<path d="M0 0 C2.70129556 0 4.43089877 0.44372358 6.38671875 2.35546875 C12.6538237 10.40826936 17.47963102 19.78713735 21.9375 28.9375 C25.50523035 36.22978401 29.76331956 43.08412354 34 50 C35.00105133 51.66603542 36.00126643 53.33257413 37 55 C37.680625 56.11375 38.36125 57.2275 39.0625 58.375 C42.00532569 63.61549344 43.77651592 68.85360752 42.8046875 74.9453125 C40.44727852 80.964716 34.41457805 84.92686111 29 88 C28.154375 88.845625 27.30875 89.69125 26.4375 90.5625 C24.25944581 92.74055419 22.72447772 93.73506392 20 95 C19.67 95.66 19.34 96.32 19 97 C18.34 97 17.68 97 17 97 C16.67 97.66 16.34 98.32 16 99 C15.01 98.67 14.02 98.34 13 98 C13.33 98.99 13.66 99.98 14 101 C-5.84341637 118 -5.84341637 118 -9 118 C-9 118.66 -9 119.32 -9 120 C-11.02643768 121.75644379 -13.05161283 123.38714022 -15.1875 125 C-15.76564453 125.45117188 -16.34378906 125.90234375 -16.93945312 126.3671875 C-20.16534319 128.8312572 -23.10149055 130.70783868 -27 132 C-27 131.34 -27 130.68 -27 130 C-27.99 130 -28.98 130 -30 130 C-29.34 131.32 -28.68 132.64 -28 134 C-30.475 134.99 -30.475 134.99 -33 136 C-32.50499697 129.10784976 -31.34836065 122.69788921 -29.53125 116.0390625 C-29.03766434 114.16669199 -28.54417782 112.29429535 -28.05078125 110.421875 C-27.2770395 107.52291604 -26.49996943 104.62488641 -25.72021484 101.72753906 C-21.90275065 87.78962992 -21.90275065 87.78962992 -20.14550781 73.48291016 C-19.91299181 69.51531333 -19.04089716 65.73284364 -18.125 61.875 C-17.94864014 61.10438232 -17.77228027 60.33376465 -17.59057617 59.53979492 C-16.45034866 54.64522264 -15.12216533 49.84215709 -13.58984375 45.0546875 C-12.73173853 42.06552628 -12.39325719 39.08051465 -12 36 C-11.67 35.67 -11.34 35.34 -11 35 C-10.52535443 32.82025825 -10.09681976 30.63044775 -9.6875 28.4375 C-8.56057399 22.6691311 -7.38596721 16.91422971 -6.0625 11.1875 C-5.91707764 10.50034912 -5.77165527 9.81319824 -5.62182617 9.10522461 C-4.48365531 4.32924059 -4.48365531 4.32924059 -1.87109375 2.55078125 C-1.25363281 2.36902344 -0.63617188 2.18726563 0 2 C0 1.34 0 0.68 0 0 Z M39 75 C37.36323743 76.9600281 37.36323743 76.9600281 36 79 C39.12197478 77.6910428 39.12197478 77.6910428 41 75 C40.34 75 39.68 75 39 75 Z M35 79 C34.34 80.32 33.68 81.64 33 83 C33.99 82.34 34.98 81.68 36 81 C35.67 80.34 35.34 79.68 35 79 Z M27 85 C27.66 85.66 28.32 86.32 29 87 C29 86.34 29 85.68 29 85 C28.34 85 27.68 85 27 85 Z M26 86 C25.01 87.485 25.01 87.485 24 89 C24.99 88.67 25.98 88.34 27 88 C26.67 87.34 26.34 86.68 26 86 Z " fill="#0077C5" transform="translate(193,136)"/>
<path d="M0 0 C1.38445312 0.08314453 1.38445312 0.08314453 2.796875 0.16796875 C5.25 0.8125 5.25 0.8125 7.0625 2.4140625 C8.69926365 5.71989434 8.57492914 8.3247258 8.5 12 C8.48831787 12.66475342 8.47663574 13.32950684 8.46459961 14.0144043 C8.16353433 26.98543134 8.16353433 26.98543134 6.25 30.8125 C6.064375 32.6996875 6.064375 32.6996875 5.875 34.625 C5.48838337 38.43075746 4.77826861 42.03342603 3.875 45.75 C2.64894677 50.83815964 1.69166747 55.91105254 0.8671875 61.07421875 C-0.56768418 69.85047152 -2.1313464 78.59721157 -3.80224609 87.33154297 C-4.10534756 88.92637894 -4.40371503 90.52212066 -4.69775391 92.11865234 C-5.13189819 94.47441888 -5.57995056 96.82715503 -6.03125 99.1796875 C-6.15947144 99.89003143 -6.28769287 100.60037537 -6.4197998 101.33224487 C-7.17149744 105.15519581 -7.93874337 108.03346657 -10.75 110.8125 C-13.6875 111.375 -13.6875 111.375 -16.75 110.8125 C-19.90981762 107.41152213 -21.89415376 103.79929639 -23.875 99.625 C-25.84169649 95.38675018 -25.84169649 95.38675018 -28.75 91.8125 C-29.98059953 89.47229514 -31.15991758 87.12818805 -32.3125 84.75 C-35.69708672 77.84509384 -39.24700751 71.04716217 -42.95532227 64.31030273 C-45.75 59.13937862 -45.75 59.13937862 -45.75 55.8125 C-46.41 55.8125 -47.07 55.8125 -47.75 55.8125 C-48.54550392 54.41885 -49.33621838 53.02246569 -50.125 51.625 C-50.56585938 50.84769531 -51.00671875 50.07039063 -51.4609375 49.26953125 C-52.75 46.8125 -52.75 46.8125 -53.60546875 44.5390625 C-55.26078427 40.59568286 -57.48450366 37.03394486 -59.6875 33.375 C-67.75 19.9375 -67.75 19.9375 -67.75 16.8125 C-57.92936214 12.83670659 -47.71674812 10.19984546 -37.50585938 7.4387207 C-34.49162512 6.62273282 -31.48011403 5.7972129 -28.46875 4.97070312 C-26.5366131 4.44474364 -24.6043265 3.9193337 -22.671875 3.39453125 C-21.78006531 3.1497554 -20.88825562 2.90497955 -19.96942139 2.65278625 C-13.31765725 0.86353988 -6.93070468 -0.51882394 0 0 Z " fill="#FA6D0F" transform="translate(257.75,80.1875)"/>
<path d="M0 0 C0.26039062 0.57878906 0.52078125 1.15757813 0.7890625 1.75390625 C2.08192325 4.15195442 3.54725075 5.92218697 5.375 7.9375 C7.2630671 10.02934527 9.08754776 12.1123467 10.8203125 14.3359375 C13.53209867 17.65034282 16.4757071 20.6597782 19.5 23.6875 C20.06847656 24.26822266 20.63695313 24.84894531 21.22265625 25.44726562 C21.77824219 26.00478516 22.33382812 26.56230469 22.90625 27.13671875 C23.65358398 27.89021606 23.65358398 27.89021606 24.41601562 28.65893555 C26.16761744 30.14191162 27.94821113 30.9865115 30 32 C32.75 34.5 32.75 34.5 35 37 C35 37.66 35 38.32 35 39 C35.87785156 39.38671875 35.87785156 39.38671875 36.7734375 39.78125 C39.17518266 41.09588946 40.73196231 42.53190795 42.625 44.5 C43.21539062 45.1084375 43.80578125 45.716875 44.4140625 46.34375 C45.19910156 47.16359375 45.19910156 47.16359375 46 48 C47.7643467 50.13103974 47.7643467 50.13103974 49.87890625 50.38671875 C52.71665619 51.20720998 53.9298555 52.66968736 55.9375 54.8125 C58.15136976 57.12083915 60.24142349 59.19204141 62.75 61.1875 C65.288648 63.232522 67.14559048 65.32140847 69 68 C69 68.99 69 69.98 69 71 C69.5775 71.103125 70.155 71.20625 70.75 71.3125 C73.35661158 72.10896465 74.9735311 73.19065277 77 75 C77 75.66 77 76.32 77 77 C77.66 77 78.32 77 79 77 C79 77.66 79 78.32 79 79 C79.66 79 80.32 79 81 79 C81 79.66 81 80.32 81 81 C81.66 81 82.32 81 83 81 C83 81.66 83 82.32 83 83 C83.5887793 83.2671582 84.17755859 83.53431641 84.78417969 83.80957031 C88.50781973 85.8100627 91.25575208 88.80443904 94.25 91.75 C94.8996875 92.3584375 95.549375 92.966875 96.21875 93.59375 C99.15195945 96.47766181 100.816714 98.18496226 101.734375 102.265625 C101 105 101 105 99.15625 106.859375 C94.57893582 108.5135529 90.32619954 108.35621622 85.5 108.25 C84.09427734 108.24226563 84.09427734 108.24226563 82.66015625 108.234375 C75.73012017 108.15573629 75.73012017 108.15573629 72.65490723 107.49978638 C70.07300779 107.01374372 67.7286637 106.86290072 65.10546875 106.84228516 C64.16098877 106.83202301 63.21650879 106.82176086 62.2434082 106.81118774 C61.2349585 106.80388641 60.22650879 106.79658508 59.1875 106.7890625 C57.03905473 106.76100568 54.89061732 106.73234131 52.7421875 106.703125 C49.36491011 106.66180672 45.9877815 106.62490496 42.61035156 106.59863281 C39.34409589 106.57104137 36.07850122 106.52518541 32.8125 106.4765625 C31.80405029 106.47330963 30.79560059 106.47005676 29.7565918 106.46670532 C20.78440729 106.30933047 20.78440729 106.30933047 17 103 C17 102.34 17 101.68 17 101 C15.515 100.505 15.515 100.505 14 100 C10.8391325 83.08006222 8.38408919 66.08168121 6.01904297 49.03564453 C5.82967918 47.68108658 5.82967918 47.68108658 5.63648987 46.29916382 C5.39707205 44.58502024 5.1600905 42.8705341 4.92588806 41.15567017 C4.48266582 37.98601632 4.01455395 35.04366186 3 32 C2.63687786 29.60850031 2.30802405 27.21171855 2 24.8125 C1.91242432 24.14065674 1.82484863 23.46881348 1.73461914 22.77661133 C1.27695694 19.24966935 0.84812329 15.72016384 0.4375 12.1875 C0.18913291 9.11040295 0.18913291 9.11040295 -1 7 C-0.71758117 4.6599583 -0.38749213 2.32495277 0 0 Z " fill="#FA3640" transform="translate(37,89)"/>
<path d="M0 0 C1.23556641 0.01740234 1.23556641 0.01740234 2.49609375 0.03515625 C3.32238281 0.04417969 4.14867187 0.05320313 5 0.0625 C5.63808594 0.07410156 6.27617188 0.08570313 6.93359375 0.09765625 C6.93359375 0.75765625 6.93359375 1.41765625 6.93359375 2.09765625 C8.08859375 2.07703125 9.24359375 2.05640625 10.43359375 2.03515625 C15.81524198 2.03515625 21.87973673 2.15386509 26.93359375 4.09765625 C29.00083089 7.19851196 29.17856798 7.82697306 29.12890625 11.328125 C29.12246094 12.13056641 29.11601563 12.93300781 29.109375 13.75976562 C29.08423828 15.00983398 29.08423828 15.00983398 29.05859375 16.28515625 C29.04957031 17.13013672 29.04054688 17.97511719 29.03125 18.84570312 C29.00770078 20.92980868 28.97183022 23.01376842 28.93359375 25.09765625 C24.18359375 26.22265625 24.18359375 26.22265625 21.93359375 25.09765625 C11.34840143 22.66448285 -1.24862381 20.48749486 -11.06640625 26.09765625 C-11.56881947 28.42725095 -11.56881947 28.42725095 -11.06640625 31.09765625 C-5.70887479 35.8428984 3.80853789 41.09765625 10.93359375 41.09765625 C11.9573431 42.07332897 12.95430627 43.07736412 13.93359375 44.09765625 C15.36674639 44.95379051 16.82776481 45.76441764 18.30859375 46.53515625 C24.76815842 50.03758255 29.62252422 53.37145863 32.12109375 60.47265625 C33.98919905 68.91079289 34.49676481 78.54482139 29.93359375 86.09765625 C24.61111798 93.57789246 17.65973366 96.21699212 8.93359375 98.09765625 C4.13447851 98.51574902 -0.62678528 98.51751297 -5.44140625 98.47265625 C-7.29765625 98.49005859 -7.29765625 98.49005859 -9.19140625 98.5078125 C-18.9135328 98.47711105 -28.16160828 97.19929569 -37.06640625 93.09765625 C-38.21467475 90.80111925 -38.182018 89.51452458 -38.1640625 86.96484375 C-38.16083984 86.15917969 -38.15761719 85.35351562 -38.15429688 84.5234375 C-38.14591797 83.68167969 -38.13753906 82.83992188 -38.12890625 81.97265625 C-38.12439453 81.12316406 -38.11988281 80.27367187 -38.11523438 79.3984375 C-38.10343499 77.29814716 -38.08549931 75.19789295 -38.06640625 73.09765625 C-34.25853052 71.82836434 -33.02782176 72.6545265 -29.3046875 74.01953125 C-21.83859842 76.42841519 -15.03937786 76.56039641 -7.25390625 76.34765625 C-5.33868164 76.32058594 -5.33868164 76.32058594 -3.38476562 76.29296875 C-0.27781935 76.24642274 2.82745625 76.18105971 5.93359375 76.09765625 C7.41191635 73.14101106 6.99392158 70.35535888 6.93359375 67.09765625 C-2.27295049 62.17534547 -11.49006598 57.30207498 -20.88671875 52.75 C-24.18457682 51.13179635 -27.32522639 49.56955143 -30.06640625 47.09765625 C-30.06640625 46.43765625 -30.06640625 45.77765625 -30.06640625 45.09765625 C-30.72640625 45.09765625 -31.38640625 45.09765625 -32.06640625 45.09765625 C-37.79097539 37.4648974 -38.08384007 27.25456067 -37.06640625 18.09765625 C-35.640625 15.3359375 -35.640625 15.3359375 -34.06640625 13.09765625 C-33.57140625 12.23140625 -33.07640625 11.36515625 -32.56640625 10.47265625 C-30.59943898 7.35829141 -29.31123348 5.4620958 -25.69140625 4.40234375 C-24.39203125 4.18964844 -24.39203125 4.18964844 -23.06640625 3.97265625 C-20.2602968 3.49661983 -17.77596188 3.00084146 -15.06640625 2.09765625 C-11.94154609 1.79279184 -8.81612514 1.58924409 -5.68359375 1.37890625 C-2.94581542 1.08469724 -2.58858403 0.12233384 0 0 Z " fill="#003B7E" transform="translate(1220.06640625,129.90234375)"/>
<path d="M0 0 C0.89589844 -0.01417969 1.79179688 -0.02835938 2.71484375 -0.04296875 C5.0625 0.1875 5.0625 0.1875 7.0625 2.1875 C7.30541992 4.14282227 7.30541992 4.14282227 7.29296875 6.50390625 C7.29103516 7.35017578 7.28910156 8.19644531 7.28710938 9.06835938 C7.26874023 10.39577148 7.26874023 10.39577148 7.25 11.75 C7.24935547 12.63880859 7.24871094 13.52761719 7.24804688 14.44335938 C7.20271097 21.04728903 7.20271097 21.04728903 6.0625 22.1875 C4.45377672 22.46139295 2.83533869 22.67872922 1.21484375 22.87109375 C0.21646484 22.99419922 -0.78191406 23.11730469 -1.81054688 23.24414062 C-3.90942983 23.4947727 -6.00838636 23.74478945 -8.10742188 23.99414062 C-13.86155633 24.70466395 -19.34869566 25.6376635 -24.9375 27.1875 C-25.97251778 30.58792096 -26.05247763 33.68037168 -26.03515625 37.2253418 C-26.03020142 39.05194588 -26.03020142 39.05194588 -26.02514648 40.91545105 C-26.01684814 42.22596939 -26.0085498 43.53648773 -26 44.88671875 C-25.99559378 46.24623949 -25.9917773 47.60576226 -25.98852539 48.96528625 C-25.9771155 53.26855368 -25.95785248 57.5717668 -25.9375 61.875 C-25.91393041 66.87175411 -25.89354654 71.86847797 -25.88156128 76.86527443 C-25.87505752 78.86899646 -25.86248259 80.87269577 -25.84985352 82.87638855 C-25.84655029 84.08466812 -25.84324707 85.29294769 -25.83984375 86.5378418 C-25.83198853 88.14190132 -25.83198853 88.14190132 -25.82397461 89.77836609 C-25.9375 92.1875 -25.9375 92.1875 -26.9375 93.1875 C-30.74267267 93.46707408 -34.56077346 93.4192828 -38.375 93.4375 C-39.45072266 93.458125 -40.52644531 93.47875 -41.63476562 93.5 C-43.17487305 93.50773437 -43.17487305 93.50773437 -44.74609375 93.515625 C-45.69282959 93.5249707 -46.63956543 93.53431641 -47.61499023 93.54394531 C-48.38141846 93.42631836 -49.14784668 93.30869141 -49.9375 93.1875 C-52.46348002 89.39852997 -52.22591956 86.37366955 -52.2121582 81.98413086 C-52.21726913 81.1480983 -52.22238007 80.31206573 -52.22764587 79.45069885 C-52.2415578 76.68450789 -52.24058428 73.91856555 -52.23828125 71.15234375 C-52.24216656 69.23328051 -52.24650089 67.31421812 -52.25126648 65.39515686 C-52.25873159 61.37270316 -52.25843476 57.35033724 -52.25317383 53.32788086 C-52.24737088 48.16356465 -52.26432868 42.99960611 -52.2875185 37.83534908 C-52.30222001 33.87290839 -52.30313259 29.91055463 -52.30000877 25.94809151 C-52.30052353 24.04342501 -52.30579008 22.13875384 -52.31582069 20.23411369 C-52.32810214 17.57632759 -52.32144441 14.91924865 -52.30981445 12.26147461 C-52.31745819 11.46921478 -52.32510193 10.67695496 -52.33297729 9.86068726 C-52.3117218 7.67271423 -52.3117218 7.67271423 -51.9375 4.1875 C-48.8793611 2.14874074 -48.22689991 1.93259861 -44.77734375 1.921875 C-43.98392578 1.91929687 -43.19050781 1.91671875 -42.37304688 1.9140625 C-41.13651367 1.92566406 -41.13651367 1.92566406 -39.875 1.9375 C-39.04677734 1.92976562 -38.21855469 1.92203125 -37.36523438 1.9140625 C-36.57310547 1.91664063 -35.78097656 1.91921875 -34.96484375 1.921875 C-34.24031006 1.92413086 -33.51577637 1.92638672 -32.76928711 1.92871094 C-30.9375 2.1875 -30.9375 2.1875 -28.9375 4.1875 C-28.9375 5.5075 -28.9375 6.8275 -28.9375 8.1875 C-28.380625 7.878125 -27.82375 7.56875 -27.25 7.25 C-24.8037022 6.12602533 -22.56855805 5.71371161 -19.9375 5.1875 C-18.885625 4.630625 -18.885625 4.630625 -17.8125 4.0625 C-15.9375 3.1875 -15.9375 3.1875 -12.9375 4.1875 C-12.9375 3.5275 -12.9375 2.8675 -12.9375 2.1875 C-11.803125 2.043125 -10.66875 1.89875 -9.5 1.75 C-5.74925123 1.15777651 -3.91711929 0.02809985 0 0 Z " fill="#003B7E" transform="translate(880.9375,131.8125)"/>
<path d="M0 0 C0.74886475 0.00523682 1.49772949 0.01047363 2.26928711 0.01586914 C3.07817383 0.0190918 3.88706055 0.02231445 4.72045898 0.02563477 C5.5705957 0.03401367 6.42073242 0.04239258 7.29663086 0.05102539 C8.15063477 0.05553711 9.00463867 0.06004883 9.88452148 0.06469727 C12.00108749 0.07652166 14.11761771 0.0944577 16.23413086 0.11352539 C16.23413086 0.44352539 16.23413086 0.77352539 16.23413086 1.11352539 C18.70913086 1.60852539 18.70913086 1.60852539 21.23413086 2.11352539 C22.51107996 5.9443727 22.36532395 9.54155394 22.34765625 13.53222656 C22.34780228 14.39097885 22.3479483 15.24973114 22.34809875 16.13450623 C22.34740165 18.97519449 22.33961869 21.81581732 22.33178711 24.65649414 C22.32992221 26.62518783 22.32849865 28.59388198 22.32749939 30.56257629 C22.32367987 35.7460559 22.31385438 40.92950753 22.30279541 46.11297607 C22.29256916 51.40156679 22.28799916 56.69016202 22.28295898 61.97875977 C22.27223163 72.35702925 22.25463937 82.73527062 22.23413086 93.11352539 C14.31413086 93.11352539 6.39413086 93.11352539 -1.76586914 93.11352539 C-3.40045271 89.84435825 -2.9039952 86.2329325 -2.89526367 82.640625 C-2.89701599 81.76411789 -2.89876831 80.88761078 -2.90057373 79.98454285 C-2.90498627 77.07829832 -2.9020566 74.17211432 -2.89868164 71.26586914 C-2.89935479 69.25330087 -2.90032491 67.24073267 -2.90158081 65.22816467 C-2.90305692 61.00724515 -2.90090577 56.78634676 -2.89624023 52.56542969 C-2.89053935 47.14215636 -2.89382478 41.71893249 -2.8998127 36.29566097 C-2.90341752 32.13940556 -2.90228015 27.98316196 -2.89968491 23.8269062 C-2.89901561 21.8265234 -2.89984416 19.82613955 -2.90216446 17.82575798 C-2.90469009 15.03615326 -2.90085183 12.24662988 -2.89526367 9.45703125 C-2.8972879 8.62220215 -2.89931213 7.78737305 -2.90139771 6.92724609 C-2.87624124 0.18490974 -2.87624124 0.18490974 0 0 Z " fill="#003C80" transform="translate(695.765869140625,131.886474609375)"/>
<path d="M0 0 C2.23686081 1.45504538 3.72225705 2.7726391 4.921875 5.171875 C5.07259019 7.99778481 5.15320101 10.78259962 5.171875 13.609375 C5.1925 14.38603516 5.213125 15.16269531 5.234375 15.96289062 C5.27409295 21.72695793 5.27409295 21.72695793 3.58886719 23.85571289 C-1.38182329 27.78028705 -9.13515904 26.78426493 -15.078125 26.171875 C-19.45364501 23.31095807 -20.92357457 20.20991325 -22.078125 15.171875 C-22.203125 12.296875 -22.203125 12.296875 -22.078125 10.171875 C-21.418125 10.171875 -20.758125 10.171875 -20.078125 10.171875 C-20.09875 9.058125 -20.119375 7.944375 -20.140625 6.796875 C-20.078125 3.171875 -20.078125 3.171875 -19.078125 1.171875 C-13.44368275 -1.66041148 -5.93649111 -2.36566939 0 0 Z M2.921875 20.171875 C3.921875 22.171875 3.921875 22.171875 3.921875 22.171875 Z " fill="#003C80" transform="translate(713.078125,96.828125)"/>
<path d="M0 0 C0.33 0 0.66 0 1 0 C1 28.38 1 56.76 1 86 C0.67 86 0.34 86 0 86 C0 57.62 0 29.24 0 0 Z " fill="#003B7E" transform="translate(594,154)"/>
<path d="M0 0 C-1.25215101 5.84337138 -4.21899104 8.73102506 -9 12 C-9.99 12.33 -10.98 12.66 -12 13 C-12.73323796 15.01508358 -12.73323796 15.01508358 -13 17 C-13.66 16.67 -14.32 16.34 -15 16 C-13.5750006 11.36026982 -10.91190831 8.48920456 -7.5 5.1875 C-7.00113281 4.68541016 -6.50226563 4.18332031 -5.98828125 3.66601562 C-2.26740009 0 -2.26740009 0 0 0 Z " fill="#FB8D18" transform="translate(161,43)"/>
<path d="M0 0 C0.33 0 0.66 0 1 0 C1 15.18 1 30.36 1 46 C0.67 46 0.34 46 0 46 C0 30.82 0 15.64 0 0 Z " fill="#000002" transform="translate(484,157)"/>
<path d="M0 0 C0.33 0 0.66 0 1 0 C1 10.23 1 20.46 1 31 C0.67 31 0.34 31 0 31 C0 20.77 0 10.54 0 0 Z " fill="#003B7E" transform="translate(891,163)"/>
<path d="M0 0 C0.33 0 0.66 0 1 0 C1 10.23 1 20.46 1 31 C0.67 31 0.34 31 0 31 C0 20.77 0 10.54 0 0 Z " fill="#003B7E" transform="translate(729,163)"/>
<path d="M0 0 C0.33 0 0.66 0 1 0 C1 9.9 1 19.8 1 30 C0.67 30 0.34 30 0 30 C0 20.1 0 10.2 0 0 Z " fill="#003B7E" transform="translate(1085,164)"/>
<path d="M0 0 C1.32 0.66 2.64 1.32 4 2 C3.01 2 2.02 2 1 2 C0.7525 2.598125 0.505 3.19625 0.25 3.8125 C-1.16370012 6.28647521 -2.65055383 7.43370255 -5 9 C-3.90931332 5.22454612 -3.0916909 2.52956528 0 0 Z " fill="#00458F" transform="translate(1002,137)"/>
<path d="M0 0 C6.6 0 13.2 0 20 0 C20 0.33 20 0.66 20 1 C13.4 1 6.8 1 0 1 C0 0.67 0 0.34 0 0 Z " fill="#000002" transform="translate(833,226)"/>
<path d="M0 0 C6.6 0 13.2 0 20 0 C20 0.33 20 0.66 20 1 C13.4 1 6.8 1 0 1 C0 0.67 0 0.34 0 0 Z " fill="#000002" transform="translate(695,226)"/>
<path d="M0 0 C5.28 0 10.56 0 16 0 C16 0.33 16 0.66 16 1 C10.72 1 5.44 1 0 1 C0 0.67 0 0.34 0 0 Z " fill="#000002" transform="translate(1152,226)"/>
<path d="M0 0 C5.28 0 10.56 0 16 0 C16 0.33 16 0.66 16 1 C10.72 1 5.44 1 0 1 C0 0.67 0 0.34 0 0 Z " fill="#000002" transform="translate(796,226)"/>
<path d="M0 0 C4.95 0 9.9 0 15 0 C15 0.33 15 0.66 15 1 C10.05 1 5.1 1 0 1 C0 0.67 0 0.34 0 0 Z " fill="#003B7E" transform="translate(832,132)"/>
<path d="M0 0 C4.62 0 9.24 0 14 0 C14 0.33 14 0.66 14 1 C9.38 1 4.76 1 0 1 C0 0.67 0 0.34 0 0 Z " fill="#003B7E" transform="translate(597,132)"/>
<path d="M0 0 C4.29 0 8.58 0 13 0 C13 0.33 13 0.66 13 1 C8.71 1 4.42 1 0 1 C0 0.67 0 0.34 0 0 Z " fill="#004896" transform="translate(1056,132)"/>
<path d="M0 0 C0.33 0 0.66 0 1 0 C1 3.96 1 7.92 1 12 C0.67 12 0.34 12 0 12 C0 8.04 0 4.08 0 0 Z " fill="#003B7E" transform="translate(993,248)"/>
<path d="M0 0 C0.33 0 0.66 0 1 0 C1 1.98 1 3.96 1 6 C0.67 6 0.34 6 0 6 C0 4.02 0 2.04 0 0 Z " fill="#003B7E" transform="translate(1181,154)"/>
<path d="M0 0 C0.66 0.33 1.32 0.66 2 1 C1.01 1.99 0.02 2.98 -1 4 C-0.67 2.68 -0.34 1.36 0 0 Z " fill="#FB8114" transform="translate(142,64)"/>
<path d="M0 0 C1.65 0 3.3 0 5 0 C5 0.33 5 0.66 5 1 C3.35 1 1.7 1 0 1 C0 0.67 0 0.34 0 0 Z " fill="#003472" transform="translate(1127,130)"/>
<path d="M0 0 C1.65 0 3.3 0 5 0 C5 0.33 5 0.66 5 1 C3.35 1 1.7 1 0 1 C0 0.67 0 0.34 0 0 Z " fill="#003B7E" transform="translate(535,130)"/>
<path d="M0 0 C1.65 0 3.3 0 5 0 C5 0.33 5 0.66 5 1 C3.35 1 1.7 1 0 1 C0 0.67 0 0.34 0 0 Z " fill="#003472" transform="translate(438,130)"/>
<path d="M0 0 C1 4 1 4 1 4 Z " fill="#003B7E" transform="translate(594,251)"/>
<path d="M0 0 C1 4 1 4 1 4 Z " fill="#000002" transform="translate(1073,229)"/>
<path d="M0 0 C4 1 4 1 4 1 Z " fill="#000002" transform="translate(378,226)"/>
<path d="M0 0 C1 4 1 4 1 4 Z " fill="#000002" transform="translate(917,163)"/>
<path d="M0 0 C0.66 0.33 1.32 0.66 2 1 C1.01 1 0.02 1 -1 1 C-0.67 0.67 -0.34 0.34 0 0 Z " fill="#003B7E" transform="translate(1093,142)"/>
<path d="" fill="#000002" transform="translate(0,0)"/>
<path d="" fill="#000002" transform="translate(0,0)"/>
<path d="" fill="#000002" transform="translate(0,0)"/>
<path d="" fill="#0078C6" transform="translate(0,0)"/>
<path d="M0 0 C2 1 2 1 2 1 Z " fill="#000002" transform="translate(520,226)"/>
<path d="M0 0 C2 1 2 1 2 1 Z " fill="#000002" transform="translate(422,226)"/>
<path d="" fill="#003B7E" transform="translate(0,0)"/>
<path d="" fill="#000002" transform="translate(0,0)"/>
<path d="" fill="#000002" transform="translate(0,0)"/>
<path d="M0 0 C2 1 2 1 2 1 Z " fill="#003B7E" transform="translate(786,132)"/>
<path d="M0 0 C2 1 2 1 2 1 Z " fill="#003B7E" transform="translate(1025,130)"/>
<path d="" fill="#9D0D02" transform="translate(0,0)"/>
<path d="" fill="#9D0D02" transform="translate(0,0)"/>
<path d="M0 0 C2 1 2 1 2 1 Z " fill="#7D5411" transform="translate(164,42)"/>
<path d="" fill="#0078C6" transform="translate(0,0)"/>
<path d="" fill="#0078C6" transform="translate(0,0)"/>
<path d="" fill="#004896" transform="translate(0,0)"/>
<path d="" fill="#0058B2" transform="translate(0,0)"/>
<path d="" fill="#003B7E" transform="translate(0,0)"/>
<path d="" fill="#003B7E" transform="translate(0,0)"/>
<path d="" fill="#000002" transform="translate(0,0)"/>
<path d="" fill="#000002" transform="translate(0,0)"/>
<path d="" fill="#000002" transform="translate(0,0)"/>
<path d="" fill="#0058B2" transform="translate(0,0)"/>
<path d="" fill="#0058B2" transform="translate(0,0)"/>
<path d="" fill="#000002" transform="translate(0,0)"/>
<path d="" fill="#003B7E" transform="translate(0,0)"/>
<path d="" fill="#003B7E" transform="translate(0,0)"/>
<path d="" fill="#000002" transform="translate(0,0)"/>
<path d="" fill="#000002" transform="translate(0,0)"/>
<path d="" fill="#000002" transform="translate(0,0)"/>
<path d="" fill="#004896" transform="translate(0,0)"/>
<path d="" fill="#FB3741" transform="translate(0,0)"/>
<path d="" fill="#003B7E" transform="translate(0,0)"/>
<path d="" fill="#FB3741" transform="translate(0,0)"/>
<path d="" fill="#FB6E0F" transform="translate(0,0)"/>
<path d="" fill="#000002" transform="translate(0,0)"/>
<path d="" fill="#004896" transform="translate(0,0)"/>
<path d="" fill="#000002" transform="translate(0,0)"/>
<path d="" fill="#0078C6" transform="translate(0,0)"/>
<path d="" fill="#003B7E" transform="translate(0,0)"/>
<path d="" fill="#003B7E" transform="translate(0,0)"/>
<path d="" fill="#031C43" transform="translate(0,0)"/>
<path d="" fill="#003B7E" transform="translate(0,0)"/>
<path d="" fill="#031C43" transform="translate(0,0)"/>
<path d="" fill="#031C43" transform="translate(0,0)"/>
<path d="" fill="#003B7E" transform="translate(0,0)"/>
<path d="" fill="#003B7E" transform="translate(0,0)"/>
<path d="" fill="#FB3741" transform="translate(0,0)"/>
<path d="" fill="#FBA820" transform="translate(0,0)"/>
<path d="" fill="#FB6E0F" transform="translate(0,0)"/>
<path d="" fill="#FB3741" transform="translate(0,0)"/>
<path d="" fill="#FBA820" transform="translate(0,0)"/>
<path d="" fill="#9D0D02" transform="translate(0,0)"/>
<path d="" fill="#9D0D02" transform="translate(0,0)"/>
<path d="" fill="#9D0D02" transform="translate(0,0)"/>
<path d="" fill="#9D0D02" transform="translate(0,0)"/>
<path d="" fill="#9D0D02" transform="translate(0,0)"/>
<path d="" fill="#FB3741" transform="translate(0,0)"/>
<path d="" fill="#FBA820" transform="translate(0,0)"/>
</svg>
