<?xml version="1.0" encoding="UTF-8"?>
<!-- Generator: visioncortex VTracer 0.6.2 -->
<svg version="1.1" xmlns="http://www.w3.org/2000/svg" width="1280" height="256">
<path d="M0 0 C5.5359399 -0.02290734 11.07171655 -0.04283491 16.60766602 -0.05493164 C18.4924373 -0.05997244 20.37720465 -0.06680498 22.26196289 -0.07543945 C24.96501636 -0.08751617 27.66801831 -0.09323068 30.37109375 -0.09765625 C31.21900986 -0.10281754 32.06692596 -0.10797882 32.9405365 -0.11329651 C34.96071068 -0.11349195 36.98077934 -0.06206211 39 0 C40.68496564 1.68496564 40.12607996 3.77663325 40.12698364 6.08679199 C40.13121338 7.74006752 40.13121338 7.74006752 40.13552856 9.42674255 C40.13249222 11.25641319 40.13249222 11.25641319 40.12939453 13.12304688 C40.13202301 15.03743309 40.13202301 15.03743309 40.13470459 16.99049377 C40.13927849 20.50072992 40.13748955 24.0109368 40.1343255 27.52117348 C40.13180168 31.18692735 40.1341395 34.85267865 40.13571167 38.51843262 C40.1375333 44.67554171 40.13512723 50.83263882 40.13037109 56.98974609 C40.12492848 64.11805605 40.12669115 71.2463374 40.1321975 78.37464666 C40.13672882 84.48418851 40.13737909 90.59372173 40.13475883 96.70326471 C40.13319616 100.35690435 40.13300202 104.01053053 40.13629532 107.66416931 C40.13970815 111.73511461 40.13498399 115.80601025 40.12939453 119.87695312 C40.13141876 121.09673355 40.13344299 122.31651398 40.13552856 123.57325745 C40.13270874 124.67544113 40.12988892 125.77762482 40.12698364 126.91320801 C40.1264181 128.35893566 40.1264181 128.35893566 40.12584114 129.83386993 C40 132 40 132 39 133 C37.36246222 133.10925782 35.72023588 133.14907428 34.07910156 133.16113281 C33.02579651 133.17074036 31.97249146 133.1803479 30.88726807 133.19024658 C29.73337585 133.19449646 28.57948364 133.19874634 27.390625 133.203125 C26.19886658 133.20882507 25.00710815 133.21452515 23.77923584 133.22039795 C21.23694756 133.22987869 18.69464681 133.23639404 16.15234375 133.24023438 C12.33570237 133.24978553 8.51963615 133.2807123 4.703125 133.3125 C-45.75820168 133.53157419 -45.75820168 133.53157419 -63.25 117.3125 C-73.30869259 106.67272755 -74.59274067 93.81623104 -74.3125 79.8671875 C-73.7035883 66.60813517 -66.18043836 56.36866828 -56.8828125 47.41796875 C-42.044272 34.97209264 -19.31654477 27 0 27 C0 18.09 0 9.18 0 0 Z M-23.90234375 61.8515625 C-31.08898727 69.47882476 -34.11827242 77.51810706 -34 88 C-33.45753027 94.63556721 -31.90454391 100.29615354 -27 105 C-19.29169029 110.70522227 -9.21638958 111 0 111 C0 91.2 0 71.4 0 51 C-9.78616277 51 -17.14664049 55.27619629 -23.90234375 61.8515625 Z " fill="#000282" transform="translate(1064,72)"/>
<path d="M0 0 C12.87 0 25.74 0 39 0 C39 8.91 39 17.82 39 27 C42.63 27.33 46.26 27.66 50 28 C53.20054978 28.67598939 56.29349977 29.38573019 59.4375 30.25 C60.25734375 30.47179932 61.0771875 30.69359863 61.921875 30.92211914 C68.53171732 32.76389705 74.81113018 35.01784502 81 38 C81.91910156 38.42796875 82.83820313 38.8559375 83.78515625 39.296875 C96.70198589 45.76437339 107.02470952 56.04691368 111.875 69.8125 C115.74035658 83.23453573 114.64370964 97.37858824 108.3125 109.9375 C101.90836037 120.65302601 91.9895664 125.59754311 80.375 129.1875 C53.6317897 135.75998389 28.10681189 133 0 133 C0 89.11 0 45.22 0 0 Z M40 51 C38.73349015 52.04310705 38.73349015 52.04310705 38.87974548 54.36012268 C38.88196609 55.40603073 38.88418671 56.45193878 38.88647461 57.52954102 C38.88655014 58.71068985 38.88662567 59.89183868 38.88670349 61.10877991 C38.89186478 62.3941716 38.89702606 63.67956329 38.90234375 65.00390625 C38.9037587 66.31205795 38.90517365 67.62020966 38.90663147 68.96800232 C38.9104559 72.45162859 38.92028554 75.93521339 38.93133545 79.41882324 C38.94155118 82.97126708 38.94612944 86.52371759 38.95117188 90.07617188 C38.96190788 97.05079832 38.9789834 104.02539717 39 111 C41.37306523 110.87660363 43.74497811 110.74371101 46.1171875 110.60546875 C46.78129639 110.57191284 47.44540527 110.53835693 48.12963867 110.50378418 C55.25513641 110.07345829 62.90660647 108.73741619 68 103.3125 C72.81809016 95.33253818 74.20462649 87.61540713 72.53125 78.42578125 C69.82720576 67.9154188 62.35280289 59.49855029 53.1484375 53.8671875 C48.89280313 51.8656791 44.63374326 51.3195685 40 51 Z " fill="#000282" transform="translate(720,72)"/>
<path d="M0 0 C13.53 0 27.06 0 41 0 C41.05607422 7.81751953 41.05607422 7.81751953 41.11328125 15.79296875 C41.14356162 19.09703813 41.17470983 22.40105367 41.20898438 25.70507812 C41.26328924 30.94797037 41.31439993 36.19075612 41.34643555 41.43383789 C41.37246825 45.66152759 41.41287022 49.8888593 41.46318626 54.11632729 C41.47985524 55.72818864 41.49136934 57.34011191 41.49761391 58.95204735 C41.50725491 61.21214593 41.5353125 63.47132862 41.56762695 65.73120117 C41.58428154 67.65980232 41.58428154 67.65980232 41.60127258 69.62736511 C42.02989658 73.25288016 42.79692149 75.11996999 45 78 C49.07224138 80.71482758 52.46922498 81.39096691 57.3515625 80.63671875 C60.85752311 79.73285771 60.85752311 79.73285771 64 78 C66.53463928 73.04007552 67.38208049 69.33056863 67.43237305 63.68774414 C67.4425647 62.99421844 67.45275635 62.30069275 67.46325684 61.58615112 C67.49318413 59.3190685 67.50262111 57.05240975 67.51171875 54.78515625 C67.52858057 53.20330931 67.54673283 51.62147564 67.56611633 50.03965759 C67.61345959 45.89529571 67.64336993 41.75098767 67.66955566 37.60644531 C67.70470372 32.6235504 67.76167154 27.64086218 67.81494904 22.65813446 C67.8932791 15.10544981 67.94402302 7.55303231 68 0 C80.87 0 93.74 0 107 0 C107 34.32 107 68.64 107 104 C103.04 103.01 99.08 102.02 95 101 C88.94875453 99.93001812 88.94875453 99.93001812 83.8125 101.8125 C64.75897662 109.91975956 39.56955912 108.14061958 20.65234375 100.6796875 C11.98942473 96.75077999 4.46039601 91.1598718 1 82 C-0.07178585 77.78703804 -0.13564749 73.68367856 -0.11352539 69.36401367 C-0.11367142 68.61225861 -0.11381744 67.86050354 -0.1139679 67.08596802 C-0.11327395 64.61327174 -0.1055059 62.14065179 -0.09765625 59.66796875 C-0.09579023 57.94875632 -0.09436719 56.22954335 -0.09336853 54.5103302 C-0.08955786 49.99433921 -0.07973997 45.47838058 -0.06866455 40.96240234 C-0.05661662 35.5391634 -0.05204129 30.11591361 -0.04621124 24.6926651 C-0.03652743 16.46175425 -0.01736073 8.23091436 0 0 Z " fill="#000282" transform="translate(601,101)"/>
<path d="M0 0 C1.051875 0.7425 2.10375 1.485 3.1875 2.25 C13.2147177 12.05439064 18.7857842 25.06827698 19.30078125 39.05078125 C19.32006107 40.80458588 19.32359336 42.55862448 19.3125 44.3125 C19.30512817 45.69562378 19.30512817 45.69562378 19.29760742 47.10668945 C19.01908016 63.34839974 13.65956588 75.67356458 2 87 C-8.50005351 96.35568821 -20.56633858 99.39945789 -34.375 99.3125 C-35.29966064 99.30758545 -36.22432129 99.3026709 -37.17700195 99.29760742 C-43.8391463 99.18319807 -49.79013829 98.56494288 -56 96 C-56.83273437 95.67128906 -57.66546875 95.34257812 -58.5234375 95.00390625 C-70.56582198 89.64967684 -79.30687437 79.99636395 -84.28125 67.87890625 C-90.09604606 51.24443609 -89.77954729 32.85489036 -82.375 16.75 C-75.46888121 3.96089113 -65.66987295 -3.84585381 -51.9921875 -8.23828125 C-34.51766973 -12.6867551 -14.76279558 -10.79582556 0 0 Z M-43 16 C-47.6860422 25.2143052 -48.20179865 33.95451433 -48.25 44.125 C-48.270625 45.18976563 -48.29125 46.25453125 -48.3125 47.3515625 C-48.35913208 56.95777158 -47.53943067 67.4697465 -41 75 C-38.39737758 77.13786842 -36.25358365 77.13030496 -33 76.9375 C-30.03329794 76.44213231 -29.07012393 76.05875248 -26.6875 74.0625 C-21.98571254 65.52962646 -21.49474178 56.8658713 -21.55395508 47.2878418 C-21.56244651 45.20064843 -21.5336439 43.11622045 -21.50195312 41.02929688 C-21.45440014 32.40614316 -22.03939772 23.83153325 -26 16 C-28.99463656 13.12479904 -30.35000363 12.09285662 -34.5 11.5 C-38.78041913 12.11148845 -40.13875797 12.75210364 -43 16 Z " fill="#000282" transform="translate(1257,108)"/>
<path d="M0 0 C0.94746094 0.65935547 0.94746094 0.65935547 1.9140625 1.33203125 C11.64851231 8.77223848 16.92812311 21.20226109 19 33 C20.2897714 51.68656387 19.10051276 67.62594009 6.8828125 82.59375 C-2.5928728 92.90826646 -14.96791479 98.6793322 -28.98046875 99.3359375 C-46.33765873 99.63804571 -60.45540876 96.89849203 -73.75 84.8125 C-80.82267923 77.21277015 -84.98191396 68.09043019 -87 58 C-87.226875 56.88625 -87.45375 55.7725 -87.6875 54.625 C-89.11898808 38.01973832 -87.19216589 21.87660442 -76.92578125 8.24609375 C-58.46816839 -13.36831852 -22.96926693 -16.94944047 0 0 Z M-43 16 C-47.6860422 25.2143052 -48.20179865 33.95451433 -48.25 44.125 C-48.270625 45.18976563 -48.29125 46.25453125 -48.3125 47.3515625 C-48.35913208 56.95777158 -47.53943067 67.4697465 -41 75 C-38.39737758 77.13786842 -36.25358365 77.13030496 -33 76.9375 C-29.98834437 76.44021364 -29.07959538 76.06883925 -26.6875 74 C-18.32365353 59.13093962 -19.66770849 39.13727689 -23 23 C-24.31156855 19.11172155 -26.03307759 16.06694887 -28.8125 13 C-34.43412815 10.43011285 -39.00372185 11.46368426 -43 16 Z " fill="#000282" transform="translate(420,108)"/>
<path d="M0 0 C1.38585045 -0.00845947 1.38585045 -0.00845947 2.79969788 -0.01708984 C3.81120911 -0.01304138 4.82272034 -0.00899292 5.86488342 -0.00482178 C6.93178909 -0.00832642 7.99869476 -0.01183105 9.09793091 -0.01544189 C12.63367674 -0.02426262 16.16922335 -0.01840834 19.70497131 -0.01165771 C22.15732868 -0.01300436 24.60968579 -0.01494489 27.06204224 -0.01745605 C32.20598386 -0.02040787 37.3498561 -0.01610815 42.49378967 -0.0067749 C49.09270985 0.00461359 55.69146724 -0.00193576 62.29038143 -0.01391983 C67.35607126 -0.02114196 72.42172242 -0.01884875 77.48741341 -0.01366425 C79.92072634 -0.01232842 82.35404276 -0.01397312 84.78735161 -0.01862335 C88.18698825 -0.02369362 91.58636027 -0.01597074 94.98597717 -0.00482178 C95.99546417 -0.00887024 97.00495117 -0.0129187 98.04502869 -0.01708984 C98.97174881 -0.0114502 99.89846893 -0.00581055 100.85327148 0 C101.65686568 0.00075405 102.46045988 0.0015081 103.28840542 0.002285 C105.49012756 0.25396729 105.49012756 0.25396729 109.49012756 2.25396729 C71.54012756 40.20396729 33.59012756 78.15396729 -5.50987244 117.25396729 C-7.36134975 113.55101265 -7.76079799 112.43849484 -7.77056885 108.57241821 C-7.77765366 107.63583878 -7.78473846 106.69925934 -7.79203796 105.73429871 C-7.78956055 104.71388992 -7.78708313 103.69348114 -7.78453064 102.64215088 C-7.79219704 101.0221241 -7.79219704 101.0221241 -7.80001831 99.36936951 C-7.81392706 95.7969917 -7.81295701 92.22480646 -7.81065369 88.65240479 C-7.81453895 86.17426481 -7.81887327 83.6961255 -7.82363892 81.21798706 C-7.8311032 76.02455485 -7.83080761 70.83119063 -7.82554626 65.63775635 C-7.82089611 60.29489061 -7.82724396 54.95226673 -7.84605408 49.60943604 C-7.86845061 43.16630698 -7.8763162 36.72333628 -7.87238121 30.28017044 C-7.87289618 27.8200793 -7.87816652 25.35998455 -7.88819313 22.89991379 C-7.90046443 19.46875471 -7.89382258 16.03814425 -7.88218689 12.60699463 C-7.88983063 11.58253738 -7.89747437 10.55808014 -7.90534973 9.50257874 C-7.89833542 8.57163895 -7.89132111 7.64069916 -7.88409424 6.68154907 C-7.88426198 5.87003576 -7.88442972 5.05852245 -7.88460255 4.22241783 C-7.76094161 3.57282915 -7.63728067 2.92324047 -7.50987244 2.25396729 C-4.34903678 0.14674351 -3.60811403 0.00338726 0 0 Z " fill="#FCCB00" transform="translate(134.50987243652344,2.74603271484375)"/>
<path d="M0 0 C3.63255692 1.53484541 5.9559179 3.70449737 8.73297119 6.47900391 C9.42413454 7.16548728 9.42413454 7.16548728 10.12926078 7.865839 C11.66941267 9.39802414 13.20232947 10.93724615 14.73535156 12.4765625 C15.83896157 13.57746213 16.94299653 14.67793591 18.04742432 15.77801514 C21.04352454 18.76499674 24.03326289 21.75827126 27.0216341 24.75298309 C30.14699064 27.88339977 33.27721998 31.00893772 36.40667725 34.13525391 C41.65916312 39.38410126 46.90741761 44.63715187 52.15332031 49.89257812 C58.22535698 55.97551043 64.30458054 62.0511888 70.38756585 68.12317085 C75.60572115 73.33226353 80.81998548 78.54522695 86.03099036 83.7614727 C89.14536429 86.87897053 92.26108767 89.99508733 95.38031769 93.10772705 C98.31014238 96.03179342 101.23506752 98.96067244 104.15621185 101.89340973 C105.23165478 102.97150689 106.30882128 104.04788775 107.38778687 105.12245941 C108.8548358 106.58408174 110.31564532 108.05166111 111.77496338 109.52099609 C112.59569462 110.34248138 113.41642586 111.16396667 114.26202774 112.01034546 C116 114 116 114 116 116 C101.17082377 116.07001803 86.34166935 116.12295273 71.51236153 116.15543652 C64.62716274 116.17091885 57.74206654 116.19203424 50.85693359 116.22631836 C44.21745909 116.25936354 37.57806346 116.27683313 30.93850327 116.28463173 C28.40025017 116.29019221 25.86200319 116.30104979 23.32379532 116.31719017 C19.77969801 116.33883888 16.23604687 116.34197216 12.69189453 116.34057617 C11.63310089 116.351362 10.57430725 116.36214783 9.48342896 116.3732605 C8.52146606 116.36913651 7.55950317 116.36501251 6.56838989 116.36076355 C5.72955828 116.36352893 4.89072666 116.36629431 4.02647591 116.36914349 C3.02337033 116.18641746 3.02337033 116.18641746 2 116 C-0.13238821 112.80141769 -0.24864896 112.01635555 -0.24050903 108.34931946 C-0.24325836 107.39439606 -0.24600769 106.43947266 -0.24884033 105.45561218 C-0.24164978 104.40976456 -0.23445923 103.36391693 -0.22705078 102.28637695 C-0.22734283 101.1837854 -0.22763489 100.08119385 -0.22793579 98.94519043 C-0.22654003 95.29280792 -0.21096702 91.64062822 -0.1953125 87.98828125 C-0.19158325 85.45908215 -0.18873586 82.9298816 -0.18673706 80.40068054 C-0.17987533 74.41898278 -0.16410489 68.43737237 -0.14403808 62.45570964 C-0.12168777 55.64562274 -0.11068784 48.83553236 -0.10064721 42.02541792 C-0.07973887 28.01690482 -0.04455747 14.00845641 0 0 Z " fill="#FCCC00" transform="translate(127,137)"/>
<path d="M0 0 C0 8.25 0 16.5 0 25 C-7 27 -7 27 -10.140625 27.859375 C-22.95197759 31.52895841 -35.65343017 37.36072558 -42.921875 49.10546875 C-47.98757649 59.00770905 -49.77034189 68.24770082 -46.875 79.25 C-43.13708955 90.11601875 -34.44834383 97.38199233 -24.5625 102.625 C-16.61871826 106.44595039 -8.50502044 108.69946168 0 111 C0 119.58 0 128.16 0 137 C-27.50421179 137 -54.4824445 128.90898983 -75 110 C-87.23876699 97.62437778 -91.38419981 82.65018573 -91.30078125 65.75097656 C-90.89064613 48.19572854 -83.24831462 36.24831462 -71.1015625 24.1015625 C-52.27615697 6.54707042 -25.13070204 0 0 0 Z " fill="#000181" transform="translate(324,70)"/>
<path d="M0 0 C3.19396654 3.19396654 2.0625 12.35325381 2.0625 16.625 C2.04679418 18.08339757 2.02792326 19.54178519 2 21 C-1.86038683 21.06772608 -5.43084288 21.08756263 -9.25 20.5 C-17.58216692 19.38904441 -25.42456182 18.99788172 -33 23 C-34.05268355 24.74544148 -34.05268355 24.74544148 -34 27 C-32.72143367 30.5295634 -31.69753266 32.507624 -28.609375 34.6875 C-27.66578125 35.120625 -26.7221875 35.55375 -25.75 36 C-24.68523438 36.49628906 -23.62046875 36.99257812 -22.5234375 37.50390625 C-19.46875364 38.80096159 -16.40209595 40.01590605 -13.30297852 41.19946289 C-2.92163489 45.17347856 6.45416252 49.82874266 11.56640625 60.16796875 C14.46901394 67.09560998 14.13860114 75.8031272 12.19140625 82.98046875 C8.089144 92.13603674 0.3035228 98.19648413 -8.85473633 101.88745117 C-19.11733216 105.51755668 -29.37113914 106.49945221 -40.1875 106.375 C-41.44038818 106.36774902 -42.69327637 106.36049805 -43.98413086 106.35302734 C-68.0028719 105.99856405 -68.0028719 105.99856405 -78 101 C-77.67 94.07 -77.34 87.14 -77 80 C-74.2775 80.4640625 -74.2775 80.4640625 -71.5 80.9375 C-69.33356932 81.29310736 -67.16691749 81.64737119 -65 82 C-63.741875 82.20625 -62.48375 82.4125 -61.1875 82.625 C-50.45795695 83.83459358 -38.78044083 84.46516835 -29.4375 78.3125 C-27.40881151 75.04895765 -26.45305648 71.84227824 -27 68 C-29.69871596 62.74532132 -32.94855065 60.52921427 -38.1875 58.1875 C-39.62057168 57.50554296 -41.05283662 56.82188859 -42.484375 56.13671875 C-43.59522461 55.61343994 -43.59522461 55.61343994 -44.72851562 55.07958984 C-68.32675195 43.86383307 -68.32675195 43.86383307 -75 34.0625 C-77.05976543 27.75446836 -77.90220541 22.10677855 -75.11328125 15.90234375 C-69.99818441 7.16180985 -60.47180622 2.21178528 -50.98925781 -0.59521484 C-34.13095882 -4.80374864 -16.82821288 -3.72886922 0 0 Z " fill="#000282" transform="translate(580,101)"/>
<path d="M0 0 C0.33 6.6 0.66 13.2 1 20 C-0.299375 19.835 -1.59875 19.67 -2.9375 19.5 C-19.01690433 17.64025954 -19.01690433 17.64025954 -34 22 C-35.41518518 24.32587842 -35.41518518 24.32587842 -35 27 C-32.98106151 31.20998322 -31.06775625 32.90125124 -26.875 34.875 C-25.81410156 35.37902344 -24.75320313 35.88304687 -23.66015625 36.40234375 C-20.3097102 37.86481166 -16.93845917 39.22328754 -13.53662109 40.55883789 C-2.98980072 44.72546868 6.00942736 49.19451907 11 60 C13.31062839 66.94679245 13.19794123 76.11545802 10.4375 82.875 C9.30078125 84.984375 9.30078125 84.984375 8 87 C7.56042969 87.68578125 7.12085938 88.3715625 6.66796875 89.078125 C-1.26461338 99.60134788 -14.58372652 103.08294088 -27 105 C-31.90606546 105.38281753 -36.76844994 105.42910475 -41.6875 105.375 C-42.9866333 105.36847412 -44.2857666 105.36194824 -45.62426758 105.35522461 C-56.79957976 105.20073359 -68.31438953 104.56187016 -79 101 C-78.67 93.74 -78.34 86.48 -78 79 C-75.5559375 79.4640625 -75.5559375 79.4640625 -73.0625 79.9375 C-60.14392514 82.2520096 -45.31007678 84.71364122 -33 79 C-29.9854371 76.86774819 -29.22313189 75.66939568 -28.0625 72.1875 C-27.98325437 68.14597302 -28.60794706 65.23962733 -31 62 C-34.40726599 59.55096834 -38.09455397 57.80171909 -41.875 56 C-43.96748121 54.95319154 -46.05992934 53.90631696 -48.15234375 52.859375 C-50.10088293 51.90486148 -52.05003685 50.95160113 -54 50 C-72.89723398 40.68627432 -72.89723398 40.68627432 -77 30.9375 C-79.08865417 23.86080989 -78.06614526 18.77296401 -74.61328125 12.36328125 C-72.02717402 8.57491594 -68.90987371 6.31669152 -65 4 C-64.07380859 3.43345703 -64.07380859 3.43345703 -63.12890625 2.85546875 C-47.22764223 -5.97122042 -16.75815082 -8.37907541 0 0 Z " fill="#000282" transform="translate(917,102)"/>
<path d="M0 0 C13.2 0 26.4 0 40 0 C40 43.89 40 87.78 40 133 C26.8 133 13.6 133 0 133 C0 89.11 0 45.22 0 0 Z " fill="#000282" transform="translate(449,72)"/>
<path d="M0 0 C12.87 0 25.74 0 39 0 C39 34.32 39 68.64 39 104 C25.8 104 12.6 104 -1 104 C-1.02254861 90.58773907 -1.04091369 77.17549062 -1.05181217 63.76321507 C-1.0570416 57.53606528 -1.06414033 51.30892908 -1.07543945 45.08178711 C-1.08626621 39.07773135 -1.09227638 33.07368871 -1.09487724 27.06962395 C-1.09673188 24.7733839 -1.10035321 22.47714461 -1.10573006 20.18091011 C-1.11293768 16.97679186 -1.11399106 13.7727285 -1.11352539 10.56860352 C-1.11712067 9.60907272 -1.12071594 8.64954193 -1.12442017 7.66093445 C-1.1230455 6.79290192 -1.12167084 5.92486938 -1.12025452 5.03053284 C-1.12117631 4.27189721 -1.1220981 3.51326159 -1.12304783 2.731637 C-1 1 -1 1 0 0 Z " fill="#000282" transform="translate(1119,101)"/>
<path d="M0 0 C12.87 0 25.74 0 39 0 C39 34.32 39 68.64 39 104 C26.13 104 13.26 104 0 104 C0 69.68 0 35.36 0 0 Z " fill="#000282" transform="translate(939,101)"/>
<path d="M0 0 C18.81 0.33 37.62 0.66 57 1 C57 19.81 57 38.62 57 58 C38.19 58 19.38 58 0 58 C-1.00470404 54.98588787 -1.12669638 52.9759891 -1.12939453 49.82592773 C-1.13254669 48.77150986 -1.13569885 47.71709198 -1.13894653 46.63072205 C-1.1369223 45.49316971 -1.13489807 44.35561737 -1.1328125 43.18359375 C-1.13376923 42.01619156 -1.13472595 40.84878937 -1.13571167 39.64601135 C-1.1363925 37.17717434 -1.13454495 34.70833553 -1.13037109 32.23950195 C-1.12501673 28.44934087 -1.13032186 24.65929803 -1.13671875 20.86914062 C-1.13605805 18.47395807 -1.13477704 16.07877559 -1.1328125 13.68359375 C-1.13584885 11.9742289 -1.13584885 11.9742289 -1.13894653 10.23033142 C-1.13421829 8.65343285 -1.13421829 8.65343285 -1.12939453 7.04467773 C-1.12859894 6.11662827 -1.12780334 5.1885788 -1.12698364 4.23240662 C-1 2 -1 2 0 0 Z " fill="#FCCB00" transform="translate(64,67)"/>
<path d="M0 0 C0 36.3 0 72.6 0 110 C-4.19224868 106.40664399 -8.11495793 103.00816756 -11.96972656 99.12792969 C-12.88046936 98.21388367 -13.79121216 97.29983765 -14.72955322 96.35809326 C-15.20405159 95.87947594 -15.67854996 95.40085861 -16.16742706 94.90773773 C-17.67020014 93.39204561 -19.17621129 91.87963618 -20.68304443 90.36798096 C-23.87487398 87.16481135 -27.06271699 83.95769276 -30.25 80.75 C-33.96002207 77.01633482 -37.67168282 73.28432884 -41.38756561 69.55649567 C-42.86918647 68.06840711 -44.34775891 66.57733477 -45.82623291 65.08612061 C-46.72436707 64.18468323 -47.62250122 63.28324585 -48.54785156 62.35449219 C-49.33726135 61.55984558 -50.12667114 60.76519897 -50.94000244 59.94647217 C-53.0437589 57.84930388 -53.0437589 57.84930388 -56 56 C-55.49800168 51.74778809 -53.10442859 49.72394486 -50.16064453 46.77246094 C-49.65813171 46.26469116 -49.1556189 45.75692139 -48.63787842 45.23376465 C-46.97698522 43.55968148 -45.30537445 41.89679415 -43.6328125 40.234375 C-42.47513606 39.07467786 -41.31790529 37.91453569 -40.16110229 36.75396729 C-37.73643805 34.32488131 -35.30643282 31.90130204 -32.87255859 29.48144531 C-29.74944934 26.37544675 -26.64002561 23.2561499 -23.53445625 20.13262558 C-21.14815175 17.73549557 -18.75476661 15.34553847 -16.35915756 12.95771027 C-15.20946712 11.81002425 -14.06200981 10.66009678 -12.9168129 9.50792694 C-11.31772514 7.90124306 -9.70937614 6.30445365 -8.09814453 4.70996094 C-7.18404816 3.79825134 -6.26995178 2.88654175 -5.32815552 1.94720459 C-3 0 -3 0 0 0 Z " fill="#FCCB00" transform="translate(58,73)"/>
<path d="M0 0 C10.93647573 1.52491143 23.9039697 17.82611677 31.75 25.1875 C32.3976897 25.79313404 33.04537941 26.39876808 33.71269608 27.02275467 C48.81460064 41.24685246 61.68127692 53.83065644 62.83944702 75.45747375 C62.8986257 87.07836459 61.49822375 98.66019622 59 110 C52.32784074 104.51554878 46.28868863 98.43436185 40.1953125 92.328125 C39.06442602 91.19791315 37.93339122 90.06784969 36.80221558 88.93792725 C34.44561838 86.58279655 32.09082009 84.22588604 29.73730469 81.86767578 C26.71771206 78.84235357 23.69360758 75.82158729 20.66816902 72.80211258 C18.33814997 70.47569957 16.01050853 68.14691948 13.68358994 65.8174057 C12.56872868 64.70187699 11.45312308 63.58709167 10.33676529 62.47306061 C8.78344234 60.9222684 7.2333458 59.36832251 5.68408203 57.81347656 C4.80140656 56.93000549 3.91873108 56.04653442 3.00930786 55.1362915 C0.04441925 51.98402874 -0.12392749 50.31456228 -0.11352539 46.09130859 C-0.11344986 45.07040131 -0.11337433 44.04949402 -0.11329651 42.99765015 C-0.10813522 41.89240997 -0.10297394 40.7871698 -0.09765625 39.6484375 C-0.0962413 38.5192691 -0.09482635 37.39010071 -0.09336853 36.22671509 C-0.08775744 32.60945012 -0.07520303 28.99224636 -0.0625 25.375 C-0.05748643 22.92708423 -0.05292328 20.47916748 -0.04882812 18.03125 C-0.0377844 12.02081234 -0.02103544 6.01041054 0 0 Z " fill="#FBCB00" transform="translate(63,137)"/>
<path d="M0 0 C0.02529271 7.08413941 0.04284261 14.16826723 0.05493164 21.25244141 C0.05996974 23.66390417 0.06680034 26.07536386 0.07543945 28.48681641 C0.08752787 31.94694779 0.09323344 35.4070389 0.09765625 38.8671875 C0.10281754 39.95055389 0.10797882 41.03392029 0.11329651 42.15011597 C0.11337204 43.1510025 0.11344757 44.15188904 0.11352539 45.18310547 C0.115746 46.06690887 0.11796661 46.95071228 0.12025452 47.86129761 C0 50 0 50 -1 52 C-17.83 52 -34.66 52 -52 52 C-50.93913592 46.69567961 -50.27496426 45.77149926 -46.63549805 42.11791992 C-46.18335937 41.65877197 -45.7312207 41.19962402 -45.26538086 40.7265625 C-43.77403914 39.21767206 -42.26860855 37.72382002 -40.76171875 36.23046875 C-39.71839285 35.18444751 -38.67566128 34.13783317 -37.63349915 33.09065247 C-35.45001768 30.90128058 -33.2594819 28.71929037 -31.0637207 26.54223633 C-28.24883489 23.75016786 -25.45232593 20.94048724 -22.6608305 18.12505627 C-20.51220743 15.96198715 -18.35415812 13.80852598 -16.19312477 11.65786171 C-15.15794958 10.62535563 -14.12573972 9.58986773 -13.09656334 8.55138206 C-11.65827985 7.10295125 -10.20579067 5.66866828 -8.75268555 4.23510742 C-7.92963425 3.41523849 -7.10658295 2.59536957 -6.2585907 1.75065613 C-4 0 -4 0 0 0 Z " fill="#FACD00" transform="translate(122,10)"/>
<path d="M0 0 C6.94172388 -0.02529373 13.88343594 -0.04284304 20.82519531 -0.05493164 C23.18815556 -0.05996959 25.55111268 -0.06680008 27.9140625 -0.07543945 C31.30469535 -0.08752854 34.69528709 -0.09323359 38.0859375 -0.09765625 C39.14743011 -0.10281754 40.20892273 -0.10797882 41.30258179 -0.11329651 C42.77388046 -0.11340981 42.77388046 -0.11340981 44.27490234 -0.11352539 C45.14094086 -0.115746 46.00697937 -0.11796661 46.89926147 -0.12025452 C49 0 49 0 51 1 C51.33 17.83 51.66 34.66 52 52 C51.01 52.495 51.01 52.495 50 53 C49.60585403 52.53520737 49.21170807 52.07041473 48.80561829 51.59153748 C43.91575504 45.90628947 38.72512612 40.57974031 33.41796875 35.28515625 C32.52257889 34.38880966 31.62718903 33.49246307 30.70466614 32.56895447 C28.82589224 30.68950398 26.94616009 28.81107813 25.06469727 26.93432617 C22.65258227 24.52795724 20.24505193 22.11705876 17.83878613 19.70484257 C15.53426977 17.39585567 13.2259604 15.09066856 10.91796875 12.78515625 C10.05342575 11.91858902 9.18888275 11.05202179 8.29814148 10.15919495 C7.50003555 9.36424118 6.70192963 8.56928741 5.87963867 7.75024414 C5.17683273 7.0482338 4.47402679 6.34622345 3.74992371 5.62294006 C2.0825321 3.92446915 2.0825321 3.92446915 0 3 C0 2.01 0 1.02 0 0 Z " fill="#FBCA00" transform="translate(70,130)"/>
<path d="M0 0 C1.64510941 0.00015915 3.29022379 0.00585551 4.93530273 0.01586914 C6.23164894 0.01799156 6.23164894 0.01799156 7.55418396 0.02015686 C10.32578941 0.025773 13.09731528 0.0383282 15.86889648 0.05102539 C17.74324428 0.05603831 19.61759334 0.06060158 21.49194336 0.06469727 C26.09679192 0.07574767 30.70158069 0.09302309 35.30639648 0.11352539 C35.30639648 5.39352539 35.30639648 10.67352539 35.30639648 16.11352539 C22.10639648 16.11352539 8.90639648 16.11352539 -4.69360352 16.11352539 C-4.69360352 0.14426106 -4.69360352 0.14426106 0 0 Z " fill="#000282" transform="translate(1122.693603515625,71.886474609375)"/>
<path d="M0 0 C12.87 0 25.74 0 39 0 C39 5.28 39 10.56 39 16 C26.13 16 13.26 16 0 16 C0 10.72 0 5.44 0 0 Z " fill="#000282" transform="translate(939,72)"/>
<path d="M0 0 C0.66 0.33 1.32 0.66 2 1 C2 1.66 2 2.32 2 3 C0.61584473 4.364151 0.61584473 4.364151 -1.34960938 5.98071289 C-6.64470325 10.48698882 -11.50583216 15.38071861 -16.40625 20.30859375 C-17.38108645 21.2853001 -18.35614749 22.26178234 -19.3314209 23.23805237 C-21.87186301 25.78227461 -24.40928509 28.32948736 -26.94604492 30.87738037 C-29.54551127 33.48715882 -32.14788494 36.09403482 -34.75 38.70117188 C-39.83614918 43.79797872 -44.9191047 48.89795508 -50 54 C-50.66 53.34 -51.32 52.68 -52 52 C-34.84 34.84 -17.68 17.68 0 0 Z " fill="#ECBE04" transform="translate(55,73)"/>
<path d="M0 0 C0.55975525 0.25353745 1.1195105 0.50707489 1.69622803 0.76829529 C0.9818457 1.41121521 0.26746338 2.05413513 -0.46856689 2.71653748 C-10.85513954 12.145059 -20.72472978 22.07603705 -30.61627197 32.01829529 C-32.33934345 33.74639503 -34.06264915 35.47426127 -35.78619385 37.20188904 C-39.96141932 41.38800758 -44.13376186 45.57698176 -48.30377197 49.76829529 C-48.96377197 49.10829529 -49.62377197 48.44829529 -50.30377197 47.76829529 C-44.12915196 41.47796019 -37.9412212 35.20111997 -31.73575211 28.94121456 C-28.85489144 26.03423061 -25.97887672 23.12276742 -23.11334229 20.20066833 C-20.34912812 17.38223271 -17.57297049 14.57609387 -14.78801727 11.77815437 C-13.72626682 10.70714634 -12.66893626 9.63173833 -11.6160965 8.55196953 C-10.14347419 7.04318849 -8.65607866 5.55065115 -7.16412354 4.0610199 C-6.32029114 3.20608444 -5.47645874 2.35114899 -4.60705566 1.4703064 C-2.30377197 -0.23170471 -2.30377197 -0.23170471 0 0 Z " fill="#EBBE04" transform="translate(120.30377197265625,10.231704711914063)"/>
<path d="M0 0 C16.83 0 33.66 0 51 0 C51 0.33 51 0.66 51 1 C34.17 1 17.34 1 0 1 C0 0.67 0 0.34 0 0 Z " fill="#FDCC00" transform="translate(68,66)"/>
</svg>
