<svg xmlns="http://www.w3.org/2000/svg" xmlns:xlink="http://www.w3.org/1999/xlink" width="500" zoomAndPan="magnify" viewBox="0 0 375 374.999991" height="500" preserveAspectRatio="xMidYMid meet" version="1.0"><defs><filter x="0%" y="0%" width="100%" height="100%" id="1643a673d1"><feColorMatrix values="0 0 0 0 1 0 0 0 0 1 0 0 0 0 1 0 0 0 1 0" color-interpolation-filters="sRGB"/></filter><g/><mask id="ccecf39109"><g filter="url(#1643a673d1)"><rect x="-37.5" width="450" fill="#000000" y="-37.499999" height="449.999989" fill-opacity="0.5"/></g></mask><clipPath id="0e22ac6b9a"><path d="M 0.679688 4 L 188 4 L 188 188 L 0.679688 188 Z M 0.679688 4 " clip-rule="nonzero"/></clipPath><clipPath id="00210a1f29"><path d="M 187.601562 4.886719 C 187.6875 17.324219 186.234375 58.386719 166.050781 98.484375 C 159.683594 111.097656 151.476562 123.625 140.859375 135.132812 C 113.359375 164.949219 69.742188 187.90625 0.679688 187.90625 L 0.679688 117.851562 C 51.613281 117.851562 88.699219 110.046875 115.699219 98.484375 C 125.3125 94.359375 133.660156 89.765625 140.882812 84.867188 C 183.367188 56.070312 187.433594 17.042969 187.601562 4.886719 Z M 187.601562 4.886719 " clip-rule="nonzero"/></clipPath><linearGradient x1="0.000000000000007105" gradientTransform="matrix(0.777252, 0, 0, 0.777114, 0.681578, 1.096137)" y1="122.636002" x2="240.60001" gradientUnits="userSpaceOnUse" y2="122.636002" id="0cdc21319b"><stop stop-opacity="1" stop-color="rgb(16.099548%, 16.099548%, 16.099548%)" offset="0"/><stop stop-opacity="1" stop-color="rgb(16.099548%, 16.099548%, 16.099548%)" offset="0.03125"/><stop stop-opacity="1" stop-color="rgb(16.123962%, 16.123962%, 16.123962%)" offset="0.0390625"/><stop stop-opacity="1" stop-color="rgb(16.342163%, 16.342163%, 16.342163%)" offset="0.046875"/><stop stop-opacity="1" stop-color="rgb(16.729736%, 16.729736%, 16.729736%)" offset="0.0546875"/><stop stop-opacity="1" stop-color="rgb(17.118835%, 17.118835%, 17.118835%)" offset="0.0625"/><stop stop-opacity="1" stop-color="rgb(17.506409%, 17.506409%, 17.506409%)" offset="0.0703125"/><stop stop-opacity="1" stop-color="rgb(17.895508%, 17.895508%, 17.895508%)" offset="0.078125"/><stop stop-opacity="1" stop-color="rgb(18.283081%, 18.283081%, 18.283081%)" offset="0.0859375"/><stop stop-opacity="1" stop-color="rgb(18.67218%, 18.67218%, 18.67218%)" offset="0.09375"/><stop stop-opacity="1" stop-color="rgb(19.059753%, 19.059753%, 19.059753%)" offset="0.101563"/><stop stop-opacity="1" stop-color="rgb(19.448853%, 19.448853%, 19.448853%)" offset="0.109375"/><stop stop-opacity="1" stop-color="rgb(19.836426%, 19.836426%, 19.836426%)" offset="0.117188"/><stop stop-opacity="1" stop-color="rgb(20.225525%, 20.225525%, 20.225525%)" offset="0.125"/><stop stop-opacity="1" stop-color="rgb(20.613098%, 20.613098%, 20.613098%)" offset="0.132813"/><stop stop-opacity="1" stop-color="rgb(21.002197%, 21.002197%, 21.002197%)" offset="0.140625"/><stop stop-opacity="1" stop-color="rgb(21.389771%, 21.389771%, 21.389771%)" offset="0.148438"/><stop stop-opacity="1" stop-color="rgb(21.77887%, 21.77887%, 21.77887%)" offset="0.15625"/><stop stop-opacity="1" stop-color="rgb(22.166443%, 22.166443%, 22.166443%)" offset="0.164063"/><stop stop-opacity="1" stop-color="rgb(22.555542%, 22.555542%, 22.555542%)" offset="0.171875"/><stop stop-opacity="1" stop-color="rgb(22.943115%, 22.943115%, 22.943115%)" offset="0.179688"/><stop stop-opacity="1" stop-color="rgb(23.332214%, 23.332214%, 23.332214%)" offset="0.1875"/><stop stop-opacity="1" stop-color="rgb(23.719788%, 23.719788%, 23.719788%)" offset="0.195313"/><stop stop-opacity="1" stop-color="rgb(24.108887%, 24.108887%, 24.108887%)" offset="0.203125"/><stop stop-opacity="1" stop-color="rgb(24.49646%, 24.49646%, 24.49646%)" offset="0.210938"/><stop stop-opacity="1" stop-color="rgb(24.885559%, 24.885559%, 24.885559%)" offset="0.21875"/><stop stop-opacity="1" stop-color="rgb(25.273132%, 25.273132%, 25.273132%)" offset="0.226563"/><stop stop-opacity="1" stop-color="rgb(25.662231%, 25.662231%, 25.662231%)" offset="0.234375"/><stop stop-opacity="1" stop-color="rgb(26.049805%, 26.049805%, 26.049805%)" offset="0.242188"/><stop stop-opacity="1" stop-color="rgb(26.438904%, 26.438904%, 26.438904%)" offset="0.25"/><stop stop-opacity="1" stop-color="rgb(26.826477%, 26.826477%, 26.826477%)" offset="0.257812"/><stop stop-opacity="1" stop-color="rgb(27.215576%, 27.215576%, 27.215576%)" offset="0.265625"/><stop stop-opacity="1" stop-color="rgb(27.603149%, 27.603149%, 27.603149%)" offset="0.273438"/><stop stop-opacity="1" stop-color="rgb(27.992249%, 27.992249%, 27.992249%)" offset="0.28125"/><stop stop-opacity="1" stop-color="rgb(28.379822%, 28.379822%, 28.379822%)" offset="0.289062"/><stop stop-opacity="1" stop-color="rgb(28.768921%, 28.768921%, 28.768921%)" offset="0.296875"/><stop stop-opacity="1" stop-color="rgb(29.156494%, 29.156494%, 29.156494%)" offset="0.304688"/><stop stop-opacity="1" stop-color="rgb(29.545593%, 29.545593%, 29.545593%)" offset="0.3125"/><stop stop-opacity="1" stop-color="rgb(29.933167%, 29.933167%, 29.933167%)" offset="0.320312"/><stop stop-opacity="1" stop-color="rgb(30.322266%, 30.322266%, 30.322266%)" offset="0.328125"/><stop stop-opacity="1" stop-color="rgb(30.709839%, 30.709839%, 30.709839%)" offset="0.335938"/><stop stop-opacity="1" stop-color="rgb(31.098938%, 31.098938%, 31.098938%)" offset="0.34375"/><stop stop-opacity="1" stop-color="rgb(31.486511%, 31.486511%, 31.486511%)" offset="0.351562"/><stop stop-opacity="1" stop-color="rgb(31.87561%, 31.87561%, 31.87561%)" offset="0.359375"/><stop stop-opacity="1" stop-color="rgb(32.263184%, 32.263184%, 32.263184%)" offset="0.367188"/><stop stop-opacity="1" stop-color="rgb(32.652283%, 32.652283%, 32.652283%)" offset="0.375"/><stop stop-opacity="1" stop-color="rgb(33.039856%, 33.039856%, 33.039856%)" offset="0.382812"/><stop stop-opacity="1" stop-color="rgb(33.428955%, 33.428955%, 33.428955%)" offset="0.390625"/><stop stop-opacity="1" stop-color="rgb(33.816528%, 33.816528%, 33.816528%)" offset="0.398438"/><stop stop-opacity="1" stop-color="rgb(34.205627%, 34.205627%, 34.205627%)" offset="0.40625"/><stop stop-opacity="1" stop-color="rgb(34.593201%, 34.593201%, 34.593201%)" offset="0.414062"/><stop stop-opacity="1" stop-color="rgb(34.9823%, 34.9823%, 34.9823%)" offset="0.421875"/><stop stop-opacity="1" stop-color="rgb(35.369873%, 35.369873%, 35.369873%)" offset="0.429688"/><stop stop-opacity="1" stop-color="rgb(35.758972%, 35.758972%, 35.758972%)" offset="0.4375"/><stop stop-opacity="1" stop-color="rgb(36.146545%, 36.146545%, 36.146545%)" offset="0.445312"/><stop stop-opacity="1" stop-color="rgb(36.535645%, 36.535645%, 36.535645%)" offset="0.453125"/><stop stop-opacity="1" stop-color="rgb(36.923218%, 36.923218%, 36.923218%)" offset="0.460938"/><stop stop-opacity="1" stop-color="rgb(37.312317%, 37.312317%, 37.312317%)" offset="0.46875"/><stop stop-opacity="1" stop-color="rgb(37.69989%, 37.69989%, 37.69989%)" offset="0.476562"/><stop stop-opacity="1" stop-color="rgb(38.088989%, 38.088989%, 38.088989%)" offset="0.484375"/><stop stop-opacity="1" stop-color="rgb(38.476562%, 38.476562%, 38.476562%)" offset="0.492188"/><stop stop-opacity="1" stop-color="rgb(38.865662%, 38.865662%, 38.865662%)" offset="0.5"/><stop stop-opacity="1" stop-color="rgb(39.253235%, 39.253235%, 39.253235%)" offset="0.507813"/><stop stop-opacity="1" stop-color="rgb(39.642334%, 39.642334%, 39.642334%)" offset="0.515625"/><stop stop-opacity="1" stop-color="rgb(40.029907%, 40.029907%, 40.029907%)" offset="0.523438"/><stop stop-opacity="1" stop-color="rgb(40.419006%, 40.419006%, 40.419006%)" offset="0.53125"/><stop stop-opacity="1" stop-color="rgb(40.80658%, 40.80658%, 40.80658%)" offset="0.539063"/><stop stop-opacity="1" stop-color="rgb(41.195679%, 41.195679%, 41.195679%)" offset="0.546875"/><stop stop-opacity="1" stop-color="rgb(41.583252%, 41.583252%, 41.583252%)" offset="0.554688"/><stop stop-opacity="1" stop-color="rgb(41.972351%, 41.972351%, 41.972351%)" offset="0.5625"/><stop stop-opacity="1" stop-color="rgb(42.359924%, 42.359924%, 42.359924%)" offset="0.570313"/><stop stop-opacity="1" stop-color="rgb(42.749023%, 42.749023%, 42.749023%)" offset="0.578125"/><stop stop-opacity="1" stop-color="rgb(43.136597%, 43.136597%, 43.136597%)" offset="0.585938"/><stop stop-opacity="1" stop-color="rgb(43.525696%, 43.525696%, 43.525696%)" offset="0.59375"/><stop stop-opacity="1" stop-color="rgb(43.913269%, 43.913269%, 43.913269%)" offset="0.601563"/><stop stop-opacity="1" stop-color="rgb(44.302368%, 44.302368%, 44.302368%)" offset="0.609375"/><stop stop-opacity="1" stop-color="rgb(44.689941%, 44.689941%, 44.689941%)" offset="0.617188"/><stop stop-opacity="1" stop-color="rgb(45.079041%, 45.079041%, 45.079041%)" offset="0.625"/><stop stop-opacity="1" stop-color="rgb(45.466614%, 45.466614%, 45.466614%)" offset="0.632813"/><stop stop-opacity="1" stop-color="rgb(45.855713%, 45.855713%, 45.855713%)" offset="0.640625"/><stop stop-opacity="1" stop-color="rgb(46.243286%, 46.243286%, 46.243286%)" offset="0.648438"/><stop stop-opacity="1" stop-color="rgb(46.632385%, 46.632385%, 46.632385%)" offset="0.65625"/><stop stop-opacity="1" stop-color="rgb(47.019958%, 47.019958%, 47.019958%)" offset="0.664063"/><stop stop-opacity="1" stop-color="rgb(47.409058%, 47.409058%, 47.409058%)" offset="0.671875"/><stop stop-opacity="1" stop-color="rgb(47.796631%, 47.796631%, 47.796631%)" offset="0.679688"/><stop stop-opacity="1" stop-color="rgb(48.18573%, 48.18573%, 48.18573%)" offset="0.6875"/><stop stop-opacity="1" stop-color="rgb(48.573303%, 48.573303%, 48.573303%)" offset="0.695313"/><stop stop-opacity="1" stop-color="rgb(48.962402%, 48.962402%, 48.962402%)" offset="0.703125"/><stop stop-opacity="1" stop-color="rgb(49.349976%, 49.349976%, 49.349976%)" offset="0.710938"/><stop stop-opacity="1" stop-color="rgb(49.739075%, 49.739075%, 49.739075%)" offset="0.71875"/><stop stop-opacity="1" stop-color="rgb(50.126648%, 50.126648%, 50.126648%)" offset="0.726563"/><stop stop-opacity="1" stop-color="rgb(50.515747%, 50.515747%, 50.515747%)" offset="0.734375"/><stop stop-opacity="1" stop-color="rgb(50.90332%, 50.90332%, 50.90332%)" offset="0.742188"/><stop stop-opacity="1" stop-color="rgb(51.292419%, 51.292419%, 51.292419%)" offset="0.75"/><stop stop-opacity="1" stop-color="rgb(51.679993%, 51.679993%, 51.679993%)" offset="0.757813"/><stop stop-opacity="1" stop-color="rgb(52.069092%, 52.069092%, 52.069092%)" offset="0.765625"/><stop stop-opacity="1" stop-color="rgb(52.456665%, 52.456665%, 52.456665%)" offset="0.773438"/><stop stop-opacity="1" stop-color="rgb(52.845764%, 52.845764%, 52.845764%)" offset="0.78125"/><stop stop-opacity="1" stop-color="rgb(53.233337%, 53.233337%, 53.233337%)" offset="0.789063"/><stop stop-opacity="1" stop-color="rgb(53.622437%, 53.622437%, 53.622437%)" offset="0.796875"/><stop stop-opacity="1" stop-color="rgb(54.01001%, 54.01001%, 54.01001%)" offset="0.804688"/><stop stop-opacity="1" stop-color="rgb(54.399109%, 54.399109%, 54.399109%)" offset="0.8125"/><stop stop-opacity="1" stop-color="rgb(54.786682%, 54.786682%, 54.786682%)" offset="0.820313"/><stop stop-opacity="1" stop-color="rgb(55.175781%, 55.175781%, 55.175781%)" offset="0.828125"/><stop stop-opacity="1" stop-color="rgb(55.563354%, 55.563354%, 55.563354%)" offset="0.835938"/><stop stop-opacity="1" stop-color="rgb(55.952454%, 55.952454%, 55.952454%)" offset="0.84375"/><stop stop-opacity="1" stop-color="rgb(56.340027%, 56.340027%, 56.340027%)" offset="0.851563"/><stop stop-opacity="1" stop-color="rgb(56.729126%, 56.729126%, 56.729126%)" offset="0.859375"/><stop stop-opacity="1" stop-color="rgb(57.116699%, 57.116699%, 57.116699%)" offset="0.867188"/><stop stop-opacity="1" stop-color="rgb(57.505798%, 57.505798%, 57.505798%)" offset="0.875"/><stop stop-opacity="1" stop-color="rgb(57.893372%, 57.893372%, 57.893372%)" offset="0.882813"/><stop stop-opacity="1" stop-color="rgb(58.282471%, 58.282471%, 58.282471%)" offset="0.890625"/><stop stop-opacity="1" stop-color="rgb(58.670044%, 58.670044%, 58.670044%)" offset="0.898438"/><stop stop-opacity="1" stop-color="rgb(59.059143%, 59.059143%, 59.059143%)" offset="0.90625"/><stop stop-opacity="1" stop-color="rgb(59.446716%, 59.446716%, 59.446716%)" offset="0.914063"/><stop stop-opacity="1" stop-color="rgb(59.835815%, 59.835815%, 59.835815%)" offset="0.921875"/><stop stop-opacity="1" stop-color="rgb(60.223389%, 60.223389%, 60.223389%)" offset="0.929688"/><stop stop-opacity="1" stop-color="rgb(60.612488%, 60.612488%, 60.612488%)" offset="0.9375"/><stop stop-opacity="1" stop-color="rgb(61.000061%, 61.000061%, 61.000061%)" offset="0.945313"/><stop stop-opacity="1" stop-color="rgb(61.38916%, 61.38916%, 61.38916%)" offset="0.953125"/><stop stop-opacity="1" stop-color="rgb(61.776733%, 61.776733%, 61.776733%)" offset="0.960938"/><stop stop-opacity="1" stop-color="rgb(62.165833%, 62.165833%, 62.165833%)" offset="0.96875"/><stop stop-opacity="1" stop-color="rgb(62.553406%, 62.553406%, 62.553406%)" offset="0.976562"/><stop stop-opacity="1" stop-color="rgb(62.942505%, 62.942505%, 62.942505%)" offset="0.984375"/><stop stop-opacity="1" stop-color="rgb(63.317871%, 63.317871%, 63.317871%)" offset="1"/></linearGradient><clipPath id="83d9170e65"><path d="M 117 180 L 188 180 L 188 281.460938 L 117 281.460938 Z M 117 180 " clip-rule="nonzero"/></clipPath><clipPath id="52bf493573"><path d="M 117 94 L 304.429688 94 L 304.429688 278 L 117 278 Z M 117 94 " clip-rule="nonzero"/></clipPath><clipPath id="2faffa6d59"><path d="M 117.480469 277.515625 C 117.394531 265.082031 118.847656 224.019531 139.03125 183.921875 C 145.398438 171.308594 153.605469 158.78125 164.222656 147.269531 C 191.722656 117.453125 235.339844 94.496094 304.410156 94.496094 L 304.410156 164.554688 C 253.476562 164.554688 216.390625 172.355469 189.390625 183.921875 C 179.777344 188.046875 171.429688 192.640625 164.207031 197.535156 C 121.722656 226.335938 117.65625 265.371094 117.480469 277.515625 Z M 117.480469 277.515625 " clip-rule="nonzero"/></clipPath><linearGradient x1="167.431998" gradientTransform="matrix(-0.777252, 0, 0, -0.777114, 434.545118, 156.655751)" y1="-37.771" x2="408.042014" gradientUnits="userSpaceOnUse" y2="-37.771" id="c30635cf5f"><stop stop-opacity="1" stop-color="rgb(16.099548%, 16.099548%, 16.099548%)" offset="0"/><stop stop-opacity="1" stop-color="rgb(16.099548%, 16.099548%, 16.099548%)" offset="0.03125"/><stop stop-opacity="1" stop-color="rgb(16.122437%, 16.122437%, 16.122437%)" offset="0.0390625"/><stop stop-opacity="1" stop-color="rgb(16.340637%, 16.340637%, 16.340637%)" offset="0.046875"/><stop stop-opacity="1" stop-color="rgb(16.729736%, 16.729736%, 16.729736%)" offset="0.0546875"/><stop stop-opacity="1" stop-color="rgb(17.11731%, 17.11731%, 17.11731%)" offset="0.0625"/><stop stop-opacity="1" stop-color="rgb(17.506409%, 17.506409%, 17.506409%)" offset="0.0703125"/><stop stop-opacity="1" stop-color="rgb(17.893982%, 17.893982%, 17.893982%)" offset="0.078125"/><stop stop-opacity="1" stop-color="rgb(18.283081%, 18.283081%, 18.283081%)" offset="0.0859375"/><stop stop-opacity="1" stop-color="rgb(18.670654%, 18.670654%, 18.670654%)" offset="0.09375"/><stop stop-opacity="1" stop-color="rgb(19.059753%, 19.059753%, 19.059753%)" offset="0.101563"/><stop stop-opacity="1" stop-color="rgb(19.447327%, 19.447327%, 19.447327%)" offset="0.109375"/><stop stop-opacity="1" stop-color="rgb(19.836426%, 19.836426%, 19.836426%)" offset="0.117188"/><stop stop-opacity="1" stop-color="rgb(20.223999%, 20.223999%, 20.223999%)" offset="0.125"/><stop stop-opacity="1" stop-color="rgb(20.613098%, 20.613098%, 20.613098%)" offset="0.132813"/><stop stop-opacity="1" stop-color="rgb(21.000671%, 21.000671%, 21.000671%)" offset="0.140625"/><stop stop-opacity="1" stop-color="rgb(21.389771%, 21.389771%, 21.389771%)" offset="0.148438"/><stop stop-opacity="1" stop-color="rgb(21.777344%, 21.777344%, 21.777344%)" offset="0.15625"/><stop stop-opacity="1" stop-color="rgb(22.166443%, 22.166443%, 22.166443%)" offset="0.164063"/><stop stop-opacity="1" stop-color="rgb(22.554016%, 22.554016%, 22.554016%)" offset="0.171875"/><stop stop-opacity="1" stop-color="rgb(22.943115%, 22.943115%, 22.943115%)" offset="0.179688"/><stop stop-opacity="1" stop-color="rgb(23.330688%, 23.330688%, 23.330688%)" offset="0.1875"/><stop stop-opacity="1" stop-color="rgb(23.719788%, 23.719788%, 23.719788%)" offset="0.195313"/><stop stop-opacity="1" stop-color="rgb(24.107361%, 24.107361%, 24.107361%)" offset="0.203125"/><stop stop-opacity="1" stop-color="rgb(24.49646%, 24.49646%, 24.49646%)" offset="0.210938"/><stop stop-opacity="1" stop-color="rgb(24.884033%, 24.884033%, 24.884033%)" offset="0.21875"/><stop stop-opacity="1" stop-color="rgb(25.273132%, 25.273132%, 25.273132%)" offset="0.226563"/><stop stop-opacity="1" stop-color="rgb(25.660706%, 25.660706%, 25.660706%)" offset="0.234375"/><stop stop-opacity="1" stop-color="rgb(26.049805%, 26.049805%, 26.049805%)" offset="0.242188"/><stop stop-opacity="1" stop-color="rgb(26.437378%, 26.437378%, 26.437378%)" offset="0.25"/><stop stop-opacity="1" stop-color="rgb(26.826477%, 26.826477%, 26.826477%)" offset="0.257813"/><stop stop-opacity="1" stop-color="rgb(27.21405%, 27.21405%, 27.21405%)" offset="0.265625"/><stop stop-opacity="1" stop-color="rgb(27.603149%, 27.603149%, 27.603149%)" offset="0.273438"/><stop stop-opacity="1" stop-color="rgb(27.990723%, 27.990723%, 27.990723%)" offset="0.28125"/><stop stop-opacity="1" stop-color="rgb(28.379822%, 28.379822%, 28.379822%)" offset="0.289063"/><stop stop-opacity="1" stop-color="rgb(28.767395%, 28.767395%, 28.767395%)" offset="0.296875"/><stop stop-opacity="1" stop-color="rgb(29.156494%, 29.156494%, 29.156494%)" offset="0.304688"/><stop stop-opacity="1" stop-color="rgb(29.544067%, 29.544067%, 29.544067%)" offset="0.3125"/><stop stop-opacity="1" stop-color="rgb(29.933167%, 29.933167%, 29.933167%)" offset="0.320313"/><stop stop-opacity="1" stop-color="rgb(30.322266%, 30.322266%, 30.322266%)" offset="0.328125"/><stop stop-opacity="1" stop-color="rgb(30.709839%, 30.709839%, 30.709839%)" offset="0.335938"/><stop stop-opacity="1" stop-color="rgb(31.098938%, 31.098938%, 31.098938%)" offset="0.34375"/><stop stop-opacity="1" stop-color="rgb(31.486511%, 31.486511%, 31.486511%)" offset="0.351563"/><stop stop-opacity="1" stop-color="rgb(31.87561%, 31.87561%, 31.87561%)" offset="0.359375"/><stop stop-opacity="1" stop-color="rgb(32.263184%, 32.263184%, 32.263184%)" offset="0.367188"/><stop stop-opacity="1" stop-color="rgb(32.652283%, 32.652283%, 32.652283%)" offset="0.375"/><stop stop-opacity="1" stop-color="rgb(33.039856%, 33.039856%, 33.039856%)" offset="0.382813"/><stop stop-opacity="1" stop-color="rgb(33.428955%, 33.428955%, 33.428955%)" offset="0.390625"/><stop stop-opacity="1" stop-color="rgb(33.816528%, 33.816528%, 33.816528%)" offset="0.398438"/><stop stop-opacity="1" stop-color="rgb(34.205627%, 34.205627%, 34.205627%)" offset="0.40625"/><stop stop-opacity="1" stop-color="rgb(34.593201%, 34.593201%, 34.593201%)" offset="0.414063"/><stop stop-opacity="1" stop-color="rgb(34.9823%, 34.9823%, 34.9823%)" offset="0.421875"/><stop stop-opacity="1" stop-color="rgb(35.369873%, 35.369873%, 35.369873%)" offset="0.429688"/><stop stop-opacity="1" stop-color="rgb(35.758972%, 35.758972%, 35.758972%)" offset="0.4375"/><stop stop-opacity="1" stop-color="rgb(36.146545%, 36.146545%, 36.146545%)" offset="0.445313"/><stop stop-opacity="1" stop-color="rgb(36.535645%, 36.535645%, 36.535645%)" offset="0.453125"/><stop stop-opacity="1" stop-color="rgb(36.923218%, 36.923218%, 36.923218%)" offset="0.460938"/><stop stop-opacity="1" stop-color="rgb(37.312317%, 37.312317%, 37.312317%)" offset="0.46875"/><stop stop-opacity="1" stop-color="rgb(37.69989%, 37.69989%, 37.69989%)" offset="0.476563"/><stop stop-opacity="1" stop-color="rgb(38.088989%, 38.088989%, 38.088989%)" offset="0.484375"/><stop stop-opacity="1" stop-color="rgb(38.476562%, 38.476562%, 38.476562%)" offset="0.492188"/><stop stop-opacity="1" stop-color="rgb(38.865662%, 38.865662%, 38.865662%)" offset="0.5"/><stop stop-opacity="1" stop-color="rgb(39.253235%, 39.253235%, 39.253235%)" offset="0.507813"/><stop stop-opacity="1" stop-color="rgb(39.642334%, 39.642334%, 39.642334%)" offset="0.515625"/><stop stop-opacity="1" stop-color="rgb(40.029907%, 40.029907%, 40.029907%)" offset="0.523438"/><stop stop-opacity="1" stop-color="rgb(40.419006%, 40.419006%, 40.419006%)" offset="0.53125"/><stop stop-opacity="1" stop-color="rgb(40.80658%, 40.80658%, 40.80658%)" offset="0.539063"/><stop stop-opacity="1" stop-color="rgb(41.195679%, 41.195679%, 41.195679%)" offset="0.546875"/><stop stop-opacity="1" stop-color="rgb(41.583252%, 41.583252%, 41.583252%)" offset="0.554688"/><stop stop-opacity="1" stop-color="rgb(41.972351%, 41.972351%, 41.972351%)" offset="0.5625"/><stop stop-opacity="1" stop-color="rgb(42.359924%, 42.359924%, 42.359924%)" offset="0.570313"/><stop stop-opacity="1" stop-color="rgb(42.749023%, 42.749023%, 42.749023%)" offset="0.578125"/><stop stop-opacity="1" stop-color="rgb(43.136597%, 43.136597%, 43.136597%)" offset="0.585938"/><stop stop-opacity="1" stop-color="rgb(43.525696%, 43.525696%, 43.525696%)" offset="0.59375"/><stop stop-opacity="1" stop-color="rgb(43.913269%, 43.913269%, 43.913269%)" offset="0.601563"/><stop stop-opacity="1" stop-color="rgb(44.302368%, 44.302368%, 44.302368%)" offset="0.609375"/><stop stop-opacity="1" stop-color="rgb(44.689941%, 44.689941%, 44.689941%)" offset="0.617188"/><stop stop-opacity="1" stop-color="rgb(45.079041%, 45.079041%, 45.079041%)" offset="0.625"/><stop stop-opacity="1" stop-color="rgb(45.46814%, 45.46814%, 45.46814%)" offset="0.632813"/><stop stop-opacity="1" stop-color="rgb(45.855713%, 45.855713%, 45.855713%)" offset="0.640625"/><stop stop-opacity="1" stop-color="rgb(46.244812%, 46.244812%, 46.244812%)" offset="0.648438"/><stop stop-opacity="1" stop-color="rgb(46.632385%, 46.632385%, 46.632385%)" offset="0.65625"/><stop stop-opacity="1" stop-color="rgb(47.021484%, 47.021484%, 47.021484%)" offset="0.664063"/><stop stop-opacity="1" stop-color="rgb(47.409058%, 47.409058%, 47.409058%)" offset="0.671875"/><stop stop-opacity="1" stop-color="rgb(47.798157%, 47.798157%, 47.798157%)" offset="0.679688"/><stop stop-opacity="1" stop-color="rgb(48.18573%, 48.18573%, 48.18573%)" offset="0.6875"/><stop stop-opacity="1" stop-color="rgb(48.574829%, 48.574829%, 48.574829%)" offset="0.695313"/><stop stop-opacity="1" stop-color="rgb(48.962402%, 48.962402%, 48.962402%)" offset="0.703125"/><stop stop-opacity="1" stop-color="rgb(49.351501%, 49.351501%, 49.351501%)" offset="0.710938"/><stop stop-opacity="1" stop-color="rgb(49.739075%, 49.739075%, 49.739075%)" offset="0.71875"/><stop stop-opacity="1" stop-color="rgb(50.128174%, 50.128174%, 50.128174%)" offset="0.726563"/><stop stop-opacity="1" stop-color="rgb(50.515747%, 50.515747%, 50.515747%)" offset="0.734375"/><stop stop-opacity="1" stop-color="rgb(50.904846%, 50.904846%, 50.904846%)" offset="0.742188"/><stop stop-opacity="1" stop-color="rgb(51.292419%, 51.292419%, 51.292419%)" offset="0.75"/><stop stop-opacity="1" stop-color="rgb(51.681519%, 51.681519%, 51.681519%)" offset="0.757813"/><stop stop-opacity="1" stop-color="rgb(52.069092%, 52.069092%, 52.069092%)" offset="0.765625"/><stop stop-opacity="1" stop-color="rgb(52.458191%, 52.458191%, 52.458191%)" offset="0.773438"/><stop stop-opacity="1" stop-color="rgb(52.845764%, 52.845764%, 52.845764%)" offset="0.78125"/><stop stop-opacity="1" stop-color="rgb(53.234863%, 53.234863%, 53.234863%)" offset="0.789063"/><stop stop-opacity="1" stop-color="rgb(53.622437%, 53.622437%, 53.622437%)" offset="0.796875"/><stop stop-opacity="1" stop-color="rgb(54.011536%, 54.011536%, 54.011536%)" offset="0.804688"/><stop stop-opacity="1" stop-color="rgb(54.399109%, 54.399109%, 54.399109%)" offset="0.8125"/><stop stop-opacity="1" stop-color="rgb(54.788208%, 54.788208%, 54.788208%)" offset="0.820313"/><stop stop-opacity="1" stop-color="rgb(55.175781%, 55.175781%, 55.175781%)" offset="0.828125"/><stop stop-opacity="1" stop-color="rgb(55.56488%, 55.56488%, 55.56488%)" offset="0.835938"/><stop stop-opacity="1" stop-color="rgb(55.952454%, 55.952454%, 55.952454%)" offset="0.84375"/><stop stop-opacity="1" stop-color="rgb(56.341553%, 56.341553%, 56.341553%)" offset="0.851563"/><stop stop-opacity="1" stop-color="rgb(56.729126%, 56.729126%, 56.729126%)" offset="0.859375"/><stop stop-opacity="1" stop-color="rgb(57.118225%, 57.118225%, 57.118225%)" offset="0.867188"/><stop stop-opacity="1" stop-color="rgb(57.505798%, 57.505798%, 57.505798%)" offset="0.875"/><stop stop-opacity="1" stop-color="rgb(57.894897%, 57.894897%, 57.894897%)" offset="0.882813"/><stop stop-opacity="1" stop-color="rgb(58.282471%, 58.282471%, 58.282471%)" offset="0.890625"/><stop stop-opacity="1" stop-color="rgb(58.67157%, 58.67157%, 58.67157%)" offset="0.898438"/><stop stop-opacity="1" stop-color="rgb(59.059143%, 59.059143%, 59.059143%)" offset="0.90625"/><stop stop-opacity="1" stop-color="rgb(59.448242%, 59.448242%, 59.448242%)" offset="0.914063"/><stop stop-opacity="1" stop-color="rgb(59.835815%, 59.835815%, 59.835815%)" offset="0.921875"/><stop stop-opacity="1" stop-color="rgb(60.224915%, 60.224915%, 60.224915%)" offset="0.929688"/><stop stop-opacity="1" stop-color="rgb(60.614014%, 60.614014%, 60.614014%)" offset="0.9375"/><stop stop-opacity="1" stop-color="rgb(61.001587%, 61.001587%, 61.001587%)" offset="0.945313"/><stop stop-opacity="1" stop-color="rgb(61.390686%, 61.390686%, 61.390686%)" offset="0.953125"/><stop stop-opacity="1" stop-color="rgb(61.778259%, 61.778259%, 61.778259%)" offset="0.960938"/><stop stop-opacity="1" stop-color="rgb(62.167358%, 62.167358%, 62.167358%)" offset="0.96875"/><stop stop-opacity="1" stop-color="rgb(62.554932%, 62.554932%, 62.554932%)" offset="0.976563"/><stop stop-opacity="1" stop-color="rgb(62.944031%, 62.944031%, 62.944031%)" offset="0.984375"/><stop stop-opacity="1" stop-color="rgb(63.317871%, 63.317871%, 63.317871%)" offset="1"/></linearGradient><clipPath id="ee45af6506"><rect x="0" width="305" y="0" height="290"/></clipPath></defs><g mask="url(#ccecf39109)"><g transform="matrix(1, 0, 0, 1, 35, 84)"><g clip-path="url(#ee45af6506)"><path fill="#4e4e4e" d="M 117.464844 101.625 L 117.464844 1.097656 L 187.617188 1.097656 C 187.617188 1.097656 188.558594 48.152344 170.621094 67.105469 C 152.679688 86.058594 117.464844 101.625 117.464844 101.625 Z M 117.464844 101.625 " fill-opacity="1" fill-rule="nonzero"/><g clip-path="url(#0e22ac6b9a)"><g clip-path="url(#00210a1f29)"><path fill="url(#0cdc21319b)" d="M 0.679688 4.886719 L 0.679688 187.90625 L 187.6875 187.90625 L 187.6875 4.886719 Z M 0.679688 4.886719 " fill-rule="nonzero"/></g></g><g clip-path="url(#83d9170e65)"><path fill="#4e4e4e" d="M 187.625 180.78125 L 187.625 281.308594 L 117.472656 281.308594 C 117.472656 281.308594 116.53125 234.253906 134.46875 215.300781 C 152.410156 196.355469 187.625 180.78125 187.625 180.78125 Z M 187.625 180.78125 " fill-opacity="1" fill-rule="nonzero"/></g><g clip-path="url(#52bf493573)"><g clip-path="url(#2faffa6d59)"><path fill="url(#c30635cf5f)" d="M 304.410156 277.515625 L 304.410156 94.496094 L 117.394531 94.496094 L 117.394531 277.515625 Z M 304.410156 277.515625 " fill-rule="nonzero"/></g></g></g></g></g><g fill="#a2a2a2" fill-opacity="1"><g transform="translate(145.19425, 32.708167)"><g><path d="M 7.703125 -25.625 L 7.703125 0 L 1.859375 0 L 1.859375 -25.625 Z M 7.703125 -25.625 "/></g></g></g><g fill="#a2a2a2" fill-opacity="1"><g transform="translate(154.757356, 32.708167)"><g><path d="M 1.859375 0 L 1.859375 -15.9375 L 7.359375 -15.9375 L 7.359375 -14.25 L 7.421875 -14.25 C 8.847656 -15.6875 10.367188 -16.40625 11.984375 -16.40625 C 12.773438 -16.40625 13.554688 -16.300781 14.328125 -16.09375 C 15.109375 -15.882812 15.851562 -15.5625 16.5625 -15.125 C 17.28125 -14.6875 17.863281 -14.066406 18.3125 -13.265625 C 18.757812 -12.472656 18.984375 -11.550781 18.984375 -10.5 L 18.984375 0 L 13.484375 0 L 13.484375 -9.015625 C 13.484375 -9.835938 13.21875 -10.554688 12.6875 -11.171875 C 12.15625 -11.796875 11.46875 -12.109375 10.625 -12.109375 C 9.789062 -12.109375 9.035156 -11.785156 8.359375 -11.140625 C 7.691406 -10.503906 7.359375 -9.796875 7.359375 -9.015625 L 7.359375 0 Z M 1.859375 0 "/></g></g></g><g fill="#a2a2a2" fill-opacity="1"><g transform="translate(175.280786, 32.708167)"><g><path d="M 2.390625 -24.8125 C 3.035156 -25.457031 3.800781 -25.78125 4.6875 -25.78125 C 5.582031 -25.78125 6.347656 -25.457031 6.984375 -24.8125 C 7.628906 -24.175781 7.953125 -23.410156 7.953125 -22.515625 C 7.953125 -21.628906 7.628906 -20.863281 6.984375 -20.21875 C 6.347656 -19.582031 5.582031 -19.265625 4.6875 -19.265625 C 3.800781 -19.265625 3.035156 -19.582031 2.390625 -20.21875 C 1.742188 -20.863281 1.421875 -21.628906 1.421875 -22.515625 C 1.421875 -23.410156 1.742188 -24.175781 2.390625 -24.8125 Z M 1.859375 -15.9375 L 1.859375 0 L 7.359375 0 L 7.359375 -15.9375 Z M 1.859375 -15.9375 "/></g></g></g><g fill="#a2a2a2" fill-opacity="1"><g transform="translate(184.657604, 32.708167)"><g><path d="M 10.34375 -11.890625 C 9.3125 -11.890625 8.421875 -11.503906 7.671875 -10.734375 C 6.921875 -9.972656 6.546875 -9.054688 6.546875 -7.984375 C 6.546875 -6.890625 6.921875 -5.957031 7.671875 -5.1875 C 8.421875 -4.414062 9.3125 -4.03125 10.34375 -4.03125 C 10.84375 -4.03125 11.3125 -4.09375 11.75 -4.21875 C 12.195312 -4.34375 12.523438 -4.46875 12.734375 -4.59375 L 13.015625 -4.78125 L 14.875 -0.96875 C 14.726562 -0.863281 14.523438 -0.734375 14.265625 -0.578125 C 14.015625 -0.421875 13.425781 -0.207031 12.5 0.0625 C 11.582031 0.332031 10.59375 0.46875 9.53125 0.46875 C 7.195312 0.46875 5.144531 -0.351562 3.375 -2 C 1.601562 -3.644531 0.71875 -5.617188 0.71875 -7.921875 C 0.71875 -10.242188 1.601562 -12.238281 3.375 -13.90625 C 5.144531 -15.570312 7.195312 -16.40625 9.53125 -16.40625 C 10.59375 -16.40625 11.566406 -16.28125 12.453125 -16.03125 C 13.347656 -15.78125 13.976562 -15.53125 14.34375 -15.28125 L 14.875 -14.90625 L 13.015625 -11.15625 C 12.328125 -11.644531 11.4375 -11.890625 10.34375 -11.890625 Z M 10.34375 -11.890625 "/></g></g></g><g fill="#a2a2a2" fill-opacity="1"><g transform="translate(199.902681, 32.708167)"><g><path d="M 2.390625 -24.8125 C 3.035156 -25.457031 3.800781 -25.78125 4.6875 -25.78125 C 5.582031 -25.78125 6.347656 -25.457031 6.984375 -24.8125 C 7.628906 -24.175781 7.953125 -23.410156 7.953125 -22.515625 C 7.953125 -21.628906 7.628906 -20.863281 6.984375 -20.21875 C 6.347656 -19.582031 5.582031 -19.265625 4.6875 -19.265625 C 3.800781 -19.265625 3.035156 -19.582031 2.390625 -20.21875 C 1.742188 -20.863281 1.421875 -21.628906 1.421875 -22.515625 C 1.421875 -23.410156 1.742188 -24.175781 2.390625 -24.8125 Z M 1.859375 -15.9375 L 1.859375 0 L 7.359375 0 L 7.359375 -15.9375 Z M 1.859375 -15.9375 "/></g></g></g><g fill="#a2a2a2" fill-opacity="1"><g transform="translate(209.279499, 32.708167)"><g><path d="M 3.375 -1.890625 C 1.601562 -3.460938 0.71875 -5.484375 0.71875 -7.953125 C 0.71875 -10.421875 1.640625 -12.445312 3.484375 -14.03125 C 5.328125 -15.613281 7.601562 -16.40625 10.3125 -16.40625 C 12.976562 -16.40625 15.226562 -15.609375 17.0625 -14.015625 C 18.894531 -12.421875 19.8125 -10.398438 19.8125 -7.953125 C 19.8125 -5.503906 18.914062 -3.488281 17.125 -1.90625 C 15.332031 -0.320312 13.0625 0.46875 10.3125 0.46875 C 7.457031 0.46875 5.144531 -0.316406 3.375 -1.890625 Z M 7.625 -10.640625 C 6.90625 -9.941406 6.546875 -9.046875 6.546875 -7.953125 C 6.546875 -6.859375 6.890625 -5.960938 7.578125 -5.265625 C 8.265625 -4.566406 9.164062 -4.21875 10.28125 -4.21875 C 11.351562 -4.21875 12.238281 -4.570312 12.9375 -5.28125 C 13.632812 -5.988281 13.984375 -6.878906 13.984375 -7.953125 C 13.984375 -9.046875 13.625 -9.941406 12.90625 -10.640625 C 12.1875 -11.347656 11.3125 -11.703125 10.28125 -11.703125 C 9.226562 -11.703125 8.34375 -11.347656 7.625 -10.640625 Z M 7.625 -10.640625 "/></g></g></g><g fill="#a2a2a2" fill-opacity="1"><g transform="translate(85.274894, 62.85583)"><g><path d="M 1.84375 0 L 1.84375 -15.875 L 7.03125 -15.875 C 8.75 -15.875 10.039062 -15.515625 10.90625 -14.796875 C 11.78125 -14.085938 12.21875 -13.035156 12.21875 -11.640625 C 12.21875 -10.898438 12.003906 -10.242188 11.578125 -9.671875 C 11.160156 -9.097656 10.585938 -8.65625 9.859375 -8.34375 C 10.722656 -8.101562 11.398438 -7.644531 11.890625 -6.96875 C 12.390625 -6.300781 12.640625 -5.503906 12.640625 -4.578125 C 12.640625 -3.148438 12.175781 -2.03125 11.25 -1.21875 C 10.332031 -0.40625 9.03125 0 7.34375 0 Z M 3.9375 -7.421875 L 3.9375 -1.71875 L 7.390625 -1.71875 C 8.367188 -1.71875 9.140625 -1.96875 9.703125 -2.46875 C 10.265625 -2.976562 10.546875 -3.675781 10.546875 -4.5625 C 10.546875 -6.46875 9.503906 -7.421875 7.421875 -7.421875 Z M 3.9375 -9.109375 L 7.09375 -9.109375 C 8.007812 -9.109375 8.742188 -9.335938 9.296875 -9.796875 C 9.847656 -10.253906 10.125 -10.875 10.125 -11.65625 C 10.125 -12.53125 9.867188 -13.164062 9.359375 -13.5625 C 8.847656 -13.957031 8.070312 -14.15625 7.03125 -14.15625 L 3.9375 -14.15625 Z M 3.9375 -9.109375 "/></g></g></g><g fill="#a2a2a2" fill-opacity="1"><g transform="translate(99.173033, 62.85583)"><g><path d="M 3.71875 0 L 1.703125 0 L 1.703125 -11.796875 L 3.71875 -11.796875 Z M 1.53125 -14.921875 C 1.53125 -15.253906 1.628906 -15.53125 1.828125 -15.75 C 2.035156 -15.976562 2.332031 -16.09375 2.71875 -16.09375 C 3.113281 -16.09375 3.410156 -15.976562 3.609375 -15.75 C 3.816406 -15.53125 3.921875 -15.253906 3.921875 -14.921875 C 3.921875 -14.597656 3.816406 -14.328125 3.609375 -14.109375 C 3.410156 -13.890625 3.113281 -13.78125 2.71875 -13.78125 C 2.332031 -13.78125 2.035156 -13.890625 1.828125 -14.109375 C 1.628906 -14.328125 1.53125 -14.597656 1.53125 -14.921875 Z M 1.53125 -14.921875 "/></g></g></g><g fill="#a2a2a2" fill-opacity="1"><g transform="translate(104.590585, 62.85583)"><g><path d="M 6.421875 0.21875 C 4.816406 0.21875 3.515625 -0.304688 2.515625 -1.359375 C 1.515625 -2.410156 1.015625 -3.816406 1.015625 -5.578125 L 1.015625 -5.9375 C 1.015625 -7.113281 1.238281 -8.160156 1.6875 -9.078125 C 2.132812 -9.992188 2.757812 -10.710938 3.5625 -11.234375 C 4.363281 -11.753906 5.234375 -12.015625 6.171875 -12.015625 C 7.703125 -12.015625 8.890625 -11.507812 9.734375 -10.5 C 10.585938 -9.488281 11.015625 -8.039062 11.015625 -6.15625 L 11.015625 -5.328125 L 3.03125 -5.328125 C 3.0625 -4.160156 3.398438 -3.21875 4.046875 -2.5 C 4.703125 -1.78125 5.53125 -1.421875 6.53125 -1.421875 C 7.238281 -1.421875 7.835938 -1.566406 8.328125 -1.859375 C 8.828125 -2.148438 9.265625 -2.535156 9.640625 -3.015625 L 10.875 -2.0625 C 9.882812 -0.539062 8.398438 0.21875 6.421875 0.21875 Z M 6.171875 -10.359375 C 5.359375 -10.359375 4.675781 -10.0625 4.125 -9.46875 C 3.570312 -8.875 3.226562 -8.046875 3.09375 -6.984375 L 9 -6.984375 L 9 -7.125 C 8.945312 -8.15625 8.671875 -8.953125 8.171875 -9.515625 C 7.679688 -10.078125 7.015625 -10.359375 6.171875 -10.359375 Z M 6.171875 -10.359375 "/></g></g></g><g fill="#a2a2a2" fill-opacity="1"><g transform="translate(116.41763, 62.85583)"><g><path d="M 3.4375 -11.796875 L 3.5 -10.3125 C 4.40625 -11.445312 5.582031 -12.015625 7.03125 -12.015625 C 9.519531 -12.015625 10.773438 -10.609375 10.796875 -7.796875 L 10.796875 0 L 8.78125 0 L 8.78125 -7.8125 C 8.78125 -8.65625 8.585938 -9.28125 8.203125 -9.6875 C 7.816406 -10.09375 7.222656 -10.296875 6.421875 -10.296875 C 5.765625 -10.296875 5.1875 -10.117188 4.6875 -9.765625 C 4.195312 -9.421875 3.816406 -8.96875 3.546875 -8.40625 L 3.546875 0 L 1.53125 0 L 1.53125 -11.796875 Z M 3.4375 -11.796875 "/></g></g></g><g fill="#a2a2a2" fill-opacity="1"><g transform="translate(128.735191, 62.85583)"><g><path d="M 5.421875 -2.734375 L 8.34375 -11.796875 L 10.40625 -11.796875 L 6.171875 0 L 4.640625 0 L 0.359375 -11.796875 L 2.421875 -11.796875 Z M 5.421875 -2.734375 "/></g></g></g><g fill="#a2a2a2" fill-opacity="1"><g transform="translate(139.548484, 62.85583)"><g><path d="M 6.421875 0.21875 C 4.816406 0.21875 3.515625 -0.304688 2.515625 -1.359375 C 1.515625 -2.410156 1.015625 -3.816406 1.015625 -5.578125 L 1.015625 -5.9375 C 1.015625 -7.113281 1.238281 -8.160156 1.6875 -9.078125 C 2.132812 -9.992188 2.757812 -10.710938 3.5625 -11.234375 C 4.363281 -11.753906 5.234375 -12.015625 6.171875 -12.015625 C 7.703125 -12.015625 8.890625 -11.507812 9.734375 -10.5 C 10.585938 -9.488281 11.015625 -8.039062 11.015625 -6.15625 L 11.015625 -5.328125 L 3.03125 -5.328125 C 3.0625 -4.160156 3.398438 -3.21875 4.046875 -2.5 C 4.703125 -1.78125 5.53125 -1.421875 6.53125 -1.421875 C 7.238281 -1.421875 7.835938 -1.566406 8.328125 -1.859375 C 8.828125 -2.148438 9.265625 -2.535156 9.640625 -3.015625 L 10.875 -2.0625 C 9.882812 -0.539062 8.398438 0.21875 6.421875 0.21875 Z M 6.171875 -10.359375 C 5.359375 -10.359375 4.675781 -10.0625 4.125 -9.46875 C 3.570312 -8.875 3.226562 -8.046875 3.09375 -6.984375 L 9 -6.984375 L 9 -7.125 C 8.945312 -8.15625 8.671875 -8.953125 8.171875 -9.515625 C 7.679688 -10.078125 7.015625 -10.359375 6.171875 -10.359375 Z M 6.171875 -10.359375 "/></g></g></g><g fill="#a2a2a2" fill-opacity="1"><g transform="translate(151.375528, 62.85583)"><g><path d="M 3.4375 -11.796875 L 3.5 -10.3125 C 4.40625 -11.445312 5.582031 -12.015625 7.03125 -12.015625 C 9.519531 -12.015625 10.773438 -10.609375 10.796875 -7.796875 L 10.796875 0 L 8.78125 0 L 8.78125 -7.8125 C 8.78125 -8.65625 8.585938 -9.28125 8.203125 -9.6875 C 7.816406 -10.09375 7.222656 -10.296875 6.421875 -10.296875 C 5.765625 -10.296875 5.1875 -10.117188 4.6875 -9.765625 C 4.195312 -9.421875 3.816406 -8.96875 3.546875 -8.40625 L 3.546875 0 L 1.53125 0 L 1.53125 -11.796875 Z M 3.4375 -11.796875 "/></g></g></g><g fill="#a2a2a2" fill-opacity="1"><g transform="translate(163.69309, 62.85583)"><g><path d="M 3.71875 0 L 1.703125 0 L 1.703125 -11.796875 L 3.71875 -11.796875 Z M 1.53125 -14.921875 C 1.53125 -15.253906 1.628906 -15.53125 1.828125 -15.75 C 2.035156 -15.976562 2.332031 -16.09375 2.71875 -16.09375 C 3.113281 -16.09375 3.410156 -15.976562 3.609375 -15.75 C 3.816406 -15.53125 3.921875 -15.253906 3.921875 -14.921875 C 3.921875 -14.597656 3.816406 -14.328125 3.609375 -14.109375 C 3.410156 -13.890625 3.113281 -13.78125 2.71875 -13.78125 C 2.332031 -13.78125 2.035156 -13.890625 1.828125 -14.109375 C 1.628906 -14.328125 1.53125 -14.597656 1.53125 -14.921875 Z M 1.53125 -14.921875 "/></g></g></g><g fill="#a2a2a2" fill-opacity="1"><g transform="translate(169.110642, 62.85583)"><g><path d="M 1.03125 -6 C 1.03125 -7.8125 1.457031 -9.265625 2.3125 -10.359375 C 3.175781 -11.460938 4.300781 -12.015625 5.6875 -12.015625 C 7.070312 -12.015625 8.164062 -11.539062 8.96875 -10.59375 L 8.96875 -16.75 L 10.984375 -16.75 L 10.984375 0 L 9.140625 0 L 9.03125 -1.265625 C 8.226562 -0.273438 7.109375 0.21875 5.671875 0.21875 C 4.304688 0.21875 3.191406 -0.335938 2.328125 -1.453125 C 1.460938 -2.578125 1.03125 -4.039062 1.03125 -5.84375 Z M 3.046875 -5.765625 C 3.046875 -4.429688 3.320312 -3.382812 3.875 -2.625 C 4.425781 -1.875 5.191406 -1.5 6.171875 -1.5 C 7.453125 -1.5 8.382812 -2.070312 8.96875 -3.21875 L 8.96875 -8.640625 C 8.363281 -9.742188 7.4375 -10.296875 6.1875 -10.296875 C 5.195312 -10.296875 4.425781 -9.914062 3.875 -9.15625 C 3.320312 -8.394531 3.046875 -7.265625 3.046875 -5.765625 Z M 3.046875 -5.765625 "/></g></g></g><g fill="#a2a2a2" fill-opacity="1"><g transform="translate(181.700722, 62.85583)"><g><path d="M 0.984375 -6 C 0.984375 -7.15625 1.210938 -8.195312 1.671875 -9.125 C 2.128906 -10.050781 2.757812 -10.765625 3.5625 -11.265625 C 4.375 -11.765625 5.300781 -12.015625 6.34375 -12.015625 C 7.945312 -12.015625 9.242188 -11.457031 10.234375 -10.34375 C 11.234375 -9.226562 11.734375 -7.75 11.734375 -5.90625 L 11.734375 -5.765625 C 11.734375 -4.617188 11.507812 -3.585938 11.0625 -2.671875 C 10.625 -1.765625 9.992188 -1.054688 9.171875 -0.546875 C 8.359375 -0.0351562 7.421875 0.21875 6.359375 0.21875 C 4.765625 0.21875 3.46875 -0.335938 2.46875 -1.453125 C 1.476562 -2.566406 0.984375 -4.035156 0.984375 -5.859375 Z M 3.015625 -5.765625 C 3.015625 -4.460938 3.316406 -3.410156 3.921875 -2.609375 C 4.535156 -1.816406 5.347656 -1.421875 6.359375 -1.421875 C 7.390625 -1.421875 8.207031 -1.820312 8.8125 -2.625 C 9.414062 -3.4375 9.71875 -4.5625 9.71875 -6 C 9.71875 -7.300781 9.410156 -8.351562 8.796875 -9.15625 C 8.179688 -9.957031 7.363281 -10.359375 6.34375 -10.359375 C 5.351562 -10.359375 4.550781 -9.960938 3.9375 -9.171875 C 3.320312 -8.378906 3.015625 -7.242188 3.015625 -5.765625 Z M 3.015625 -5.765625 "/></g></g></g><g fill="#a2a2a2" fill-opacity="1"><g transform="translate(194.432502, 62.85583)"><g/></g></g><g fill="#a2a2a2" fill-opacity="1"><g transform="translate(199.95906, 62.85583)"><g><path d="M 1.03125 -6 C 1.03125 -7.8125 1.457031 -9.265625 2.3125 -10.359375 C 3.175781 -11.460938 4.300781 -12.015625 5.6875 -12.015625 C 7.070312 -12.015625 8.164062 -11.539062 8.96875 -10.59375 L 8.96875 -16.75 L 10.984375 -16.75 L 10.984375 0 L 9.140625 0 L 9.03125 -1.265625 C 8.226562 -0.273438 7.109375 0.21875 5.671875 0.21875 C 4.304688 0.21875 3.191406 -0.335938 2.328125 -1.453125 C 1.460938 -2.578125 1.03125 -4.039062 1.03125 -5.84375 Z M 3.046875 -5.765625 C 3.046875 -4.429688 3.320312 -3.382812 3.875 -2.625 C 4.425781 -1.875 5.191406 -1.5 6.171875 -1.5 C 7.453125 -1.5 8.382812 -2.070312 8.96875 -3.21875 L 8.96875 -8.640625 C 8.363281 -9.742188 7.4375 -10.296875 6.1875 -10.296875 C 5.195312 -10.296875 4.425781 -9.914062 3.875 -9.15625 C 3.320312 -8.394531 3.046875 -7.265625 3.046875 -5.765625 Z M 3.046875 -5.765625 "/></g></g></g><g fill="#a2a2a2" fill-opacity="1"><g transform="translate(212.549139, 62.85583)"><g><path d="M 6.421875 0.21875 C 4.816406 0.21875 3.515625 -0.304688 2.515625 -1.359375 C 1.515625 -2.410156 1.015625 -3.816406 1.015625 -5.578125 L 1.015625 -5.9375 C 1.015625 -7.113281 1.238281 -8.160156 1.6875 -9.078125 C 2.132812 -9.992188 2.757812 -10.710938 3.5625 -11.234375 C 4.363281 -11.753906 5.234375 -12.015625 6.171875 -12.015625 C 7.703125 -12.015625 8.890625 -11.507812 9.734375 -10.5 C 10.585938 -9.488281 11.015625 -8.039062 11.015625 -6.15625 L 11.015625 -5.328125 L 3.03125 -5.328125 C 3.0625 -4.160156 3.398438 -3.21875 4.046875 -2.5 C 4.703125 -1.78125 5.53125 -1.421875 6.53125 -1.421875 C 7.238281 -1.421875 7.835938 -1.566406 8.328125 -1.859375 C 8.828125 -2.148438 9.265625 -2.535156 9.640625 -3.015625 L 10.875 -2.0625 C 9.882812 -0.539062 8.398438 0.21875 6.421875 0.21875 Z M 6.171875 -10.359375 C 5.359375 -10.359375 4.675781 -10.0625 4.125 -9.46875 C 3.570312 -8.875 3.226562 -8.046875 3.09375 -6.984375 L 9 -6.984375 L 9 -7.125 C 8.945312 -8.15625 8.671875 -8.953125 8.171875 -9.515625 C 7.679688 -10.078125 7.015625 -10.359375 6.171875 -10.359375 Z M 6.171875 -10.359375 "/></g></g></g><g fill="#a2a2a2" fill-opacity="1"><g transform="translate(224.376184, 62.85583)"><g/></g></g><g fill="#a2a2a2" fill-opacity="1"><g transform="translate(229.902742, 62.85583)"><g><path d="M 5.421875 -2.734375 L 8.34375 -11.796875 L 10.40625 -11.796875 L 6.171875 0 L 4.640625 0 L 0.359375 -11.796875 L 2.421875 -11.796875 Z M 5.421875 -2.734375 "/></g></g></g><g fill="#a2a2a2" fill-opacity="1"><g transform="translate(240.716034, 62.85583)"><g><path d="M 8.8125 -1.171875 C 8.019531 -0.242188 6.867188 0.21875 5.359375 0.21875 C 4.097656 0.21875 3.140625 -0.144531 2.484375 -0.875 C 1.828125 -1.601562 1.492188 -2.6875 1.484375 -4.125 L 1.484375 -11.796875 L 3.5 -11.796875 L 3.5 -4.171875 C 3.5 -2.390625 4.226562 -1.5 5.6875 -1.5 C 7.21875 -1.5 8.238281 -2.070312 8.75 -3.21875 L 8.75 -11.796875 L 10.765625 -11.796875 L 10.765625 0 L 8.859375 0 Z M 8.8125 -1.171875 "/></g></g></g><g fill="#a2a2a2" fill-opacity="1"><g transform="translate(253.022701, 62.85583)"><g><path d="M 6.421875 0.21875 C 4.816406 0.21875 3.515625 -0.304688 2.515625 -1.359375 C 1.515625 -2.410156 1.015625 -3.816406 1.015625 -5.578125 L 1.015625 -5.9375 C 1.015625 -7.113281 1.238281 -8.160156 1.6875 -9.078125 C 2.132812 -9.992188 2.757812 -10.710938 3.5625 -11.234375 C 4.363281 -11.753906 5.234375 -12.015625 6.171875 -12.015625 C 7.703125 -12.015625 8.890625 -11.507812 9.734375 -10.5 C 10.585938 -9.488281 11.015625 -8.039062 11.015625 -6.15625 L 11.015625 -5.328125 L 3.03125 -5.328125 C 3.0625 -4.160156 3.398438 -3.21875 4.046875 -2.5 C 4.703125 -1.78125 5.53125 -1.421875 6.53125 -1.421875 C 7.238281 -1.421875 7.835938 -1.566406 8.328125 -1.859375 C 8.828125 -2.148438 9.265625 -2.535156 9.640625 -3.015625 L 10.875 -2.0625 C 9.882812 -0.539062 8.398438 0.21875 6.421875 0.21875 Z M 6.171875 -10.359375 C 5.359375 -10.359375 4.675781 -10.0625 4.125 -9.46875 C 3.570312 -8.875 3.226562 -8.046875 3.09375 -6.984375 L 9 -6.984375 L 9 -7.125 C 8.945312 -8.15625 8.671875 -8.953125 8.171875 -9.515625 C 7.679688 -10.078125 7.015625 -10.359375 6.171875 -10.359375 Z M 6.171875 -10.359375 "/></g></g></g><g fill="#a2a2a2" fill-opacity="1"><g transform="translate(264.849746, 62.85583)"><g><path d="M 3.71875 0 L 1.703125 0 L 1.703125 -16.75 L 3.71875 -16.75 Z M 3.71875 0 "/></g></g></g><g fill="#a2a2a2" fill-opacity="1"><g transform="translate(270.267298, 62.85583)"><g><path d="M 4.265625 -14.65625 L 4.265625 -11.796875 L 6.46875 -11.796875 L 6.46875 -10.234375 L 4.265625 -10.234375 L 4.265625 -2.921875 C 4.265625 -2.453125 4.363281 -2.097656 4.5625 -1.859375 C 4.757812 -1.617188 5.09375 -1.5 5.5625 -1.5 C 5.789062 -1.5 6.109375 -1.546875 6.515625 -1.640625 L 6.515625 0 C 5.984375 0.144531 5.46875 0.21875 4.96875 0.21875 C 4.070312 0.21875 3.394531 -0.0507812 2.9375 -0.59375 C 2.476562 -1.144531 2.25 -1.921875 2.25 -2.921875 L 2.25 -10.234375 L 0.09375 -10.234375 L 0.09375 -11.796875 L 2.25 -11.796875 L 2.25 -14.65625 Z M 4.265625 -14.65625 "/></g></g></g><g fill="#a2a2a2" fill-opacity="1"><g transform="translate(277.559748, 62.85583)"><g><path d="M 8.8125 0 C 8.695312 -0.226562 8.601562 -0.644531 8.53125 -1.25 C 7.59375 -0.269531 6.472656 0.21875 5.171875 0.21875 C 4.003906 0.21875 3.046875 -0.109375 2.296875 -0.765625 C 1.554688 -1.421875 1.1875 -2.253906 1.1875 -3.265625 C 1.1875 -4.492188 1.648438 -5.445312 2.578125 -6.125 C 3.515625 -6.8125 4.832031 -7.15625 6.53125 -7.15625 L 8.5 -7.15625 L 8.5 -8.078125 C 8.5 -8.785156 8.285156 -9.347656 7.859375 -9.765625 C 7.441406 -10.179688 6.820312 -10.390625 6 -10.390625 C 5.28125 -10.390625 4.675781 -10.207031 4.1875 -9.84375 C 3.695312 -9.476562 3.453125 -9.039062 3.453125 -8.53125 L 1.421875 -8.53125 C 1.421875 -9.113281 1.628906 -9.679688 2.046875 -10.234375 C 2.472656 -10.785156 3.039062 -11.21875 3.75 -11.53125 C 4.46875 -11.851562 5.253906 -12.015625 6.109375 -12.015625 C 7.472656 -12.015625 8.539062 -11.671875 9.3125 -10.984375 C 10.082031 -10.304688 10.484375 -9.375 10.515625 -8.1875 L 10.515625 -2.765625 C 10.515625 -1.679688 10.648438 -0.816406 10.921875 -0.171875 L 10.921875 0 Z M 5.46875 -1.53125 C 6.09375 -1.53125 6.6875 -1.691406 7.25 -2.015625 C 7.820312 -2.347656 8.238281 -2.773438 8.5 -3.296875 L 8.5 -5.71875 L 6.90625 -5.71875 C 4.4375 -5.71875 3.203125 -4.992188 3.203125 -3.546875 C 3.203125 -2.921875 3.410156 -2.425781 3.828125 -2.0625 C 4.253906 -1.707031 4.800781 -1.53125 5.46875 -1.53125 Z M 5.46875 -1.53125 "/></g></g></g></svg>