<svg xmlns="http://www.w3.org/2000/svg" xmlns:xlink="http://www.w3.org/1999/xlink" width="500" zoomAndPan="magnify" viewBox="0 0 375 374.999991" height="500" preserveAspectRatio="xMidYMid meet" version="1.0"><defs><g/><clipPath id="5b7faa23e4"><path d="M 52 146.933594 L 73 146.933594 L 73 176 L 52 176 Z M 52 146.933594 " clip-rule="nonzero"/></clipPath><clipPath id="2b64f1dc3f"><path d="M 18.867188 148 L 73 148 L 73 201 L 18.867188 201 Z M 18.867188 148 " clip-rule="nonzero"/></clipPath><clipPath id="22646dbc59"><path d="M 72.644531 148.066406 C 72.671875 151.648438 72.25 163.476562 66.445312 175.03125 C 64.613281 178.664062 62.25 182.273438 59.195312 185.589844 C 51.285156 194.179688 38.734375 200.792969 18.867188 200.792969 L 18.867188 180.609375 C 33.519531 180.609375 44.191406 178.363281 51.957031 175.03125 C 54.722656 173.839844 57.125 172.519531 59.203125 171.109375 C 71.425781 162.808594 72.597656 151.566406 72.644531 148.066406 Z M 72.644531 148.066406 " clip-rule="nonzero"/></clipPath><linearGradient x1="-0.000000653504" gradientTransform="matrix(0.223619, 0, 0, 0.223892, 18.867264, 146.972196)" y1="122.636002" x2="240.600017" gradientUnits="userSpaceOnUse" y2="122.636002" id="2eac770f12"><stop stop-opacity="1" stop-color="rgb(32.199097%, 44.299316%, 100%)" offset="0"/><stop stop-opacity="1" stop-color="rgb(32.199097%, 44.299316%, 100%)" offset="0.03125"/><stop stop-opacity="1" stop-color="rgb(32.199097%, 44.322205%, 100%)" offset="0.0390625"/><stop stop-opacity="1" stop-color="rgb(32.200623%, 44.532776%, 100%)" offset="0.046875"/><stop stop-opacity="1" stop-color="rgb(32.203674%, 44.90509%, 100%)" offset="0.0546875"/><stop stop-opacity="1" stop-color="rgb(32.2052%, 45.277405%, 100%)" offset="0.0625"/><stop stop-opacity="1" stop-color="rgb(32.208252%, 45.649719%, 100%)" offset="0.0703125"/><stop stop-opacity="1" stop-color="rgb(32.209778%, 46.02356%, 100%)" offset="0.078125"/><stop stop-opacity="1" stop-color="rgb(32.21283%, 46.395874%, 100%)" offset="0.0859375"/><stop stop-opacity="1" stop-color="rgb(32.215881%, 46.768188%, 100%)" offset="0.09375"/><stop stop-opacity="1" stop-color="rgb(32.217407%, 47.142029%, 100%)" offset="0.101562"/><stop stop-opacity="1" stop-color="rgb(32.220459%, 47.514343%, 100%)" offset="0.109375"/><stop stop-opacity="1" stop-color="rgb(32.221985%, 47.886658%, 100%)" offset="0.117187"/><stop stop-opacity="1" stop-color="rgb(32.225037%, 48.260498%, 100%)" offset="0.125"/><stop stop-opacity="1" stop-color="rgb(32.228088%, 48.632812%, 100%)" offset="0.132812"/><stop stop-opacity="1" stop-color="rgb(32.229614%, 49.005127%, 100%)" offset="0.140625"/><stop stop-opacity="1" stop-color="rgb(32.232666%, 49.377441%, 100%)" offset="0.148437"/><stop stop-opacity="1" stop-color="rgb(32.234192%, 49.751282%, 100%)" offset="0.15625"/><stop stop-opacity="1" stop-color="rgb(32.237244%, 50.123596%, 100%)" offset="0.164062"/><stop stop-opacity="1" stop-color="rgb(32.240295%, 50.495911%, 100%)" offset="0.171875"/><stop stop-opacity="1" stop-color="rgb(32.241821%, 50.869751%, 100%)" offset="0.179687"/><stop stop-opacity="1" stop-color="rgb(32.244873%, 51.242065%, 100%)" offset="0.1875"/><stop stop-opacity="1" stop-color="rgb(32.247925%, 51.61438%, 100%)" offset="0.195312"/><stop stop-opacity="1" stop-color="rgb(32.249451%, 51.98822%, 100%)" offset="0.203125"/><stop stop-opacity="1" stop-color="rgb(32.252502%, 52.360535%, 100%)" offset="0.210937"/><stop stop-opacity="1" stop-color="rgb(32.254028%, 52.732849%, 100%)" offset="0.21875"/><stop stop-opacity="1" stop-color="rgb(32.25708%, 53.105164%, 100%)" offset="0.226562"/><stop stop-opacity="1" stop-color="rgb(32.260132%, 53.479004%, 100%)" offset="0.234375"/><stop stop-opacity="1" stop-color="rgb(32.261658%, 53.851318%, 100%)" offset="0.242187"/><stop stop-opacity="1" stop-color="rgb(32.264709%, 54.223633%, 100%)" offset="0.25"/><stop stop-opacity="1" stop-color="rgb(32.266235%, 54.597473%, 100%)" offset="0.257812"/><stop stop-opacity="1" stop-color="rgb(32.269287%, 54.969788%, 100%)" offset="0.265625"/><stop stop-opacity="1" stop-color="rgb(32.272339%, 55.342102%, 100%)" offset="0.273438"/><stop stop-opacity="1" stop-color="rgb(32.273865%, 55.715942%, 100%)" offset="0.28125"/><stop stop-opacity="1" stop-color="rgb(32.276917%, 56.088257%, 100%)" offset="0.289062"/><stop stop-opacity="1" stop-color="rgb(32.278442%, 56.460571%, 100%)" offset="0.296875"/><stop stop-opacity="1" stop-color="rgb(32.281494%, 56.832886%, 100%)" offset="0.304688"/><stop stop-opacity="1" stop-color="rgb(32.284546%, 57.206726%, 100%)" offset="0.3125"/><stop stop-opacity="1" stop-color="rgb(32.286072%, 57.579041%, 100%)" offset="0.320312"/><stop stop-opacity="1" stop-color="rgb(32.289124%, 57.951355%, 100%)" offset="0.328125"/><stop stop-opacity="1" stop-color="rgb(32.292175%, 58.325195%, 100%)" offset="0.335938"/><stop stop-opacity="1" stop-color="rgb(32.293701%, 58.69751%, 100%)" offset="0.34375"/><stop stop-opacity="1" stop-color="rgb(32.296753%, 59.069824%, 100%)" offset="0.351562"/><stop stop-opacity="1" stop-color="rgb(32.298279%, 59.443665%, 100%)" offset="0.359375"/><stop stop-opacity="1" stop-color="rgb(32.301331%, 59.815979%, 100%)" offset="0.367188"/><stop stop-opacity="1" stop-color="rgb(32.304382%, 60.188293%, 100%)" offset="0.375"/><stop stop-opacity="1" stop-color="rgb(32.305908%, 60.560608%, 100%)" offset="0.382812"/><stop stop-opacity="1" stop-color="rgb(32.30896%, 60.934448%, 100%)" offset="0.390625"/><stop stop-opacity="1" stop-color="rgb(32.310486%, 61.306763%, 100%)" offset="0.398438"/><stop stop-opacity="1" stop-color="rgb(32.313538%, 61.679077%, 100%)" offset="0.40625"/><stop stop-opacity="1" stop-color="rgb(32.316589%, 62.052917%, 100%)" offset="0.414062"/><stop stop-opacity="1" stop-color="rgb(32.318115%, 62.425232%, 100%)" offset="0.421875"/><stop stop-opacity="1" stop-color="rgb(32.321167%, 62.797546%, 100%)" offset="0.429688"/><stop stop-opacity="1" stop-color="rgb(32.322693%, 63.171387%, 100%)" offset="0.4375"/><stop stop-opacity="1" stop-color="rgb(32.325745%, 63.543701%, 100%)" offset="0.445312"/><stop stop-opacity="1" stop-color="rgb(32.328796%, 63.916016%, 100%)" offset="0.453125"/><stop stop-opacity="1" stop-color="rgb(32.330322%, 64.28833%, 100%)" offset="0.460937"/><stop stop-opacity="1" stop-color="rgb(32.333374%, 64.66217%, 100%)" offset="0.46875"/><stop stop-opacity="1" stop-color="rgb(32.3349%, 65.034485%, 100%)" offset="0.476562"/><stop stop-opacity="1" stop-color="rgb(32.337952%, 65.406799%, 100%)" offset="0.484375"/><stop stop-opacity="1" stop-color="rgb(32.341003%, 65.78064%, 100%)" offset="0.492187"/><stop stop-opacity="1" stop-color="rgb(32.342529%, 66.152954%, 100%)" offset="0.5"/><stop stop-opacity="1" stop-color="rgb(32.345581%, 66.525269%, 100%)" offset="0.507812"/><stop stop-opacity="1" stop-color="rgb(32.348633%, 66.899109%, 100%)" offset="0.515625"/><stop stop-opacity="1" stop-color="rgb(32.350159%, 67.271423%, 100%)" offset="0.523437"/><stop stop-opacity="1" stop-color="rgb(32.35321%, 67.643738%, 100%)" offset="0.53125"/><stop stop-opacity="1" stop-color="rgb(32.354736%, 68.016052%, 100%)" offset="0.539062"/><stop stop-opacity="1" stop-color="rgb(32.357788%, 68.389893%, 100%)" offset="0.546875"/><stop stop-opacity="1" stop-color="rgb(32.36084%, 68.762207%, 100%)" offset="0.554688"/><stop stop-opacity="1" stop-color="rgb(32.362366%, 69.134521%, 100%)" offset="0.5625"/><stop stop-opacity="1" stop-color="rgb(32.365417%, 69.508362%, 100%)" offset="0.570312"/><stop stop-opacity="1" stop-color="rgb(32.366943%, 69.880676%, 100%)" offset="0.578125"/><stop stop-opacity="1" stop-color="rgb(32.369995%, 70.252991%, 100%)" offset="0.585938"/><stop stop-opacity="1" stop-color="rgb(32.373047%, 70.626831%, 100%)" offset="0.59375"/><stop stop-opacity="1" stop-color="rgb(32.374573%, 70.999146%, 100%)" offset="0.601563"/><stop stop-opacity="1" stop-color="rgb(32.377625%, 71.37146%, 100%)" offset="0.609375"/><stop stop-opacity="1" stop-color="rgb(32.37915%, 71.7453%, 100%)" offset="0.617187"/><stop stop-opacity="1" stop-color="rgb(32.382202%, 72.117615%, 100%)" offset="0.625"/><stop stop-opacity="1" stop-color="rgb(32.385254%, 72.489929%, 100%)" offset="0.632812"/><stop stop-opacity="1" stop-color="rgb(32.38678%, 72.862244%, 100%)" offset="0.640625"/><stop stop-opacity="1" stop-color="rgb(32.389832%, 73.236084%, 100%)" offset="0.648437"/><stop stop-opacity="1" stop-color="rgb(32.392883%, 73.608398%, 100%)" offset="0.65625"/><stop stop-opacity="1" stop-color="rgb(32.394409%, 73.980713%, 100%)" offset="0.664062"/><stop stop-opacity="1" stop-color="rgb(32.397461%, 74.354553%, 100%)" offset="0.671875"/><stop stop-opacity="1" stop-color="rgb(32.398987%, 74.726868%, 100%)" offset="0.679688"/><stop stop-opacity="1" stop-color="rgb(32.402039%, 75.099182%, 100%)" offset="0.6875"/><stop stop-opacity="1" stop-color="rgb(32.40509%, 75.473022%, 100%)" offset="0.695312"/><stop stop-opacity="1" stop-color="rgb(32.406616%, 75.845337%, 100%)" offset="0.703125"/><stop stop-opacity="1" stop-color="rgb(32.409668%, 76.217651%, 100%)" offset="0.710938"/><stop stop-opacity="1" stop-color="rgb(32.411194%, 76.589966%, 100%)" offset="0.71875"/><stop stop-opacity="1" stop-color="rgb(32.414246%, 76.963806%, 100%)" offset="0.726562"/><stop stop-opacity="1" stop-color="rgb(32.417297%, 77.336121%, 100%)" offset="0.734375"/><stop stop-opacity="1" stop-color="rgb(32.418823%, 77.708435%, 100%)" offset="0.742187"/><stop stop-opacity="1" stop-color="rgb(32.421875%, 78.082275%, 100%)" offset="0.75"/><stop stop-opacity="1" stop-color="rgb(32.423401%, 78.45459%, 100%)" offset="0.757812"/><stop stop-opacity="1" stop-color="rgb(32.426453%, 78.826904%, 100%)" offset="0.765625"/><stop stop-opacity="1" stop-color="rgb(32.429504%, 79.200745%, 100%)" offset="0.773437"/><stop stop-opacity="1" stop-color="rgb(32.43103%, 79.573059%, 100%)" offset="0.78125"/><stop stop-opacity="1" stop-color="rgb(32.434082%, 79.945374%, 100%)" offset="0.789062"/><stop stop-opacity="1" stop-color="rgb(32.437134%, 80.317688%, 100%)" offset="0.796875"/><stop stop-opacity="1" stop-color="rgb(32.43866%, 80.691528%, 100%)" offset="0.804688"/><stop stop-opacity="1" stop-color="rgb(32.441711%, 81.063843%, 100%)" offset="0.8125"/><stop stop-opacity="1" stop-color="rgb(32.443237%, 81.436157%, 100%)" offset="0.820312"/><stop stop-opacity="1" stop-color="rgb(32.446289%, 81.809998%, 100%)" offset="0.828125"/><stop stop-opacity="1" stop-color="rgb(32.449341%, 82.182312%, 100%)" offset="0.835937"/><stop stop-opacity="1" stop-color="rgb(32.450867%, 82.554626%, 100%)" offset="0.84375"/><stop stop-opacity="1" stop-color="rgb(32.453918%, 82.928467%, 100%)" offset="0.851562"/><stop stop-opacity="1" stop-color="rgb(32.455444%, 83.300781%, 100%)" offset="0.859375"/><stop stop-opacity="1" stop-color="rgb(32.458496%, 83.673096%, 100%)" offset="0.867187"/><stop stop-opacity="1" stop-color="rgb(32.461548%, 84.04541%, 100%)" offset="0.875"/><stop stop-opacity="1" stop-color="rgb(32.463074%, 84.41925%, 100%)" offset="0.882812"/><stop stop-opacity="1" stop-color="rgb(32.466125%, 84.791565%, 100%)" offset="0.890625"/><stop stop-opacity="1" stop-color="rgb(32.467651%, 85.163879%, 100%)" offset="0.898437"/><stop stop-opacity="1" stop-color="rgb(32.470703%, 85.53772%, 100%)" offset="0.90625"/><stop stop-opacity="1" stop-color="rgb(32.473755%, 85.910034%, 100%)" offset="0.914062"/><stop stop-opacity="1" stop-color="rgb(32.475281%, 86.282349%, 100%)" offset="0.921875"/><stop stop-opacity="1" stop-color="rgb(32.478333%, 86.656189%, 100%)" offset="0.929688"/><stop stop-opacity="1" stop-color="rgb(32.481384%, 87.028503%, 100%)" offset="0.9375"/><stop stop-opacity="1" stop-color="rgb(32.48291%, 87.400818%, 100%)" offset="0.945312"/><stop stop-opacity="1" stop-color="rgb(32.485962%, 87.773132%, 100%)" offset="0.953125"/><stop stop-opacity="1" stop-color="rgb(32.487488%, 88.146973%, 100%)" offset="0.960938"/><stop stop-opacity="1" stop-color="rgb(32.49054%, 88.519287%, 100%)" offset="0.96875"/><stop stop-opacity="1" stop-color="rgb(32.493591%, 88.891602%, 100%)" offset="0.976563"/><stop stop-opacity="1" stop-color="rgb(32.495117%, 89.265442%, 100%)" offset="0.984375"/><stop stop-opacity="1" stop-color="rgb(32.498169%, 89.625549%, 100%)" offset="1"/></linearGradient><clipPath id="93f3e00e38"><path d="M 52 198 L 73 198 L 73 227.746094 L 52 227.746094 Z M 52 198 " clip-rule="nonzero"/></clipPath><clipPath id="53cd29685a"><path d="M 52 173 L 106.257812 173 L 106.257812 227 L 52 227 Z M 52 173 " clip-rule="nonzero"/></clipPath><clipPath id="46bb74c0c3"><path d="M 52.46875 226.609375 C 52.445312 223.027344 52.863281 211.199219 58.671875 199.644531 C 60.503906 196.011719 62.863281 192.402344 65.917969 189.085938 C 73.832031 180.496094 86.378906 173.882812 106.25 173.882812 L 106.25 194.066406 C 91.597656 194.066406 80.929688 196.3125 73.160156 199.644531 C 70.394531 200.832031 67.992188 202.15625 65.914062 203.566406 C 53.691406 211.863281 52.523438 223.109375 52.46875 226.609375 Z M 52.46875 226.609375 " clip-rule="nonzero"/></clipPath><linearGradient x1="167.432006" gradientTransform="matrix(-0.223619, 0, 0, -0.223892, 143.691865, 191.789975)" y1="-37.771" x2="408.04203" gradientUnits="userSpaceOnUse" y2="-37.771" id="0071ce2008"><stop stop-opacity="1" stop-color="rgb(32.199097%, 44.299316%, 100%)" offset="0"/><stop stop-opacity="1" stop-color="rgb(32.199097%, 44.299316%, 100%)" offset="0.03125"/><stop stop-opacity="1" stop-color="rgb(32.199097%, 44.322205%, 100%)" offset="0.0390625"/><stop stop-opacity="1" stop-color="rgb(32.200623%, 44.53125%, 100%)" offset="0.046875"/><stop stop-opacity="1" stop-color="rgb(32.203674%, 44.903564%, 100%)" offset="0.0546875"/><stop stop-opacity="1" stop-color="rgb(32.2052%, 45.277405%, 100%)" offset="0.0625"/><stop stop-opacity="1" stop-color="rgb(32.208252%, 45.649719%, 100%)" offset="0.0703125"/><stop stop-opacity="1" stop-color="rgb(32.209778%, 46.022034%, 100%)" offset="0.078125"/><stop stop-opacity="1" stop-color="rgb(32.21283%, 46.395874%, 100%)" offset="0.0859375"/><stop stop-opacity="1" stop-color="rgb(32.215881%, 46.768188%, 100%)" offset="0.09375"/><stop stop-opacity="1" stop-color="rgb(32.217407%, 47.140503%, 100%)" offset="0.101562"/><stop stop-opacity="1" stop-color="rgb(32.220459%, 47.512817%, 100%)" offset="0.109375"/><stop stop-opacity="1" stop-color="rgb(32.221985%, 47.886658%, 100%)" offset="0.117188"/><stop stop-opacity="1" stop-color="rgb(32.225037%, 48.258972%, 100%)" offset="0.125"/><stop stop-opacity="1" stop-color="rgb(32.228088%, 48.631287%, 100%)" offset="0.132812"/><stop stop-opacity="1" stop-color="rgb(32.229614%, 49.005127%, 100%)" offset="0.140625"/><stop stop-opacity="1" stop-color="rgb(32.232666%, 49.377441%, 100%)" offset="0.148438"/><stop stop-opacity="1" stop-color="rgb(32.234192%, 49.749756%, 100%)" offset="0.15625"/><stop stop-opacity="1" stop-color="rgb(32.237244%, 50.123596%, 100%)" offset="0.164063"/><stop stop-opacity="1" stop-color="rgb(32.240295%, 50.495911%, 100%)" offset="0.171875"/><stop stop-opacity="1" stop-color="rgb(32.241821%, 50.868225%, 100%)" offset="0.179688"/><stop stop-opacity="1" stop-color="rgb(32.244873%, 51.242065%, 100%)" offset="0.1875"/><stop stop-opacity="1" stop-color="rgb(32.247925%, 51.61438%, 100%)" offset="0.195313"/><stop stop-opacity="1" stop-color="rgb(32.249451%, 51.986694%, 100%)" offset="0.203125"/><stop stop-opacity="1" stop-color="rgb(32.252502%, 52.359009%, 100%)" offset="0.210938"/><stop stop-opacity="1" stop-color="rgb(32.254028%, 52.732849%, 100%)" offset="0.21875"/><stop stop-opacity="1" stop-color="rgb(32.25708%, 53.105164%, 100%)" offset="0.226562"/><stop stop-opacity="1" stop-color="rgb(32.260132%, 53.477478%, 100%)" offset="0.234375"/><stop stop-opacity="1" stop-color="rgb(32.261658%, 53.851318%, 100%)" offset="0.242188"/><stop stop-opacity="1" stop-color="rgb(32.264709%, 54.223633%, 100%)" offset="0.25"/><stop stop-opacity="1" stop-color="rgb(32.266235%, 54.595947%, 100%)" offset="0.257813"/><stop stop-opacity="1" stop-color="rgb(32.269287%, 54.969788%, 100%)" offset="0.265625"/><stop stop-opacity="1" stop-color="rgb(32.272339%, 55.342102%, 100%)" offset="0.273438"/><stop stop-opacity="1" stop-color="rgb(32.273865%, 55.714417%, 100%)" offset="0.28125"/><stop stop-opacity="1" stop-color="rgb(32.276917%, 56.088257%, 100%)" offset="0.289062"/><stop stop-opacity="1" stop-color="rgb(32.278442%, 56.460571%, 100%)" offset="0.296875"/><stop stop-opacity="1" stop-color="rgb(32.281494%, 56.832886%, 100%)" offset="0.304687"/><stop stop-opacity="1" stop-color="rgb(32.284546%, 57.206726%, 100%)" offset="0.3125"/><stop stop-opacity="1" stop-color="rgb(32.286072%, 57.579041%, 100%)" offset="0.320312"/><stop stop-opacity="1" stop-color="rgb(32.289124%, 57.951355%, 100%)" offset="0.328125"/><stop stop-opacity="1" stop-color="rgb(32.292175%, 58.323669%, 100%)" offset="0.335938"/><stop stop-opacity="1" stop-color="rgb(32.293701%, 58.69751%, 100%)" offset="0.34375"/><stop stop-opacity="1" stop-color="rgb(32.296753%, 59.069824%, 100%)" offset="0.351562"/><stop stop-opacity="1" stop-color="rgb(32.298279%, 59.442139%, 100%)" offset="0.359375"/><stop stop-opacity="1" stop-color="rgb(32.301331%, 59.815979%, 100%)" offset="0.367188"/><stop stop-opacity="1" stop-color="rgb(32.304382%, 60.188293%, 100%)" offset="0.375"/><stop stop-opacity="1" stop-color="rgb(32.305908%, 60.560608%, 100%)" offset="0.382812"/><stop stop-opacity="1" stop-color="rgb(32.30896%, 60.934448%, 100%)" offset="0.390625"/><stop stop-opacity="1" stop-color="rgb(32.310486%, 61.306763%, 100%)" offset="0.398438"/><stop stop-opacity="1" stop-color="rgb(32.313538%, 61.679077%, 100%)" offset="0.40625"/><stop stop-opacity="1" stop-color="rgb(32.316589%, 62.052917%, 100%)" offset="0.414062"/><stop stop-opacity="1" stop-color="rgb(32.318115%, 62.425232%, 100%)" offset="0.421875"/><stop stop-opacity="1" stop-color="rgb(32.321167%, 62.797546%, 100%)" offset="0.429688"/><stop stop-opacity="1" stop-color="rgb(32.322693%, 63.169861%, 100%)" offset="0.4375"/><stop stop-opacity="1" stop-color="rgb(32.325745%, 63.543701%, 100%)" offset="0.445312"/><stop stop-opacity="1" stop-color="rgb(32.328796%, 63.916016%, 100%)" offset="0.453125"/><stop stop-opacity="1" stop-color="rgb(32.330322%, 64.28833%, 100%)" offset="0.460938"/><stop stop-opacity="1" stop-color="rgb(32.333374%, 64.66217%, 100%)" offset="0.46875"/><stop stop-opacity="1" stop-color="rgb(32.3349%, 65.034485%, 100%)" offset="0.476562"/><stop stop-opacity="1" stop-color="rgb(32.337952%, 65.406799%, 100%)" offset="0.484375"/><stop stop-opacity="1" stop-color="rgb(32.341003%, 65.78064%, 100%)" offset="0.492188"/><stop stop-opacity="1" stop-color="rgb(32.342529%, 66.152954%, 100%)" offset="0.5"/><stop stop-opacity="1" stop-color="rgb(32.345581%, 66.525269%, 100%)" offset="0.507813"/><stop stop-opacity="1" stop-color="rgb(32.348633%, 66.899109%, 100%)" offset="0.515625"/><stop stop-opacity="1" stop-color="rgb(32.350159%, 67.271423%, 100%)" offset="0.523438"/><stop stop-opacity="1" stop-color="rgb(32.35321%, 67.643738%, 100%)" offset="0.53125"/><stop stop-opacity="1" stop-color="rgb(32.354736%, 68.017578%, 100%)" offset="0.539062"/><stop stop-opacity="1" stop-color="rgb(32.357788%, 68.389893%, 100%)" offset="0.546875"/><stop stop-opacity="1" stop-color="rgb(32.36084%, 68.762207%, 100%)" offset="0.554688"/><stop stop-opacity="1" stop-color="rgb(32.362366%, 69.134521%, 100%)" offset="0.5625"/><stop stop-opacity="1" stop-color="rgb(32.365417%, 69.508362%, 100%)" offset="0.570312"/><stop stop-opacity="1" stop-color="rgb(32.366943%, 69.880676%, 100%)" offset="0.578125"/><stop stop-opacity="1" stop-color="rgb(32.369995%, 70.252991%, 100%)" offset="0.585938"/><stop stop-opacity="1" stop-color="rgb(32.373047%, 70.626831%, 100%)" offset="0.59375"/><stop stop-opacity="1" stop-color="rgb(32.374573%, 70.999146%, 100%)" offset="0.601562"/><stop stop-opacity="1" stop-color="rgb(32.377625%, 71.37146%, 100%)" offset="0.609375"/><stop stop-opacity="1" stop-color="rgb(32.37915%, 71.7453%, 100%)" offset="0.617188"/><stop stop-opacity="1" stop-color="rgb(32.382202%, 72.117615%, 100%)" offset="0.625"/><stop stop-opacity="1" stop-color="rgb(32.385254%, 72.489929%, 100%)" offset="0.632813"/><stop stop-opacity="1" stop-color="rgb(32.38678%, 72.86377%, 100%)" offset="0.640625"/><stop stop-opacity="1" stop-color="rgb(32.389832%, 73.236084%, 100%)" offset="0.648438"/><stop stop-opacity="1" stop-color="rgb(32.392883%, 73.608398%, 100%)" offset="0.65625"/><stop stop-opacity="1" stop-color="rgb(32.394409%, 73.982239%, 100%)" offset="0.664063"/><stop stop-opacity="1" stop-color="rgb(32.397461%, 74.354553%, 100%)" offset="0.671875"/><stop stop-opacity="1" stop-color="rgb(32.398987%, 74.726868%, 100%)" offset="0.679688"/><stop stop-opacity="1" stop-color="rgb(32.402039%, 75.099182%, 100%)" offset="0.6875"/><stop stop-opacity="1" stop-color="rgb(32.40509%, 75.473022%, 100%)" offset="0.695313"/><stop stop-opacity="1" stop-color="rgb(32.406616%, 75.845337%, 100%)" offset="0.703125"/><stop stop-opacity="1" stop-color="rgb(32.409668%, 76.217651%, 100%)" offset="0.710938"/><stop stop-opacity="1" stop-color="rgb(32.411194%, 76.591492%, 100%)" offset="0.71875"/><stop stop-opacity="1" stop-color="rgb(32.414246%, 76.963806%, 100%)" offset="0.726562"/><stop stop-opacity="1" stop-color="rgb(32.417297%, 77.336121%, 100%)" offset="0.734375"/><stop stop-opacity="1" stop-color="rgb(32.418823%, 77.709961%, 100%)" offset="0.742188"/><stop stop-opacity="1" stop-color="rgb(32.421875%, 78.082275%, 100%)" offset="0.75"/><stop stop-opacity="1" stop-color="rgb(32.423401%, 78.45459%, 100%)" offset="0.757812"/><stop stop-opacity="1" stop-color="rgb(32.426453%, 78.82843%, 100%)" offset="0.765625"/><stop stop-opacity="1" stop-color="rgb(32.429504%, 79.200745%, 100%)" offset="0.773438"/><stop stop-opacity="1" stop-color="rgb(32.43103%, 79.573059%, 100%)" offset="0.78125"/><stop stop-opacity="1" stop-color="rgb(32.434082%, 79.945374%, 100%)" offset="0.789062"/><stop stop-opacity="1" stop-color="rgb(32.437134%, 80.319214%, 100%)" offset="0.796875"/><stop stop-opacity="1" stop-color="rgb(32.43866%, 80.691528%, 100%)" offset="0.804688"/><stop stop-opacity="1" stop-color="rgb(32.441711%, 81.063843%, 100%)" offset="0.8125"/><stop stop-opacity="1" stop-color="rgb(32.443237%, 81.437683%, 100%)" offset="0.820312"/><stop stop-opacity="1" stop-color="rgb(32.446289%, 81.809998%, 100%)" offset="0.828125"/><stop stop-opacity="1" stop-color="rgb(32.449341%, 82.182312%, 100%)" offset="0.835938"/><stop stop-opacity="1" stop-color="rgb(32.450867%, 82.556152%, 100%)" offset="0.84375"/><stop stop-opacity="1" stop-color="rgb(32.453918%, 82.928467%, 100%)" offset="0.851562"/><stop stop-opacity="1" stop-color="rgb(32.455444%, 83.300781%, 100%)" offset="0.859375"/><stop stop-opacity="1" stop-color="rgb(32.458496%, 83.674622%, 100%)" offset="0.867188"/><stop stop-opacity="1" stop-color="rgb(32.461548%, 84.046936%, 100%)" offset="0.875"/><stop stop-opacity="1" stop-color="rgb(32.463074%, 84.41925%, 100%)" offset="0.882812"/><stop stop-opacity="1" stop-color="rgb(32.466125%, 84.793091%, 100%)" offset="0.890625"/><stop stop-opacity="1" stop-color="rgb(32.467651%, 85.165405%, 100%)" offset="0.898438"/><stop stop-opacity="1" stop-color="rgb(32.470703%, 85.53772%, 100%)" offset="0.90625"/><stop stop-opacity="1" stop-color="rgb(32.473755%, 85.910034%, 100%)" offset="0.914062"/><stop stop-opacity="1" stop-color="rgb(32.475281%, 86.283875%, 100%)" offset="0.921875"/><stop stop-opacity="1" stop-color="rgb(32.478333%, 86.656189%, 100%)" offset="0.929688"/><stop stop-opacity="1" stop-color="rgb(32.481384%, 87.028503%, 100%)" offset="0.9375"/><stop stop-opacity="1" stop-color="rgb(32.48291%, 87.402344%, 100%)" offset="0.945312"/><stop stop-opacity="1" stop-color="rgb(32.485962%, 87.774658%, 100%)" offset="0.953125"/><stop stop-opacity="1" stop-color="rgb(32.487488%, 88.146973%, 100%)" offset="0.960938"/><stop stop-opacity="1" stop-color="rgb(32.49054%, 88.520813%, 100%)" offset="0.96875"/><stop stop-opacity="1" stop-color="rgb(32.493591%, 88.893127%, 100%)" offset="0.976562"/><stop stop-opacity="1" stop-color="rgb(32.495117%, 89.265442%, 100%)" offset="0.984375"/><stop stop-opacity="1" stop-color="rgb(32.498169%, 89.625549%, 100%)" offset="1"/></linearGradient></defs><g clip-path="url(#5b7faa23e4)"><path fill="#3756e4" d="M 52.464844 175.933594 L 52.464844 146.972656 L 72.648438 146.972656 C 72.648438 146.972656 72.921875 160.527344 67.757812 165.988281 C 62.597656 171.449219 52.464844 175.933594 52.464844 175.933594 Z M 52.464844 175.933594 " fill-opacity="1" fill-rule="nonzero"/></g><g clip-path="url(#2b64f1dc3f)"><g clip-path="url(#22646dbc59)"><path fill="url(#2eac770f12)" d="M 18.867188 148.066406 L 18.867188 200.792969 L 72.671875 200.792969 L 72.671875 148.066406 Z M 18.867188 148.066406 " fill-rule="nonzero"/></g></g><g clip-path="url(#93f3e00e38)"><path fill="#3756e4" d="M 72.652344 198.742188 L 72.652344 227.703125 L 52.46875 227.703125 C 52.46875 227.703125 52.199219 214.144531 57.359375 208.6875 C 62.519531 203.226562 72.652344 198.742188 72.652344 198.742188 Z M 72.652344 198.742188 " fill-opacity="1" fill-rule="nonzero"/></g><g clip-path="url(#53cd29685a)"><g clip-path="url(#46bb74c0c3)"><path fill="url(#0071ce2008)" d="M 106.25 226.609375 L 106.25 173.882812 L 52.445312 173.882812 L 52.445312 226.609375 Z M 106.25 226.609375 " fill-rule="nonzero"/></g></g><g fill="#fdfafa" fill-opacity="1"><g transform="translate(119.259732, 182.82796)"><g><path d="M 15.6875 -5.34375 C 16.59375 -5.34375 17.46875 -5.476562 18.3125 -5.75 C 19.164062 -6.03125 19.789062 -6.296875 20.1875 -6.546875 L 20.796875 -6.953125 L 23.3125 -1.921875 C 23.226562 -1.859375 23.109375 -1.773438 22.953125 -1.671875 C 22.804688 -1.566406 22.46875 -1.367188 21.9375 -1.078125 C 21.40625 -0.796875 20.832031 -0.550781 20.21875 -0.34375 C 19.613281 -0.132812 18.816406 0.0507812 17.828125 0.21875 C 16.847656 0.382812 15.832031 0.46875 14.78125 0.46875 C 12.375 0.46875 10.085938 -0.117188 7.921875 -1.296875 C 5.765625 -2.484375 4.023438 -4.113281 2.703125 -6.1875 C 1.378906 -8.269531 0.71875 -10.515625 0.71875 -12.921875 C 0.71875 -14.742188 1.101562 -16.492188 1.875 -18.171875 C 2.65625 -19.859375 3.691406 -21.296875 4.984375 -22.484375 C 6.273438 -23.679688 7.78125 -24.632812 9.5 -25.34375 C 11.21875 -26.0625 12.976562 -26.421875 14.78125 -26.421875 C 16.457031 -26.421875 18.003906 -26.21875 19.421875 -25.8125 C 20.835938 -25.414062 21.835938 -25.019531 22.421875 -24.625 L 23.3125 -24.03125 L 20.796875 -19 C 20.648438 -19.125 20.425781 -19.273438 20.125 -19.453125 C 19.832031 -19.628906 19.242188 -19.863281 18.359375 -20.15625 C 17.484375 -20.457031 16.59375 -20.609375 15.6875 -20.609375 C 14.269531 -20.609375 12.992188 -20.375 11.859375 -19.90625 C 10.722656 -19.445312 9.820312 -18.835938 9.15625 -18.078125 C 8.5 -17.328125 8 -16.515625 7.65625 -15.640625 C 7.3125 -14.773438 7.140625 -13.890625 7.140625 -12.984375 C 7.140625 -11.015625 7.878906 -9.25 9.359375 -7.6875 C 10.835938 -6.125 12.945312 -5.34375 15.6875 -5.34375 Z M 15.6875 -5.34375 "/></g></g></g><g fill="#fdfafa" fill-opacity="1"><g transform="translate(142.941522, 182.82796)"><g><path d="M 18.21875 -7.296875 L 6.515625 -7.296875 C 6.515625 -6.160156 6.878906 -5.320312 7.609375 -4.78125 C 8.347656 -4.238281 9.144531 -3.96875 10 -3.96875 C 10.90625 -3.96875 11.617188 -4.085938 12.140625 -4.328125 C 12.660156 -4.566406 13.257812 -5.039062 13.9375 -5.75 L 17.953125 -3.75 C 16.273438 -0.9375 13.488281 0.46875 9.59375 0.46875 C 7.15625 0.46875 5.066406 -0.363281 3.328125 -2.03125 C 1.585938 -3.695312 0.71875 -5.703125 0.71875 -8.046875 C 0.71875 -10.398438 1.585938 -12.414062 3.328125 -14.09375 C 5.066406 -15.769531 7.15625 -16.609375 9.59375 -16.609375 C 12.15625 -16.609375 14.238281 -15.867188 15.84375 -14.390625 C 17.445312 -12.910156 18.25 -10.796875 18.25 -8.046875 C 18.25 -7.671875 18.238281 -7.421875 18.21875 -7.296875 Z M 6.671875 -10.375 L 12.796875 -10.375 C 12.671875 -11.21875 12.34375 -11.863281 11.8125 -12.3125 C 11.28125 -12.757812 10.59375 -12.984375 9.75 -12.984375 C 8.820312 -12.984375 8.085938 -12.742188 7.546875 -12.265625 C 7.003906 -11.785156 6.710938 -11.15625 6.671875 -10.375 Z M 6.671875 -10.375 "/></g></g></g><g fill="#fdfafa" fill-opacity="1"><g transform="translate(161.905823, 182.82796)"><g><path d="M 1.890625 0 L 1.890625 -16.140625 L 7.453125 -16.140625 L 7.453125 -14.4375 L 7.515625 -14.4375 C 8.960938 -15.882812 10.503906 -16.609375 12.140625 -16.609375 C 12.941406 -16.609375 13.734375 -16.503906 14.515625 -16.296875 C 15.296875 -16.085938 16.046875 -15.757812 16.765625 -15.3125 C 17.492188 -14.875 18.082031 -14.25 18.53125 -13.4375 C 18.988281 -12.632812 19.21875 -11.695312 19.21875 -10.625 L 19.21875 0 L 13.65625 0 L 13.65625 -9.125 C 13.65625 -9.957031 13.382812 -10.6875 12.84375 -11.3125 C 12.3125 -11.945312 11.613281 -12.265625 10.75 -12.265625 C 9.914062 -12.265625 9.15625 -11.9375 8.46875 -11.28125 C 7.789062 -10.632812 7.453125 -9.914062 7.453125 -9.125 L 7.453125 0 Z M 1.890625 0 "/></g></g></g><g fill="#fdfafa" fill-opacity="1"><g transform="translate(182.694225, 182.82796)"><g><path d="M 2.828125 -16.140625 L 2.828125 -22.140625 L 8.390625 -22.140625 L 8.390625 -16.140625 L 11.796875 -16.140625 L 11.796875 -11.890625 L 8.390625 -11.890625 L 8.390625 -6.765625 C 8.390625 -5.273438 8.8125 -4.53125 9.65625 -4.53125 C 9.863281 -4.53125 10.082031 -4.570312 10.3125 -4.65625 C 10.539062 -4.738281 10.71875 -4.820312 10.84375 -4.90625 L 11.046875 -5.03125 L 12.421875 -0.53125 C 11.222656 0.132812 9.859375 0.46875 8.328125 0.46875 C 7.285156 0.46875 6.382812 0.285156 5.625 -0.078125 C 4.875 -0.441406 4.300781 -0.929688 3.90625 -1.546875 C 3.519531 -2.171875 3.242188 -2.820312 3.078125 -3.5 C 2.910156 -4.1875 2.828125 -4.914062 2.828125 -5.6875 L 2.828125 -11.890625 L 0.5 -11.890625 L 0.5 -16.140625 Z M 2.828125 -16.140625 "/></g></g></g><g fill="#fdfafa" fill-opacity="1"><g transform="translate(195.116936, 182.82796)"><g><path d="M 1.890625 0 L 1.890625 -16.140625 L 7.453125 -16.140625 L 7.453125 -13.8125 L 7.515625 -13.8125 C 7.554688 -13.894531 7.625 -14 7.71875 -14.125 C 7.8125 -14.25 8.015625 -14.46875 8.328125 -14.78125 C 8.648438 -15.09375 8.988281 -15.375 9.34375 -15.625 C 9.695312 -15.882812 10.15625 -16.113281 10.71875 -16.3125 C 11.289062 -16.507812 11.867188 -16.609375 12.453125 -16.609375 C 13.066406 -16.609375 13.664062 -16.523438 14.25 -16.359375 C 14.832031 -16.191406 15.257812 -16.023438 15.53125 -15.859375 L 15.984375 -15.59375 L 13.65625 -10.875 C 12.957031 -11.46875 11.988281 -11.765625 10.75 -11.765625 C 10.082031 -11.765625 9.503906 -11.613281 9.015625 -11.3125 C 8.535156 -11.019531 8.195312 -10.664062 8 -10.25 C 7.800781 -9.832031 7.660156 -9.476562 7.578125 -9.1875 C 7.492188 -8.894531 7.453125 -8.664062 7.453125 -8.5 L 7.453125 0 Z M 1.890625 0 "/></g></g></g><g fill="#fdfafa" fill-opacity="1"><g transform="translate(210.778991, 182.82796)"><g><path d="M 3.40625 -1.921875 C 1.613281 -3.515625 0.71875 -5.554688 0.71875 -8.046875 C 0.71875 -10.546875 1.648438 -12.597656 3.515625 -14.203125 C 5.390625 -15.804688 7.695312 -16.609375 10.4375 -16.609375 C 13.144531 -16.609375 15.425781 -15.800781 17.28125 -14.1875 C 19.132812 -12.570312 20.0625 -10.523438 20.0625 -8.046875 C 20.0625 -5.578125 19.15625 -3.539062 17.34375 -1.9375 C 15.53125 -0.332031 13.226562 0.46875 10.4375 0.46875 C 7.550781 0.46875 5.207031 -0.328125 3.40625 -1.921875 Z M 7.71875 -10.78125 C 7 -10.070312 6.640625 -9.160156 6.640625 -8.046875 C 6.640625 -6.941406 6.984375 -6.035156 7.671875 -5.328125 C 8.367188 -4.628906 9.28125 -4.28125 10.40625 -4.28125 C 11.5 -4.28125 12.394531 -4.632812 13.09375 -5.34375 C 13.800781 -6.0625 14.15625 -6.960938 14.15625 -8.046875 C 14.15625 -9.160156 13.789062 -10.070312 13.0625 -10.78125 C 12.34375 -11.5 11.457031 -11.859375 10.40625 -11.859375 C 9.34375 -11.859375 8.445312 -11.5 7.71875 -10.78125 Z M 7.71875 -10.78125 "/></g></g></g><g fill="#fdfafa" fill-opacity="1"><g transform="translate(231.567393, 182.82796)"><g/></g></g><g fill="#fdfafa" fill-opacity="1"><g transform="translate(240.153222, 182.82796)"><g><path d="M 23.34375 0 L 22.109375 -15.375 L 21.953125 -15.375 L 16.640625 -0.15625 L 13.109375 -0.15625 L 7.796875 -15.375 L 7.640625 -15.375 L 6.421875 0 L 0.5 0 L 2.828125 -25.953125 L 9.125 -25.953125 L 14.875 -10.984375 L 20.640625 -25.953125 L 26.921875 -25.953125 L 29.25 0 Z M 23.34375 0 "/></g></g></g><g fill="#fdfafa" fill-opacity="1"><g transform="translate(269.90484, 182.82796)"><g><path d="M 7.640625 -20.890625 L 14.03125 -26.421875 L 16.890625 -22.796875 L 9.40625 -18.46875 Z M 18.21875 -7.296875 L 6.515625 -7.296875 C 6.515625 -6.160156 6.878906 -5.320312 7.609375 -4.78125 C 8.347656 -4.238281 9.144531 -3.96875 10 -3.96875 C 10.90625 -3.96875 11.617188 -4.085938 12.140625 -4.328125 C 12.660156 -4.566406 13.257812 -5.039062 13.9375 -5.75 L 17.953125 -3.75 C 16.273438 -0.9375 13.488281 0.46875 9.59375 0.46875 C 7.15625 0.46875 5.066406 -0.363281 3.328125 -2.03125 C 1.585938 -3.695312 0.71875 -5.703125 0.71875 -8.046875 C 0.71875 -10.398438 1.585938 -12.414062 3.328125 -14.09375 C 5.066406 -15.769531 7.15625 -16.609375 9.59375 -16.609375 C 12.15625 -16.609375 14.238281 -15.867188 15.84375 -14.390625 C 17.445312 -12.910156 18.25 -10.796875 18.25 -8.046875 C 18.25 -7.671875 18.238281 -7.421875 18.21875 -7.296875 Z M 6.671875 -10.375 L 12.796875 -10.375 C 12.671875 -11.21875 12.34375 -11.863281 11.8125 -12.3125 C 11.28125 -12.757812 10.59375 -12.984375 9.75 -12.984375 C 8.820312 -12.984375 8.085938 -12.742188 7.546875 -12.265625 C 7.003906 -11.785156 6.710938 -11.15625 6.671875 -10.375 Z M 6.671875 -10.375 "/></g></g></g><g fill="#fdfafa" fill-opacity="1"><g transform="translate(288.869141, 182.82796)"><g><path d="M 2.984375 -2 C 1.472656 -3.644531 0.71875 -5.660156 0.71875 -8.046875 C 0.71875 -10.441406 1.472656 -12.46875 2.984375 -14.125 C 4.492188 -15.78125 6.414062 -16.609375 8.75 -16.609375 C 10.882812 -16.609375 12.644531 -15.9375 14.03125 -14.59375 L 14.03125 -27.046875 L 19.59375 -27.046875 L 19.59375 0 L 14.09375 0 L 14.09375 -1.828125 L 14.03125 -1.828125 C 12.644531 -0.296875 10.882812 0.46875 8.75 0.46875 C 6.414062 0.46875 4.492188 -0.351562 2.984375 -2 Z M 7.71875 -10.78125 C 7 -10.070312 6.640625 -9.160156 6.640625 -8.046875 C 6.640625 -6.941406 6.984375 -6.035156 7.671875 -5.328125 C 8.367188 -4.628906 9.28125 -4.28125 10.40625 -4.28125 C 11.5 -4.28125 12.394531 -4.632812 13.09375 -5.34375 C 13.800781 -6.0625 14.15625 -6.960938 14.15625 -8.046875 C 14.15625 -9.160156 13.789062 -10.070312 13.0625 -10.78125 C 12.34375 -11.5 11.457031 -11.859375 10.40625 -11.859375 C 9.34375 -11.859375 8.445312 -11.5 7.71875 -10.78125 Z M 7.71875 -10.78125 "/></g></g></g><g fill="#fdfafa" fill-opacity="1"><g transform="translate(310.349429, 182.82796)"><g><path d="M 2.421875 -25.125 C 3.066406 -25.78125 3.84375 -26.109375 4.75 -26.109375 C 5.65625 -26.109375 6.429688 -25.78125 7.078125 -25.125 C 7.722656 -24.476562 8.046875 -23.703125 8.046875 -22.796875 C 8.046875 -21.898438 7.722656 -21.125 7.078125 -20.46875 C 6.429688 -19.820312 5.65625 -19.5 4.75 -19.5 C 3.84375 -19.5 3.066406 -19.820312 2.421875 -20.46875 C 1.773438 -21.125 1.453125 -21.898438 1.453125 -22.796875 C 1.453125 -23.703125 1.773438 -24.476562 2.421875 -25.125 Z M 1.890625 -16.140625 L 1.890625 0 L 7.453125 0 L 7.453125 -16.140625 Z M 1.890625 -16.140625 "/></g></g></g><g fill="#fdfafa" fill-opacity="1"><g transform="translate(319.847309, 182.82796)"><g><path d="M 10.46875 -12.046875 C 9.425781 -12.046875 8.523438 -11.65625 7.765625 -10.875 C 7.015625 -10.101562 6.640625 -9.171875 6.640625 -8.078125 C 6.640625 -6.972656 7.015625 -6.03125 7.765625 -5.25 C 8.523438 -4.476562 9.425781 -4.09375 10.46875 -4.09375 C 10.976562 -4.09375 11.457031 -4.15625 11.90625 -4.28125 C 12.351562 -4.40625 12.679688 -4.53125 12.890625 -4.65625 L 13.171875 -4.84375 L 15.0625 -0.96875 C 14.914062 -0.863281 14.710938 -0.734375 14.453125 -0.578125 C 14.191406 -0.421875 13.59375 -0.207031 12.65625 0.0625 C 11.726562 0.332031 10.726562 0.46875 9.65625 0.46875 C 7.289062 0.46875 5.207031 -0.363281 3.40625 -2.03125 C 1.613281 -3.695312 0.71875 -5.691406 0.71875 -8.015625 C 0.71875 -10.367188 1.613281 -12.390625 3.40625 -14.078125 C 5.207031 -15.765625 7.289062 -16.609375 9.65625 -16.609375 C 10.726562 -16.609375 11.710938 -16.484375 12.609375 -16.234375 C 13.515625 -15.984375 14.15625 -15.726562 14.53125 -15.46875 L 15.0625 -15.09375 L 13.171875 -11.296875 C 12.484375 -11.796875 11.582031 -12.046875 10.46875 -12.046875 Z M 10.46875 -12.046875 "/></g></g></g><g fill="#fdfafa" fill-opacity="1"><g transform="translate(335.289212, 182.82796)"><g><path d="M 3.40625 -1.921875 C 1.613281 -3.515625 0.71875 -5.554688 0.71875 -8.046875 C 0.71875 -10.546875 1.648438 -12.597656 3.515625 -14.203125 C 5.390625 -15.804688 7.695312 -16.609375 10.4375 -16.609375 C 13.144531 -16.609375 15.425781 -15.800781 17.28125 -14.1875 C 19.132812 -12.570312 20.0625 -10.523438 20.0625 -8.046875 C 20.0625 -5.578125 19.15625 -3.539062 17.34375 -1.9375 C 15.53125 -0.332031 13.226562 0.46875 10.4375 0.46875 C 7.550781 0.46875 5.207031 -0.328125 3.40625 -1.921875 Z M 7.71875 -10.78125 C 7 -10.070312 6.640625 -9.160156 6.640625 -8.046875 C 6.640625 -6.941406 6.984375 -6.035156 7.671875 -5.328125 C 8.367188 -4.628906 9.28125 -4.28125 10.40625 -4.28125 C 11.5 -4.28125 12.394531 -4.632812 13.09375 -5.34375 C 13.800781 -6.0625 14.15625 -6.960938 14.15625 -8.046875 C 14.15625 -9.160156 13.789062 -10.070312 13.0625 -10.78125 C 12.34375 -11.5 11.457031 -11.859375 10.40625 -11.859375 C 9.34375 -11.859375 8.445312 -11.5 7.71875 -10.78125 Z M 7.71875 -10.78125 "/></g></g></g><g fill="#5080fd" fill-opacity="1"><g transform="translate(120.096537, 211.187434)"><g><path d="M 5.609375 -18.671875 L 5.609375 -3.734375 L 12.03125 -3.734375 L 12.03125 0 L 1.359375 0 L 1.359375 -18.671875 Z M 5.609375 -18.671875 "/></g></g></g><g fill="#5080fd" fill-opacity="1"><g transform="translate(132.873902, 211.187434)"><g><path d="M 2.140625 -1.4375 C 1.054688 -2.625 0.515625 -4.078125 0.515625 -5.796875 C 0.515625 -7.515625 1.054688 -8.96875 2.140625 -10.15625 C 3.234375 -11.351562 4.617188 -11.953125 6.296875 -11.953125 C 7.828125 -11.953125 9.09375 -11.46875 10.09375 -10.5 L 10.09375 -11.609375 L 14.09375 -11.609375 L 14.09375 0 L 10.140625 0 L 10.140625 -1.3125 L 10.09375 -1.3125 C 9.09375 -0.207031 7.828125 0.34375 6.296875 0.34375 C 4.617188 0.34375 3.234375 -0.25 2.140625 -1.4375 Z M 5.546875 -7.75 C 5.035156 -7.238281 4.78125 -6.582031 4.78125 -5.78125 C 4.78125 -4.988281 5.023438 -4.335938 5.515625 -3.828125 C 6.015625 -3.328125 6.671875 -3.078125 7.484375 -3.078125 C 8.273438 -3.078125 8.921875 -3.332031 9.421875 -3.84375 C 9.929688 -4.351562 10.1875 -5.003906 10.1875 -5.796875 C 10.1875 -6.585938 9.925781 -7.238281 9.40625 -7.75 C 8.882812 -8.269531 8.242188 -8.53125 7.484375 -8.53125 C 6.710938 -8.53125 6.066406 -8.269531 5.546875 -7.75 Z M 5.546875 -7.75 "/></g></g></g><g fill="#5080fd" fill-opacity="1"><g transform="translate(148.319815, 211.187434)"><g><path d="M 6.40625 -11.953125 C 7.0625 -11.953125 7.710938 -11.875 8.359375 -11.71875 C 9.015625 -11.570312 9.5 -11.421875 9.8125 -11.265625 L 10.296875 -11.046875 L 8.984375 -8.421875 C 8.078125 -8.898438 7.21875 -9.140625 6.40625 -9.140625 C 5.945312 -9.140625 5.625 -9.085938 5.4375 -8.984375 C 5.25 -8.890625 5.15625 -8.707031 5.15625 -8.4375 C 5.15625 -8.375 5.160156 -8.3125 5.171875 -8.25 C 5.191406 -8.195312 5.222656 -8.144531 5.265625 -8.09375 C 5.316406 -8.039062 5.359375 -7.992188 5.390625 -7.953125 C 5.429688 -7.910156 5.492188 -7.867188 5.578125 -7.828125 C 5.671875 -7.785156 5.742188 -7.75 5.796875 -7.71875 C 5.847656 -7.695312 5.9375 -7.664062 6.0625 -7.625 C 6.1875 -7.582031 6.273438 -7.546875 6.328125 -7.515625 C 6.390625 -7.492188 6.492188 -7.460938 6.640625 -7.421875 C 6.785156 -7.378906 6.894531 -7.347656 6.96875 -7.328125 C 7.4375 -7.191406 7.84375 -7.039062 8.1875 -6.875 C 8.53125 -6.707031 8.894531 -6.476562 9.28125 -6.1875 C 9.664062 -5.90625 9.960938 -5.546875 10.171875 -5.109375 C 10.390625 -4.671875 10.5 -4.175781 10.5 -3.625 C 10.5 -0.976562 8.664062 0.34375 5 0.34375 C 4.164062 0.34375 3.375 0.210938 2.625 -0.046875 C 1.882812 -0.304688 1.347656 -0.5625 1.015625 -0.8125 L 0.515625 -1.21875 L 2.15625 -3.953125 C 2.269531 -3.847656 2.425781 -3.722656 2.625 -3.578125 C 2.820312 -3.441406 3.175781 -3.25 3.6875 -3 C 4.195312 -2.75 4.640625 -2.625 5.015625 -2.625 C 5.847656 -2.625 6.265625 -2.90625 6.265625 -3.46875 C 6.265625 -3.71875 6.160156 -3.914062 5.953125 -4.0625 C 5.742188 -4.207031 5.382812 -4.367188 4.875 -4.546875 C 4.375 -4.722656 3.976562 -4.890625 3.6875 -5.046875 C 2.96875 -5.421875 2.394531 -5.84375 1.96875 -6.3125 C 1.539062 -6.789062 1.328125 -7.425781 1.328125 -8.21875 C 1.328125 -9.394531 1.785156 -10.3125 2.703125 -10.96875 C 3.617188 -11.625 4.851562 -11.953125 6.40625 -11.953125 Z M 6.40625 -11.953125 "/></g></g></g><g fill="#5080fd" fill-opacity="1"><g transform="translate(159.4463, 211.187434)"><g/></g></g><g fill="#5080fd" fill-opacity="1"><g transform="translate(165.620143, 211.187434)"><g><path d="M 5.609375 -11.578125 L 5.609375 0 L 1.359375 0 L 1.359375 -18.671875 L 5.609375 -18.671875 L 13.03125 -7.078125 L 13.078125 -7.078125 L 13.078125 -18.671875 L 17.328125 -18.671875 L 17.328125 0 L 13.078125 0 L 5.65625 -11.578125 Z M 5.609375 -11.578125 "/></g></g></g><g fill="#5080fd" fill-opacity="1"><g transform="translate(184.299965, 211.187434)"><g><path d="M 5.140625 -11.609375 L 5.140625 -6.09375 C 5.140625 -4.9375 5.3125 -4.117188 5.65625 -3.640625 C 6 -3.160156 6.585938 -2.921875 7.421875 -2.921875 C 8.253906 -2.921875 8.84375 -3.160156 9.1875 -3.640625 C 9.53125 -4.117188 9.703125 -4.9375 9.703125 -6.09375 L 9.703125 -11.609375 L 13.703125 -11.609375 L 13.703125 -5.109375 C 13.703125 -3.179688 13.203125 -1.789062 12.203125 -0.9375 C 11.203125 -0.0820312 9.609375 0.34375 7.421875 0.34375 C 5.234375 0.34375 3.632812 -0.0820312 2.625 -0.9375 C 1.625 -1.789062 1.125 -3.179688 1.125 -5.109375 L 1.125 -11.609375 Z M 5.140625 -11.609375 "/></g></g></g><g fill="#5080fd" fill-opacity="1"><g transform="translate(199.135279, 211.187434)"><g><path d="M 13.296875 -10.15625 C 14.390625 -8.96875 14.9375 -7.515625 14.9375 -5.796875 C 14.9375 -4.078125 14.390625 -2.625 13.296875 -1.4375 C 12.210938 -0.25 10.832031 0.34375 9.15625 0.34375 C 7.625 0.34375 6.359375 -0.207031 5.359375 -1.3125 L 5.3125 -1.3125 L 5.3125 0 L 1.359375 0 L 1.359375 -19.453125 L 5.359375 -19.453125 L 5.359375 -10.5 C 6.359375 -11.46875 7.625 -11.953125 9.15625 -11.953125 C 10.832031 -11.953125 12.210938 -11.351562 13.296875 -10.15625 Z M 9.921875 -3.828125 C 10.421875 -4.335938 10.671875 -4.988281 10.671875 -5.78125 C 10.671875 -6.582031 10.410156 -7.238281 9.890625 -7.75 C 9.378906 -8.269531 8.738281 -8.53125 7.96875 -8.53125 C 7.207031 -8.53125 6.566406 -8.269531 6.046875 -7.75 C 5.523438 -7.238281 5.265625 -6.585938 5.265625 -5.796875 C 5.265625 -5.003906 5.515625 -4.351562 6.015625 -3.84375 C 6.523438 -3.332031 7.175781 -3.078125 7.96875 -3.078125 C 8.78125 -3.078125 9.429688 -3.328125 9.921875 -3.828125 Z M 9.921875 -3.828125 "/></g></g></g><g fill="#5080fd" fill-opacity="1"><g transform="translate(214.581192, 211.187434)"><g><path d="M 13.09375 -5.25 L 4.6875 -5.25 C 4.6875 -4.4375 4.945312 -3.832031 5.46875 -3.4375 C 6 -3.039062 6.570312 -2.84375 7.1875 -2.84375 C 7.84375 -2.84375 8.359375 -2.929688 8.734375 -3.109375 C 9.109375 -3.285156 9.535156 -3.628906 10.015625 -4.140625 L 12.921875 -2.6875 C 11.710938 -0.664062 9.707031 0.34375 6.90625 0.34375 C 5.15625 0.34375 3.648438 -0.253906 2.390625 -1.453125 C 1.140625 -2.660156 0.515625 -4.109375 0.515625 -5.796875 C 0.515625 -7.484375 1.140625 -8.929688 2.390625 -10.140625 C 3.648438 -11.347656 5.15625 -11.953125 6.90625 -11.953125 C 8.738281 -11.953125 10.234375 -11.414062 11.390625 -10.34375 C 12.546875 -9.28125 13.125 -7.765625 13.125 -5.796875 C 13.125 -5.523438 13.113281 -5.34375 13.09375 -5.25 Z M 4.796875 -7.46875 L 9.203125 -7.46875 C 9.117188 -8.070312 8.882812 -8.535156 8.5 -8.859375 C 8.113281 -9.179688 7.617188 -9.34375 7.015625 -9.34375 C 6.347656 -9.34375 5.816406 -9.164062 5.421875 -8.8125 C 5.035156 -8.46875 4.828125 -8.019531 4.796875 -7.46875 Z M 4.796875 -7.46875 "/></g></g></g><g fill="#5080fd" fill-opacity="1"><g transform="translate(228.217918, 211.187434)"><g><path d="M 6.40625 -11.953125 C 7.0625 -11.953125 7.710938 -11.875 8.359375 -11.71875 C 9.015625 -11.570312 9.5 -11.421875 9.8125 -11.265625 L 10.296875 -11.046875 L 8.984375 -8.421875 C 8.078125 -8.898438 7.21875 -9.140625 6.40625 -9.140625 C 5.945312 -9.140625 5.625 -9.085938 5.4375 -8.984375 C 5.25 -8.890625 5.15625 -8.707031 5.15625 -8.4375 C 5.15625 -8.375 5.160156 -8.3125 5.171875 -8.25 C 5.191406 -8.195312 5.222656 -8.144531 5.265625 -8.09375 C 5.316406 -8.039062 5.359375 -7.992188 5.390625 -7.953125 C 5.429688 -7.910156 5.492188 -7.867188 5.578125 -7.828125 C 5.671875 -7.785156 5.742188 -7.75 5.796875 -7.71875 C 5.847656 -7.695312 5.9375 -7.664062 6.0625 -7.625 C 6.1875 -7.582031 6.273438 -7.546875 6.328125 -7.515625 C 6.390625 -7.492188 6.492188 -7.460938 6.640625 -7.421875 C 6.785156 -7.378906 6.894531 -7.347656 6.96875 -7.328125 C 7.4375 -7.191406 7.84375 -7.039062 8.1875 -6.875 C 8.53125 -6.707031 8.894531 -6.476562 9.28125 -6.1875 C 9.664062 -5.90625 9.960938 -5.546875 10.171875 -5.109375 C 10.390625 -4.671875 10.5 -4.175781 10.5 -3.625 C 10.5 -0.976562 8.664062 0.34375 5 0.34375 C 4.164062 0.34375 3.375 0.210938 2.625 -0.046875 C 1.882812 -0.304688 1.347656 -0.5625 1.015625 -0.8125 L 0.515625 -1.21875 L 2.15625 -3.953125 C 2.269531 -3.847656 2.425781 -3.722656 2.625 -3.578125 C 2.820312 -3.441406 3.175781 -3.25 3.6875 -3 C 4.195312 -2.75 4.640625 -2.625 5.015625 -2.625 C 5.847656 -2.625 6.265625 -2.90625 6.265625 -3.46875 C 6.265625 -3.71875 6.160156 -3.914062 5.953125 -4.0625 C 5.742188 -4.207031 5.382812 -4.367188 4.875 -4.546875 C 4.375 -4.722656 3.976562 -4.890625 3.6875 -5.046875 C 2.96875 -5.421875 2.394531 -5.84375 1.96875 -6.3125 C 1.539062 -6.789062 1.328125 -7.425781 1.328125 -8.21875 C 1.328125 -9.394531 1.785156 -10.3125 2.703125 -10.96875 C 3.617188 -11.625 4.851562 -11.953125 6.40625 -11.953125 Z M 6.40625 -11.953125 "/></g></g></g></svg>