<svg xmlns="http://www.w3.org/2000/svg" xmlns:xlink="http://www.w3.org/1999/xlink" width="500" zoomAndPan="magnify" viewBox="0 0 375 374.999991" height="500" preserveAspectRatio="xMidYMid meet" version="1.0"><defs><g/></defs><g fill="#fdfafa" fill-opacity="1"><g transform="translate(14.134808, 180.935608)"><g><path d="M 22.984375 -7.828125 C 24.304688 -7.828125 25.585938 -8.023438 26.828125 -8.421875 C 28.078125 -8.828125 28.992188 -9.210938 29.578125 -9.578125 L 30.453125 -10.1875 L 34.125 -2.8125 C 34.007812 -2.71875 33.84375 -2.59375 33.625 -2.4375 C 33.40625 -2.289062 32.90625 -2.007812 32.125 -1.59375 C 31.34375 -1.175781 30.503906 -0.8125 29.609375 -0.5 C 28.722656 -0.195312 27.554688 0.0703125 26.109375 0.3125 C 24.671875 0.5625 23.1875 0.6875 21.65625 0.6875 C 18.125 0.6875 14.773438 -0.175781 11.609375 -1.90625 C 8.441406 -3.644531 5.890625 -6.035156 3.953125 -9.078125 C 2.023438 -12.117188 1.0625 -15.40625 1.0625 -18.9375 C 1.0625 -21.601562 1.628906 -24.164062 2.765625 -26.625 C 3.898438 -29.082031 5.410156 -31.1875 7.296875 -32.9375 C 9.191406 -34.6875 11.394531 -36.082031 13.90625 -37.125 C 16.425781 -38.164062 19.007812 -38.6875 21.65625 -38.6875 C 24.101562 -38.6875 26.363281 -38.394531 28.4375 -37.8125 C 30.507812 -37.226562 31.976562 -36.644531 32.84375 -36.0625 L 34.125 -35.1875 L 30.453125 -27.828125 C 30.234375 -28.003906 29.90625 -28.222656 29.46875 -28.484375 C 29.039062 -28.742188 28.179688 -29.085938 26.890625 -29.515625 C 25.609375 -29.953125 24.304688 -30.171875 22.984375 -30.171875 C 20.898438 -30.171875 19.023438 -29.832031 17.359375 -29.15625 C 15.703125 -28.476562 14.390625 -27.585938 13.421875 -26.484375 C 12.453125 -25.378906 11.710938 -24.1875 11.203125 -22.90625 C 10.703125 -21.632812 10.453125 -20.34375 10.453125 -19.03125 C 10.453125 -16.132812 11.535156 -13.539062 13.703125 -11.25 C 15.867188 -8.96875 18.960938 -7.828125 22.984375 -7.828125 Z M 22.984375 -7.828125 "/></g></g></g><g fill="#fdfafa" fill-opacity="1"><g transform="translate(48.804081, 180.935608)"><g><path d="M 26.671875 -10.6875 L 9.53125 -10.6875 C 9.53125 -9.03125 10.066406 -7.800781 11.140625 -7 C 12.222656 -6.195312 13.390625 -5.796875 14.640625 -5.796875 C 15.960938 -5.796875 17.007812 -5.972656 17.78125 -6.328125 C 18.550781 -6.679688 19.425781 -7.378906 20.40625 -8.421875 L 26.296875 -5.484375 C 23.835938 -1.367188 19.753906 0.6875 14.046875 0.6875 C 10.484375 0.6875 7.425781 -0.53125 4.875 -2.96875 C 2.332031 -5.414062 1.0625 -8.359375 1.0625 -11.796875 C 1.0625 -15.234375 2.332031 -18.179688 4.875 -20.640625 C 7.425781 -23.097656 10.484375 -24.328125 14.046875 -24.328125 C 17.796875 -24.328125 20.84375 -23.242188 23.1875 -21.078125 C 25.539062 -18.910156 26.71875 -15.816406 26.71875 -11.796875 C 26.71875 -11.242188 26.703125 -10.875 26.671875 -10.6875 Z M 9.765625 -15.203125 L 18.75 -15.203125 C 18.5625 -16.429688 18.078125 -17.375 17.296875 -18.03125 C 16.515625 -18.695312 15.507812 -19.03125 14.28125 -19.03125 C 12.925781 -19.03125 11.847656 -18.675781 11.046875 -17.96875 C 10.253906 -17.257812 9.828125 -16.335938 9.765625 -15.203125 Z M 9.765625 -15.203125 "/></g></g></g><g fill="#fdfafa" fill-opacity="1"><g transform="translate(76.567124, 180.935608)"><g><path d="M 2.765625 0 L 2.765625 -23.625 L 10.921875 -23.625 L 10.921875 -21.140625 L 11.015625 -21.140625 C 13.128906 -23.265625 15.382812 -24.328125 17.78125 -24.328125 C 18.945312 -24.328125 20.101562 -24.171875 21.25 -23.859375 C 22.40625 -23.554688 23.507812 -23.082031 24.5625 -22.4375 C 25.625 -21.789062 26.484375 -20.875 27.140625 -19.6875 C 27.804688 -18.507812 28.140625 -17.132812 28.140625 -15.5625 L 28.140625 0 L 19.984375 0 L 19.984375 -13.359375 C 19.984375 -14.585938 19.59375 -15.660156 18.8125 -16.578125 C 18.03125 -17.503906 17.007812 -17.96875 15.75 -17.96875 C 14.519531 -17.96875 13.40625 -17.488281 12.40625 -16.53125 C 11.414062 -15.582031 10.921875 -14.523438 10.921875 -13.359375 L 10.921875 0 Z M 2.765625 0 "/></g></g></g><g fill="#fdfafa" fill-opacity="1"><g transform="translate(107.000585, 180.935608)"><g><path d="M 4.140625 -23.625 L 4.140625 -32.421875 L 12.296875 -32.421875 L 12.296875 -23.625 L 17.265625 -23.625 L 17.265625 -17.40625 L 12.296875 -17.40625 L 12.296875 -9.90625 C 12.296875 -7.726562 12.910156 -6.640625 14.140625 -6.640625 C 14.453125 -6.640625 14.773438 -6.695312 15.109375 -6.8125 C 15.441406 -6.9375 15.703125 -7.0625 15.890625 -7.1875 L 16.171875 -7.375 L 18.1875 -0.78125 C 16.4375 0.195312 14.441406 0.6875 12.203125 0.6875 C 10.671875 0.6875 9.351562 0.421875 8.25 -0.109375 C 7.144531 -0.648438 6.304688 -1.375 5.734375 -2.28125 C 5.160156 -3.1875 4.75 -4.140625 4.5 -5.140625 C 4.257812 -6.140625 4.140625 -7.207031 4.140625 -8.34375 L 4.140625 -17.40625 L 0.734375 -17.40625 L 0.734375 -23.625 Z M 4.140625 -23.625 "/></g></g></g><g fill="#fdfafa" fill-opacity="1"><g transform="translate(125.186979, 180.935608)"><g><path d="M 2.765625 0 L 2.765625 -23.625 L 10.921875 -23.625 L 10.921875 -20.21875 L 11.015625 -20.21875 C 11.066406 -20.34375 11.160156 -20.492188 11.296875 -20.671875 C 11.441406 -20.859375 11.742188 -21.179688 12.203125 -21.640625 C 12.660156 -22.109375 13.148438 -22.523438 13.671875 -22.890625 C 14.203125 -23.265625 14.878906 -23.597656 15.703125 -23.890625 C 16.535156 -24.179688 17.378906 -24.328125 18.234375 -24.328125 C 19.128906 -24.328125 20.003906 -24.203125 20.859375 -23.953125 C 21.722656 -23.703125 22.351562 -23.457031 22.75 -23.21875 L 23.40625 -22.84375 L 19.984375 -15.9375 C 18.972656 -16.800781 17.5625 -17.234375 15.75 -17.234375 C 14.769531 -17.234375 13.925781 -17.015625 13.21875 -16.578125 C 12.507812 -16.148438 12.007812 -15.628906 11.71875 -15.015625 C 11.425781 -14.398438 11.21875 -13.878906 11.09375 -13.453125 C 10.976562 -13.023438 10.921875 -12.6875 10.921875 -12.4375 L 10.921875 0 Z M 2.765625 0 "/></g></g></g><g fill="#fdfafa" fill-opacity="1"><g transform="translate(148.115653, 180.935608)"><g><path d="M 5 -2.8125 C 2.375 -5.144531 1.0625 -8.132812 1.0625 -11.78125 C 1.0625 -15.4375 2.425781 -18.441406 5.15625 -20.796875 C 7.894531 -23.148438 11.273438 -24.328125 15.296875 -24.328125 C 19.253906 -24.328125 22.59375 -23.144531 25.3125 -20.78125 C 28.03125 -18.414062 29.390625 -15.421875 29.390625 -11.796875 C 29.390625 -8.171875 28.0625 -5.179688 25.40625 -2.828125 C 22.75 -0.484375 19.378906 0.6875 15.296875 0.6875 C 11.054688 0.6875 7.625 -0.476562 5 -2.8125 Z M 11.296875 -15.796875 C 10.242188 -14.753906 9.71875 -13.414062 9.71875 -11.78125 C 9.71875 -10.15625 10.222656 -8.828125 11.234375 -7.796875 C 12.253906 -6.773438 13.59375 -6.265625 15.25 -6.265625 C 16.84375 -6.265625 18.15625 -6.785156 19.1875 -7.828125 C 20.21875 -8.867188 20.734375 -10.191406 20.734375 -11.796875 C 20.734375 -13.421875 20.203125 -14.753906 19.140625 -15.796875 C 18.078125 -16.835938 16.78125 -17.359375 15.25 -17.359375 C 13.675781 -17.359375 12.359375 -16.835938 11.296875 -15.796875 Z M 11.296875 -15.796875 "/></g></g></g><g fill="#fdfafa" fill-opacity="1"><g transform="translate(178.549113, 180.935608)"><g/></g></g><g fill="#fdfafa" fill-opacity="1"><g transform="translate(191.118453, 180.935608)"><g><path d="M 34.171875 0 L 32.375 -22.53125 L 32.15625 -22.53125 L 24.359375 -0.234375 L 19.203125 -0.234375 L 11.421875 -22.53125 L 11.1875 -22.53125 L 9.390625 0 L 0.734375 0 L 4.140625 -38 L 13.359375 -38 L 21.78125 -16.078125 L 30.21875 -38 L 39.421875 -38 L 42.84375 0 Z M 34.171875 0 "/></g></g></g><g fill="#fdfafa" fill-opacity="1"><g transform="translate(234.673732, 180.935608)"><g><path d="M 11.1875 -30.578125 L 20.546875 -38.6875 L 24.734375 -33.390625 L 13.765625 -27.03125 Z M 26.671875 -10.6875 L 9.53125 -10.6875 C 9.53125 -9.03125 10.066406 -7.800781 11.140625 -7 C 12.222656 -6.195312 13.390625 -5.796875 14.640625 -5.796875 C 15.960938 -5.796875 17.007812 -5.972656 17.78125 -6.328125 C 18.550781 -6.679688 19.425781 -7.378906 20.40625 -8.421875 L 26.296875 -5.484375 C 23.835938 -1.367188 19.753906 0.6875 14.046875 0.6875 C 10.484375 0.6875 7.425781 -0.53125 4.875 -2.96875 C 2.332031 -5.414062 1.0625 -8.359375 1.0625 -11.796875 C 1.0625 -15.234375 2.332031 -18.179688 4.875 -20.640625 C 7.425781 -23.097656 10.484375 -24.328125 14.046875 -24.328125 C 17.796875 -24.328125 20.84375 -23.242188 23.1875 -21.078125 C 25.539062 -18.910156 26.71875 -15.816406 26.71875 -11.796875 C 26.71875 -11.242188 26.703125 -10.875 26.671875 -10.6875 Z M 9.765625 -15.203125 L 18.75 -15.203125 C 18.5625 -16.429688 18.078125 -17.375 17.296875 -18.03125 C 16.515625 -18.695312 15.507812 -19.03125 14.28125 -19.03125 C 12.925781 -19.03125 11.847656 -18.675781 11.046875 -17.96875 C 10.253906 -17.257812 9.828125 -16.335938 9.765625 -15.203125 Z M 9.765625 -15.203125 "/></g></g></g><g fill="#fdfafa" fill-opacity="1"><g transform="translate(262.436775, 180.935608)"><g><path d="M 4.375 -2.921875 C 2.164062 -5.335938 1.0625 -8.296875 1.0625 -11.796875 C 1.0625 -15.296875 2.164062 -18.257812 4.375 -20.6875 C 6.582031 -23.113281 9.394531 -24.328125 12.8125 -24.328125 C 15.9375 -24.328125 18.515625 -23.34375 20.546875 -21.375 L 20.546875 -39.609375 L 28.703125 -39.609375 L 28.703125 0 L 20.640625 0 L 20.640625 -2.671875 L 20.546875 -2.671875 C 18.515625 -0.429688 15.9375 0.6875 12.8125 0.6875 C 9.394531 0.6875 6.582031 -0.515625 4.375 -2.921875 Z M 11.296875 -15.796875 C 10.242188 -14.753906 9.71875 -13.414062 9.71875 -11.78125 C 9.71875 -10.15625 10.222656 -8.828125 11.234375 -7.796875 C 12.253906 -6.773438 13.59375 -6.265625 15.25 -6.265625 C 16.84375 -6.265625 18.15625 -6.785156 19.1875 -7.828125 C 20.21875 -8.867188 20.734375 -10.191406 20.734375 -11.796875 C 20.734375 -13.421875 20.203125 -14.753906 19.140625 -15.796875 C 18.078125 -16.835938 16.78125 -17.359375 15.25 -17.359375 C 13.675781 -17.359375 12.359375 -16.835938 11.296875 -15.796875 Z M 11.296875 -15.796875 "/></g></g></g><g fill="#fdfafa" fill-opacity="1"><g transform="translate(293.88313, 180.935608)"><g><path d="M 3.546875 -36.796875 C 4.492188 -37.753906 5.628906 -38.234375 6.953125 -38.234375 C 8.273438 -38.234375 9.410156 -37.753906 10.359375 -36.796875 C 11.316406 -35.847656 11.796875 -34.710938 11.796875 -33.390625 C 11.796875 -32.078125 11.316406 -30.941406 10.359375 -29.984375 C 9.410156 -29.035156 8.273438 -28.5625 6.953125 -28.5625 C 5.628906 -28.5625 4.492188 -29.035156 3.546875 -29.984375 C 2.597656 -30.941406 2.125 -32.078125 2.125 -33.390625 C 2.125 -34.710938 2.597656 -35.847656 3.546875 -36.796875 Z M 2.765625 -23.625 L 2.765625 0 L 10.921875 0 L 10.921875 -23.625 Z M 2.765625 -23.625 "/></g></g></g><g fill="#fdfafa" fill-opacity="1"><g transform="translate(307.787678, 180.935608)"><g><path d="M 15.34375 -17.640625 C 13.800781 -17.640625 12.476562 -17.070312 11.375 -15.9375 C 10.269531 -14.800781 9.71875 -13.4375 9.71875 -11.84375 C 9.71875 -10.207031 10.269531 -8.820312 11.375 -7.6875 C 12.476562 -6.550781 13.800781 -5.984375 15.34375 -5.984375 C 16.070312 -5.984375 16.765625 -6.078125 17.421875 -6.265625 C 18.085938 -6.453125 18.578125 -6.632812 18.890625 -6.8125 L 19.296875 -7.09375 L 22.0625 -1.421875 C 21.84375 -1.273438 21.539062 -1.082031 21.15625 -0.84375 C 20.78125 -0.613281 19.90625 -0.300781 18.53125 0.09375 C 17.164062 0.488281 15.703125 0.6875 14.140625 0.6875 C 10.671875 0.6875 7.625 -0.53125 5 -2.96875 C 2.375 -5.414062 1.0625 -8.34375 1.0625 -11.75 C 1.0625 -15.1875 2.375 -18.140625 5 -20.609375 C 7.625 -23.085938 10.671875 -24.328125 14.140625 -24.328125 C 15.703125 -24.328125 17.144531 -24.140625 18.46875 -23.765625 C 19.789062 -23.398438 20.726562 -23.03125 21.28125 -22.65625 L 22.0625 -22.109375 L 19.296875 -16.53125 C 18.285156 -17.269531 16.96875 -17.640625 15.34375 -17.640625 Z M 15.34375 -17.640625 "/></g></g></g><g fill="#fdfafa" fill-opacity="1"><g transform="translate(330.394059, 180.935608)"><g><path d="M 5 -2.8125 C 2.375 -5.144531 1.0625 -8.132812 1.0625 -11.78125 C 1.0625 -15.4375 2.425781 -18.441406 5.15625 -20.796875 C 7.894531 -23.148438 11.273438 -24.328125 15.296875 -24.328125 C 19.253906 -24.328125 22.59375 -23.144531 25.3125 -20.78125 C 28.03125 -18.414062 29.390625 -15.421875 29.390625 -11.796875 C 29.390625 -8.171875 28.0625 -5.179688 25.40625 -2.828125 C 22.75 -0.484375 19.378906 0.6875 15.296875 0.6875 C 11.054688 0.6875 7.625 -0.476562 5 -2.8125 Z M 11.296875 -15.796875 C 10.242188 -14.753906 9.71875 -13.414062 9.71875 -11.78125 C 9.71875 -10.15625 10.222656 -8.828125 11.234375 -7.796875 C 12.253906 -6.773438 13.59375 -6.265625 15.25 -6.265625 C 16.84375 -6.265625 18.15625 -6.785156 19.1875 -7.828125 C 20.21875 -8.867188 20.734375 -10.191406 20.734375 -11.796875 C 20.734375 -13.421875 20.203125 -14.753906 19.140625 -15.796875 C 18.078125 -16.835938 16.78125 -17.359375 15.25 -17.359375 C 13.675781 -17.359375 12.359375 -16.835938 11.296875 -15.796875 Z M 11.296875 -15.796875 "/></g></g></g><g fill="#5080fd" fill-opacity="1"><g transform="translate(15.359852, 222.452687)"><g><path d="M 8.21875 -27.328125 L 8.21875 -5.46875 L 17.625 -5.46875 L 17.625 0 L 1.984375 0 L 1.984375 -27.328125 Z M 8.21875 -27.328125 "/></g></g></g><g fill="#5080fd" fill-opacity="1"><g transform="translate(34.065446, 222.452687)"><g><path d="M 3.140625 -2.09375 C 1.554688 -3.832031 0.765625 -5.957031 0.765625 -8.46875 C 0.765625 -10.988281 1.554688 -13.117188 3.140625 -14.859375 C 4.734375 -16.609375 6.753906 -17.484375 9.203125 -17.484375 C 11.460938 -17.484375 13.320312 -16.78125 14.78125 -15.375 L 14.78125 -17 L 20.640625 -17 L 20.640625 0 L 14.84375 0 L 14.84375 -1.921875 L 14.78125 -1.921875 C 13.320312 -0.304688 11.460938 0.5 9.203125 0.5 C 6.753906 0.5 4.734375 -0.363281 3.140625 -2.09375 Z M 8.125 -11.359375 C 7.363281 -10.609375 6.984375 -9.644531 6.984375 -8.46875 C 6.984375 -7.300781 7.347656 -6.347656 8.078125 -5.609375 C 8.804688 -4.867188 9.769531 -4.5 10.96875 -4.5 C 12.113281 -4.5 13.054688 -4.875 13.796875 -5.625 C 14.535156 -6.375 14.90625 -7.328125 14.90625 -8.484375 C 14.90625 -9.648438 14.523438 -10.609375 13.765625 -11.359375 C 13.003906 -12.109375 12.070312 -12.484375 10.96875 -12.484375 C 9.84375 -12.484375 8.894531 -12.109375 8.125 -11.359375 Z M 8.125 -11.359375 "/></g></g></g><g fill="#5080fd" fill-opacity="1"><g transform="translate(56.677696, 222.452687)"><g><path d="M 9.375 -17.484375 C 10.34375 -17.484375 11.300781 -17.375 12.25 -17.15625 C 13.207031 -16.9375 13.914062 -16.71875 14.375 -16.5 L 15.078125 -16.171875 L 13.15625 -12.328125 C 11.820312 -13.023438 10.5625 -13.375 9.375 -13.375 C 8.707031 -13.375 8.234375 -13.300781 7.953125 -13.15625 C 7.679688 -13.019531 7.546875 -12.753906 7.546875 -12.359375 C 7.546875 -12.265625 7.554688 -12.171875 7.578125 -12.078125 C 7.609375 -11.992188 7.65625 -11.910156 7.71875 -11.828125 C 7.78125 -11.753906 7.835938 -11.691406 7.890625 -11.640625 C 7.953125 -11.585938 8.046875 -11.523438 8.171875 -11.453125 C 8.304688 -11.390625 8.410156 -11.34375 8.484375 -11.3125 C 8.566406 -11.28125 8.695312 -11.226562 8.875 -11.15625 C 9.050781 -11.09375 9.179688 -11.046875 9.265625 -11.015625 C 9.359375 -10.984375 9.507812 -10.929688 9.71875 -10.859375 C 9.925781 -10.796875 10.085938 -10.753906 10.203125 -10.734375 C 10.890625 -10.535156 11.484375 -10.3125 11.984375 -10.0625 C 12.492188 -9.820312 13.03125 -9.492188 13.59375 -9.078125 C 14.15625 -8.660156 14.59375 -8.128906 14.90625 -7.484375 C 15.21875 -6.847656 15.375 -6.117188 15.375 -5.296875 C 15.375 -1.429688 12.691406 0.5 7.328125 0.5 C 6.109375 0.5 4.953125 0.3125 3.859375 -0.0625 C 2.765625 -0.4375 1.972656 -0.8125 1.484375 -1.1875 L 0.765625 -1.78125 L 3.140625 -5.796875 C 3.316406 -5.640625 3.546875 -5.457031 3.828125 -5.25 C 4.117188 -5.039062 4.640625 -4.753906 5.390625 -4.390625 C 6.148438 -4.023438 6.804688 -3.84375 7.359375 -3.84375 C 8.566406 -3.84375 9.171875 -4.25 9.171875 -5.0625 C 9.171875 -5.4375 9.015625 -5.726562 8.703125 -5.9375 C 8.398438 -6.15625 7.878906 -6.394531 7.140625 -6.65625 C 6.398438 -6.925781 5.820312 -7.171875 5.40625 -7.390625 C 4.34375 -7.941406 3.5 -8.5625 2.875 -9.25 C 2.257812 -9.945312 1.953125 -10.875 1.953125 -12.03125 C 1.953125 -13.75 2.617188 -15.085938 3.953125 -16.046875 C 5.296875 -17.003906 7.101562 -17.484375 9.375 -17.484375 Z M 9.375 -17.484375 "/></g></g></g><g fill="#5080fd" fill-opacity="1"><g transform="translate(72.966461, 222.452687)"><g/></g></g><g fill="#5080fd" fill-opacity="1"><g transform="translate(82.00474, 222.452687)"><g><path d="M 8.21875 -16.953125 L 8.21875 0 L 1.984375 0 L 1.984375 -27.328125 L 8.21875 -27.328125 L 19.078125 -10.375 L 19.140625 -10.375 L 19.140625 -27.328125 L 25.375 -27.328125 L 25.375 0 L 19.140625 0 L 8.28125 -16.953125 Z M 8.21875 -16.953125 "/></g></g></g><g fill="#5080fd" fill-opacity="1"><g transform="translate(109.351315, 222.452687)"><g><path d="M 7.515625 -17 L 7.515625 -8.90625 C 7.515625 -7.226562 7.769531 -6.035156 8.28125 -5.328125 C 8.789062 -4.617188 9.648438 -4.265625 10.859375 -4.265625 C 12.078125 -4.265625 12.9375 -4.617188 13.4375 -5.328125 C 13.945312 -6.035156 14.203125 -7.226562 14.203125 -8.90625 L 14.203125 -17 L 20.078125 -17 L 20.078125 -7.484375 C 20.078125 -4.660156 19.34375 -2.625 17.875 -1.375 C 16.40625 -0.125 14.066406 0.5 10.859375 0.5 C 7.660156 0.5 5.328125 -0.125 3.859375 -1.375 C 2.390625 -2.625 1.65625 -4.660156 1.65625 -7.484375 L 1.65625 -17 Z M 7.515625 -17 "/></g></g></g><g fill="#5080fd" fill-opacity="1"><g transform="translate(131.06967, 222.452687)"><g><path d="M 19.46875 -14.859375 C 21.0625 -13.117188 21.859375 -10.988281 21.859375 -8.46875 C 21.859375 -5.957031 21.0625 -3.832031 19.46875 -2.09375 C 17.882812 -0.363281 15.867188 0.5 13.421875 0.5 C 11.160156 0.5 9.300781 -0.304688 7.84375 -1.921875 L 7.78125 -1.921875 L 7.78125 0 L 1.984375 0 L 1.984375 -28.484375 L 7.84375 -28.484375 L 7.84375 -15.375 C 9.300781 -16.78125 11.160156 -17.484375 13.421875 -17.484375 C 15.867188 -17.484375 17.882812 -16.609375 19.46875 -14.859375 Z M 14.546875 -5.609375 C 15.273438 -6.347656 15.640625 -7.300781 15.640625 -8.46875 C 15.640625 -9.644531 15.253906 -10.609375 14.484375 -11.359375 C 13.722656 -12.109375 12.78125 -12.484375 11.65625 -12.484375 C 10.550781 -12.484375 9.617188 -12.109375 8.859375 -11.359375 C 8.097656 -10.609375 7.71875 -9.648438 7.71875 -8.484375 C 7.71875 -7.328125 8.085938 -6.375 8.828125 -5.625 C 9.566406 -4.875 10.507812 -4.5 11.65625 -4.5 C 12.851562 -4.5 13.816406 -4.867188 14.546875 -5.609375 Z M 14.546875 -5.609375 "/></g></g></g><g fill="#5080fd" fill-opacity="1"><g transform="translate(153.681919, 222.452687)"><g><path d="M 19.171875 -7.6875 L 6.859375 -7.6875 C 6.859375 -6.488281 7.242188 -5.601562 8.015625 -5.03125 C 8.785156 -4.457031 9.625 -4.171875 10.53125 -4.171875 C 11.476562 -4.171875 12.226562 -4.296875 12.78125 -4.546875 C 13.332031 -4.804688 13.960938 -5.3125 14.671875 -6.0625 L 18.921875 -3.9375 C 17.148438 -0.976562 14.210938 0.5 10.109375 0.5 C 7.546875 0.5 5.347656 -0.375 3.515625 -2.125 C 1.679688 -3.882812 0.765625 -6 0.765625 -8.46875 C 0.765625 -10.945312 1.679688 -13.066406 3.515625 -14.828125 C 5.347656 -16.597656 7.546875 -17.484375 10.109375 -17.484375 C 12.796875 -17.484375 14.984375 -16.703125 16.671875 -15.140625 C 18.367188 -13.585938 19.21875 -11.367188 19.21875 -8.484375 C 19.21875 -8.085938 19.203125 -7.820312 19.171875 -7.6875 Z M 7.015625 -10.9375 L 13.484375 -10.9375 C 13.347656 -11.8125 13 -12.488281 12.4375 -12.96875 C 11.875 -13.445312 11.148438 -13.6875 10.265625 -13.6875 C 9.296875 -13.6875 8.523438 -13.429688 7.953125 -12.921875 C 7.378906 -12.410156 7.066406 -11.75 7.015625 -10.9375 Z M 7.015625 -10.9375 "/></g></g></g><g fill="#5080fd" fill-opacity="1"><g transform="translate(173.645586, 222.452687)"><g><path d="M 9.375 -17.484375 C 10.34375 -17.484375 11.300781 -17.375 12.25 -17.15625 C 13.207031 -16.9375 13.914062 -16.71875 14.375 -16.5 L 15.078125 -16.171875 L 13.15625 -12.328125 C 11.820312 -13.023438 10.5625 -13.375 9.375 -13.375 C 8.707031 -13.375 8.234375 -13.300781 7.953125 -13.15625 C 7.679688 -13.019531 7.546875 -12.753906 7.546875 -12.359375 C 7.546875 -12.265625 7.554688 -12.171875 7.578125 -12.078125 C 7.609375 -11.992188 7.65625 -11.910156 7.71875 -11.828125 C 7.78125 -11.753906 7.835938 -11.691406 7.890625 -11.640625 C 7.953125 -11.585938 8.046875 -11.523438 8.171875 -11.453125 C 8.304688 -11.390625 8.410156 -11.34375 8.484375 -11.3125 C 8.566406 -11.28125 8.695312 -11.226562 8.875 -11.15625 C 9.050781 -11.09375 9.179688 -11.046875 9.265625 -11.015625 C 9.359375 -10.984375 9.507812 -10.929688 9.71875 -10.859375 C 9.925781 -10.796875 10.085938 -10.753906 10.203125 -10.734375 C 10.890625 -10.535156 11.484375 -10.3125 11.984375 -10.0625 C 12.492188 -9.820312 13.03125 -9.492188 13.59375 -9.078125 C 14.15625 -8.660156 14.59375 -8.128906 14.90625 -7.484375 C 15.21875 -6.847656 15.375 -6.117188 15.375 -5.296875 C 15.375 -1.429688 12.691406 0.5 7.328125 0.5 C 6.109375 0.5 4.953125 0.3125 3.859375 -0.0625 C 2.765625 -0.4375 1.972656 -0.8125 1.484375 -1.1875 L 0.765625 -1.78125 L 3.140625 -5.796875 C 3.316406 -5.640625 3.546875 -5.457031 3.828125 -5.25 C 4.117188 -5.039062 4.640625 -4.753906 5.390625 -4.390625 C 6.148438 -4.023438 6.804688 -3.84375 7.359375 -3.84375 C 8.566406 -3.84375 9.171875 -4.25 9.171875 -5.0625 C 9.171875 -5.4375 9.015625 -5.726562 8.703125 -5.9375 C 8.398438 -6.15625 7.878906 -6.394531 7.140625 -6.65625 C 6.398438 -6.925781 5.820312 -7.171875 5.40625 -7.390625 C 4.34375 -7.941406 3.5 -8.5625 2.875 -9.25 C 2.257812 -9.945312 1.953125 -10.875 1.953125 -12.03125 C 1.953125 -13.75 2.617188 -15.085938 3.953125 -16.046875 C 5.296875 -17.003906 7.101562 -17.484375 9.375 -17.484375 Z M 9.375 -17.484375 "/></g></g></g></svg>